<svg width="252" height="56" viewBox="0 0 252 56" fill="none" xmlns="http://www.w3.org/2000/svg">
<g id="logo">
<g id="g12">
<path id="path14" d="M50.9598 0.999985H1.7231C1.32313 0.999985 1 1.34426 1 1.77062V54.2245C1 54.6507 1.32313 54.995 1.7231 54.995H30.3547V55H41.6117V54.995H50.9598C51.3596 54.995 51.6826 54.6507 51.6826 54.2245V1.77062C51.6826 1.34426 51.3596 0.999985 50.9598 0.999985ZM35.3108 31.2921L30.3547 27.9641V53.2899H26.9464V10.9742L35.3108 21.1794V31.2921ZM40.1653 53.4543H36.757V34.0862L40.1653 36.3768V53.4543ZM35.3108 53.2899H31.8011V30.7581L35.3108 33.1155V53.2899ZM25.3602 53.3309H22.0098V27.6662L16.996 31.0611V27.5019L25.3602 19.2124V53.3309ZM20.5634 30.4705V53.3359H16.996V32.8844L20.5634 30.4705ZM15.5449 53.3309H12.1944V36.1303L15.5449 33.8653V53.3309ZM50.2363 53.4543H41.6117V35.5295L36.757 32.2681V20.6042L25.5002 6.8707V16.9628L15.5498 26.8239V32.0368L10.7528 35.2828V53.4543H2.4464V2.54082H50.2363V53.4543Z" fill="#2B2B2A" stroke="#2B2B2A" stroke-width="0.288" stroke-miterlimit="22.9256"/>
<path id="path18" d="M67.7724 40.6969C68.073 40.2554 68.3274 39.7033 68.5356 39.0408C68.7435 38.3784 68.8477 37.7037 68.8477 37.0167V18.9834C68.8477 18.2965 68.7435 17.6218 68.5356 16.9594C68.3274 16.2969 68.073 15.7448 67.7724 15.3033V15.1191H73.2176V15.3033C72.917 15.7448 72.6626 16.2969 72.4544 16.9594C72.2465 17.6218 72.1423 18.2965 72.1423 18.9834V27.2273H84.3501V18.9834C84.3501 18.2965 84.2462 17.6218 84.038 16.9594C83.8301 16.2969 83.5757 15.7448 83.2751 15.3033V15.1191H88.72V15.3033C88.4194 15.7448 88.1652 16.2969 87.9571 16.9594C87.7489 17.6218 87.6449 18.2965 87.6449 18.9834V37.0167C87.6449 37.7037 87.7489 38.3784 87.9571 39.0408C88.1652 39.7033 88.4194 40.2554 88.72 40.6969V40.881H83.2751V40.6969C83.5757 40.2554 83.8301 39.7033 84.038 39.0408C84.2462 38.3784 84.3501 37.7037 84.3501 37.0167V28.0001H72.1423V37.0167C72.1423 37.7037 72.2465 38.3784 72.4544 39.0408C72.6626 39.7033 72.917 40.2554 73.2176 40.6969V40.881H67.7724V40.6969ZM104.465 41.2858C102.246 41.2858 100.292 40.7339 98.6042 39.6297C96.9165 38.5257 95.6043 36.9676 94.6679 34.9558C93.7315 32.9439 93.2633 30.6253 93.2633 28.0001C93.2633 25.3748 93.7315 23.0562 94.6679 21.0444C95.6043 19.0325 96.9165 17.4744 98.6042 16.3705C100.292 15.2665 102.246 14.7143 104.465 14.7143C106.685 14.7143 108.639 15.2665 110.327 16.3705C112.014 17.4744 113.327 19.0325 114.263 21.0444C115.199 23.0562 115.668 25.3748 115.668 28.0001C115.668 30.6253 115.199 32.9439 114.263 34.9558C113.327 36.9676 112.014 38.5257 110.327 39.6297C108.639 40.7339 106.685 41.2858 104.465 41.2858ZM104.465 40.4763C105.968 40.4763 107.292 39.9486 108.436 38.8937C109.581 37.8387 110.465 36.3665 111.09 34.4775C111.714 32.5882 112.026 30.429 112.026 28.0001C112.026 25.5712 111.714 23.412 111.09 21.5229C110.465 19.6337 109.581 18.1615 108.436 17.1064C107.292 16.0515 105.968 15.5242 104.465 15.5242C102.963 15.5242 101.639 16.0515 100.494 17.1064C99.3499 18.1615 98.4656 19.6337 97.8413 21.5229C97.2171 23.412 96.9049 25.5712 96.9049 28.0001C96.9049 30.429 97.2171 32.5882 97.8413 34.4775C98.4656 36.3665 99.3499 37.8387 100.494 38.8937C101.639 39.9486 102.963 40.4763 104.465 40.4763ZM138.002 41.1019C136.777 41.1019 135.765 40.783 134.968 40.1451C134.17 39.5071 133.546 38.7218 133.095 37.7897C132.644 36.8573 132.187 35.6673 131.725 34.2198C131.355 33.0175 131.002 32.0483 130.667 31.3123C130.332 30.5763 129.898 29.9629 129.367 29.4723C128.835 28.9814 128.188 28.7361 127.424 28.7361H124.581V37.0167C124.581 37.7037 124.685 38.3784 124.893 39.0408C125.101 39.7033 125.355 40.2554 125.656 40.6969V40.881H120.211V40.6969C120.511 40.2554 120.766 39.7033 120.974 39.0408C121.182 38.3784 121.286 37.7037 121.286 37.0167V18.9834C121.286 18.2965 121.182 17.6218 120.974 16.9594C120.766 16.2969 120.511 15.7448 120.211 15.3033V15.1191H128.742C130.292 15.1191 131.719 15.3646 133.026 15.8554C134.332 16.346 135.378 17.1004 136.164 18.1187C136.95 19.1368 137.343 20.4064 137.343 21.9278C137.343 23.3017 136.997 24.4732 136.303 25.4423C135.609 26.4115 134.731 27.1475 133.667 27.6506C132.604 28.1534 131.517 28.4416 130.407 28.5154V28.5889C131.332 28.6135 132.129 28.9325 132.8 29.5459C133.471 30.1593 134.02 30.9013 134.447 31.7724C134.875 32.6435 135.32 33.729 135.783 35.0293C136.384 36.6732 136.944 37.9185 137.465 38.7649C137.985 39.6114 138.65 40.0345 139.459 40.0345C139.921 40.0345 140.314 39.8629 140.638 39.5193L140.846 39.7033C140.569 40.1695 140.181 40.5191 139.684 40.7522C139.187 40.9854 138.626 41.1019 138.002 41.1019ZM128.291 27.9633C129.956 27.9633 131.303 27.4357 132.332 26.3807C133.361 25.3257 133.875 23.8415 133.875 21.9278C133.875 20.0139 133.343 18.5297 132.28 17.4744C131.216 16.4195 129.794 15.8921 128.014 15.8921C127.482 15.8921 126.898 15.9412 126.263 16.0392C125.627 16.1373 125.066 16.2724 124.581 16.444V27.9633H128.291ZM150.835 41.2858C149.332 41.2858 147.921 41.0957 146.603 40.7154C145.285 40.3352 144.245 39.9118 143.482 39.4458V33.1526H143.829C144.407 35.3361 145.338 37.0782 146.621 38.3784C147.904 39.6787 149.343 40.3289 150.939 40.3289C152.488 40.3289 153.73 39.8506 154.667 38.8937C155.603 37.9368 156.071 36.71 156.071 35.2134C156.071 33.6676 155.563 32.4779 154.545 31.6436C153.528 30.8095 152.129 30.0855 150.349 29.4723C148.777 28.9079 147.505 28.3558 146.534 27.8162C145.563 27.2764 144.771 26.5281 144.158 25.5712C143.546 24.6143 143.239 23.3874 143.239 21.891C143.239 20.517 143.557 19.2839 144.193 18.1922C144.829 17.1004 145.731 16.2479 146.898 15.6345C148.066 15.0211 149.413 14.7143 150.939 14.7143C152.141 14.7143 153.337 14.8862 154.528 15.2297C155.719 15.5732 156.672 15.9412 157.389 16.3337V22.1116H157.043C156.488 20.1488 155.649 18.5847 154.528 17.4194C153.407 16.2539 152.048 15.6712 150.453 15.6712C149.112 15.6712 147.973 16.1068 147.037 16.9776C146.1 17.8487 145.632 19.008 145.632 20.4555C145.632 21.4369 145.892 22.259 146.413 22.9214C146.933 23.5839 147.603 24.1357 148.424 24.5775C149.245 25.0191 150.291 25.4731 151.563 25.9392C153.112 26.5036 154.366 27.0555 155.326 27.5953C156.285 28.1352 157.1 28.9079 157.771 29.9138C158.441 30.9198 158.776 32.2202 158.776 33.815C158.776 35.2625 158.436 36.5566 157.753 37.6976C157.071 38.8384 156.129 39.7217 154.927 40.3474C153.725 40.9731 152.361 41.2858 150.835 41.2858ZM168.799 40.6969C169.1 40.2554 169.354 39.7033 169.562 39.0408C169.77 38.3784 169.875 37.7037 169.875 37.0167V15.8921H167.655C165.921 15.8921 164.568 16.3397 163.597 17.2353C162.626 18.1309 161.771 19.4864 161.031 21.302H160.684L161.447 15.1191H181.631L182.36 21.302H182.013C181.296 19.5111 180.452 18.1615 179.481 17.2538C178.51 16.346 177.158 15.8921 175.424 15.8921H173.169V37.0167C173.169 37.7037 173.273 38.3784 173.481 39.0408C173.689 39.7033 173.944 40.2554 174.244 40.6969V40.881H168.799V40.6969ZM203.169 41.1019C201.943 41.1019 200.932 40.783 200.134 40.1451C199.336 39.5071 198.712 38.7218 198.261 37.7897C197.81 36.8573 197.354 35.6673 196.891 34.2198C196.521 33.0175 196.169 32.0483 195.833 31.3123C195.498 30.5763 195.065 29.9629 194.533 29.4723C194.001 28.9814 193.354 28.7361 192.591 28.7361H189.747V37.0167C189.747 37.7037 189.851 38.3784 190.059 39.0408C190.267 39.7033 190.522 40.2554 190.822 40.6969V40.881H185.377V40.6969C185.678 40.2554 185.932 39.7033 186.14 39.0408C186.348 38.3784 186.452 37.7037 186.452 37.0167V18.9834C186.452 18.2965 186.348 17.6218 186.14 16.9594C185.932 16.2969 185.678 15.7448 185.377 15.3033V15.1191H193.909C195.458 15.1191 196.886 15.3646 198.192 15.8554C199.498 16.346 200.544 17.1004 201.33 18.1187C202.117 19.1368 202.51 20.4064 202.51 21.9278C202.51 23.3017 202.163 24.4732 201.469 25.4423C200.776 26.4115 199.897 27.1475 198.833 27.6506C197.77 28.1534 196.683 28.4416 195.573 28.5154V28.5889C196.498 28.6135 197.296 28.9325 197.967 29.5459C198.637 30.1593 199.186 30.9013 199.614 31.7724C200.042 32.6435 200.487 33.729 200.949 35.0293C201.55 36.6732 202.111 37.9185 202.631 38.7649C203.151 39.6114 203.816 40.0345 204.625 40.0345C205.088 40.0345 205.481 39.8629 205.804 39.5193L206.012 39.7033C205.735 40.1695 205.348 40.5191 204.851 40.7522C204.354 40.9854 203.793 41.1019 203.169 41.1019ZM193.458 27.9633C195.123 27.9633 196.469 27.4357 197.498 26.3807C198.527 25.3257 199.042 23.8415 199.042 21.9278C199.042 20.0139 198.51 18.5297 197.446 17.4744C196.383 16.4195 194.961 15.8921 193.18 15.8921C192.649 15.8921 192.065 15.9412 191.429 16.0392C190.793 16.1373 190.233 16.2724 189.747 16.444V27.9633H193.458ZM218.914 41.2858C216.694 41.2858 214.741 40.7339 213.053 39.6297C211.365 38.5257 210.053 36.9676 209.117 34.9558C208.18 32.9439 207.712 30.6253 207.712 28.0001C207.712 25.3748 208.18 23.0562 209.117 21.0444C210.053 19.0325 211.365 17.4744 213.053 16.3705C214.741 15.2665 216.694 14.7143 218.914 14.7143C221.134 14.7143 223.087 15.2665 224.775 16.3705C226.463 17.4744 227.775 19.0325 228.712 21.0444C229.648 23.0562 230.116 25.3748 230.116 28.0001C230.116 30.6253 229.648 32.9439 228.712 34.9558C227.775 36.9676 226.463 38.5257 224.775 39.6297C223.087 40.7339 221.134 41.2858 218.914 41.2858ZM218.914 40.4763C220.417 40.4763 221.741 39.9486 222.885 38.8937C224.03 37.8387 224.914 36.3665 225.538 34.4775C226.162 32.5882 226.475 30.429 226.475 28.0001C226.475 25.5712 226.162 23.412 225.538 21.5229C224.914 19.6337 224.03 18.1615 222.885 17.1064C221.741 16.0515 220.417 15.5242 218.914 15.5242C217.411 15.5242 216.088 16.0515 214.943 17.1064C213.798 18.1615 212.914 19.6337 212.29 21.5229C211.666 23.412 211.354 25.5712 211.354 28.0001C211.354 30.429 211.666 32.5882 212.29 34.4775C212.914 36.3665 213.798 37.8387 214.943 38.8937C216.088 39.9486 217.411 40.4763 218.914 40.4763ZM239.099 40.6969C239.399 40.2554 239.654 39.7033 239.862 39.0408C240.07 38.3784 240.174 37.7037 240.174 37.0167V31.8645L234.035 19.0571C233.203 17.3397 232.347 16.0883 231.469 15.3033V15.1191H237.711V15.3033C237.295 15.7938 237.087 16.4195 237.087 17.1803C237.087 17.6954 237.226 18.272 237.503 18.9099L242.775 29.9506L247.977 19.1306C248.301 18.4681 248.463 17.8302 248.463 17.217C248.463 16.4317 248.197 15.7938 247.665 15.3033V15.1191H252V15.3033C250.821 16.0392 249.896 17.0942 249.225 18.4681L243.468 30.3922V37.0167C243.468 37.7037 243.572 38.3784 243.781 39.0408C243.989 39.7033 244.243 40.2554 244.544 40.6969V40.881H239.099V40.6969Z" fill="#2B2B2A"/>
</g>
</g>
</svg>
