<svg width="52" height="56" viewBox="0 0 52 56" fill="none" xmlns="http://www.w3.org/2000/svg">
<g id="logo-small">
<path id="path14" d="M50.9598 0.999985H1.7231C1.32313 0.999985 1 1.34426 1 1.77062V54.2245C1 54.6507 1.32313 54.995 1.7231 54.995H30.3547V55H41.6117V54.995H50.9598C51.3596 54.995 51.6826 54.6507 51.6826 54.2245V1.77062C51.6826 1.34426 51.3596 0.999985 50.9598 0.999985ZM35.3108 31.2921L30.3547 27.9641V53.2899H26.9464V10.9742L35.3108 21.1794V31.2921ZM40.1653 53.4543H36.757V34.0862L40.1653 36.3768V53.4543ZM35.3108 53.2899H31.8011V30.7581L35.3108 33.1155V53.2899ZM25.3602 53.3309H22.0098V27.6662L16.996 31.0611V27.5019L25.3602 19.2124V53.3309ZM20.5634 30.4705V53.3359H16.996V32.8844L20.5634 30.4705ZM15.5449 53.3309H12.1944V36.1303L15.5449 33.8653V53.3309ZM50.2363 53.4543H41.6117V35.5295L36.757 32.2681V20.6042L25.5002 6.8707V16.9628L15.5498 26.8239V32.0368L10.7528 35.2828V53.4543H2.4464V2.54082H50.2363V53.4543Z" fill="#2B2B2A" stroke="#2B2B2A" stroke-width="0.288" stroke-miterlimit="22.9256"/>
</g>
</svg>
