<svg width="63" height="16" viewBox="0 0 63 16" fill="none" xmlns="http://www.w3.org/2000/svg">
<path id="Vector 7" d="M0.998962 6.75C0.446678 6.75 -0.0010376 7.19772 -0.0010376 7.75C-0.0010376 8.30228 0.446678 8.75 0.998962 8.75V6.75ZM62.7081 8.45711C63.0986 8.06658 63.0986 7.43342 62.7081 7.04289L56.3442 0.678932C55.9536 0.288408 55.3205 0.288408 54.9299 0.678932C54.5394 1.06946 54.5394 1.70262 54.9299 2.09315L60.5868 7.75L54.9299 13.4069C54.5394 13.7974 54.5394 14.4305 54.9299 14.8211C55.3205 15.2116 55.9536 15.2116 56.3442 14.8211L62.7081 8.45711ZM0.998962 8.75H62.001V6.75H0.998962V8.75Z" fill="black"/>
</svg>
