<svg width="102" height="88" viewBox="0 0 102 88" fill="none" xmlns="http://www.w3.org/2000/svg">
<path d="M22.1724 66.4284C-30.0657 16.1332 27.5684 -10.7843 47.5259 21.0715C69.4027 -22.6822 100.47 12.025 93.3443 32.7367C83.1527 62.3619 74.5154 84.4579 60.1917 87.4692C50.5702 89.4919 37.9617 81.6305 22.1724 66.4284Z" fill="#F8C4CF"/>
<path d="M70.2014 17.5681C78.3218 19.2369 81.2106 9.12076 81.6399 3.85407C82.0979 16.8784 85.1158 15.5395 92.1042 17.7594C83.3699 18.3153 84.3121 25.1699 81.2734 30.4228C79.6 19.4996 77.8541 22.2754 70.2014 17.5681Z" fill="#FFF738"/>
<path d="M77.1731 37.0251C85.2935 38.694 88.1823 28.5778 88.6116 23.3111C89.0695 36.3354 92.0875 34.9965 99.0759 37.2164C90.3415 37.7723 91.2837 44.6269 88.2451 49.8798C86.5717 38.9567 84.8258 41.7324 77.1731 37.0251Z" fill="#FFF738"/>
</svg>
