<svg width="86" height="75" viewBox="0 0 86 75" fill="none" xmlns="http://www.w3.org/2000/svg">
<path d="M18.2279 56.7554C-26.4036 13.784 22.8381 -9.21397 39.8895 18.0031C58.5807 -19.3793 85.1238 10.2739 79.0361 27.9698C70.3286 53.2811 62.949 72.1596 50.711 74.7324C42.4905 76.4606 31.7181 69.7439 18.2279 56.7554Z" fill="#F8C4CF"/>
<path d="M59.2623 15.0101C66.2002 16.436 68.6684 7.79286 69.0352 3.29308C69.4264 14.4209 72.0049 13.2769 77.9757 15.1736C70.5132 15.6485 71.3182 21.505 68.722 25.993C67.2923 16.6604 65.8006 19.032 59.2623 15.0101Z" fill="#FFF738"/>
<path d="M65.2213 31.6337C72.1592 33.0595 74.6274 24.4164 74.9942 19.9166C75.3854 31.0444 77.9639 29.9005 83.9347 31.7971C76.4722 32.272 77.2772 38.1286 74.681 42.6165C73.2513 33.2839 71.7596 35.6555 65.2213 31.6337Z" fill="#FFF738"/>
</svg>
