<svg width="51" height="51" viewBox="0 0 51 51" fill="none" xmlns="http://www.w3.org/2000/svg">
<g id="close">
<circle id="Ellipse 1" cx="25.5" cy="25.5" r="25.5" fill="white"/>
<path id="Vector 9" d="M39.5 27C40.0523 27 40.5 26.5523 40.5 26C40.5 25.4477 40.0523 25 39.5 25V27ZM12.2929 25.2929C11.9024 25.6834 11.9024 26.3166 12.2929 26.7071L18.6569 33.0711C19.0474 33.4616 19.6805 33.4616 20.0711 33.0711C20.4616 32.6805 20.4616 32.0474 20.0711 31.6569L14.4142 26L20.0711 20.3431C20.4616 19.9526 20.4616 19.3195 20.0711 18.9289C19.6805 18.5384 19.0474 18.5384 18.6569 18.9289L12.2929 25.2929ZM39.5 25H13V27H39.5V25Z" fill="black"/>
</g>
</svg>
