<svg width="341" height="243" viewBox="0 0 341 243" fill="none" xmlns="http://www.w3.org/2000/svg">
<path d="M338.5 126.5C314.5 214 181 257.5 101.5 234.5M338.5 99.5C325 139.5 297 145.5 269.5 123.5" stroke="#FABAE4" stroke-width="4" stroke-linecap="round"/>
<path d="M116.565 216.682C106.647 204.497 70.8808 140.779 53.7579 109.576C53.4345 108.987 53.2475 108.373 53.3707 107.712C57.3408 86.4095 185.327 37.6824 192.367 46.4827C199.519 55.4217 258.516 129.437 258.516 140.879C258.516 152.321 129.079 232.057 116.565 216.682Z" fill="#BFA3DD"/>
<path d="M90.5068 137.509C74.7741 128.07 29.8407 133.576 9.34051 137.509C-16.0464 142.38 15.4195 166.472 42.9513 159.321C14.3464 168.617 7.55277 186.495 55.8235 186.495C45.8118 187.568 37.2302 209.022 77.277 209.022C117.324 209.022 110.173 149.309 90.5068 137.509Z" fill="#FABAE4"/>
<path d="M200.44 78.3839C201.238 60.054 230.604 25.6013 245.187 10.6663C263.247 -7.82904 266 31.705 244.855 50.7325C268.381 31.9924 287.042 36.1806 260.43 76.4532C266.845 68.6917 289.475 73.3595 267.397 106.771C245.319 140.182 199.443 101.296 200.44 78.3839Z" fill="#FABAE4"/>
<path d="M53.9922 107.268C73.8332 116.509 111.855 131.742 138.376 135.376M190.938 46.8403C189.69 66.5374 184.51 101.964 173.005 121.571M119.068 218.112L138.376 135.376M138.376 135.376C146.745 136.523 153.969 136.516 159.115 134.8C164.526 132.997 169.125 128.183 173.005 121.571M173.005 121.571L258.159 140.521" stroke="#805EA4" stroke-width="7"/>
</svg>
