<svg width="12" height="12" viewBox="0 0 12 12" fill="none" xmlns="http://www.w3.org/2000/svg">
<path fill-rule="evenodd" clip-rule="evenodd" d="M2.32435 0.910663C1.93383 0.520139 1.30066 0.520139 0.910137 0.910663C0.519613 1.30119 0.519613 1.93435 0.910137 2.32488L4.40606 5.8208L0.910137 9.31672C0.519613 9.70725 0.519613 10.3404 0.910137 10.7309C1.30066 11.1215 1.93383 11.1215 2.32435 10.7309L5.82027 7.23501L9.31652 10.7313C9.70705 11.1218 10.3402 11.1218 10.7307 10.7313C11.1213 10.3407 11.1213 9.70757 10.7307 9.31705L7.23449 5.8208L10.7307 2.32455C11.1213 1.93403 11.1213 1.30086 10.7307 0.910338C10.3402 0.519813 9.70705 0.519814 9.31652 0.910338L5.82027 4.40659L2.32435 0.910663Z" fill="#8C8C8C"/>
</svg>
