<svg width="15" height="15" viewBox="0 0 15 15" fill="none" xmlns="http://www.w3.org/2000/svg">
<path fill-rule="evenodd" clip-rule="evenodd" d="M1.99597 0.581816C1.60545 0.191292 0.972283 0.191291 0.581758 0.581816C0.191234 0.972341 0.191234 1.60551 0.581758 1.99603L5.7493 7.16357L0.581758 12.3311C0.191234 12.7216 0.191234 13.3548 0.581758 13.7453C0.972283 14.1359 1.60545 14.1359 1.99597 13.7453L7.16352 8.57779L12.3312 13.7455C12.7218 14.136 13.3549 14.136 13.7455 13.7455C14.136 13.355 14.136 12.7218 13.7455 12.3313L8.57773 7.16357L13.7455 1.99585C14.136 1.60533 14.136 0.972165 13.7455 0.581641C13.3549 0.191116 12.7218 0.191117 12.3312 0.581641L7.16352 5.74936L1.99597 0.581816Z" fill="#8C8C8C"/>
</svg>
