<svg width="156" height="42" viewBox="0 0 156 42" fill="none" xmlns="http://www.w3.org/2000/svg">
<path d="M20.524 15.5697C21.0509 16.212 23.3515 13.14 23.2803 9.85275C21.0575 11.1927 19.9016 14.5872 20.524 15.5697Z" fill="#90AB9A"/>
<path d="M21.5021 10.746C21.1647 11.085 20.7315 11.7286 20.6129 11.9966C19.8127 11.1927 20.8888 8.79914 21.0575 9.13812C21.1464 9.31682 21.6799 10.5674 21.5021 10.746Z" fill="#90AB9A"/>
<path d="M20.2573 12.6219C20.1861 12.3361 18.9828 10.5971 18.3901 9.76341C18.3901 12.3539 19.1903 14.5871 19.3681 15.1231C19.5459 15.6591 19.9905 15.7484 19.9016 15.4804C19.5459 13.7832 20.3017 12.8006 20.2573 12.6219Z" fill="#90AB9A"/>
<path d="M17.9455 11.9966C17.5898 11.8537 16.2561 11.282 15.6337 11.014C16.4339 12.4433 16.9674 13.2473 18.2122 13.4259C18.1233 12.9792 18.0344 12.4433 17.9455 11.9966Z" fill="#90AB9A"/>
<path d="M18.3901 14.2298C18.0344 13.801 15.2781 13.1579 13.9443 12.8899C14.2111 13.4259 16.9674 15.4804 17.0563 15.5697C17.1453 15.6591 18.7273 15.6192 18.8346 15.3911C18.9607 15.1231 18.8346 14.7658 18.3901 14.2298Z" fill="#90AB9A"/>
<path d="M22.2147 15.0338C23.2817 14.6765 24.2597 13.3901 24.971 10.746C24.0819 11.282 23.7369 11.5186 23.559 11.6973C23.3812 11.8759 23.3706 13.4259 22.2147 15.0338Z" fill="#90AB9A"/>
<path d="M20.6338 17.0016C20.7174 17.55 24.7487 17.3467 26.4026 15.209C24.163 14.8528 20.6338 15.4874 20.6338 17.0016Z" fill="#90AB9A"/>
<path d="M20.1177 16.0549C19.9381 17.069 20.2075 17.3225 20.2974 17.576C18.1423 17.9141 15.538 16.6464 15.4482 16.4774C15.6278 16.3929 18.3217 15.7169 20.1177 16.0549Z" fill="#90AB9A"/>
<path d="M23.4756 14.7908L24.6945 14.6013C25.5383 14.0331 27.386 11.3535 27.3197 11.2865C27.226 11.1918 25.7258 12.0442 24.882 12.7072C24.732 13.3133 24.0381 14.3172 23.4756 14.7908Z" fill="#90AB9A"/>
<path d="M20.1318 22.7336V21.4795H21.7204V22.7336H20.1318Z" fill="#90AB9A"/>
<path d="M20.1318 21.0612V19.8071H21.7204V21.0612H20.1318Z" fill="#90AB9A"/>
<path d="M20.1318 19.389V18.1349C20.8497 18.0609 21.1906 17.9426 21.7204 17.6333V19.389H20.1318Z" fill="#90AB9A"/>
<path d="M25.3144 26.5791H16.4521V30.3414C16.4521 30.8151 16.4521 31.9299 17.8735 31.9299H23.8931C25.3144 31.9299 25.3144 30.8151 25.3144 30.3414V26.5791Z" fill="#90AB9A"/>
<path d="M25.3847 26.1617C26.8158 26.1617 26.8159 25.1056 26.8159 24.6568V24.6567C26.8159 24.2079 26.8159 23.1519 25.3847 23.1519H16.5454C15.1143 23.1519 15.1143 24.2079 15.1143 24.6568C15.1143 25.1056 15.1143 26.1617 16.5454 26.1617H25.3847Z" fill="#90AB9A"/>
<path fill-rule="evenodd" clip-rule="evenodd" d="M15.0742 1.37626C15.1015 1.46091 15.1104 1.55614 15.1063 1.65732C15.2961 1.6501 15.4344 1.6469 15.4986 1.64551C15.5925 1.64349 15.7257 1.63992 15.8901 1.63529C16.0763 1.54369 16.2563 1.45647 16.4301 1.37354C16.3373 1.21865 16.2833 1.07318 16.2761 0.93692C16.2701 0.824966 16.2958 0.72057 16.3544 0.629875C16.4118 0.541187 16.4936 0.476288 16.5838 0.428768C16.7598 0.336071 16.9953 0.29517 17.247 0.281475C17.5032 0.267544 17.7966 0.280972 18.1016 0.310829C18.3036 0.330597 18.5128 0.357796 18.7225 0.389732C18.8809 0.332836 19.0285 0.283348 19.1656 0.240948C19.5044 0.136166 19.7858 0.0725441 20.013 0.0487671C20.2351 0.0255241 20.4294 0.0375404 20.5765 0.108925C20.6535 0.146297 20.719 0.200768 20.7648 0.274296C20.8104 0.347328 20.8299 0.428562 20.832 0.509792C20.8345 0.606674 20.8125 0.709408 20.7744 0.81427C20.9082 0.848 21.0061 0.873814 21.0566 0.887222C21.1533 0.912884 21.2935 0.949265 21.4675 0.994198C21.6631 0.959934 21.8522 0.927898 22.0348 0.898033C21.9855 0.717857 21.9726 0.558506 22.0042 0.422108C22.0295 0.312889 22.0832 0.21973 22.1647 0.148869C22.2444 0.0795784 22.3411 0.0399246 22.4409 0.0193062C22.6357 -0.020916 22.8733 0.00511932 23.1189 0.0618134C23.3689 0.119503 23.647 0.213802 23.9318 0.327133C24.1302 0.406078 24.3341 0.495178 24.5367 0.589203C24.7186 0.577717 24.8861 0.5709 25.0398 0.56852C25.3944 0.563015 25.6823 0.58091 25.9071 0.621849C26.1268 0.661861 26.3098 0.727905 26.431 0.837688C26.4944 0.895168 26.542 0.965839 26.5654 1.04927C26.5886 1.13215 26.5845 1.21561 26.5638 1.29416C26.5378 1.39247 26.484 1.48938 26.4131 1.5835C26.5052 1.63748 26.573 1.67808 26.6109 1.7008C26.7067 1.75832 26.851 1.84376 27.0316 1.95049C27.2149 1.97134 27.3923 1.99241 27.5638 2.0137C27.564 1.81569 27.5957 1.65038 27.6671 1.52267C27.7218 1.42481 27.7993 1.35027 27.8973 1.30489C27.9932 1.26052 28.097 1.24933 28.1987 1.25732C28.397 1.2729 28.6179 1.36402 28.8381 1.48684C29.0621 1.61182 29.303 1.7798 29.545 1.96791C29.7287 2.11074 29.9154 2.26695 30.0984 2.42762C30.3013 2.47302 30.4852 2.51892 30.651 2.56522C30.9925 2.66066 31.2635 2.75959 31.4674 2.86267C31.6667 2.96343 31.8235 3.07875 31.9085 3.21841C31.9529 3.29154 31.9785 3.37282 31.9772 3.45946C31.976 3.54551 31.9484 3.62438 31.9062 3.69381C31.8488 3.78809 31.7606 3.87151 31.655 3.94621C31.6902 3.98375 31.7175 4.0131 31.7359 4.0329C31.8268 4.13083 31.973 4.28631 32.158 4.48277C32.3241 4.55418 32.4847 4.62418 32.6401 4.69279C32.6971 4.48723 32.7771 4.32627 32.8878 4.21817C32.968 4.13983 33.0634 4.0903 33.1703 4.07455C33.2747 4.05915 33.3775 4.07784 33.4727 4.11431C33.6585 4.18544 33.8446 4.33542 34.0209 4.51559C34.2003 4.69893 34.3838 4.92827 34.5626 5.17725C34.7137 5.38771 34.8635 5.6151 35.007 5.84505C35.2198 5.96386 35.4084 6.07602 35.5742 6.18177C35.8732 6.37251 36.1036 6.54605 36.2687 6.70403C36.43 6.85844 36.5464 7.0144 36.5871 7.17275C36.6083 7.25566 36.6091 7.34087 36.5827 7.42338C36.5564 7.50534 36.5071 7.57276 36.4465 7.62688C36.3554 7.70818 36.2321 7.76577 36.0932 7.80774C36.1483 7.91831 36.2291 8.07852 36.3289 8.27588C36.4604 8.38409 36.5877 8.48975 36.7108 8.59291C36.8217 8.41514 36.9421 8.28546 37.0767 8.21353C37.1756 8.16069 37.281 8.13979 37.388 8.1545C37.4927 8.1689 37.5861 8.21553 37.6674 8.27714C37.8259 8.39732 37.9627 8.5933 38.0817 8.81554C38.2028 9.0417 38.3149 9.31314 38.417 9.60214C38.5012 9.84022 38.5797 10.0934 38.6517 10.3476C38.8165 10.5145 38.9613 10.6692 39.0872 10.8121C39.3216 11.0783 39.4949 11.3089 39.6096 11.5065C39.7218 11.6995 39.7904 11.8817 39.7856 12.0451C39.783 12.1306 39.7602 12.2127 39.7119 12.2847C39.6639 12.3561 39.5978 12.4072 39.5246 12.4424C39.4172 12.494 39.2866 12.5154 39.1454 12.5181L39.1463 12.5231C39.1677 12.6417 39.2016 12.8239 39.2444 13.053C39.3999 13.2797 39.5464 13.4969 39.6844 13.7049C39.8236 13.5928 39.9591 13.5201 40.092 13.4941C40.202 13.4725 40.3089 13.4834 40.4069 13.5288C40.5027 13.5733 40.5784 13.6452 40.6381 13.728C40.7544 13.8893 40.8277 14.1168 40.8764 14.3641C40.9259 14.6158 40.9536 14.9082 40.9665 15.2145C40.975 15.414 40.9773 15.6216 40.9751 15.8304C41.0517 15.9758 41.1198 16.1118 41.1797 16.2388C41.331 16.5596 41.4335 16.8293 41.489 17.0509C41.5432 17.2675 41.5586 17.4615 41.5085 17.6172C41.4823 17.6987 41.4376 17.7712 41.3713 17.8269C41.3053 17.8823 41.2277 17.913 41.1475 17.9265C41.0534 17.9424 40.9502 17.9354 40.8428 17.9132C40.8271 18.0597 40.8144 18.1668 40.8079 18.2209C40.7967 18.3143 40.7815 18.4469 40.763 18.6107C40.8162 18.7737 40.8671 18.9319 40.9157 19.0856C41.0901 19.0083 41.2487 18.9711 41.3904 18.9828C41.5022 18.9921 41.6021 19.0317 41.684 19.1021C41.7641 19.1709 41.8174 19.2607 41.8522 19.3566C41.9203 19.5435 41.9289 19.7823 41.9084 20.0336C41.8875 20.2893 41.8345 20.5781 41.7637 20.8763C41.7127 21.0906 41.652 21.3122 41.5859 21.533C41.6255 21.7203 41.6578 21.8929 41.6831 22.0512C41.7392 22.4014 41.7626 22.6889 41.7542 22.9172C41.746 23.1404 41.7067 23.331 41.6154 23.4666C41.5675 23.5375 41.5044 23.5948 41.4251 23.6298C41.3464 23.6646 41.2633 23.6725 41.1825 23.6632C41.0784 23.6511 40.9716 23.6097 40.8651 23.5501C40.8324 23.6305 40.8074 23.6906 40.7926 23.7261C40.7486 23.8315 40.6832 23.991 40.6014 24.191C40.6079 24.4002 40.613 24.6018 40.6168 24.7962C40.8077 24.7705 40.9717 24.7794 41.1054 24.8311C41.21 24.8715 41.2947 24.9377 41.3534 25.0283C41.4108 25.117 41.4365 25.2182 41.4429 25.32C41.4554 25.5185 41.3962 25.7501 41.3056 25.9853C41.2134 26.2247 41.081 26.4868 40.9287 26.7529C40.8178 26.9469 40.6949 27.1453 40.5673 27.3412C40.552 27.5364 40.5337 27.7146 40.5128 27.8767C40.4674 28.2285 40.4083 28.5108 40.3356 28.7274C40.2644 28.9391 40.1728 29.1108 40.0468 29.2149C39.9808 29.2694 39.904 29.3064 39.8181 29.3176C39.7327 29.3287 39.6507 29.3127 39.576 29.2809C39.4782 29.2392 39.3863 29.1678 39.3 29.0788C39.2517 29.1393 39.215 29.1848 39.1925 29.2125C39.124 29.2969 39.0231 29.4228 38.8971 29.5803C38.8456 29.78 38.7948 29.9723 38.7447 30.1574C38.9325 30.1866 39.0854 30.2409 39.198 30.3271C39.2871 30.3952 39.3498 30.4825 39.3807 30.586C39.4109 30.6872 39.4072 30.7916 39.3848 30.8911C39.341 31.0851 39.2193 31.2908 39.0663 31.4911C38.9106 31.695 38.7099 31.9095 38.4892 32.1221C38.3315 32.2741 38.1617 32.4268 37.9879 32.5761C37.9207 32.7534 37.8553 32.9145 37.7917 33.0602C37.6498 33.3852 37.5143 33.6399 37.384 33.8275C37.2566 34.0109 37.1206 34.1502 36.9705 34.215C36.892 34.2489 36.8079 34.263 36.7223 34.2497C36.6372 34.2365 36.563 34.1983 36.5 34.1469C36.4194 34.0809 36.3522 33.9891 36.295 33.8823C36.2208 33.9345 36.1651 33.9731 36.1325 33.9957C36.0255 34.0696 35.8571 34.1877 35.6446 34.3369C35.5446 34.5008 35.4471 34.6589 35.352 34.8113C35.5417 34.8962 35.6856 34.9969 35.775 35.1195C35.841 35.2101 35.8763 35.3117 35.8766 35.4197C35.8768 35.5253 35.8436 35.6243 35.7939 35.7133C35.6968 35.887 35.5217 36.0496 35.3181 36.1982C35.1109 36.3495 34.8576 36.4981 34.5855 36.6394C34.364 36.7543 34.1271 36.8659 33.8882 36.9714C33.7482 37.1546 33.6172 37.317 33.4949 37.4596C33.2641 37.7288 33.0599 37.9326 32.8802 38.0738C32.7047 38.2118 32.5339 38.3051 32.3714 38.3231C32.2863 38.3325 32.2019 38.3213 32.1239 38.2836C32.0464 38.246 31.9866 38.1877 31.9416 38.1201C31.8762 38.022 31.837 37.8973 31.8145 37.7597L31.7938 37.7665C31.6893 37.8008 31.5338 37.8528 31.3395 37.918C31.1334 38.1082 30.9358 38.2876 30.7465 38.4567C30.8698 38.5746 30.956 38.6943 30.9989 38.8177C31.0357 38.9236 31.0399 39.031 31.0087 39.1344C30.9782 39.2355 30.9176 39.3206 30.8441 39.3912C30.7007 39.5291 30.4858 39.6337 30.2477 39.7166C30.0054 39.801 29.7199 39.8695 29.4185 39.9254C29.2358 39.9593 29.0454 39.9889 28.8531 40.0147C28.7352 40.1 28.6237 40.1775 28.5185 40.2474C28.223 40.4436 27.9711 40.584 27.7598 40.671C27.5533 40.756 27.3636 40.7994 27.2023 40.7724C27.1179 40.7583 27.0396 40.7246 26.9749 40.667C26.9106 40.6098 26.8689 40.5374 26.844 40.46C26.8167 40.3754 26.8078 40.2803 26.8119 40.1791C26.6221 40.1864 26.4838 40.1896 26.4195 40.1909C26.3256 40.193 26.1923 40.1965 26.0277 40.2012C25.8416 40.2927 25.6617 40.3799 25.488 40.4628C25.5809 40.6177 25.6348 40.7632 25.6421 40.8995C25.6481 41.0115 25.6223 41.1159 25.5637 41.2066C25.5063 41.2953 25.4245 41.3602 25.3343 41.4077C25.1583 41.5004 24.9228 41.5413 24.6711 41.555C24.4149 41.5689 24.1216 41.5555 23.8165 41.5256C23.6145 41.5059 23.4051 41.4786 23.1953 41.4467C23.037 41.5035 22.8896 41.553 22.7526 41.5953C22.4137 41.7001 22.1324 41.7637 21.9051 41.7875C21.683 41.8108 21.4888 41.7987 21.3417 41.7274C21.2647 41.69 21.1992 41.6355 21.1533 41.562C21.1078 41.489 21.0883 41.4077 21.0862 41.3265C21.0836 41.2297 21.1057 41.127 21.1438 41.0222C21.0099 40.9885 20.9121 40.9626 20.8615 40.9492C20.7648 40.9236 20.6247 40.8872 20.4507 40.8423C20.2551 40.8765 20.066 40.9085 19.8835 40.9384C19.9328 41.1185 19.9456 41.2778 19.914 41.4142C19.8887 41.5234 19.835 41.6165 19.7535 41.6874C19.6738 41.7567 19.5772 41.7964 19.4773 41.817C19.2825 41.8572 19.0449 41.8312 18.7993 41.7745C18.5493 41.7168 18.2712 41.6225 17.9864 41.5091C17.7881 41.4302 17.5844 41.3412 17.3819 41.2472C17.1998 41.2587 17.0322 41.2656 16.8784 41.2679C16.5238 41.2734 16.2359 41.2555 16.0111 41.2146C15.7914 41.1746 15.6083 41.1085 15.4872 40.9988C15.4238 40.9413 15.3762 40.8706 15.3528 40.7872C15.3296 40.7043 15.3336 40.6209 15.3544 40.5423C15.3804 40.4439 15.4342 40.347 15.5052 40.2528C15.4131 40.1988 15.3452 40.1582 15.3074 40.1355C15.2116 40.078 15.0675 39.9926 14.887 39.886C14.7036 39.8652 14.5261 39.8441 14.3544 39.8228C14.3542 40.0207 14.3225 40.1859 14.2511 40.3136C14.1964 40.4115 14.1189 40.486 14.0209 40.5314C13.9251 40.5758 13.8212 40.5869 13.7196 40.579C13.5213 40.5634 13.3003 40.4723 13.0802 40.3494C12.8561 40.2245 12.6152 40.0565 12.3732 39.8684C12.1896 39.7256 12.0031 39.5695 11.8202 39.4089C11.6171 39.3635 11.433 39.3176 11.2672 39.2712C10.9256 39.1758 10.6547 39.0769 10.4508 38.9738C10.2515 38.873 10.0947 38.7577 10.0097 38.618C9.96524 38.5449 9.93965 38.4636 9.94094 38.377C9.94222 38.2909 9.9698 38.2121 10.012 38.1426C10.0694 38.0483 10.1577 37.9649 10.2633 37.8902C10.2281 37.8526 10.2007 37.8232 10.1823 37.8034C10.0915 37.7055 9.94535 37.5501 9.76049 37.3538C9.59436 37.2824 9.43358 37.2123 9.27805 37.1437C9.22107 37.3491 9.14106 37.51 9.03044 37.6181C8.95025 37.6964 8.85482 37.746 8.74797 37.7617C8.64348 37.7771 8.54073 37.7584 8.4455 37.722C8.25973 37.6508 8.07368 37.5009 7.89733 37.3207C7.71788 37.1373 7.53446 36.908 7.35567 36.659C7.20461 36.4487 7.05482 36.2214 6.91143 35.9915C6.69854 35.8727 6.50982 35.7605 6.34399 35.6547C6.04499 35.4639 5.81454 35.2904 5.64949 35.1324C5.48817 34.978 5.37175 34.8221 5.33112 34.6637C5.30985 34.5808 5.30904 34.4956 5.33549 34.4131C5.36177 34.3311 5.41112 34.2637 5.47172 34.2096C5.56278 34.1282 5.68613 34.0707 5.82513 34.0287C5.77005 33.9182 5.68927 33.7581 5.58957 33.5608C5.45788 33.4525 5.33048 33.3468 5.20727 33.2435C5.09641 33.4212 4.97608 33.5508 4.8415 33.6227C4.74261 33.6756 4.63715 33.6965 4.53015 33.6818C4.42552 33.6674 4.33207 33.6207 4.25081 33.5591C4.0923 33.439 3.95553 33.243 3.83651 33.0207C3.7154 32.7946 3.60332 32.5231 3.50117 32.2341C3.41705 31.9962 3.33859 31.7431 3.26662 31.489C3.10172 31.322 2.95685 31.1673 2.83094 31.0243C2.59656 30.7582 2.42326 30.5275 2.30849 30.33C2.19631 30.1369 2.1277 29.9548 2.13257 29.7914C2.13512 29.7058 2.15797 29.6237 2.20626 29.5518C2.25423 29.4803 2.32034 29.4292 2.39358 29.394C2.50096 29.3424 2.63162 29.3211 2.77279 29.3184C2.77246 29.3166 2.77215 29.3148 2.77184 29.3131C2.75052 29.1946 2.71659 29.0123 2.67372 28.7832C2.51831 28.5565 2.37177 28.3393 2.23384 28.1314C2.09457 28.2435 1.95911 28.3162 1.82623 28.3422C1.71621 28.3638 1.60924 28.3529 1.51125 28.3074C1.41544 28.263 1.33976 28.191 1.28012 28.1083C1.16378 27.947 1.09043 27.7195 1.04176 27.4722C0.992239 27.2204 0.964618 26.9281 0.951635 26.6218C0.943172 26.4222 0.940865 26.2146 0.943065 26.0058C0.866525 25.8605 0.798463 25.7245 0.738535 25.5974C0.587209 25.2767 0.484705 25.007 0.429252 24.7854C0.375051 24.5688 0.359669 24.3747 0.40969 24.2191C0.43588 24.1376 0.480608 24.0651 0.546967 24.0094C0.61288 23.954 0.69057 23.9233 0.7707 23.9098C0.864857 23.8939 0.96799 23.9009 1.07543 23.9231C1.09105 23.7766 1.10374 23.6695 1.11024 23.6153C1.12144 23.522 1.13667 23.3893 1.15525 23.2254C1.10198 23.0625 1.05108 22.9043 1.00249 22.7506C0.828104 22.828 0.669531 22.8652 0.527752 22.8534C0.41602 22.8442 0.316066 22.8046 0.234143 22.7342C0.154035 22.6654 0.100807 22.5755 0.0659367 22.4797C-0.00208453 22.2928 -0.0107384 22.054 0.00976972 21.8027C0.0306389 21.547 0.0836518 21.2582 0.154529 20.9599C0.205466 20.7456 0.26625 20.524 0.332277 20.3032C0.292728 20.1159 0.260459 19.9434 0.235109 19.7851C0.179027 19.4349 0.155621 19.1474 0.164042 18.9191C0.172273 18.6959 0.211494 18.5053 0.302854 18.3697C0.350689 18.2987 0.413835 18.2415 0.493079 18.2065C0.571789 18.1717 0.654967 18.1637 0.735686 18.1731C0.839795 18.1851 0.946646 18.2266 1.05307 18.2861C1.0858 18.2058 1.11077 18.1457 1.1256 18.1102C1.16955 18.0048 1.235 17.8452 1.31682 17.6451C1.31034 17.436 1.30524 17.2344 1.30147 17.0401C1.11052 17.0657 0.946467 17.0569 0.812769 17.0052C0.708189 16.9648 0.623491 16.8986 0.564778 16.8079C0.507365 16.7193 0.481677 16.6181 0.475286 16.5163C0.462819 16.3178 0.521957 16.0862 0.612585 15.851C0.704809 15.6116 0.837229 15.3494 0.989434 15.0834C1.10043 14.8893 1.22328 14.691 1.35096 14.495C1.36628 14.2999 1.3845 14.1216 1.40544 13.9596C1.45088 13.6078 1.5099 13.3254 1.58267 13.1089C1.65379 12.8972 1.74542 12.7255 1.87145 12.6214C1.93743 12.5668 2.0142 12.5299 2.10013 12.5187C2.18548 12.5076 2.26749 12.5236 2.34225 12.5554C2.44003 12.597 2.53194 12.6685 2.61816 12.7575C2.66646 12.697 2.70323 12.6515 2.72571 12.6238C2.79415 12.5394 2.89511 12.4135 3.02104 12.256C3.07259 12.0563 3.12338 11.8641 3.17344 11.679C2.9857 11.6499 2.83278 11.5956 2.72014 11.5094C2.6311 11.4413 2.56839 11.3539 2.53747 11.2504C2.50724 11.1492 2.51099 11.0449 2.53342 10.9454C2.57716 10.7513 2.69889 10.5457 2.85189 10.3453C3.00759 10.1414 3.20824 9.92699 3.42899 9.71432C3.58667 9.56241 3.75644 9.40967 3.93018 9.2604C3.99744 9.08307 4.06286 8.92186 4.12648 8.77608C4.26833 8.45103 4.40387 8.19637 4.53421 8.00874C4.66162 7.82533 4.79755 7.68605 4.94765 7.62125C5.02623 7.58733 5.11028 7.57326 5.1959 7.58654C5.28095 7.59974 5.35523 7.63799 5.41813 7.68942C5.49881 7.75539 5.56607 7.84729 5.62328 7.95412C5.69737 7.90192 5.75307 7.86331 5.78567 7.84077C5.89261 7.76683 6.06095 7.64883 6.27341 7.49968C6.37338 7.33575 6.47092 7.1776 6.56607 7.02512C6.37641 6.94027 6.23253 6.83953 6.1432 6.71694C6.07717 6.62634 6.04184 6.52478 6.04159 6.41678C6.04134 6.31116 6.07458 6.21215 6.12433 6.12314C6.22138 5.9495 6.3965 5.78689 6.60011 5.63822C6.8073 5.48693 7.06059 5.33832 7.33264 5.1971C7.55411 5.08214 7.79093 4.97061 8.02977 4.86519C8.1699 4.68179 8.30094 4.51931 8.42325 4.37669C8.65413 4.10747 8.85833 3.9037 9.03794 3.76249C9.2135 3.62448 9.38428 3.53114 9.54676 3.51317C9.63184 3.50376 9.71632 3.51493 9.79429 3.55272C9.87174 3.59026 9.93156 3.64859 9.97663 3.71621C10.042 3.8143 10.0813 3.93909 10.1037 4.07676L10.1244 4.06997C10.2288 4.03572 10.3842 3.98375 10.5784 3.91856C10.7846 3.72831 10.9822 3.54879 11.1715 3.37966C11.0484 3.26175 10.9622 3.14214 10.9193 3.0188C10.8825 2.9129 10.8783 2.80546 10.9095 2.70206C10.94 2.60094 11.0006 2.5159 11.0741 2.44523C11.2175 2.30736 11.4324 2.20278 11.6705 2.11982C11.9127 2.03541 12.1983 1.96697 12.4997 1.91107C12.6823 1.87719 12.8725 1.84762 13.0647 1.82179C13.1828 1.7364 13.2944 1.65887 13.3997 1.58892C13.6952 1.39272 13.9471 1.25223 14.1584 1.16526C14.3649 1.08024 14.5546 1.03691 14.7159 1.06386C14.8003 1.07797 14.8785 1.11172 14.9433 1.16931C15.0076 1.22651 15.0493 1.29892 15.0742 1.37626ZM3.6355 29.4255C3.60892 29.4199 3.58259 29.4145 3.55653 29.4094C3.36661 29.1413 3.18761 28.8849 3.01912 28.6399L2.99246 28.4975C2.94727 28.2562 2.89518 27.9781 2.83925 27.677L2.87918 27.6616C3.10262 28.2644 3.3553 28.8529 3.6355 29.4255ZM3.22225 29.722C3.26179 29.7279 3.3023 29.7345 3.34375 29.7417C3.66752 30.1969 4.02138 30.684 4.40699 31.2048C4.64336 31.6825 4.88174 32.1581 5.09673 32.585C5.09017 32.6092 5.08367 32.6323 5.07723 32.6541C4.46628 32.1312 3.97616 31.6817 3.59321 31.2987C3.43031 30.7106 3.30286 30.1237 3.22225 29.722ZM2.84179 29.6845C2.69742 29.6807 2.60455 29.6986 2.55206 29.7238C2.52602 29.7363 2.5151 29.7481 2.51003 29.7557C2.50528 29.7628 2.49906 29.7758 2.49827 29.8023C2.49646 29.863 2.52405 29.9727 2.62484 30.1462C2.71822 30.3069 2.86427 30.5053 3.07275 30.7451C2.97289 30.3301 2.8945 29.953 2.84179 29.6845ZM3.81385 32.0193C3.82451 32.0505 3.83527 32.0815 3.84612 32.1122C3.94491 32.3917 4.04992 32.6442 4.15904 32.848C4.27026 33.0557 4.37686 33.1956 4.47185 33.2676C4.51735 33.3021 4.55318 33.3156 4.58 33.3193C4.60444 33.3227 4.63258 33.3196 4.66908 33.3001C4.73476 33.265 4.82247 33.1791 4.92418 33.0044C4.50091 32.644 4.1321 32.3163 3.81385 32.0193ZM6.59246 33.9019C6.34256 33.7026 6.10566 33.511 5.88134 33.327C5.8627 33.2901 5.84349 33.2521 5.82374 33.2131L5.82346 33.2125C5.72286 33.0136 5.60833 32.7871 5.48497 32.5424C5.48989 32.5218 5.49478 32.5008 5.49965 32.4794C5.86562 32.9701 6.25438 33.4429 6.66436 33.8961C6.64015 33.898 6.61618 33.8999 6.59246 33.9019ZM6.48024 34.2803C6.93319 34.6401 7.42671 35.0241 7.96304 35.4332C8.31264 35.8112 8.66468 36.188 8.98528 36.5297C8.98599 36.5588 8.98634 36.5863 8.98632 36.6123C8.24974 36.278 7.65003 35.9807 7.17215 35.7178C6.84652 35.1891 6.55723 34.6532 6.37002 34.2934C6.40587 34.2887 6.44261 34.2843 6.48024 34.2803ZM4.33334 29.9799C4.59234 30.055 4.86941 30.143 5.1616 30.2421C5.25892 30.2751 5.35775 30.3094 5.45797 30.3447C5.44156 30.4844 5.42499 30.6205 5.40829 30.7525C5.37133 31.0447 5.33379 31.316 5.29594 31.5617C4.95029 31.0517 4.62888 30.5239 4.33334 29.9799ZM5.50043 29.9718C5.42591 29.9458 5.35214 29.9204 5.27918 29.8956C4.85867 29.7529 4.46182 29.6306 4.09955 29.5357C3.68432 28.7205 3.32639 27.8713 3.03107 26.9933C3.18635 26.6879 3.35895 26.3224 3.54277 25.9144C3.56242 25.8707 3.58221 25.8266 3.60213 25.782C4.27292 26.2672 5.0002 26.8339 5.74001 27.4348C5.66744 28.3246 5.58645 29.1942 5.50043 29.9718ZM5.81136 30.4717C5.79809 30.5831 5.78472 30.6921 5.77126 30.7985C5.71443 31.2477 5.65579 31.6518 5.59612 31.9918C6.07056 32.6519 6.58644 33.2802 7.13993 33.8729C7.51696 33.8633 7.93566 33.8707 8.38326 33.8914C8.46755 33.8953 8.55297 33.8997 8.63947 33.9045C8.50481 33.135 8.34006 32.2801 8.1618 31.4086C7.34511 31.0621 6.54677 30.7409 5.81136 30.4717ZM8.07197 30.9736C7.30246 30.6503 6.55063 30.3508 5.85451 30.098C5.93644 29.367 6.01383 28.5528 6.0839 27.7159C6.60984 28.1481 7.13803 28.5934 7.65271 29.0347C7.7936 29.6635 7.93567 30.3193 8.07197 30.9736ZM8.57075 31.5836C8.73666 32.4036 8.88939 33.2044 9.01492 33.9278C9.76392 33.9789 10.5805 34.06 11.4203 34.1592C11.1055 33.5733 10.7852 32.9884 10.4739 32.4294C9.84765 32.1437 9.20632 31.8576 8.57075 31.5836ZM10.1723 31.8908C9.61198 31.6381 9.04361 31.3873 8.4816 31.1472C8.4677 31.0798 8.45374 31.0124 8.43971 30.9449C8.33454 30.4391 8.22564 29.9311 8.11621 29.4341C8.56926 29.8263 9.00761 30.2113 9.41989 30.5766C9.65384 30.9777 9.90783 31.4213 10.1723 31.8908ZM11.0351 32.6872C11.2875 33.1444 11.5429 33.6135 11.7938 34.0813C11.8173 34.1252 11.8409 34.1691 11.8643 34.213C12.455 34.2864 13.0537 34.3676 13.6455 34.4527C13.2616 34.0762 12.8951 33.7217 12.5595 33.4023C12.0759 33.1723 11.5634 32.9313 11.0351 32.6872ZM11.6847 32.5855C11.3744 32.4406 11.057 32.2937 10.7351 32.1465C10.5827 31.8734 10.4325 31.6066 10.2862 31.3491C10.5343 31.5716 10.7667 31.7811 10.9799 31.9737L10.9844 31.9778L10.9892 31.9816C11.1528 32.1107 11.391 32.3181 11.6847 32.5855ZM13.6092 33.9057C13.82 34.1109 14.0371 34.324 14.2581 34.5425C14.6054 34.5943 14.9484 34.647 15.2841 34.6998C14.9287 34.5249 14.6431 34.3921 14.4505 34.3136L14.4449 34.3113L14.4394 34.3087C14.1839 34.1841 13.9057 34.0489 13.6092 33.9057ZM16.4689 34.8906C15.6321 34.4563 14.9595 34.1266 14.5943 33.9772C14.0694 33.7212 13.4488 33.4205 12.7694 33.097C12.0855 32.4471 11.5303 31.9433 11.2208 31.6983C10.7861 31.3055 10.2714 30.8426 9.70633 30.3416C9.22903 29.5246 8.83485 28.8843 8.60531 28.5622C8.2915 28.0549 7.91825 27.4547 7.50617 26.8026C7.27622 25.8671 7.07622 25.1273 6.9457 24.7485C6.79078 24.1815 6.60606 23.5116 6.39934 22.782C6.43884 21.8335 6.45287 21.079 6.43351 20.683C6.44358 20.066 6.45377 19.3311 6.45878 18.5287C6.79138 17.5892 7.03906 16.8347 7.14002 16.437C7.31678 15.8921 7.52346 15.25 7.74413 14.5481C8.2774 13.7917 8.68688 13.1815 8.8818 12.8444C9.21227 12.3502 9.60224 11.764 10.0232 11.1213C10.776 10.5254 11.3636 10.0379 11.6532 9.76254C12.1068 9.38424 12.6424 8.93542 13.2234 8.44152C14.1075 8.08298 14.8037 7.78182 15.1574 7.59956C15.7056 7.36082 16.3548 7.07629 17.0611 6.76062C18.022 6.66713 18.7845 6.57516 19.1787 6.50022C19.7871 6.42517 20.5109 6.33411 21.3003 6.22873C22.2708 6.42453 23.0472 6.56261 23.4533 6.60645C24.0282 6.70671 24.7073 6.82354 25.4492 6.94581C26.286 7.38013 26.9587 7.70984 27.3238 7.85928C27.8489 8.11528 28.4697 8.41616 29.1493 8.7397C29.833 9.38942 30.388 9.89307 30.6975 10.138C31.1321 10.5308 31.6468 10.9936 32.2119 11.4947C32.6892 12.3116 33.0834 12.952 33.3129 13.2741C33.6267 13.7814 34 14.3816 34.4121 15.0337C34.642 15.9692 34.842 16.709 34.9725 17.0877C35.1274 17.6547 35.3121 18.3246 35.5188 19.0541C35.4793 20.0027 35.4653 20.7572 35.4847 21.1533C35.4746 21.7702 35.4644 22.5052 35.4594 23.3076C35.1268 24.2471 34.8791 25.0015 34.7782 25.3993C34.6014 25.9442 34.3947 26.5863 34.1741 27.2882C33.6408 28.0446 33.2313 28.6548 33.0364 28.9919C32.7059 29.4861 32.3159 30.0723 31.895 30.715C31.1422 31.3108 30.5546 31.7983 30.265 32.0737C29.8112 32.4521 29.2755 32.9011 28.6944 33.3951C27.8104 33.7536 27.1144 34.0547 26.7608 34.2369C26.2125 34.4756 25.5633 34.7602 24.8571 35.0758C23.8962 35.1693 23.1337 35.2613 22.7395 35.3362C22.1311 35.4113 21.4073 35.5023 20.6179 35.6077C19.6474 35.4119 18.871 35.2738 18.4649 35.23C17.89 35.1297 17.2108 35.0129 16.4689 34.8906ZM16.352 35.2422C15.8262 35.1557 15.2698 35.0667 14.6975 34.979C15.0688 35.3496 15.4464 35.7307 15.8193 36.1119C15.8825 36.1766 15.9456 36.2412 16.0085 36.3058L16.0538 36.2979C16.6306 36.1972 17.2178 36.1016 17.8006 36.0114C17.2857 35.7331 16.7958 35.473 16.352 35.2422ZM18.3996 35.9204C18.0925 35.7528 17.7915 35.5902 17.5009 35.4348C17.8246 35.4901 18.1286 35.5427 18.408 35.5915L18.414 35.5925L18.42 35.5932C18.6547 35.6182 19.024 35.6771 19.4901 35.7623C19.133 35.8126 18.7682 35.8653 18.3996 35.9204ZM18.3321 36.3004C17.6638 36.4009 16.9845 36.5089 16.3169 36.6236C16.926 37.2539 17.5103 37.8729 18.0201 38.4331C18.6629 38.0649 19.3818 37.6834 20.1331 37.3033C20.1076 37.2889 20.0821 37.2744 20.0566 37.26C19.4788 36.9327 18.8954 36.6084 18.3321 36.3004ZM20.5263 37.106C20.4301 37.0512 20.3336 36.9964 20.2369 36.9416C19.8019 36.6952 19.3629 36.45 18.931 36.2119C19.5081 36.128 20.0714 36.05 20.6056 35.9785C21.0867 36.076 21.6155 36.1875 22.1706 36.3088C21.6528 36.5538 21.1328 36.8049 20.6235 37.0577C20.591 37.0738 20.5586 37.0899 20.5263 37.106ZM20.5148 37.5208C19.7157 37.9215 18.9508 38.324 18.2712 38.711C18.3148 38.7596 18.3577 38.8077 18.3999 38.8552C18.7129 39.2075 18.9879 39.5291 19.2093 39.8053C19.7925 39.8594 20.3835 39.8871 20.9809 39.8871C21.2836 39.8871 21.5847 39.88 21.884 39.8659C22.1256 39.5636 22.4103 39.2388 22.7258 38.8996C22.7405 38.8838 22.7553 38.8679 22.7701 38.852C22.0919 38.4356 21.3166 37.9795 20.5148 37.5208ZM23.0273 38.5807C22.389 38.1875 21.6627 37.7584 20.9085 37.3248C21.5174 37.0239 22.1403 36.7258 22.7553 36.438C23.3649 36.5742 23.9962 36.7198 24.6233 36.8695C24.6627 36.879 24.7021 36.8884 24.7415 36.8978C24.1251 37.4758 23.5409 38.0456 23.0273 38.5807ZM23.0875 39.0484C23.0559 39.082 23.0246 39.1155 22.9937 39.1488C22.7702 39.389 22.5653 39.6189 22.3822 39.836C22.9327 39.7957 23.4766 39.7319 24.013 39.6456C23.7949 39.4987 23.5495 39.3394 23.282 39.1705C23.2184 39.1303 23.1535 39.0896 23.0875 39.0484ZM24.5273 39.5555C24.2364 39.3501 23.8799 39.1153 23.4774 38.8611C23.4338 38.8337 23.3898 38.8059 23.3452 38.778C23.8886 38.2148 24.5108 37.612 25.1673 37.0007C26.078 37.2226 26.9609 37.4493 27.734 37.664L27.7315 37.6689C27.5225 38.0876 27.3395 38.4834 27.1924 38.8446C26.3306 39.1438 25.4406 39.3824 24.5273 39.5555ZM24.8179 40.2355C24.3654 40.2478 23.862 40.2607 23.3538 40.2713C22.8028 40.3892 22.2854 40.4955 21.8003 40.5907C21.757 40.6544 21.7169 40.7162 21.6801 40.7758C22.0923 40.872 22.6248 40.986 23.1588 41.0708C23.6398 40.8942 24.2229 40.6492 24.9194 40.326C24.8902 40.2983 24.8563 40.2681 24.8179 40.2355ZM25.155 40.6199C24.6966 40.8338 24.2845 41.0155 23.9157 41.1675C24.1864 41.192 24.4371 41.2013 24.6512 41.1897C24.8865 41.1769 25.0583 41.1395 25.1638 41.084C25.2143 41.0574 25.2418 41.0306 25.2565 41.0079C25.2699 40.9872 25.279 40.9604 25.2767 40.9191C25.2732 40.8535 25.2413 40.7558 25.155 40.6199ZM22.4228 41.3105C22.0815 41.2431 21.7633 41.1718 21.5021 41.1098C21.4644 41.202 21.4507 41.2704 21.4519 41.317C21.4527 41.3459 21.459 41.3607 21.4638 41.3684C21.4683 41.3756 21.4776 41.3866 21.5015 41.3982C21.5561 41.4247 21.6675 41.4445 21.8671 41.4236C22.0152 41.4081 22.1991 41.3717 22.4228 41.3105ZM21.3077 40.686C21.3077 40.6859 21.3078 40.6859 21.3078 40.6858C21.3076 40.6858 21.3074 40.6859 21.3071 40.6859C21.3073 40.6859 21.3075 40.686 21.3077 40.686ZM20.4653 40.4682C20.8166 40.4061 21.1895 40.3369 21.585 40.26L21.5969 40.2433C21.3924 40.2497 21.187 40.2529 20.9809 40.2529C20.4913 40.2529 20.0059 40.2347 19.5255 40.1989L19.5242 40.2186C19.5262 40.2214 19.5282 40.2241 19.5301 40.2269C19.7798 40.2915 20.0114 40.3512 20.2161 40.4039C20.3044 40.4267 20.3877 40.4482 20.4653 40.4682ZM17.8335 40.1604C17.2738 40.1174 16.749 40.073 16.2577 40.0271C16.1991 40.0751 16.144 40.1222 16.0925 40.1683C16.4607 40.3755 16.9501 40.6394 17.4516 40.8759C17.969 40.8397 18.6041 40.7661 19.3708 40.6491C19.3521 40.6178 19.3304 40.5837 19.306 40.5468C18.851 40.4288 18.3434 40.2962 17.8335 40.1604ZM16.9986 1.51031C17.0279 1.53808 17.0618 1.56833 17.1002 1.60098C17.5528 1.58862 18.0562 1.57576 18.5643 1.56514C19.1153 1.44727 19.6326 1.341 20.1178 1.24574C20.1611 1.18202 20.2012 1.12029 20.238 1.06063C19.8257 0.964378 19.2931 0.85041 18.7591 0.765648C18.278 0.942196 17.695 1.18724 16.9986 1.51031ZM14.6843 3.09214C15.5867 2.77405 16.5203 2.5224 17.4795 2.34306C17.753 2.5332 18.0782 2.74643 18.4408 2.97532C18.4843 3.00278 18.5283 3.03048 18.5729 3.0584C18.0294 3.62166 17.4072 4.22445 16.7507 4.83569C15.8401 4.61382 14.9572 4.3871 14.1841 4.17246L14.1866 4.16739C14.3764 3.78715 14.5448 3.42585 14.6843 3.09214ZM18.6361 2.66595C18.6997 2.70612 18.7646 2.74681 18.8305 2.78798C18.8622 2.75433 18.8935 2.72084 18.9245 2.68752C19.121 2.47624 19.3032 2.273 19.4687 2.07946C18.9731 2.11863 18.4828 2.17688 17.9986 2.25349C18.1926 2.38271 18.4062 2.5208 18.6361 2.66595ZM17.1765 4.93859C17.7929 4.36059 18.3771 3.7908 18.8907 3.25575C19.5291 3.6489 20.2554 4.07804 21.0097 4.51168C20.4008 4.81259 19.7778 5.11061 19.1629 5.39842C18.5533 5.26222 17.922 5.11663 17.2949 4.96692L17.2434 4.95462L17.1765 4.93859ZM19.1479 2.98439C19.8262 3.40079 20.6016 3.85699 21.4034 4.3157C22.2026 3.9149 22.9674 3.51241 23.6471 3.12535C23.6035 3.07671 23.5606 3.02861 23.5184 2.9811C23.2322 2.65902 22.9778 2.3626 22.7671 2.10311C22.1791 2.04809 21.5833 2.01995 20.9809 2.01995C20.6428 2.01995 20.3067 2.02882 19.973 2.04632C19.745 2.32688 19.4816 2.62574 19.1924 2.9367C19.1776 2.95256 19.1628 2.96846 19.1479 2.98439ZM21.2947 4.7788C21.3271 4.7627 21.3595 4.74658 21.3919 4.73046C21.4881 4.78529 21.5846 4.84009 21.6812 4.89483C22.1163 5.14122 22.5553 5.38641 22.9871 5.62458C22.4101 5.70848 21.8468 5.78645 21.3126 5.85797C20.8314 5.7605 20.3027 5.64894 19.7476 5.52764C20.2654 5.28263 20.7854 5.03159 21.2947 4.7788ZM21.8615 4.57647C22.4394 4.90374 23.0227 5.22807 23.586 5.53604C24.2544 5.43554 24.9338 5.32752 25.6015 5.21278C24.9924 4.58255 24.408 3.96347 23.8982 3.40327C23.2554 3.77153 22.5364 4.15299 21.785 4.53312L21.8615 4.57647ZM22.4281 6.07416C22.7851 6.02388 23.1499 5.97114 23.5186 5.91609C23.8257 6.08363 24.1266 6.24621 24.4172 6.4016C24.0935 6.34635 23.7896 6.29372 23.5102 6.24499L23.5042 6.24394L23.4982 6.2433C23.2635 6.21829 22.8942 6.15932 22.4281 6.07416ZM24.1176 5.82506C24.6324 6.10339 25.1224 6.36349 25.5661 6.59426C26.092 6.68077 26.6485 6.76982 27.2209 6.85751C26.8496 6.48687 26.4719 6.10564 26.099 5.72435C26.0358 5.65977 25.9728 5.59517 25.9099 5.53061L25.8644 5.53857C25.2876 5.63923 24.7004 5.7349 24.1176 5.82506ZM27.4787 7.52779C27.7344 7.65245 28.0127 7.78773 28.3094 7.93106C28.0986 7.72571 27.8814 7.51256 27.6603 7.29398C27.3129 7.24214 26.9698 7.18943 26.634 7.13667C26.9894 7.3115 27.2751 7.44432 27.4676 7.52282L27.4733 7.52512L27.4787 7.52779ZM30.929 9.85468C30.7656 9.72565 30.5275 9.51836 30.234 9.25122C30.5442 9.39604 30.8616 9.54289 31.1833 9.69006C31.3357 9.96312 31.4858 10.2298 31.632 10.4872C31.3839 10.2646 31.1515 10.0552 30.9383 9.86253L30.9338 9.85845L30.929 9.85468ZM29.3592 8.43438C29.8427 8.66436 30.3551 8.90535 30.8833 9.14942C30.6308 8.69205 30.3754 8.22291 30.1244 7.75503C30.1009 7.71118 30.0774 7.66733 30.054 7.6235C29.4634 7.55013 28.8647 7.46889 28.2729 7.38377C28.6569 7.76035 29.0236 8.11494 29.3592 8.43438ZM32.4983 11.2597C32.2644 10.8586 32.0105 10.4151 31.7461 9.94574C32.3064 10.1985 32.8747 10.4492 33.4367 10.6894C33.4506 10.7566 33.4645 10.824 33.4785 10.8914C33.5837 11.3971 33.6926 11.9052 33.802 12.4022C33.349 12.0099 32.9106 11.625 32.4983 11.2597ZM31.4445 9.40714C32.0707 9.69285 32.712 9.97896 33.3475 10.2529C33.1816 9.4329 33.0289 8.63209 32.9033 7.90861C32.1544 7.85758 31.3378 7.7765 30.498 7.67732C30.8129 8.2632 31.1332 8.84817 31.4445 9.40714ZM34.2655 12.8016C34.1246 12.1729 33.9826 11.5171 33.8463 10.8629C34.6158 11.1862 35.3676 11.4857 36.0636 11.7385C35.9817 12.4694 35.9044 13.2835 35.8343 14.1204C35.3084 13.6881 34.7802 13.2429 34.2655 12.8016ZM33.7565 10.4279C34.5731 10.7744 35.3714 11.0956 36.1068 11.3648C36.1201 11.2533 36.1334 11.1443 36.1469 11.0378C36.2033 10.5923 36.2614 10.1911 36.3206 9.85288C35.8398 9.18958 35.317 8.55868 34.7561 7.9641C34.3848 7.97289 33.9738 7.96534 33.5349 7.94505C33.4507 7.94115 33.3653 7.93678 33.2788 7.93195C33.4135 8.70146 33.5782 9.55643 33.7565 10.4279ZM36.1782 14.4014C36.2507 13.5117 36.3317 12.6422 36.4177 11.8646C36.4922 11.8906 36.566 11.916 36.639 11.9408C37.0628 12.0846 37.4626 12.2078 37.8272 12.303C38.2424 13.11 38.6014 13.9507 38.8988 14.8199C38.7405 15.13 38.5639 15.5035 38.3754 15.9219L38.3682 15.9379L38.3472 15.9846C38.3369 16.0077 38.3265 16.0309 38.3161 16.0543C37.6453 15.569 36.918 15.0023 36.1782 14.4014ZM36.7565 11.5943C37.051 11.6943 37.3301 11.7828 37.5908 11.8583C37.293 11.3155 36.9693 10.7888 36.6214 10.2801C36.5838 10.5243 36.5466 10.7938 36.5099 11.0837C36.4932 11.2158 36.4766 11.352 36.4602 11.4918C36.5604 11.5271 36.6592 11.5613 36.7565 11.5943ZM38.5746 12.0948C38.616 12.102 38.6565 12.1086 38.696 12.1145C38.6154 11.7129 38.4879 11.126 38.3251 10.5379C37.9421 10.1549 37.4519 9.7053 36.8409 9.1824C36.8345 9.20411 36.828 9.22706 36.8215 9.25125C37.0365 9.67815 37.2749 10.1538 37.5112 10.6315C37.8969 11.1523 38.2508 11.6396 38.5746 12.0948ZM39.3661 12.1127C39.3136 12.1379 39.2208 12.1557 39.0764 12.152C39.0237 11.8835 38.9454 11.5064 38.8455 11.0915C39.0539 11.3312 39.1999 11.5296 39.2933 11.6903C39.3941 11.8637 39.4217 11.9735 39.4199 12.0342C39.4191 12.0607 39.4129 12.0737 39.4081 12.0808C39.403 12.0883 39.3921 12.1001 39.3661 12.1127ZM38.0889 9.77204C38.0941 9.78706 38.0993 9.80214 38.1044 9.81728C37.7861 9.52022 37.4173 9.19245 36.9939 8.83199C37.0957 8.65725 37.1834 8.57133 37.2491 8.53622C37.2856 8.51672 37.3137 8.5136 37.3382 8.51696C37.365 8.52065 37.4008 8.53419 37.4463 8.56869C37.5413 8.64071 37.6479 8.78059 37.7591 8.98826C37.8683 9.19202 37.9733 9.44458 38.0721 9.72407C38.0777 9.73999 38.0833 9.75598 38.0889 9.77204ZM36.0371 8.50972C35.8127 8.32563 35.5757 8.13398 35.3257 7.93455C35.2957 7.93711 35.2653 7.93951 35.2345 7.94176C35.6505 8.39723 36.045 8.8727 36.4163 9.36657C36.4219 9.3418 36.4276 9.31755 36.4332 9.29384C36.3098 9.04895 36.1951 8.82226 36.0945 8.62319L36.0943 8.62286L36.0371 8.50972ZM33.956 6.4039C34.492 6.81278 34.9852 7.19651 35.4379 7.55621C35.4756 7.55211 35.5124 7.54772 35.5483 7.54304C35.3611 7.18328 35.0719 6.64751 34.7463 6.11879C34.2684 5.85584 33.6686 5.55852 32.9319 5.22418C32.9319 5.24091 32.932 5.25827 32.9323 5.27628C32.9325 5.28619 32.9327 5.29629 32.9329 5.30659C33.2538 5.64857 33.6061 6.02565 33.956 6.4039ZM39.054 14.1689C38.8286 13.5688 38.5742 12.983 38.2925 12.413C38.3158 12.4179 38.339 12.4226 38.3619 12.4271C38.5517 12.6951 38.7306 12.9514 38.899 13.1963L38.9257 13.3388L38.9259 13.3397C38.971 13.5808 39.0231 13.8586 39.0789 14.1593L39.054 14.1689ZM20.4663 0.519287C20.4675 0.565948 20.4538 0.634327 20.416 0.72665C20.1547 0.66465 19.8364 0.593262 19.4949 0.525856C19.7188 0.464634 19.9029 0.428154 20.0511 0.412647C20.2507 0.391766 20.3621 0.41156 20.4167 0.438072C20.4406 0.449642 20.4499 0.46064 20.4544 0.467873C20.4592 0.475597 20.4655 0.49041 20.4663 0.519287ZM20.6103 1.1507L20.6104 1.15041L20.611 1.15056L20.6103 1.1507ZM20.3331 1.57649C20.7285 1.4996 21.1015 1.43032 21.4528 1.36828L21.7018 1.43245L21.7021 1.43252L21.7029 1.43275C21.9075 1.48546 22.1389 1.54508 22.3883 1.60962L22.394 1.61764L22.3884 1.70463C21.9236 1.67113 21.4542 1.65409 20.9809 1.65409C20.7534 1.65409 20.5269 1.65802 20.3013 1.66583L20.3012 1.62083C20.3119 1.60598 20.3226 1.5912 20.3331 1.57649ZM25.6605 1.80935C25.1691 1.76348 24.6443 1.719 24.0846 1.67608C23.5748 1.54023 23.0673 1.40767 22.6124 1.28973C22.5879 1.25283 22.5663 1.21867 22.5475 1.18732C23.3143 1.07035 23.9495 0.996727 24.467 0.960484C24.9684 1.19697 25.4577 1.46087 25.8258 1.66806C25.7743 1.71417 25.7191 1.76128 25.6605 1.80935ZM16.7631 1.21638C17.2213 1.00256 17.6334 0.820862 18.0021 0.668941C17.7315 0.644493 17.4809 0.635162 17.2669 0.646805C17.0317 0.659595 16.8598 0.696926 16.7543 0.75248C16.7038 0.779083 16.6764 0.805813 16.6617 0.828541C16.6483 0.849258 16.6392 0.876068 16.6414 0.917389C16.6449 0.982887 16.6768 1.08055 16.7631 1.21638ZM5.99337 34.3617C5.84734 34.3986 5.75994 34.4427 5.71543 34.4825C5.69388 34.5017 5.68667 34.5161 5.68389 34.5248C5.68129 34.5329 5.67892 34.5471 5.68551 34.5728C5.7006 34.6316 5.75754 34.7294 5.90248 34.8681C6.04013 34.9999 6.2419 35.1543 6.51905 35.3323C6.30156 34.951 6.11763 34.6031 5.99337 34.3617ZM7.58369 36.348C7.60671 36.3809 7.62977 36.4135 7.65285 36.4456C7.82576 36.6864 7.99712 36.8996 8.1588 37.0648C8.32358 37.2331 8.465 37.3377 8.57633 37.3803C8.62965 37.4007 8.66784 37.4037 8.69462 37.3998C8.71903 37.3962 8.74517 37.3853 8.77477 37.3564C8.82883 37.3036 8.89006 37.1942 8.93933 36.9926C8.42664 36.7615 7.97622 36.5469 7.58369 36.348ZM11.01 37.4811C10.6437 37.331 10.2989 37.1865 9.97471 37.0476L9.9277 36.9977C9.75664 36.8161 9.55904 36.6063 9.34551 36.3789C9.34503 36.3698 9.34453 36.3606 9.344 36.3513C9.87831 36.7558 10.4343 37.133 11.01 37.4811ZM11.0523 37.8936C11.5061 38.0782 11.991 38.2709 12.5085 38.472C12.9903 38.7624 13.4747 39.0507 13.9072 39.3069C13.9175 39.3399 13.9267 39.3708 13.9347 39.3996C13.1521 39.2941 12.5093 39.1843 11.9913 39.072C11.5572 38.6862 11.1473 38.2795 10.8554 37.9798C10.9175 37.951 10.9832 37.9222 11.0523 37.8936ZM7.48675 34.2346C7.93346 34.6885 8.40289 35.1199 8.8932 35.527C8.86061 35.2766 8.8202 35.0005 8.77319 34.7038C8.75118 34.5649 8.72774 34.4217 8.70301 34.2746C8.58886 34.2679 8.47659 34.262 8.36636 34.2569C8.05389 34.2424 7.75954 34.2348 7.48675 34.2346ZM9.07804 34.299C9.09776 34.4175 9.11662 34.5334 9.13454 34.6465C9.20646 35.1004 9.26363 35.5101 9.30126 35.8564C9.99411 36.4002 10.7258 36.8967 11.4916 37.341C11.854 37.2199 12.2631 37.1031 12.7048 36.9906C12.7584 36.977 12.8124 36.9634 12.867 36.9499C12.5025 36.2122 12.0763 35.3886 11.6311 34.5529C10.7386 34.4443 9.87023 34.355 9.07804 34.299ZM12.0748 34.6082C12.4922 35.3957 12.8898 36.1678 13.2316 36.8621C13.9528 36.6932 14.7483 36.5331 15.573 36.3834L15.5577 36.3678C15.0657 35.8647 14.5668 35.3631 14.0859 34.8868C13.4222 34.7884 12.7446 34.6936 12.0748 34.6082ZM22.7133 36.0538C22.3694 35.9773 22.0326 35.9039 21.7076 35.8344C22.097 35.7846 22.4605 35.7393 22.7902 35.6986L22.7963 35.6979L22.8022 35.6967C23.0201 35.655 23.3605 35.6073 23.7914 35.5567C23.4384 35.7176 23.0775 35.8838 22.7133 36.0538ZM25.0625 36.5988C24.9447 36.5703 24.8265 36.5419 24.7082 36.5137C24.2379 36.4014 23.7643 36.2912 23.2986 36.1854C23.8684 35.9221 24.4255 35.6697 24.9519 35.4342C25.4265 35.3884 25.9494 35.3422 26.5003 35.2974C26.0522 35.695 25.6031 36.0999 25.1658 36.5033C25.1313 36.5351 25.0968 36.567 25.0625 36.5988ZM27.9031 37.3313C27.1746 37.1279 26.3468 36.9137 25.4892 36.7028C26.0196 36.2147 26.5665 35.7251 27.1071 35.2496C27.7572 35.1999 28.4343 35.1531 29.1084 35.1119L29.1409 35.1099C28.6857 35.8824 28.2615 36.6373 27.9031 37.3313ZM28.0764 37.7972C28.0706 37.8089 28.0647 37.8206 28.0589 37.8323C27.9104 38.1298 27.7772 38.4118 27.6618 38.6747C28.1484 38.4911 28.6255 38.2881 29.0921 38.0665C28.8403 37.9853 28.5582 37.8996 28.2519 37.8108C28.1995 37.7956 28.1464 37.7803 28.0926 37.765C28.0872 37.7757 28.0818 37.7865 28.0764 37.7972ZM29.5591 37.8368C29.222 37.7198 28.8129 37.5925 28.3538 37.4594C28.3236 37.4506 28.2931 37.4418 28.2624 37.433C28.6423 36.7019 29.0954 35.9021 29.5814 35.0839C30.456 35.0338 31.311 34.9947 32.0785 34.9726C32.0638 35.0468 32.0495 35.1202 32.0358 35.1927C31.949 35.6511 31.8807 36.0805 31.8375 36.4672C31.1135 36.9748 30.3525 37.4329 29.5591 37.8368ZM29.9598 38.3804C29.5877 38.5044 29.1895 38.6362 28.7897 38.7668C28.27 39.0482 27.7818 39.3072 27.3237 39.545C27.2958 39.6314 27.2714 39.714 27.2506 39.7924C27.6728 39.7691 28.198 39.7299 28.713 39.6641C29.1177 39.3668 29.6001 38.976 30.1687 38.4792C30.113 38.4493 30.0433 38.4163 29.9598 38.3804ZM30.4565 38.2252C30.4529 38.2228 30.4494 38.2205 30.4457 38.2181L30.4758 38.208L30.4565 38.2252ZM30.4714 38.7004C30.1049 39.022 29.772 39.3018 29.4708 39.5427C29.7156 39.4936 29.9391 39.4367 30.1273 39.3711C30.3498 39.2936 30.5045 39.2101 30.5905 39.1275C30.6316 39.0879 30.6506 39.0546 30.6584 39.0287C30.6656 39.0051 30.6668 38.9768 30.6533 38.9377C30.6328 38.8789 30.5798 38.7994 30.4714 38.7004ZM28.0662 40.1011C27.7444 40.1296 27.4393 40.1492 27.1793 40.1626C27.1729 40.247 27.1792 40.3075 27.1921 40.3476C27.201 40.3751 27.2113 40.3875 27.2181 40.3936C27.2244 40.3993 27.2365 40.4072 27.2626 40.4116C27.3225 40.4216 27.435 40.4091 27.6205 40.3327C27.7451 40.2814 27.893 40.2054 28.0662 40.1011ZM26.8736 39.7912C26.8749 39.7858 26.8763 39.7803 26.8776 39.7748L26.802 39.8134L26.8514 39.8114L26.869 39.8107C26.8705 39.8042 26.8721 39.7978 26.8736 39.7912ZM25.9376 39.8377C26.278 39.6696 26.6399 39.4867 27.0241 39.2882L27.0242 39.2878C26.3843 39.4986 25.7296 39.6769 25.0621 39.8206L25.0716 39.8624C25.2789 39.8566 25.4725 39.8511 25.6471 39.846L25.648 39.846L25.6482 39.846L25.6482 39.846C25.7517 39.843 25.8485 39.8402 25.9376 39.8377ZM14.726 1.48864C14.739 1.52877 14.7453 1.58935 14.7389 1.67383C14.4788 1.6873 14.1736 1.70689 13.8516 1.73538C14.0249 1.63101 14.173 1.5549 14.2977 1.50357C14.4832 1.42719 14.5957 1.41471 14.6556 1.42472C14.6817 1.42909 14.6938 1.43701 14.7001 1.44268C14.7069 1.44873 14.7172 1.46115 14.726 1.48864ZM14.6675 2.04405C14.2452 2.06735 13.72 2.10656 13.2049 2.17239C12.8002 2.46964 12.3178 2.86047 11.7494 3.35717C11.8051 3.38712 11.8748 3.42017 11.9584 3.45604C12.3302 3.33214 12.7281 3.20042 13.1276 3.06993C13.6476 2.78839 14.1362 2.52919 14.5945 2.29123C14.6224 2.2049 14.6468 2.12243 14.6675 2.04405ZM11.7909 2.46532C11.979 2.39977 12.2024 2.34288 12.4471 2.2938C12.1459 2.53465 11.8131 2.81442 11.4466 3.13601C11.3384 3.03699 11.2853 2.95751 11.2649 2.89873C11.2513 2.85964 11.2526 2.83137 11.2598 2.80774C11.2676 2.78183 11.2865 2.74854 11.3277 2.70897C11.4136 2.62635 11.5684 2.54284 11.7909 2.46532ZM11.4421 3.62857L11.4616 3.61118C11.4652 3.61357 11.4688 3.61598 11.4725 3.61838L11.4421 3.62857ZM10.0678 5.47953C10.8284 4.94211 11.6304 4.45937 12.4681 4.03701C12.7831 4.14359 13.1537 4.25798 13.5644 4.37704C13.5946 4.3858 13.625 4.3946 13.6557 4.40342C13.2758 5.13452 12.8227 5.93435 12.3367 6.75258C11.4621 6.80263 10.6071 6.84179 9.83967 6.86383C9.85438 6.78962 9.86863 6.71618 9.88239 6.64356C9.96104 6.22837 10.0244 5.83697 10.0678 5.47953ZM12.7772 6.72656C13.2324 5.95401 13.6566 5.19918 14.015 4.50517C14.7435 4.7085 15.5713 4.92273 16.4289 5.13358C15.8984 5.62171 15.3515 6.1114 14.8109 6.58685C14.1609 6.63652 13.4838 6.68337 12.8098 6.72457L12.7772 6.72656ZM16.8204 5.27019L16.8556 5.23763C16.9734 5.26613 17.0916 5.29453 17.21 5.32278C17.6803 5.43507 18.1538 5.54525 18.6195 5.65105C18.0498 5.91431 17.4927 6.16672 16.9663 6.40224C16.4916 6.44804 15.9687 6.49427 15.4177 6.53903C15.8659 6.14145 16.3151 5.73648 16.7524 5.33296C16.7751 5.31203 16.7978 5.29111 16.8204 5.27019ZM18.1268 6.27971C18.4798 6.11881 18.8407 5.95261 19.2049 5.78263C19.5488 5.85914 19.8856 5.9326 20.2106 6.00204C19.8212 6.05182 19.4577 6.09718 19.128 6.13784L19.1219 6.13859L19.1159 6.13974C18.8981 6.18145 18.5577 6.22911 18.1268 6.27971ZM27.8326 6.94971C28.4962 7.04807 29.1738 7.14285 29.8436 7.22826C29.4262 6.44077 29.0285 5.66867 28.6867 4.9743C27.9656 5.14326 27.1701 5.30331 26.3453 5.45299L26.3605 5.46852C26.8526 5.97164 27.3516 6.4733 27.8326 6.94971ZM30.2873 7.28357C31.1797 7.39218 32.0481 7.48142 32.8402 7.53748C32.8205 7.41893 32.8016 7.30292 32.7837 7.18974C32.7145 6.75334 32.659 6.3577 32.6214 6.01999C31.9119 5.46614 31.1619 4.96177 30.3766 4.51202C30.0266 4.62727 29.6348 4.73855 29.2134 4.84581C29.1599 4.85942 29.1058 4.87299 29.0513 4.88649C29.4158 5.6242 29.842 6.44788 30.2873 7.28357ZM33.5518 7.57957C33.8543 7.59356 34.1397 7.60119 34.4051 7.60178C33.9677 7.16198 33.5088 6.74356 33.0301 6.34822C33.0618 6.58823 33.1004 6.85109 33.145 7.13248C33.1671 7.27141 33.1905 7.41471 33.2152 7.56184C33.3294 7.56855 33.4416 7.57447 33.5518 7.57957ZM36.2028 7.354C36.1583 7.39374 36.0709 7.43778 35.9249 7.47475C35.8007 7.23344 35.6168 6.88555 35.3994 6.50426C35.6764 6.68227 35.8781 6.83661 36.0157 6.96833C36.1606 7.10706 36.2176 7.20486 36.2327 7.26368C36.2393 7.28934 36.2369 7.30357 36.2343 7.31168C36.2315 7.32035 36.2243 7.33475 36.2028 7.354ZM34.2654 5.39066C34.2885 5.4229 34.3117 5.45557 34.3348 5.48861C33.9422 5.28967 33.4917 5.07503 32.9789 4.84387C33.0281 4.6421 33.0894 4.5327 33.1435 4.47988C33.1731 4.45096 33.1992 4.44011 33.2236 4.43651C33.2504 4.43256 33.2886 4.43556 33.3419 4.45598C33.4532 4.4986 33.5947 4.60315 33.7594 4.77151C33.9211 4.9367 34.0925 5.14988 34.2654 5.39066ZM31.9438 4.78898C31.6068 4.64454 31.2474 4.49414 30.8648 4.33763C30.8558 4.34113 30.8468 4.34462 30.8378 4.34812L30.8281 4.35184C31.4331 4.71144 32.0167 5.10317 32.5766 5.52467C32.5758 5.51243 32.5751 5.50031 32.5744 5.4883C32.5738 5.47792 32.5733 5.46762 32.5727 5.45741C32.3596 5.2304 32.1623 5.02094 31.9914 4.83952L31.9905 4.83857L31.9895 4.83747L31.9874 4.8352L31.9438 4.78898ZM29.4106 3.36481C29.9278 3.56575 30.4124 3.75836 30.8659 3.9429C30.935 3.91419 31.0007 3.8854 31.0629 3.85654C30.771 3.55692 30.3612 3.15028 29.9272 2.76451C29.4091 2.65221 28.7663 2.5424 27.9836 2.43688C27.9916 2.46563 28.0007 2.49647 28.0111 2.52936C28.4438 2.78573 28.9286 3.07426 29.4106 3.36481ZM13.6662 4.02565C13.7186 4.04084 13.7717 4.05612 13.8255 4.07148C13.8368 4.04891 13.8481 4.02642 13.8593 4.00401C13.9882 3.74569 14.1056 3.49915 14.2098 3.26662C13.7792 3.43159 13.3561 3.61184 12.9412 3.8067C13.1629 3.8769 13.4058 3.95014 13.6662 4.02565ZM15.1158 2.02311C15.0942 2.02394 15.072 2.02482 15.0491 2.02575C15.0464 2.03759 15.0435 2.0495 15.0406 2.0615L15.1158 2.02311ZM14.8941 2.54811C15.2781 2.34967 15.6399 2.1668 15.9802 1.99877C16.0694 1.99623 16.1664 1.99344 16.27 1.99046C16.4449 1.98542 16.6388 1.97984 16.8466 1.97402L16.8735 2.09208C16.188 2.24067 15.516 2.42569 14.8597 2.64502C14.8715 2.61235 14.883 2.58005 14.8941 2.54811ZM10.5193 38.1588C10.413 38.2272 10.3526 38.2868 10.3246 38.3328C10.3096 38.3574 10.3069 38.3733 10.3068 38.3824C10.3066 38.391 10.3085 38.4052 10.3223 38.4279C10.3538 38.4798 10.4368 38.5567 10.6158 38.6473C10.7692 38.7248 10.9778 38.8048 11.2497 38.8855C10.9649 38.6138 10.7108 38.357 10.5193 38.1588ZM12.5711 39.5587C12.58 39.5657 12.5889 39.5726 12.5978 39.5795C12.8318 39.7614 13.0565 39.9173 13.2584 40.0299C13.4641 40.1447 13.6294 40.2049 13.7482 40.2142C13.8052 40.2187 13.8426 40.2107 13.8672 40.1994C13.8896 40.189 13.9116 40.1712 13.9318 40.1351C13.9664 40.073 13.993 39.9613 13.9879 39.7758C13.4564 39.7054 12.9855 39.6329 12.5711 39.5587ZM16.1448 39.6489C15.7417 39.6106 15.3624 39.5713 15.0058 39.5312L14.8386 39.4325L14.8385 39.4325C14.6517 39.3222 14.4398 39.197 14.2112 39.0618C14.2073 39.0505 14.2033 39.0392 14.1993 39.0278C14.8347 39.2663 15.4861 39.4723 16.1514 39.6437L16.1448 39.6489ZM11.927 37.5861C12.4489 37.8708 12.9857 38.1316 13.5359 38.3672C13.4316 38.1309 13.3116 37.8707 13.1787 37.5916C13.1312 37.4921 13.0822 37.3902 13.0317 37.2862C12.9517 37.3057 12.8728 37.3254 12.7951 37.3452C12.4841 37.4243 12.1935 37.5047 11.927 37.5861ZM13.3963 37.1994C13.4347 37.279 13.4723 37.3573 13.509 37.4343C13.7104 37.8573 13.8842 38.2407 14.0196 38.5663C14.8315 38.8875 15.671 39.1542 16.5335 39.3618C16.8494 39.1402 17.2126 38.9091 17.6092 38.673C17.6381 38.6558 17.6672 38.6385 17.6965 38.6212C17.1543 38.027 16.5296 37.3677 15.8812 36.6998C15.0045 36.8557 14.1586 37.0229 13.3963 37.1994ZM26.9574 34.8942C26.6272 34.9197 26.3042 34.946 25.9924 34.9726C26.3217 34.8276 26.6304 34.6927 26.9124 34.5699L26.918 34.5675L26.9234 34.5647C27.1142 34.466 27.4137 34.3294 27.7947 34.1656C27.5198 34.4028 27.2397 34.6464 26.9574 34.8942ZM29.3664 34.7299C29.2731 34.7354 29.1796 34.741 29.0861 34.7467C28.5775 34.7778 28.0663 34.8121 27.5654 34.8486C28.0196 34.453 28.4646 34.0709 28.8865 33.712C29.3307 33.5323 29.8223 33.338 30.3418 33.1371C30.0219 33.6483 29.7032 34.1671 29.3955 34.6811L29.3664 34.7299ZM32.1539 34.6045C31.4321 34.6242 30.6311 34.6594 29.8081 34.7047C30.1675 34.1076 30.5405 33.5057 30.9115 32.9182C31.4985 32.6944 32.1107 32.4658 32.7227 32.2426C32.5053 33.0653 32.3096 33.867 32.1539 34.6045ZM32.4535 34.9631C32.4332 35.0638 32.4138 35.1631 32.3953 35.2608C32.3337 35.5858 32.2825 35.8917 32.2431 36.1748C32.7578 35.7934 33.2524 35.3864 33.7251 34.9559C33.4624 34.9516 33.17 34.9518 32.8539 34.956C32.7242 34.9577 32.5905 34.9601 32.4535 34.9631ZM34.1054 34.6C33.7501 34.5865 33.324 34.5839 32.8491 34.5901C32.745 34.5915 32.6385 34.5933 32.5298 34.5955C32.6965 33.8161 32.9076 32.9643 33.1417 32.0906C34.0441 31.7652 34.9308 31.4577 35.7194 31.2009C35.7237 31.241 35.728 31.2808 35.7324 31.3204C35.7835 31.7824 35.8438 32.2114 35.9154 32.5927C35.3601 33.3043 34.755 33.9751 34.1054 34.6ZM34.688 35.0076C34.3239 35.2622 33.9251 35.5398 33.5242 35.8163C33.035 36.3027 32.5783 36.748 32.1526 37.1544C32.1516 37.1899 32.1509 37.2247 32.1507 37.2587C32.5387 37.1225 33.0988 36.9157 33.6543 36.6744C33.9794 36.2433 34.3554 35.697 34.7871 35.0209C34.7564 35.0163 34.7234 35.0119 34.688 35.0076ZM35.1547 35.1248C34.8582 35.5917 34.5863 36.0005 34.3376 36.3554C34.3643 36.3418 34.3907 36.3283 34.417 36.3146C34.6801 36.1781 34.9156 36.0391 35.1023 35.9028C35.2926 35.7638 35.4163 35.6389 35.4745 35.5348C35.5023 35.485 35.5108 35.4476 35.5107 35.4205C35.5107 35.3959 35.5037 35.3684 35.4793 35.335C35.4357 35.2752 35.3395 35.2008 35.1547 35.1248ZM33.1778 37.2671C32.7855 37.4217 32.4264 37.5506 32.1672 37.6404C32.1837 37.7812 32.214 37.8692 32.246 37.9171C32.262 37.9412 32.2753 37.9503 32.2835 37.9543C32.2911 37.958 32.3049 37.9624 32.3312 37.9595C32.3916 37.9528 32.4964 37.9102 32.6541 37.7862C32.7986 37.6725 32.9724 37.5028 33.1778 37.2671ZM31.1487 37.5961C31.3547 37.4055 31.5694 37.2041 31.7932 36.9914C31.7941 36.9744 31.795 36.9574 31.796 36.9402C31.2819 37.2887 30.7501 37.613 30.2023 37.9115L30.2033 37.9134C30.4787 37.8213 30.7333 37.7357 30.9555 37.661L31.1487 37.5961ZM25.7089 2.23746C25.7307 2.22074 25.7522 2.20409 25.7734 2.18751C26.1766 2.2259 26.5561 2.26519 26.9129 2.30527L27.0732 2.39995L27.0733 2.40002L27.0781 2.40284L27.0788 2.40325L27.0797 2.40377L27.08 2.40395C27.2667 2.51419 27.4786 2.63928 27.707 2.77451C27.718 2.80601 27.7295 2.83834 27.7417 2.87145C27.0805 2.62413 26.4022 2.41204 25.7089 2.23746ZM29.3389 2.27116L29.3474 2.27781C28.933 2.20356 28.462 2.13103 27.9304 2.06067C27.9252 1.87506 27.9518 1.76325 27.9865 1.70121C28.0067 1.66508 28.0286 1.64727 28.051 1.6369C28.0756 1.62553 28.1131 1.61758 28.17 1.62206C28.2888 1.6314 28.4541 1.69158 28.6598 1.80635C28.8617 1.91896 29.0864 2.07485 29.3205 2.25677L29.3389 2.27116ZM31.3991 3.67757C31.2076 3.47943 30.9535 3.22269 30.6688 2.95108C30.9406 3.03176 31.1491 3.11168 31.3023 3.18918C31.4814 3.27971 31.5643 3.3567 31.5959 3.40857C31.6097 3.43121 31.6115 3.4455 31.6114 3.45403C31.6113 3.46313 31.6086 3.47901 31.5936 3.50369C31.5656 3.54968 31.5053 3.60919 31.3991 3.67757ZM28.4109 3.53344C28.9315 3.75578 29.4401 4.00079 29.9355 4.2672C29.6844 4.34283 29.4126 4.41759 29.1231 4.49125C29.0454 4.51102 28.9665 4.53069 28.8866 4.55026C28.8361 4.44622 28.787 4.34427 28.7396 4.24465C28.6186 3.99067 28.5083 3.75235 28.4109 3.53344ZM28.4093 4.40195C28.4459 4.47897 28.4836 4.55735 28.5221 4.63699C27.7597 4.81353 26.9138 4.98072 26.0371 5.13663C25.3888 4.46873 24.7641 3.8094 24.2218 3.21518C24.2511 3.19791 24.2801 3.18068 24.309 3.16348C24.6789 2.94321 25.0197 2.72744 25.3202 2.51955C26.2147 2.72931 27.0849 3.0025 27.9255 3.33412C28.0567 3.64552 28.2209 4.00642 28.4093 4.40195ZM15.9258 6.86387C15.6139 6.89048 15.2909 6.91674 14.9606 6.94229C14.6782 7.19012 14.398 7.43378 14.1231 7.67101C14.5043 7.50716 14.8039 7.37045 14.9948 7.27174L15.0002 7.26895L15.0058 7.26652C15.2878 7.14372 15.5965 7.00884 15.9258 6.86387ZM12.8321 7.08976C12.7385 7.09548 12.645 7.10109 12.5517 7.10658L12.5226 7.15514C12.2149 7.66923 11.8962 8.18812 11.5763 8.69946C12.0957 8.49851 12.5871 8.3043 13.0313 8.1246C13.4532 7.76563 13.8983 7.38351 14.3525 6.98791C13.8518 7.02433 13.3406 7.05868 12.8321 7.08976ZM12.11 7.13175C11.287 7.17709 10.486 7.21226 9.76427 7.23195C9.60856 7.96946 9.4128 8.77118 9.19543 9.59391C9.80741 9.37073 10.4195 9.14213 11.0066 8.91827C11.3776 8.33082 11.7506 7.72884 12.11 7.13175ZM9.52291 6.57546C9.50439 6.67325 9.48496 6.77259 9.46468 6.87337C9.32764 6.87638 9.19402 6.87876 9.06426 6.88047C8.79541 6.88402 8.54364 6.88469 8.31269 6.88216C8.74383 6.49376 9.19291 6.12489 9.65855 5.77695C9.62172 6.02721 9.57619 6.29422 9.52291 6.57546ZM9.06909 7.24631C8.6436 7.25193 8.25734 7.25044 7.92603 7.2403C7.24027 7.89334 6.60343 8.59728 6.02157 9.34608C6.08501 9.70122 6.13925 10.0949 6.18581 10.5159C6.19019 10.5555 6.19451 10.5954 6.19876 10.6355C6.98738 10.3788 7.87408 10.0712 8.77638 9.74587C9.01053 8.87222 9.22164 8.02037 9.38833 7.24093C9.27964 7.24313 9.17315 7.24493 9.06909 7.24631ZM8.39344 6.02059C7.99266 6.29688 7.59411 6.57437 7.2302 6.82881C7.19477 6.82458 7.16168 6.82015 7.13096 6.81551C7.56259 6.13953 7.93858 5.59323 8.26364 5.16214C8.81927 4.92079 9.37946 4.714 9.76752 4.57775C9.76725 4.61171 9.7666 4.64644 9.76559 4.68192C9.33968 5.08842 8.88281 5.53389 8.39344 6.02059ZM7.58039 5.4812C7.33172 5.83598 7.05984 6.24476 6.76337 6.71164C6.57869 6.63564 6.48245 6.56126 6.43887 6.50146C6.4145 6.46802 6.40751 6.44059 6.40745 6.41592C6.40739 6.38885 6.41584 6.35148 6.4437 6.30164C6.50185 6.19759 6.62561 6.07262 6.81587 5.9337C7.00254 5.79739 7.2381 5.65839 7.5012 5.52182C7.52738 5.50824 7.55378 5.4947 7.58039 5.4812ZM9.75099 4.19601C9.49173 4.28582 9.13256 4.41479 8.74019 4.56949C8.94565 4.33361 9.11949 4.16378 9.26406 4.05012C9.42179 3.92612 9.52662 3.88349 9.58697 3.87682C9.61331 3.87391 9.62706 3.87825 9.63473 3.88196C9.64293 3.88593 9.65617 3.8951 9.67219 3.91913C9.70415 3.96708 9.73447 4.05518 9.75099 4.19601ZM10.125 4.84488C10.3486 4.6323 10.5633 4.43095 10.7691 4.24046L10.9627 4.17543L10.9628 4.1754C11.185 4.10072 11.4396 4.01517 11.715 3.92304L11.7563 3.99718C11.1916 4.30506 10.6439 4.64033 10.1151 5.00121C10.119 4.94804 10.1223 4.89592 10.125 4.84488ZM15.8253 40.4375C15.7561 40.5219 15.7207 40.5881 15.7081 40.6358C15.7007 40.6637 15.7026 40.6797 15.7051 40.6885C15.7074 40.6967 15.7133 40.7099 15.7329 40.7277C15.7779 40.7684 15.8793 40.8187 16.0767 40.8547C16.2315 40.8829 16.4312 40.8998 16.6816 40.9026C16.3585 40.7355 16.0621 40.5719 15.8253 40.4375ZM18.149 41.18C18.4142 41.2845 18.6638 41.3677 18.8816 41.418C19.1111 41.4709 19.2866 41.4828 19.4033 41.4587C19.4592 41.4471 19.493 41.4291 19.5135 41.4113C19.5321 41.3951 19.5482 41.3719 19.5576 41.3316C19.5728 41.2657 19.5686 41.1587 19.5194 40.9964C19.0089 41.0755 18.5533 41.1362 18.149 41.18ZM17.0211 39.4724C17.5692 39.589 18.1261 39.6819 18.6906 39.75C18.5233 39.5503 18.3339 39.3317 18.1264 39.0982C18.0681 39.0326 18.0084 38.9658 17.9474 38.8981C17.8965 38.9279 17.8461 38.9577 17.7964 38.9873C17.5162 39.1542 17.2566 39.3163 17.0211 39.4724ZM30.6673 32.6199C30.3584 32.738 30.0567 32.8547 29.7659 32.9685C30.0293 32.7472 30.2769 32.5402 30.5039 32.3509L30.5086 32.347L30.513 32.3428C30.6712 32.1919 30.9262 31.9718 31.254 31.7015C31.0608 32.0012 30.8645 32.3083 30.6673 32.6199ZM32.8381 31.8113C32.7849 31.8306 32.7318 31.8499 32.6786 31.8692C32.1962 32.0448 31.7121 32.2243 31.2387 32.4028C31.557 31.9043 31.8703 31.4209 32.1686 30.9651C32.5241 30.6842 32.9163 30.3791 33.3314 30.0608C33.1619 30.6417 32.9954 31.2301 32.8381 31.8113ZM35.6825 30.8283C34.94 31.0689 34.1088 31.3553 33.2585 31.6599C33.439 31.0014 33.6303 30.3362 33.8231 29.6856C34.3626 29.2761 34.9297 28.8523 35.4972 28.4355L35.5292 28.4121C35.5638 29.2618 35.6132 30.0828 35.6825 30.8283ZM36.0753 31.0864C36.0821 31.1517 36.089 31.2163 36.096 31.2802C36.1322 31.6074 36.1727 31.9136 36.2177 32.1947C36.5612 31.7299 36.8839 31.2488 37.1845 30.7528C36.9318 30.8232 36.652 30.9063 36.3508 30.9998C36.2608 31.0278 36.1689 31.0567 36.0753 31.0864ZM37.4485 30.3034C37.1042 30.3913 36.6954 30.5097 36.2423 30.6504C36.1756 30.6711 36.108 30.6923 36.0394 30.714C35.9683 29.9266 35.9188 29.0543 35.8852 28.1518C36.6211 27.6158 37.3454 27.1013 37.9978 26.6555C38.0151 26.6977 38.0323 26.7396 38.0495 26.7812C38.2273 27.2098 38.4048 27.6043 38.5797 27.9501C38.2559 28.7638 37.8773 29.5498 37.4485 30.3034ZM37.9408 30.1902L37.9293 30.1925C38.2515 29.6026 38.5439 28.994 38.8043 28.3688L38.8161 28.3893C38.7295 28.7505 38.6449 29.0915 38.5624 29.4131L38.4317 29.5765L38.4306 29.5779L38.4306 29.5779L38.4273 29.582C38.2833 29.7622 38.1188 29.9681 37.9408 30.1902ZM38.1408 30.5257C37.8348 30.9072 37.4937 31.3308 37.1511 31.7516C36.8873 32.2214 36.6356 32.662 36.3956 33.0746C36.4172 33.158 36.4395 33.2371 36.4626 33.3114C36.8028 33.0624 37.2503 32.7226 37.6786 32.3592C37.8604 31.8699 38.0569 31.2576 38.2686 30.5072C38.23 30.5118 38.1874 30.5179 38.1408 30.5257ZM38.6469 30.5131C38.5063 31.0162 38.3718 31.4608 38.2432 31.8511C38.4534 31.6481 38.6369 31.4506 38.7755 31.2691C38.9185 31.0819 39.0016 30.9269 39.0279 30.8106C39.0404 30.7549 39.0379 30.7167 39.0302 30.6908C39.0231 30.6671 39.0086 30.6428 38.9757 30.6177C38.9212 30.576 38.8198 30.5351 38.6469 30.5131ZM37.3861 33.0701C37.0939 33.3003 36.8173 33.5063 36.5959 33.667C36.6454 33.7696 36.6925 33.8316 36.7317 33.8636C36.754 33.8819 36.7694 33.8868 36.7784 33.8882C36.7868 33.8895 36.8012 33.8896 36.8255 33.8791C36.8813 33.8551 36.969 33.7836 37.0835 33.6188C37.1756 33.4862 37.2766 33.3056 37.3861 33.0701ZM36.151 33.536C36.1478 33.5268 36.1447 33.5174 36.1416 33.5081L36.1064 33.5676L36.1203 33.5578L36.151 33.536ZM35.3718 34.0814C35.5407 33.8037 35.7166 33.5092 35.9 33.1973C35.4969 33.6878 35.0701 34.1582 34.6214 34.6065L34.6221 34.6072C34.8698 34.4339 35.0985 34.2733 35.2973 34.1337L35.2987 34.1327L35.3001 34.1317L35.3718 34.0814ZM23.0367 0.418304C23.2545 0.46859 23.5042 0.551815 23.7696 0.656403C23.3652 0.700226 22.9095 0.760937 22.3988 0.840034C22.3497 0.677616 22.3454 0.570568 22.3606 0.504715C22.37 0.464401 22.3862 0.441166 22.4048 0.42498C22.4252 0.407219 22.459 0.389156 22.5149 0.377617C22.6316 0.353508 22.8071 0.36533 23.0367 0.418304ZM26.093 1.39879C25.8563 1.26443 25.56 1.10091 25.237 0.933826C25.4872 0.936634 25.6868 0.953617 25.8415 0.981796C26.0389 1.01775 26.1403 1.06801 26.1853 1.10878C26.2049 1.12658 26.2108 1.13975 26.2131 1.14796C26.2155 1.15673 26.2175 1.17272 26.2101 1.20065C26.1975 1.24829 26.1621 1.3145 26.093 1.39879ZM23.289 2.15923C23.8082 2.22233 24.3209 2.30645 24.8263 2.41071C24.6099 2.55235 24.3742 2.69883 24.1218 2.84914C24.0721 2.87874 24.0218 2.90847 23.9709 2.93831C23.9099 2.87049 23.8502 2.80372 23.7919 2.73808C23.6093 2.53267 23.4408 2.33879 23.289 2.15923ZM12.1519 8.86806C11.8611 8.98189 11.5595 9.09859 11.2508 9.21666C11.0536 9.52815 10.8573 9.83517 10.6642 10.1348C10.992 9.86443 11.247 9.64433 11.4052 9.49352L11.4096 9.48932L11.4143 9.48542C11.6412 9.29617 11.8886 9.08932 12.1519 8.86806ZM9.23954 9.96722C9.18636 9.98657 9.1332 10.0059 9.08007 10.0251C8.92275 10.6063 8.75621 11.1947 8.58674 11.7755C9.00188 11.4572 9.3941 11.1521 9.74962 10.8712C10.0479 10.4154 10.3611 9.93211 10.6793 9.43368C10.206 9.61217 9.7219 9.79169 9.23954 9.96722ZM8.65959 10.1766C7.80938 10.4811 6.97822 10.7676 6.23573 11.0082C6.30495 11.7536 6.35436 12.5746 6.38898 13.4242L6.42094 13.4008C6.98849 12.984 7.55555 12.5602 8.09505 12.1506C8.28787 11.5001 8.47909 10.835 8.65959 10.1766ZM5.82217 10.5561C5.82924 10.62 5.83613 10.6847 5.84287 10.75C5.74929 10.7798 5.65741 10.8086 5.56738 10.8366C5.30712 10.9174 5.06286 10.9905 4.83821 11.0542C5.11344 10.6064 5.40678 10.1709 5.71722 9.74867C5.7556 9.99994 5.79052 10.27 5.82217 10.5561ZM5.6759 11.186C5.26533 11.3135 4.8911 11.4227 4.5683 11.5075C4.11516 12.2931 3.71681 13.1143 3.37847 13.9659C3.54046 14.2922 3.70443 14.6591 3.86869 15.0551C3.88592 15.0966 3.90317 15.1385 3.92043 15.1808C4.57283 14.735 5.29707 14.2205 6.03298 13.6845C5.99939 12.7821 5.94988 11.9098 5.8788 11.1224C5.81021 11.1441 5.74256 11.1653 5.6759 11.186ZM4.08176 11.6248C4.046 11.6324 4.01113 11.6396 3.97721 11.6462C3.79793 11.87 3.63232 12.0772 3.48757 12.2583L3.48755 12.2584L3.48749 12.2584L3.35581 12.4232C3.27327 12.7447 3.1887 13.0857 3.10207 13.4469C3.11998 13.4779 3.13793 13.5096 3.15592 13.5418C3.42993 12.8836 3.73933 12.2438 4.08176 11.6248ZM4.76703 10.0847C4.42439 10.5055 4.08322 10.9292 3.77718 11.3108C3.73062 11.3185 3.68805 11.3247 3.64955 11.3293C3.86116 10.5789 4.05772 9.96659 4.2395 9.47733C4.6678 9.11388 5.11538 8.774 5.45564 8.52501C5.47869 8.59932 5.50101 8.67831 5.52261 8.76171C5.28256 9.17426 5.03084 9.61485 4.76703 10.0847ZM3.67489 9.98546C3.54632 10.3757 3.41181 10.8203 3.27122 11.3233C3.09839 11.3013 2.99694 11.2605 2.94245 11.2188C2.90959 11.1937 2.89509 11.1693 2.88803 11.1457C2.88028 11.1198 2.87777 11.0815 2.89033 11.0258C2.91654 10.9096 2.99971 10.7546 3.14268 10.5674C3.28122 10.3859 3.46473 10.1884 3.67489 9.98546ZM5.32234 8.1694C5.10093 8.33015 4.82421 8.53619 4.53199 8.76647C4.64149 8.53084 4.74253 8.35013 4.83469 8.21747C4.94916 8.0527 5.0369 7.98122 5.09265 7.95716C5.11698 7.94666 5.13139 7.94678 5.13982 7.94809C5.14882 7.94948 5.16416 7.95436 5.18653 7.97264C5.22572 8.0047 5.27278 8.06675 5.32234 8.1694ZM5.77662 8.32822C5.77351 8.31889 5.77039 8.30962 5.76725 8.30042C5.78262 8.28952 5.79741 8.27905 5.8116 8.26903L5.77662 8.32822ZM5.91332 8.81803C6.13459 8.4393 6.34542 8.08539 6.54618 7.75523L6.61945 7.70379C6.81861 7.56396 7.04789 7.40297 7.2962 7.22916L7.35454 7.28636C6.85011 7.7893 6.37336 8.31997 5.92676 8.87592C5.92232 8.85645 5.91784 8.83715 5.91332 8.81803ZM33.5065 29.4667C33.2639 29.6512 33.027 29.8328 32.7983 30.0093C32.993 29.7158 33.1761 29.4412 33.3439 29.1903L33.3472 29.1852L33.3503 29.1799C33.4486 29.0093 33.6066 28.7625 33.8111 28.4578C33.7102 28.7876 33.6082 29.1249 33.5065 29.4667ZM35.5126 27.9707C35.4353 28.0272 35.358 28.0838 35.2807 28.1406C34.8505 28.4565 34.4198 28.7771 34.0004 29.0929C34.172 28.5242 34.3427 27.9724 34.506 27.4523C34.7953 27.0426 35.1209 26.59 35.4685 26.1144C35.477 26.7118 35.4904 27.3147 35.5104 27.9077L35.5126 27.9707ZM37.8583 26.3077C37.2437 26.7265 36.564 27.2074 35.8701 27.7105C35.8484 27.0184 35.8353 26.3149 35.8284 25.6243C36.2145 25.1013 36.6203 24.5598 37.0283 24.0242L37.0331 24.018C37.3046 24.8283 37.5825 25.6072 37.8583 26.3077ZM38.3073 26.4455C38.3341 26.5115 38.3608 26.5767 38.3875 26.641C38.5132 26.9441 38.6372 27.226 38.7585 27.4826C38.9594 26.936 39.1357 26.3775 39.2862 25.8085C39.065 25.946 38.8218 26.103 38.5614 26.2757C38.4783 26.3308 38.3936 26.3874 38.3073 26.4455ZM39.4123 25.3036C39.1081 25.4838 38.7514 25.7107 38.3591 25.9708C38.2967 26.0123 38.2332 26.0546 38.169 26.0977C37.8795 25.3571 37.5871 24.5284 37.3018 23.6667C37.8655 22.9325 38.4245 22.2222 38.9321 21.6012C38.9583 21.6339 38.9844 21.6663 39.0104 21.6985C39.2982 22.0541 39.5763 22.378 39.8388 22.6573C39.7584 23.5591 39.6147 24.4427 39.4123 25.3036ZM40.1384 25.3222C39.9682 25.7366 39.7803 26.1913 39.5897 26.6468C39.458 27.2493 39.3302 27.8098 39.2064 28.3305C39.2387 28.3837 39.2707 28.4344 39.3023 28.4825C39.5588 28.149 39.8966 27.6935 40.2096 27.2195C40.2471 26.6963 40.2644 26.0504 40.2576 25.2674C40.2213 25.283 40.1816 25.3013 40.1384 25.3222ZM40.6224 25.1653C40.6283 25.6922 40.6235 26.1607 40.6092 26.5747L40.6112 26.5712C40.7584 26.3139 40.8811 26.0695 40.9642 25.8538C41.0489 25.634 41.0852 25.4619 41.0778 25.3429C41.0742 25.2859 41.061 25.25 41.0463 25.2272C41.0329 25.2065 41.0122 25.1873 40.9736 25.1723C40.9088 25.1473 40.7981 25.1366 40.6224 25.1653ZM40.1286 27.9826C39.9085 28.2912 39.6972 28.5707 39.529 28.7877C39.6075 28.8759 39.6717 28.924 39.7193 28.9442C39.7459 28.9555 39.762 28.9559 39.771 28.9548C39.7794 28.9537 39.7933 28.9498 39.8137 28.9329C39.8606 28.8942 39.9248 28.8011 39.9887 28.6109C40.0413 28.4545 40.0888 28.2473 40.1286 27.9826ZM9.11987 11.8269C8.8912 12.0035 8.6543 12.185 8.41169 12.3696C8.31 12.7114 8.20804 13.0487 8.10712 13.3785C8.3116 13.0738 8.46954 12.827 8.5679 12.6563L8.57094 12.6511L8.57432 12.646C8.74212 12.3951 8.92521 12.1205 9.11987 11.8269ZM6.6375 13.6957C6.56017 13.7524 6.48285 13.8091 6.40558 13.8656L6.40774 13.9286C6.42775 14.5216 6.44121 15.1245 6.44971 15.7219C6.79731 15.2463 7.12289 14.7936 7.41221 14.3839C7.57552 13.8639 7.74616 13.312 7.91774 12.7434C7.49839 13.0592 7.06764 13.3798 6.6375 13.6957ZM6.0481 14.1258C5.35423 14.6289 4.67455 15.1098 4.05988 15.5285C4.33569 16.229 4.61357 17.008 4.88508 17.8183L4.88984 17.812C5.29786 17.2765 5.70364 16.735 6.08974 16.212C6.08284 15.5214 6.06981 14.8179 6.0481 14.1258ZM3.53074 15.1953C3.55741 15.2596 3.58413 15.3247 3.61089 15.3908C3.52461 15.4488 3.43987 15.5055 3.35683 15.5605C3.12551 15.7139 2.90783 15.8549 2.70705 15.9809C2.84933 15.4568 3.01355 14.9417 3.19867 14.4367C3.30756 14.6708 3.41846 14.9245 3.53074 15.1953ZM3.55904 15.8654C3.19663 16.1058 2.86464 16.3177 2.57629 16.4907C2.36138 17.3802 2.20926 18.2941 2.12491 19.2277C2.37394 19.4957 2.63658 19.8027 2.90782 20.1378C2.93383 20.1699 2.95993 20.2023 2.98613 20.235C3.49371 19.614 4.05269 18.9038 4.61645 18.1695C4.33109 17.3078 4.03869 16.4792 3.74926 15.7386C3.68496 15.7817 3.62153 15.824 3.55904 15.8654ZM2.3285 15.1895C2.13785 15.645 1.95002 16.0997 1.77979 16.5141C1.73664 16.535 1.69691 16.5532 1.66066 16.5688C1.65381 15.7858 1.67112 15.14 1.70867 14.6167C2.02163 14.1427 2.35938 13.6873 2.61586 13.3537C2.64753 13.4019 2.67953 13.4526 2.71184 13.5057C2.58799 14.0264 2.46024 14.587 2.3285 15.1895ZM1.30902 15.2615C1.29469 15.6755 1.28995 16.1441 1.29581 16.671C1.12009 16.6997 1.00938 16.689 0.944611 16.6639C0.906009 16.649 0.885275 16.6298 0.871861 16.609C0.857147 16.5863 0.844011 16.5503 0.840433 16.4934C0.832962 16.3744 0.869306 16.2023 0.953994 15.9825C1.03709 15.7668 1.15982 15.5223 1.30701 15.265L1.30902 15.2615ZM2.38922 13.0486C2.22105 13.2655 2.00973 13.545 1.78961 13.8536C1.82948 13.5889 1.87693 13.3818 1.92948 13.2254C1.99338 13.0352 2.05767 12.9421 2.10448 12.9034C2.12491 12.8865 2.13879 12.8826 2.14724 12.8815C2.15627 12.8803 2.17237 12.8807 2.19895 12.8921C2.24653 12.9123 2.31074 12.9603 2.38922 13.0486ZM35.4614 25.5055C35.256 25.7844 35.0562 26.0579 34.8648 26.3222C34.9579 26.032 35.0462 25.7588 35.128 25.5065L35.1299 25.5007L35.1314 25.4948C35.19 25.2624 35.3029 24.8974 35.4563 24.4381C35.4566 24.7876 35.4582 25.1446 35.4614 25.5055ZM36.8938 23.5976C36.8416 23.6658 36.7894 23.7341 36.7373 23.8025C36.4296 24.2063 36.1226 24.6144 35.8239 25.016C35.821 24.4493 35.8218 23.8965 35.8249 23.3716C35.9853 22.9197 36.1652 22.4252 36.3579 21.9068C36.5281 22.4613 36.7041 23.0191 36.8835 23.5663L36.8938 23.5976ZM38.6998 21.3074C38.2212 21.8913 37.6961 22.5559 37.1638 23.246C36.9595 22.6168 36.7599 21.9756 36.5689 21.3435C36.7919 20.7522 37.0277 20.14 37.267 19.5326C37.2818 19.4951 37.2966 19.4576 37.3114 19.4202C37.784 20.0933 38.2532 20.7353 38.6998 21.3074ZM39.1697 21.3125C39.2117 21.3652 39.2534 21.4171 39.2948 21.4683C39.4968 21.7178 39.6914 21.9484 39.8768 22.1565C39.9018 21.7587 39.9144 21.3576 39.9144 20.9535C39.9144 20.7849 39.9122 20.6168 39.9078 20.4492C39.7382 20.6399 39.5538 20.854 39.3579 21.0871C39.2962 21.1605 39.2335 21.2357 39.1697 21.3125ZM39.8871 19.9277C39.6491 20.1841 39.3754 20.4976 39.0778 20.8517C39.0319 20.9063 38.9854 20.9619 38.9384 21.0184C38.4684 20.413 37.9724 19.7296 37.4731 19.0131C37.8133 18.1614 38.1543 17.3366 38.4697 16.6127L38.4926 16.6287L38.5144 16.6439C38.8864 16.903 39.2406 17.1348 39.5679 17.3289C39.7321 18.1764 39.8399 19.044 39.8871 19.9277ZM40.2927 19.5144C40.273 19.533 40.253 19.5521 40.2326 19.5719L40.2316 19.572C40.1835 18.8918 40.1001 18.2213 39.9833 17.5624C39.9941 17.5681 40.0049 17.5737 40.0156 17.5793L40.031 17.5873C40.1611 17.9616 40.2808 18.3152 40.3904 18.6489C40.3804 18.7373 40.3696 18.8334 40.358 18.9361C40.3382 19.1114 40.3163 19.3059 40.2927 19.5144ZM40.6407 19.6919C40.5852 20.1796 40.5211 20.7342 40.4535 21.2933C40.4904 21.8432 40.521 22.3598 40.5456 22.8445C40.5977 22.8921 40.6486 22.9369 40.6981 22.9786C40.85 22.5855 41.0437 22.0564 41.2084 21.5175C41.097 21.0068 40.9315 20.3845 40.7041 19.6377C40.6841 19.6542 40.663 19.6723 40.6407 19.6919ZM41.0255 19.4379C41.1793 19.9384 41.3065 20.3864 41.4093 20.7852C41.477 20.4993 41.5251 20.2325 41.5438 20.0038C41.5629 19.769 41.5492 19.5937 41.5084 19.4817C41.4889 19.428 41.4661 19.3972 41.4456 19.3796C41.4269 19.3635 41.4016 19.3509 41.3603 19.3475C41.2917 19.3418 41.1838 19.3624 41.0255 19.4379ZM41.3463 22.2733C41.2241 22.6269 41.1019 22.9512 41.0022 23.2063C41.1003 23.2668 41.174 23.2939 41.2246 23.2998C41.2533 23.3031 41.2688 23.2989 41.2772 23.2952C41.285 23.2918 41.2972 23.2841 41.312 23.2621C41.3459 23.2118 41.3812 23.1042 41.3886 22.9037C41.3946 22.7413 41.3819 22.533 41.3463 22.2733ZM40.2332 24.1247C40.2219 23.7748 40.2068 23.4037 40.1875 23.0105L40.1734 22.9969C40.1016 23.6791 39.9943 24.3507 39.8533 25.0098L39.8697 25.0132C39.9772 24.7512 40.0764 24.5084 40.1633 24.2959L40.1643 24.2935L40.1645 24.2928L40.1649 24.2918L40.1652 24.2912L40.2332 24.1247ZM7.05337 15.5141C6.86201 15.7784 6.66223 16.0519 6.45674 16.3308C6.45998 16.6917 6.46158 17.0487 6.4619 17.3982C6.6153 16.9388 6.72814 16.5739 6.78678 16.3415L6.78827 16.3356L6.79015 16.3298C6.87202 16.0774 6.96029 15.8043 7.05337 15.5141ZM5.18086 18.0338C5.12875 18.1022 5.0766 18.1705 5.02446 18.2386L5.03477 18.27C5.21412 18.8172 5.39012 19.3749 5.56027 19.9294C5.753 19.4111 5.93292 18.9165 6.0933 18.4647C6.09638 17.9398 6.09721 17.387 6.09431 16.8203C5.79558 17.2219 5.48855 17.6299 5.18086 18.0338ZM4.75438 18.5902C4.22214 19.2804 3.69704 19.945 3.21843 20.5288C3.665 21.101 4.13422 21.7429 4.60683 22.4161C4.62162 22.3786 4.6364 22.3412 4.65116 22.3037C4.89053 21.6963 5.12633 21.084 5.34934 20.4927C5.1583 19.8606 4.95872 19.2195 4.75438 18.5902ZM2.62344 20.368C2.66487 20.4192 2.70656 20.4711 2.7485 20.5237C2.68474 20.6006 2.62198 20.6758 2.56032 20.7492C2.38003 20.9637 2.20949 21.1621 2.05119 21.341C2.04861 21.2121 2.04731 21.083 2.04731 20.9535C2.04731 20.5426 2.0604 20.1347 2.08619 19.7302C2.2581 19.925 2.43766 20.1385 2.62344 20.368ZM2.8404 20.9846C2.55846 21.32 2.29801 21.619 2.06898 21.8676C2.11199 22.7723 2.21849 23.6603 2.38413 24.5274C2.70198 24.7174 3.0446 24.9422 3.40381 25.1924C3.41867 25.2027 3.43356 25.2131 3.44848 25.2235C3.76388 24.4996 4.10492 23.6749 4.4451 22.8232C3.94576 22.1066 3.44978 21.4232 2.97978 20.8179C2.93275 20.8744 2.88628 20.93 2.8404 20.9846ZM1.68556 22.2644C1.66521 22.2842 1.6452 22.3033 1.62553 22.3219C1.60188 22.5302 1.57996 22.7247 1.56021 22.8999L1.56018 22.9001C1.54861 23.0028 1.53778 23.0989 1.52778 23.1873C1.63744 23.521 1.75711 23.8747 1.88725 24.249C1.9143 24.263 1.9416 24.2773 1.96915 24.292C1.85303 23.6262 1.77104 22.9486 1.72505 22.2612L1.68556 22.2644ZM1.46472 20.5427C1.39714 21.1019 1.33301 21.6566 1.27747 22.1444C1.25523 22.164 1.23411 22.182 1.21413 22.1985C0.986725 21.4517 0.82123 20.8294 0.709772 20.3187C0.87452 19.7798 1.06823 19.2507 1.22007 18.8576C1.26963 18.8994 1.3205 18.9441 1.37262 18.9918C1.39721 19.4764 1.42779 19.9929 1.46472 20.5427ZM0.50895 21.051C0.611726 21.4498 0.738958 21.8978 0.892681 22.3984C0.734431 22.4739 0.626469 22.4945 0.557855 22.4888C0.516613 22.4854 0.491282 22.4728 0.472566 22.4567C0.452035 22.4391 0.42927 22.4083 0.409747 22.3546C0.368984 22.2426 0.355259 22.0672 0.374423 21.8324C0.393086 21.6038 0.441212 21.3369 0.50895 21.051ZM0.915992 18.6299C0.816333 18.8851 0.69413 19.2093 0.571902 19.5629C0.536368 19.3032 0.523669 19.095 0.529659 18.9326C0.537054 18.7321 0.572323 18.6245 0.606255 18.5742C0.621065 18.5522 0.633266 18.5445 0.64106 18.5411C0.649388 18.5374 0.664941 18.5332 0.693637 18.5365C0.744241 18.5424 0.817958 18.5695 0.915992 18.6299ZM1.7307 18.8258C1.71147 18.4326 1.69631 18.0614 1.68499 17.7115L1.7532 17.5446L1.75324 17.5445C1.84051 17.3309 1.94029 17.0868 2.04845 16.8231L2.12121 16.838C1.97731 17.5005 1.86744 18.1756 1.79351 18.8615L1.76353 18.8574L1.76051 18.8545C1.75054 18.8448 1.7406 18.8353 1.7307 18.8258ZM2.87047 26.4928C2.72285 26.0095 2.59403 25.518 2.48488 25.0192C2.70902 25.1611 2.94639 25.3196 3.19472 25.4926C3.22904 25.5165 3.26355 25.5406 3.29823 25.5651C3.26826 25.6325 3.23857 25.6989 3.20919 25.7641C3.09041 26.0278 2.97698 26.2721 2.87047 26.4928ZM39.061 15.3161C39.2163 15.8147 39.3515 16.3222 39.4658 16.8375C39.2321 16.6905 38.9839 16.525 38.7235 16.3437C38.6892 16.3198 38.6547 16.2956 38.62 16.2712C38.6499 16.2038 38.6796 16.1374 38.709 16.0722C38.8327 15.7975 38.9506 15.5439 39.061 15.3161ZM1.59045 24.5091C1.77208 25.0283 1.97303 25.5853 2.19442 26.182C2.26649 26.586 2.34002 26.989 2.40981 27.3673C2.36594 27.4397 2.32609 27.5009 2.2905 27.5506C1.87437 26.9082 1.55126 26.367 1.31014 25.917C1.31919 25.3803 1.35709 24.8402 1.39464 24.4185C1.45751 24.4458 1.52282 24.476 1.59045 24.5091ZM4.69477 23.1838C4.37267 23.9853 4.05137 24.7582 3.75325 25.4399C4.38994 25.898 5.07647 26.4292 5.77526 26.9927C5.82742 26.3232 5.87445 25.6504 5.915 25.0039C5.51753 24.3974 5.10655 23.7822 4.69477 23.1838ZM6.24858 25.5157C6.21498 26.0213 6.17783 26.5373 6.13776 27.05C6.13196 27.1243 6.12609 27.1985 6.12016 27.2726C6.58645 27.6533 7.05589 28.0458 7.51757 28.4383C7.39596 27.9075 7.27693 27.4044 7.16508 26.9477C6.87583 26.4904 6.56798 26.0084 6.24858 25.5157ZM6.87647 25.814C6.68499 25.5159 6.48819 25.2119 6.28772 24.9053C6.30814 24.5749 6.32685 24.2516 6.34366 23.9394C6.43386 24.2648 6.51774 24.5703 6.59435 24.8508L6.59596 24.8566L6.59795 24.8624C6.67008 25.0708 6.7654 25.3982 6.87647 25.814ZM7.77187 27.9138C7.84136 28.2118 7.91207 28.5205 7.98311 28.8361C8.26367 29.0771 8.53987 29.3166 8.80915 29.5518C8.59913 29.2093 8.42621 28.9408 8.30407 28.7699L8.30053 28.7649L8.29733 28.7597C8.13678 28.5002 7.9607 28.2164 7.77187 27.9138ZM5.95178 24.3944C5.61852 23.8905 5.27789 23.3845 4.93704 22.8906C4.91062 22.8523 4.88419 22.8141 4.85777 22.7759C4.90244 22.6635 4.94705 22.5508 4.99155 22.4379C5.17137 21.9815 5.34954 21.5216 5.52203 21.0692C5.70209 21.6756 5.87302 22.2674 6.03134 22.8254C6.01096 23.3057 5.98412 23.8358 5.95178 24.3944ZM1.03892 24.29C0.944759 24.2667 0.876704 24.2629 0.83146 24.2706C0.802973 24.2754 0.789198 24.2837 0.782224 24.2896C0.775697 24.295 0.766117 24.3058 0.758008 24.331C0.739429 24.3889 0.735481 24.502 0.784178 24.6966C0.819736 24.8387 0.880239 25.0124 0.969755 25.2207C0.988484 24.8776 1.01427 24.5561 1.03892 24.29ZM1.32065 26.6808C1.33431 26.9481 1.35989 27.1939 1.40075 27.4015C1.44623 27.6327 1.50716 27.7977 1.57688 27.8943C1.61027 27.9407 1.64057 27.9641 1.66513 27.9755C1.68751 27.9859 1.71532 27.9911 1.75594 27.9832C1.81972 27.9707 1.91087 27.9261 2.0317 27.8238C1.75761 27.4027 1.52149 27.0226 1.32065 26.6808ZM2.50203 27.8737L2.50434 27.8772L2.50339 27.8722L2.50203 27.8737ZM5.73541 20.5057C5.85573 20.1858 5.97224 19.8721 6.08343 19.569C6.0787 19.9703 6.07313 20.3444 6.0676 20.683L6.0675 20.6891L6.06781 20.6952C6.07844 20.907 6.07893 21.2304 6.07056 21.6375C5.96264 21.2672 5.85065 20.8884 5.73541 20.5057ZM35.3203 16.9739C35.2481 16.7655 35.1528 16.438 35.0418 16.0223C35.2332 16.3203 35.43 16.6243 35.6305 16.9309C35.6101 17.2613 35.5913 17.5846 35.5745 17.8967C35.4843 17.5714 35.4005 17.2659 35.3239 16.9855L35.3223 16.9796L35.3203 16.9739ZM34.7531 14.8885C35.0424 15.3459 35.3502 15.8279 35.6696 16.3205C35.7032 15.8149 35.7404 15.2989 35.7804 14.7862C35.7862 14.712 35.7921 14.6378 35.798 14.5636C35.3318 14.1829 34.8623 13.7904 34.4007 13.398C34.5223 13.9287 34.6413 14.4319 34.7531 14.8885ZM35.8868 19.0107C35.9072 18.5304 35.9341 18.0004 35.9664 17.4418C36.2997 17.9457 36.6403 18.4518 36.9812 18.9457C37.0076 18.984 37.034 19.0222 37.0604 19.0603C37.0158 19.1727 36.9711 19.2855 36.9266 19.3984C36.7468 19.8547 36.5687 20.3146 36.3962 20.767C36.2161 20.1606 36.0452 19.5688 35.8868 19.0107ZM36.0032 16.8323C36.4007 17.4389 36.8116 18.054 37.2234 18.6525C37.5455 17.8509 37.8668 17.078 38.1649 16.3964C37.5282 15.9382 36.8417 15.4071 36.1429 14.8436C36.0908 15.513 36.0437 16.1859 36.0032 16.8323ZM39.7237 15.654C39.9451 16.2508 40.1461 16.8079 40.3278 17.3272C40.3954 17.3602 40.4607 17.3905 40.5235 17.4178C40.5611 16.996 40.599 16.4559 40.608 15.9192C40.3669 15.4692 40.0438 14.928 39.6277 14.2856C39.5921 14.3353 39.5522 14.3965 39.5084 14.4689C39.5781 14.8472 39.6517 15.2501 39.7237 15.654ZM33.6209 13.0765C33.7815 13.3361 33.9575 13.6199 34.1464 13.9225C34.0769 13.6245 34.0062 13.3158 33.9351 13.0002C33.6546 12.7591 33.3784 12.5196 33.1091 12.2844C33.3191 12.627 33.492 12.8955 33.6142 13.0664L33.6177 13.0714L33.6209 13.0765ZM41.0868 17.5657C41.0415 17.5733 40.9734 17.5696 40.8793 17.5463C40.9039 17.2801 40.9297 16.9586 40.9484 16.6155C41.038 16.8239 41.0985 16.9975 41.134 17.1397C41.1827 17.3343 41.1788 17.4474 41.1602 17.5052C41.1521 17.5305 41.1425 17.5412 41.136 17.5467C41.129 17.5526 41.1153 17.5609 41.0868 17.5657ZM40.5174 14.4347C40.5583 14.6424 40.5839 14.8881 40.5975 15.1554C40.3967 14.8137 40.1606 14.4335 39.8865 14.0124C40.0073 13.9101 40.0985 13.8656 40.1622 13.8531C40.2029 13.8451 40.2307 13.8504 40.2531 13.8608C40.2776 13.8722 40.3079 13.8956 40.3413 13.9419C40.411 14.0386 40.472 14.2036 40.5174 14.4347ZM39.4138 13.9589L39.4162 13.9625L39.4148 13.9641L39.4138 13.9589ZM35.8348 22.2673C35.946 21.9641 36.0625 21.6505 36.1828 21.3305C36.0676 20.9478 35.9556 20.5689 35.8476 20.1986C35.8392 20.6058 35.8397 20.9293 35.8504 21.1411L35.8507 21.1472L35.8506 21.1532C35.8451 21.4919 35.8395 21.866 35.8348 22.2673Z" fill="url(#paint0_linear_244_2)"/>
<path d="M56.3123 29.944V29.4037H58.5413V21.4759L52.9318 12.8669H51V12.3267H58.1822V12.8669H55.656L60.5721 20.4776L65.4882 12.8669H62.9497V12.3267H67.9648V12.8669H66.1569L60.8941 20.9474V29.4037H63.3831V29.944H56.3123Z" fill="#90AB9A"/>
<path d="M141.081 24.4748V23.935H149.719V24.4748H141.081ZM146.131 12L152.961 29.4037H155.074V29.9436H147.367V29.4037H150.051L144.855 15.2038L139.261 29.4037H141.998V29.9436H136.151V29.4037H138.557L145.493 12H146.131Z" fill="#90AB9A"/>
<path d="M117.735 24.8467L127.349 12.8669H124.669V12.3267H130.766V12.8669H128.188L118.573 24.8467H117.735ZM115.271 29.944V29.4037H117.557V21.1353V12.8669H115.271V12.3267H122.51V12.8669H119.983V29.4037H122.51V29.944H115.271ZM124.034 29.944V29.4037H126.549L121.265 20.7243L122.853 18.9273L129.585 29.4037H131.909V29.944H124.034Z" fill="#90AB9A"/>
<path d="M96.8556 24.8467L106.47 12.8669H103.791V12.3267H109.887V12.8669H107.309L97.6939 24.8467H96.8556ZM94.3916 29.944V29.4037H96.6778V21.1353V12.8669H94.3916V12.3267H101.631V12.8669H99.1038V29.4037H101.631V29.944H94.3916ZM103.155 29.944V29.4037H105.67L100.387 20.7243L101.974 18.9273L108.706 29.4037H111.03V29.944H103.155Z" fill="#90AB9A"/>
<path d="M90.1496 12.3267V12.8665H87.6248V24.5316C87.6248 26.464 87.1163 27.9036 86.0992 28.8502C85.082 29.7969 83.5069 30.2702 81.3736 30.2702C79.0423 30.2702 77.3321 29.8204 76.243 28.9207C75.1629 28.0209 74.6228 26.5579 74.6228 24.5316V12.8665H72.2061V12.3267H79.9019V12.8665H77.2016V24.2969C77.2016 25.0714 77.2646 25.7873 77.3907 26.4445C77.5257 27.0938 77.7597 27.6571 78.0927 28.1344C78.4348 28.6116 78.9118 28.9832 79.5239 29.2492C80.145 29.5153 80.9416 29.6483 81.9137 29.6483C83.0118 29.6483 83.9389 29.4761 84.695 29.1319C85.4511 28.7877 86.0272 28.24 86.4232 27.4889C86.8192 26.7379 87.0173 25.7521 87.0173 24.5316V12.8665H84.5465V12.3267H90.1496Z" fill="#90AB9A"/>
<defs>
<linearGradient id="paint0_linear_244_2" x1="7.08365" y1="6.91049" x2="33.9746" y2="37.0946" gradientUnits="userSpaceOnUse">
<stop stop-color="#EAA8C4"/>
<stop offset="1" stop-color="#F9C7D0"/>
</linearGradient>
</defs>
</svg>
