<svg width="220" height="58" viewBox="0 0 220 58" fill="none" xmlns="http://www.w3.org/2000/svg">
<path d="M28.3969 21.5434C29.1259 22.432 32.3091 18.1815 32.2107 13.6331C29.1351 15.4871 27.5357 20.1839 28.3969 21.5434Z" fill="#90AB9A"/>
<path d="M29.7502 14.8691C29.2833 15.3381 28.684 16.2287 28.5199 16.5995C27.4127 15.4872 28.9017 12.1753 29.1351 12.6443C29.2581 12.8916 29.9963 14.6219 29.7502 14.8691Z" fill="#90AB9A"/>
<path d="M28.0278 17.4646C27.9294 17.0691 26.2645 14.6631 25.4443 13.5095C25.4443 17.0938 26.5515 20.1838 26.7976 20.9254C27.0436 21.667 27.6588 21.7906 27.5357 21.4198C27.0436 19.0714 28.0894 17.7119 28.0278 17.4646Z" fill="#90AB9A"/>
<path d="M24.8291 16.5995C24.337 16.4017 22.4917 15.6107 21.6305 15.2399C22.7377 17.2174 23.4759 18.3299 25.1982 18.577C25.0752 17.959 24.9522 17.2174 24.8291 16.5995Z" fill="#90AB9A"/>
<path d="M25.4443 19.6894C24.9522 19.0961 21.1384 18.2062 19.293 17.8354C19.662 18.577 23.4759 21.4198 23.5989 21.5434C23.7219 21.667 25.9109 21.6118 26.0594 21.2962C26.2338 20.9254 26.0594 20.431 25.4443 19.6894Z" fill="#90AB9A"/>
<path d="M30.7362 20.8018C32.2126 20.3075 33.5658 18.5276 34.5501 14.8691C33.3198 15.6107 32.8424 15.938 32.5963 16.1852C32.3503 16.4324 32.3356 18.577 30.7362 20.8018Z" fill="#90AB9A"/>
<path d="M28.5488 23.5243C28.6645 24.2831 34.2425 24.0018 36.5308 21.044C33.432 20.551 28.5488 21.4292 28.5488 23.5243Z" fill="#90AB9A"/>
<path d="M27.8359 22.215C27.5874 23.6181 27.9601 23.9689 28.0845 24.3197C25.1027 24.7874 21.4992 23.0335 21.375 22.7996C21.6235 22.6827 25.3508 21.7473 27.8359 22.215Z" fill="#90AB9A"/>
<path d="M32.4805 20.4655L34.167 20.2035C35.3345 19.4172 37.8911 15.7096 37.7994 15.617C37.6697 15.4859 35.594 16.6653 34.4264 17.5826C34.2189 18.4213 33.2588 19.8103 32.4805 20.4655Z" fill="#90AB9A"/>
<path d="M27.8535 31.4554V29.7202H30.0515V31.4554H27.8535Z" fill="#90AB9A"/>
<path d="M27.8535 29.142V27.4067H30.0515V29.142H27.8535Z" fill="#90AB9A"/>
<path d="M27.8535 26.8282V25.093C28.8467 24.9906 29.3185 24.8268 30.0515 24.3989V26.8282H27.8535Z" fill="#90AB9A"/>
<path d="M35.0259 36.7764H22.7637V41.982C22.7637 42.6376 22.7637 44.18 24.7303 44.18H33.0593C35.0259 44.18 35.0259 42.6376 35.0259 41.982V36.7764Z" fill="#90AB9A"/>
<path d="M35.1228 36.1987C37.103 36.1987 37.103 34.7375 37.103 34.1164V34.1164C37.103 33.4954 37.103 32.0342 35.1228 32.0342H22.8923C20.9122 32.0342 20.9121 33.4954 20.9121 34.1164C20.9121 34.7375 20.9121 36.1987 22.8923 36.1987H35.1228Z" fill="#90AB9A"/>
<path fill-rule="evenodd" clip-rule="evenodd" d="M20.8574 1.90458C20.8952 2.02171 20.9075 2.15347 20.9018 2.29348C21.1644 2.28349 21.3557 2.27905 21.4447 2.27713C21.5745 2.27433 21.7588 2.2694 21.9863 2.26299C22.244 2.13624 22.493 2.01556 22.7335 1.90081C22.605 1.68652 22.5304 1.48523 22.5203 1.2967C22.512 1.14179 22.5476 0.997343 22.6288 0.871851C22.7081 0.749141 22.8214 0.65934 22.9462 0.593589C23.1897 0.465329 23.5155 0.408736 23.8638 0.389791C24.2183 0.370515 24.6242 0.389092 25.0463 0.430407C25.3257 0.457755 25.6152 0.495392 25.9053 0.53958C26.1246 0.460856 26.3288 0.392383 26.5185 0.333716C26.9873 0.188732 27.3766 0.100704 27.691 0.0678056C27.9983 0.0356448 28.2671 0.0522717 28.4706 0.15104C28.5771 0.202752 28.6678 0.278119 28.7312 0.379854C28.7942 0.480905 28.8213 0.593308 28.8242 0.705702C28.8277 0.839748 28.7972 0.981897 28.7444 1.12699C28.9296 1.17366 29.065 1.20938 29.1349 1.22793C29.2687 1.26344 29.4627 1.31377 29.7035 1.37595C29.9742 1.32854 30.2357 1.28421 30.4884 1.24289C30.4202 0.993588 30.4024 0.773102 30.4461 0.584374C30.4811 0.433257 30.5554 0.304355 30.6682 0.206309C30.7785 0.110433 30.9122 0.05557 31.0503 0.0270398C31.3199 -0.0286149 31.6486 0.00740809 31.9885 0.0858537C32.3343 0.165678 32.7192 0.296152 33.1132 0.452962C33.3877 0.562197 33.6698 0.685479 33.9501 0.815575C34.2018 0.799682 34.4336 0.790254 34.6462 0.786956C35.1369 0.779343 35.5353 0.804104 35.8463 0.860747C36.1502 0.916112 36.4036 1.00749 36.5712 1.15939C36.6589 1.23892 36.7248 1.33671 36.7571 1.45215C36.7893 1.56682 36.7837 1.6823 36.7549 1.79099C36.719 1.92701 36.6446 2.0611 36.5465 2.19133C36.6738 2.26602 36.7677 2.32219 36.8201 2.35363C36.9527 2.43323 37.1523 2.55144 37.4023 2.69912C37.6558 2.72797 37.9012 2.75712 38.1386 2.78658C38.1389 2.51259 38.1827 2.28387 38.2815 2.10716C38.3572 1.97176 38.4645 1.86863 38.6001 1.80584C38.7327 1.74444 38.8763 1.72896 39.017 1.74001C39.2914 1.76157 39.5971 1.88765 39.9017 2.05759C40.2117 2.23052 40.545 2.46294 40.8799 2.72322C41.1341 2.92085 41.3923 3.13699 41.6455 3.35931C41.9264 3.42212 42.1808 3.48563 42.4102 3.54969C42.8828 3.68174 43.2577 3.81862 43.5398 3.96126C43.8156 4.10067 44.0325 4.26023 44.1501 4.45348C44.2116 4.55466 44.247 4.66712 44.2452 4.787C44.2435 4.90607 44.2053 5.0152 44.1469 5.11126C44.0675 5.24171 43.9455 5.35713 43.7993 5.46049C43.8481 5.51243 43.8859 5.55304 43.9113 5.58044C44.0371 5.71594 44.2394 5.93107 44.4954 6.20291C44.7251 6.3017 44.9474 6.39856 45.1624 6.4935C45.2413 6.20907 45.352 5.98636 45.5051 5.83679C45.6161 5.72839 45.7481 5.65986 45.896 5.63807C46.0405 5.61676 46.1827 5.64262 46.3145 5.69308C46.5715 5.7915 46.8289 5.99902 47.0729 6.24831C47.3212 6.50199 47.575 6.81932 47.8224 7.16382C48.0315 7.45503 48.2389 7.76965 48.4373 8.08782C48.7318 8.25221 48.9928 8.40739 49.2222 8.55372C49.6359 8.81764 49.9547 9.05775 50.1831 9.27634C50.4063 9.48999 50.5674 9.70579 50.6236 9.92489C50.653 10.0396 50.6542 10.1575 50.6176 10.2717C50.5812 10.3851 50.5129 10.4784 50.4291 10.5533C50.3031 10.6657 50.1325 10.7454 49.9402 10.8035C50.0165 10.9565 50.1283 11.1782 50.2664 11.4512C50.4484 11.601 50.6245 11.7472 50.7948 11.8899C50.9483 11.6439 51.1148 11.4645 51.3011 11.365C51.4379 11.2919 51.5838 11.2629 51.7319 11.2833C51.8766 11.3032 52.0059 11.3677 52.1184 11.453C52.3377 11.6193 52.5269 11.8904 52.6916 12.1979C52.8592 12.5109 53.0143 12.8864 53.1556 13.2863C53.2721 13.6157 53.3807 13.966 53.4803 14.3177C53.7084 14.5487 53.9087 14.7627 54.0829 14.9605C54.4072 15.3288 54.647 15.6479 54.8058 15.9212C54.961 16.1884 55.056 16.4404 55.0492 16.6665C55.0457 16.7849 55.0141 16.8985 54.9473 16.998C54.8809 17.0969 54.7894 17.1676 54.6881 17.2163C54.5395 17.2877 54.3588 17.3172 54.1635 17.3209L54.1648 17.3279C54.1943 17.492 54.2412 17.7441 54.3005 18.0611C54.5156 18.3747 54.7183 18.6753 54.9092 18.963C55.1019 18.808 55.2893 18.7073 55.4731 18.6713C55.6254 18.6415 55.7734 18.6566 55.909 18.7195C56.0415 18.7809 56.1463 18.8805 56.2288 18.995C56.3897 19.2182 56.4912 19.5329 56.5586 19.8752C56.6271 20.2235 56.6653 20.628 56.6833 21.0518C56.695 21.3279 56.6982 21.6152 56.6951 21.904C56.8011 22.1052 56.8953 22.2934 56.9782 22.4692C57.1876 22.913 57.3294 23.2861 57.4061 23.5928C57.4811 23.8925 57.5024 24.1609 57.4332 24.3763C57.397 24.4891 57.3351 24.5894 57.2433 24.6665C57.1521 24.7431 57.0446 24.7856 56.9337 24.8043C56.8034 24.8262 56.6607 24.8166 56.512 24.7858C56.4904 24.9886 56.4728 25.1368 56.4638 25.2117C56.4483 25.3408 56.4273 25.5244 56.4016 25.751C56.4753 25.9765 56.5457 26.1955 56.613 26.4081C56.8542 26.3011 57.0736 26.2497 57.2698 26.2659C57.4244 26.2786 57.5627 26.3335 57.676 26.4308C57.7869 26.5261 57.8605 26.6504 57.9088 26.783C58.0029 27.0416 58.0149 27.3721 57.9865 27.7198C57.9576 28.0736 57.8843 28.4732 57.7862 28.8858C57.7157 29.1823 57.6316 29.489 57.5403 29.7944C57.595 30.0536 57.6397 30.2923 57.6748 30.5114C57.7524 30.9959 57.7847 31.3938 57.7731 31.7097C57.7617 32.0184 57.7074 32.2822 57.581 32.4698C57.5148 32.568 57.4275 32.6472 57.3178 32.6957C57.2089 32.7438 57.0938 32.7548 56.9821 32.7419C56.8381 32.7252 56.6902 32.6678 56.5429 32.5854C56.4976 32.6966 56.4631 32.7797 56.4426 32.8289C56.3818 32.9747 56.2912 33.1954 56.178 33.4722C56.187 33.7616 56.1941 34.0406 56.1993 34.3095C56.4635 34.274 56.6904 34.2863 56.8754 34.3578C57.0201 34.4137 57.1373 34.5053 57.2186 34.6307C57.298 34.7534 57.3335 34.8935 57.3424 35.0343C57.3596 35.309 57.2778 35.6294 57.1524 35.9549C57.0248 36.2861 56.8416 36.6488 56.631 37.0169C56.4774 37.2854 56.3075 37.5598 56.1308 37.8309C56.1096 38.101 56.0844 38.3476 56.0554 38.5719C55.9926 39.0586 55.9109 39.4493 55.8102 39.7489C55.7118 40.0418 55.585 40.2794 55.4106 40.4235C55.3193 40.4989 55.2131 40.5501 55.0942 40.5655C54.9761 40.5809 54.8627 40.5588 54.7592 40.5147C54.6239 40.4571 54.4967 40.3583 54.3774 40.2351C54.3106 40.3189 54.2597 40.3818 54.2286 40.4201C54.1339 40.5369 53.9942 40.7112 53.8199 40.929C53.7486 41.2054 53.6783 41.4715 53.609 41.7275C53.8688 41.7679 54.0804 41.8431 54.2363 41.9623C54.3595 42.0566 54.4463 42.1774 54.489 42.3206C54.5309 42.4606 54.5257 42.605 54.4946 42.7427C54.4341 43.0112 54.2657 43.2957 54.054 43.573C53.8386 43.8551 53.5609 44.1518 53.2555 44.446C53.0373 44.6563 52.8023 44.8677 52.5619 45.0742C52.4689 45.3195 52.3784 45.5424 52.2904 45.744C52.0941 46.1937 51.9066 46.5461 51.7262 46.8057C51.55 47.0595 51.3619 47.2522 51.1542 47.3419C51.0455 47.3888 50.9292 47.4083 50.8107 47.3899C50.693 47.3716 50.5902 47.3187 50.5032 47.2475C50.3916 47.1563 50.2986 47.0292 50.2195 46.8815C50.1169 46.9537 50.0398 47.0072 49.9947 47.0384C49.8467 47.1407 49.6137 47.3041 49.3195 47.5105C49.1813 47.7372 49.0464 47.956 48.9147 48.1669C49.1772 48.2843 49.3764 48.4237 49.5 48.5934C49.5913 48.7187 49.6402 48.8592 49.6406 49.0087C49.6409 49.1548 49.5949 49.2918 49.5261 49.415C49.3918 49.6552 49.1495 49.8802 48.8678 50.0859C48.5811 50.2953 48.2306 50.5009 47.8542 50.6963C47.5477 50.8554 47.2199 51.0098 46.8893 51.1557C46.6956 51.4093 46.5143 51.634 46.3452 51.8312C46.0257 52.2037 45.7432 52.4857 45.4947 52.681C45.2518 52.872 45.0155 53.0012 44.7906 53.026C44.6729 53.039 44.556 53.0236 44.4482 52.9713C44.341 52.9193 44.2582 52.8386 44.1959 52.7451C44.1054 52.6094 44.0511 52.4368 44.0201 52.2464L43.9914 52.2558C43.8469 52.3033 43.6317 52.3752 43.3628 52.4655C43.0776 52.7286 42.8042 52.9769 42.5424 53.2109C42.7129 53.374 42.8322 53.5396 42.8915 53.7103C42.9424 53.8568 42.9483 54.0055 42.9051 54.1486C42.8629 54.2885 42.779 54.4061 42.6773 54.5039C42.4789 54.6947 42.1816 54.8394 41.8522 54.9542C41.517 55.071 41.1218 55.1657 40.7048 55.243C40.452 55.2899 40.1887 55.3308 39.9226 55.3666C39.7594 55.4846 39.6051 55.5918 39.4595 55.6885C39.0507 55.96 38.7021 56.1544 38.4098 56.2747C38.1241 56.3923 37.8615 56.4523 37.6384 56.415C37.5216 56.3955 37.4133 56.3488 37.3238 56.2691C37.2348 56.1899 37.1771 56.0897 37.1426 55.9827C37.1048 55.8657 37.0925 55.734 37.0982 55.5941C36.8356 55.6041 36.6443 55.6085 36.5553 55.6104C36.4254 55.6132 36.2409 55.6182 36.0132 55.6246C35.7556 55.7513 35.5067 55.8719 35.2663 55.9866C35.3949 56.2009 35.4695 56.4023 35.4796 56.5909C35.4879 56.7458 35.4523 56.8902 35.3712 57.0157C35.2918 57.1384 35.1786 57.2282 35.0537 57.294C34.8102 57.4222 34.4844 57.4788 34.1361 57.4978C33.7817 57.5171 33.3758 57.4985 32.9537 57.4572C32.6741 57.4298 32.3845 57.3921 32.0942 57.3479C31.8751 57.4266 31.6711 57.495 31.4815 57.5536C31.0127 57.6986 30.6234 57.7866 30.309 57.8195C30.0017 57.8517 29.7329 57.8351 29.5294 57.7363C29.4229 57.6846 29.3322 57.6092 29.2688 57.5075C29.2058 57.4064 29.1787 57.294 29.1758 57.1816C29.1723 57.0477 29.2028 56.9056 29.2555 56.7606C29.0703 56.7139 28.9349 56.6782 28.865 56.6596C28.7312 56.6241 28.5373 56.5738 28.2965 56.5116C28.0259 56.559 27.7643 56.6034 27.5117 56.6447C27.5799 56.8939 27.5977 57.1143 27.554 57.303C27.5189 57.4541 27.4447 57.583 27.3319 57.681C27.2216 57.7769 27.0879 57.8318 26.9497 57.8603C26.6802 57.9159 26.3515 57.8799 26.0116 57.8015C25.6657 57.7217 25.2809 57.5912 24.8868 57.4344C24.6125 57.3252 24.3306 57.202 24.0504 57.072C23.7985 57.0879 23.5666 57.0973 23.3538 57.1006C22.8631 57.1082 22.4647 57.0835 22.1537 57.0268C21.8498 56.9715 21.5964 56.8801 21.4288 56.7282C21.3411 56.6486 21.2752 56.5509 21.2429 56.4354C21.2107 56.3208 21.2164 56.2053 21.2451 56.0966C21.2811 55.9605 21.3555 55.8263 21.4537 55.696C21.3263 55.6213 21.2324 55.5651 21.18 55.5337C21.0475 55.4542 20.8481 55.3361 20.5983 55.1885C20.3446 55.1597 20.099 55.1305 19.8615 55.101C19.8612 55.3749 19.8173 55.6035 19.7185 55.7802C19.6428 55.9156 19.5356 56.0187 19.4 56.0815C19.2674 56.1429 19.1237 56.1584 18.9831 56.1473C18.7087 56.1258 18.403 55.9997 18.0983 55.8297C17.7884 55.6568 17.4551 55.4244 17.1202 55.1641C16.8661 54.9666 16.608 54.7506 16.3549 54.5284C16.0739 54.4655 15.8193 54.402 15.5899 54.3379C15.1172 54.2058 14.7423 54.069 14.4602 53.9263C14.1844 53.7869 13.9675 53.6273 13.8499 53.4341C13.7884 53.3329 13.753 53.2205 13.7548 53.1006C13.7565 52.9815 13.7947 52.8724 13.8531 52.7763C13.9325 52.6458 14.0546 52.5304 14.2008 52.427C14.152 52.375 14.1142 52.3343 14.0888 52.3069C13.9631 52.1715 13.7609 51.9565 13.5051 51.6849C13.2752 51.586 13.0527 51.4891 12.8375 51.3941C12.7587 51.6784 12.648 51.901 12.495 52.0505C12.384 52.1589 12.2519 52.2275 12.1041 52.2493C11.9595 52.2706 11.8174 52.2447 11.6856 52.1943C11.4286 52.0958 11.1711 51.8883 10.9271 51.639C10.6788 51.3853 10.425 51.068 10.1777 50.7235C9.96864 50.4324 9.76139 50.118 9.56299 49.7999C9.26842 49.6355 9.0073 49.4802 8.77784 49.3339C8.36414 49.0699 8.04527 48.8298 7.81691 48.6112C7.59369 48.3976 7.43261 48.1818 7.37639 47.9627C7.34696 47.848 7.34584 47.7301 7.38244 47.6159C7.4188 47.5025 7.48708 47.4092 7.57094 47.3343C7.69694 47.2218 7.86761 47.1421 8.05993 47.084C7.98372 46.9311 7.87194 46.7096 7.734 46.4367C7.55179 46.2868 7.3755 46.1405 7.20503 45.9976C7.05164 46.2435 6.88514 46.4229 6.69892 46.5224C6.56211 46.5955 6.41618 46.6244 6.26813 46.604C6.12336 46.5841 5.99406 46.5196 5.88163 46.4343C5.6623 46.2681 5.47306 45.9969 5.30838 45.6894C5.14081 45.3765 4.98573 45.0009 4.84439 44.601C4.728 44.2717 4.61943 43.9216 4.51985 43.57C4.29169 43.339 4.09124 43.1249 3.91703 42.9271C3.59273 42.5588 3.35294 42.2397 3.19414 41.9664C3.03892 41.6992 2.94398 41.4472 2.95072 41.2211C2.95426 41.1027 2.98587 40.9891 3.05269 40.8896C3.11906 40.7907 3.21054 40.72 3.31187 40.6713C3.46045 40.5999 3.64123 40.5703 3.83656 40.5667C3.83611 40.5642 3.83567 40.5617 3.83525 40.5594C3.80575 40.3953 3.7588 40.1432 3.69948 39.8261C3.48445 39.5125 3.2817 39.212 3.09085 38.9243C2.89815 39.0793 2.71072 39.18 2.52686 39.216C2.37463 39.2458 2.22663 39.2307 2.09104 39.1678C1.95846 39.1064 1.85375 39.0068 1.77123 38.8923C1.61026 38.6691 1.50878 38.3544 1.44144 38.0121C1.37291 37.6638 1.33469 37.2593 1.31673 36.8356C1.30502 36.5594 1.30183 36.2721 1.30487 35.9832C1.19897 35.7821 1.10479 35.5939 1.02187 35.4182C0.81249 34.9744 0.67066 34.6012 0.593934 34.2946C0.518938 33.9948 0.497655 33.7264 0.566866 33.511C0.603105 33.3983 0.664992 33.2979 0.75681 33.2208C0.84801 33.1443 0.955506 33.1017 1.06638 33.083C1.19666 33.0611 1.33936 33.0707 1.48802 33.1015C1.50963 32.8987 1.52719 32.7506 1.53618 32.6756C1.55168 32.5465 1.57275 32.3629 1.59845 32.1361C1.52475 31.9108 1.45432 31.6918 1.38709 31.4792C1.1458 31.5862 0.926395 31.6376 0.730223 31.6215C0.575625 31.6087 0.437324 31.5539 0.323972 31.4565C0.21313 31.3613 0.139481 31.2369 0.0912332 31.1043C-0.00288425 30.8457 -0.0148582 30.5152 0.0135178 30.1676C0.0423935 29.8138 0.115745 29.4141 0.213813 29.0015C0.284292 28.7049 0.368396 28.3983 0.459755 28.0928C0.405033 27.8336 0.360384 27.595 0.325308 27.376C0.247711 26.8914 0.215325 26.4936 0.226976 26.1777C0.238365 25.8689 0.292633 25.6051 0.419043 25.4175C0.48523 25.3193 0.572601 25.2402 0.682247 25.1917C0.791155 25.1435 0.906243 25.1326 1.01793 25.1455C1.16198 25.1621 1.30982 25.2195 1.45708 25.3019C1.50237 25.1907 1.53692 25.1076 1.55743 25.0584C1.61825 24.9126 1.7088 24.6918 1.82202 24.415C1.81306 24.1257 1.806 23.8467 1.80078 23.5778C1.53658 23.6133 1.30958 23.601 1.12459 23.5296C0.979884 23.4737 0.862692 23.382 0.781454 23.2566C0.702014 23.1339 0.666471 22.9939 0.657629 22.853C0.640379 22.5784 0.722205 22.258 0.847603 21.9325C0.975208 21.6012 1.15843 21.2385 1.36903 20.8704C1.5226 20.6019 1.69258 20.3274 1.86925 20.0563C1.89045 19.7863 1.91566 19.5397 1.94463 19.3154C2.0075 18.8288 2.08917 18.438 2.18985 18.1384C2.28826 17.8455 2.41505 17.6079 2.58942 17.4638C2.68073 17.3884 2.78695 17.3372 2.90584 17.3218C3.02393 17.3065 3.13741 17.3286 3.24085 17.3726C3.37614 17.4302 3.50332 17.529 3.62261 17.6521C3.68944 17.5684 3.74032 17.5056 3.77142 17.4672C3.86612 17.3505 4.00582 17.1762 4.18006 16.9583C4.25138 16.6821 4.32166 16.416 4.39092 16.16C4.13116 16.1197 3.91957 16.0445 3.76372 15.9253C3.64052 15.831 3.55375 15.7102 3.51097 15.567C3.46914 15.427 3.47433 15.2825 3.50536 15.1449C3.56588 14.8764 3.73432 14.5918 3.94602 14.3146C4.16144 14.0325 4.43907 13.7358 4.74451 13.4415C4.96269 13.2313 5.1976 13.02 5.43798 12.8135C5.53104 12.5681 5.62157 12.345 5.7096 12.1433C5.90587 11.6936 6.0934 11.3412 6.27376 11.0816C6.45004 10.8278 6.63813 10.6351 6.8458 10.5455C6.95454 10.4985 7.07082 10.4791 7.18929 10.4974C7.30697 10.5157 7.40975 10.5686 7.49679 10.6398C7.60841 10.7311 7.70147 10.8582 7.78063 11.006C7.88316 10.9338 7.96022 10.8804 8.00533 10.8492C8.15329 10.7469 8.38622 10.5836 8.68019 10.3772C8.81851 10.1504 8.95348 9.93161 9.08514 9.72061C8.8227 9.60321 8.62363 9.46383 8.50002 9.29421C8.40866 9.16884 8.35978 9.02833 8.35943 8.87889C8.35909 8.73276 8.40507 8.59576 8.47391 8.4726C8.6082 8.23234 8.85051 8.00735 9.13223 7.80164C9.41891 7.59231 9.76936 7.38668 10.1458 7.19128C10.4522 7.03222 10.7799 6.8779 11.1104 6.73204C11.3043 6.47827 11.4856 6.25346 11.6548 6.05612C11.9743 5.68362 12.2568 5.40167 12.5053 5.20629C12.7482 5.01533 12.9845 4.88617 13.2094 4.86131C13.3271 4.8483 13.444 4.86376 13.5519 4.91604C13.659 4.96798 13.7418 5.0487 13.8041 5.14225C13.8946 5.27797 13.9489 5.45063 13.98 5.64113L14.0086 5.63174C14.153 5.58435 14.3681 5.51243 14.6368 5.42223C14.9221 5.15899 15.1955 4.9106 15.4575 4.67658C15.2871 4.51344 15.1678 4.34794 15.1085 4.17728C15.0576 4.03075 15.0517 3.88209 15.0949 3.73902C15.1371 3.59912 15.221 3.48145 15.3227 3.38366C15.5211 3.19291 15.8184 3.0482 16.1478 2.93342C16.483 2.81662 16.8782 2.72192 17.2952 2.64457C17.5479 2.5977 17.8111 2.55678 18.077 2.52104C18.2403 2.40289 18.3947 2.29562 18.5405 2.19883C18.9493 1.92736 19.2979 1.73297 19.5902 1.61263C19.8759 1.495 20.1385 1.43505 20.3616 1.47234C20.4784 1.49186 20.5867 1.53856 20.6762 1.61824C20.7652 1.69738 20.8229 1.79758 20.8574 1.90458ZM5.03025 40.7148C4.99347 40.7071 4.95704 40.6997 4.92098 40.6925C4.65821 40.3216 4.41053 39.9669 4.17741 39.6278L4.14052 39.4308C4.07799 39.0969 4.00591 38.7121 3.92852 38.2956L3.98377 38.2743C4.29293 39.1083 4.64255 39.9226 5.03025 40.7148ZM4.45846 41.1251C4.51317 41.1333 4.56922 41.1424 4.62658 41.1524C5.07456 41.7822 5.56417 42.4562 6.09772 43.1767C6.42477 43.8377 6.75461 44.4958 7.05208 45.0864C7.043 45.12 7.034 45.1519 7.0251 45.182C6.17975 44.4586 5.5016 43.8366 4.97173 43.3067C4.74634 42.493 4.57 41.6809 4.45846 41.1251ZM3.93203 41.0732C3.73228 41.068 3.60378 41.0927 3.53115 41.1276C3.49513 41.1449 3.48002 41.1613 3.47299 41.1717C3.46642 41.1815 3.45782 41.1995 3.45673 41.2362C3.45423 41.3202 3.4924 41.472 3.63185 41.7121C3.76106 41.9345 3.96314 42.2089 4.2516 42.5407C4.11343 41.9665 4.00497 41.4448 3.93203 41.0732ZM5.27702 44.3038C5.29177 44.347 5.30666 44.3898 5.32168 44.4323C5.45837 44.819 5.60367 45.1685 5.75465 45.4504C5.90853 45.7378 6.05603 45.9313 6.18747 46.031C6.25042 46.0787 6.3 46.0974 6.33711 46.1025C6.37093 46.1072 6.40986 46.1029 6.46036 46.0759C6.55124 46.0273 6.67261 45.9085 6.81333 45.6668C6.22768 45.1682 5.71738 44.7148 5.27702 44.3038ZM9.12165 46.9086C8.77587 46.6328 8.44809 46.3678 8.1377 46.1131C8.11192 46.0621 8.08533 46.0096 8.05801 45.9555L8.05761 45.9548C7.91842 45.6795 7.75995 45.3661 7.58927 45.0275C7.59607 44.999 7.60284 44.9699 7.60958 44.9403C8.11596 45.6194 8.65386 46.2735 9.22113 46.9006C9.18763 46.9032 9.15447 46.9058 9.12165 46.9086ZM8.96636 47.4321C9.59309 47.9301 10.276 48.4613 11.018 49.0274C11.5018 49.5504 11.9889 50.0717 12.4325 50.5445C12.4334 50.5848 12.4339 50.6229 12.4339 50.6589C11.4147 50.1963 10.5849 49.785 9.92373 49.4212C9.47318 48.6896 9.07289 47.9482 8.81387 47.4503C8.86347 47.4439 8.91431 47.4378 8.96636 47.4321ZM5.99582 41.482C6.35418 41.5859 6.73755 41.7076 7.14184 41.8448C7.2765 41.8905 7.41324 41.9378 7.5519 41.9867C7.5292 42.18 7.50628 42.3684 7.48317 42.551C7.43203 42.9552 7.38009 43.3307 7.32771 43.6706C6.84946 42.9649 6.40474 42.2346 5.99582 41.482ZM7.61066 41.4708C7.50755 41.4348 7.40547 41.3996 7.30452 41.3654C6.72268 41.1679 6.17359 40.9987 5.67234 40.8673C5.0978 39.7394 4.60255 38.5644 4.19393 37.3496C4.40878 36.927 4.6476 36.4213 4.90195 35.8567C4.92914 35.7963 4.95652 35.7352 4.98408 35.6735C5.91222 36.3449 6.91851 37.129 7.94215 37.9605C7.84174 39.1916 7.72968 40.3948 7.61066 41.4708ZM8.04087 42.1624C8.02252 42.3165 8.00402 42.4673 7.9854 42.6145C7.90676 43.2361 7.82563 43.7953 7.74306 44.2657C8.39952 45.179 9.11331 46.0484 9.87915 46.8685C10.4008 46.8552 10.9802 46.8655 11.5995 46.8941C11.7161 46.8995 11.8343 46.9055 11.954 46.9122C11.7677 45.8475 11.5397 44.6646 11.2931 43.4588C10.163 42.9794 9.05843 42.5349 8.04087 42.1624ZM11.1688 42.8568C10.104 42.4095 9.06376 41.9951 8.10059 41.6454C8.21394 40.6339 8.32102 39.5073 8.41797 38.3493C9.14569 38.9474 9.87652 39.5635 10.5887 40.1741C10.7836 41.0441 10.9802 41.9516 11.1688 42.8568ZM11.8589 43.7009C12.0885 44.8355 12.2998 45.9435 12.4735 46.9445C13.5098 47.0151 14.6398 47.1273 15.8017 47.2646C15.3661 46.454 14.9229 45.6446 14.4922 44.8712C13.6257 44.4759 12.7383 44.08 11.8589 43.7009ZM14.0749 44.126C13.2996 43.7763 12.5132 43.4293 11.7355 43.097C11.7163 43.0038 11.697 42.9105 11.6776 42.8172C11.5321 42.1174 11.3814 41.4144 11.23 40.7267C11.8568 41.2695 12.4634 41.8021 13.0338 42.3076C13.3575 42.8626 13.7089 43.4764 14.0749 44.126ZM15.2687 45.2278C15.6179 45.8606 15.9713 46.5095 16.3184 47.1568C16.351 47.2175 16.3836 47.2783 16.4161 47.339C17.2333 47.4406 18.0617 47.553 18.8806 47.6708C18.3494 47.1498 17.8422 46.6593 17.378 46.2174C16.7088 45.8991 15.9996 45.5656 15.2687 45.2278ZM16.1675 45.0872C15.7382 44.8867 15.2989 44.6835 14.8536 44.4798C14.6427 44.1018 14.4349 43.7327 14.2325 43.3764C14.5758 43.6843 14.8974 43.9742 15.1924 44.2407L15.1986 44.2464L15.2052 44.2516C15.4315 44.4302 15.7611 44.7173 16.1675 45.0872ZM18.8304 46.9138C19.122 47.1979 19.4224 47.4927 19.7282 47.795C20.2087 47.8667 20.6834 47.9396 21.1478 48.0126C20.6561 47.7707 20.2608 47.5869 19.9944 47.4783L19.9866 47.4751L19.9791 47.4714C19.6255 47.2991 19.2407 47.112 18.8304 46.9138ZM22.7872 48.2767C21.6294 47.6757 20.6987 47.2195 20.1934 47.0128C19.4671 46.6587 18.6084 46.2425 17.6683 45.7949C16.722 44.8957 15.9538 44.1986 15.5256 43.8595C14.9242 43.3161 14.212 42.6757 13.4301 41.9824C12.7697 40.852 12.2243 39.966 11.9067 39.5203C11.4725 38.8184 10.9561 37.9879 10.3859 37.0857C10.0677 35.7912 9.791 34.7677 9.6104 34.2436C9.39605 33.459 9.14046 32.5321 8.85443 31.5227C8.90909 30.2102 8.9285 29.1663 8.90172 28.6183C8.91565 27.7647 8.92975 26.7477 8.93668 25.6375C9.39688 24.3376 9.73959 23.2937 9.87927 22.7433C10.1239 21.9894 10.4098 21.1009 10.7151 20.1298C11.453 19.0831 12.0196 18.2389 12.2893 17.7724C12.7465 17.0886 13.2861 16.2776 13.8686 15.3882C14.9102 14.5638 15.7232 13.8893 16.1239 13.5082C16.7516 12.9848 17.4927 12.3638 18.2965 11.6804C19.5198 11.1843 20.4831 10.7676 20.9725 10.5154C21.7311 10.1851 22.6293 9.79141 23.6065 9.35464C24.9361 9.22529 25.9912 9.09804 26.5366 8.99434C27.3784 8.8905 28.3799 8.7645 29.4721 8.6187C30.8149 8.88961 31.8892 9.08067 32.4511 9.14132C33.2465 9.28006 34.1863 9.4417 35.2127 9.61088C36.3705 10.2118 37.3013 10.668 37.8065 10.8748C38.533 11.229 39.392 11.6453 40.3324 12.093C41.2784 12.992 42.0464 13.6888 42.4745 14.0278C43.0759 14.5712 43.788 15.2116 44.5699 15.9049C45.2303 17.0353 45.7757 17.9213 46.0933 18.367C46.5275 19.0689 47.044 19.8994 47.6142 20.8016C47.9323 22.0961 48.2091 23.1196 48.3897 23.6437C48.604 24.4283 48.8596 25.3551 49.1456 26.3645C49.0909 27.677 49.0715 28.721 49.0983 29.269C49.0844 30.1227 49.0703 31.1396 49.0633 32.2499C48.6031 33.5497 48.2604 34.5937 48.1207 35.144C47.8762 35.898 47.5902 36.7864 47.2849 37.7575C46.547 38.8042 45.9804 39.6485 45.7107 40.1149C45.2535 40.7987 44.7139 41.6098 44.1314 42.4991C43.0898 43.3235 42.2768 43.998 41.8761 44.3791C41.2483 44.9026 40.507 45.5238 39.7029 46.2074C38.4799 46.7034 37.5168 47.12 37.0275 47.3721C36.2689 47.7025 35.3707 48.0962 34.3935 48.5329C33.0639 48.6623 32.0088 48.7895 31.4634 48.8932C30.6216 48.9971 29.6201 49.1231 28.5279 49.2689C27.1851 48.998 26.1108 48.8069 25.5489 48.7463C24.7534 48.6075 23.8137 48.4459 22.7872 48.2767ZM22.6254 48.7631C21.8978 48.6434 21.128 48.5202 20.3362 48.3989C20.85 48.9117 21.3724 49.4391 21.8883 49.9665C21.9757 50.0559 22.063 50.1454 22.1501 50.2348L22.2128 50.2238C23.0109 50.0845 23.8234 49.9522 24.6297 49.8274C23.9173 49.4423 23.2394 49.0824 22.6254 48.7631ZM25.4585 49.7015C25.0336 49.4696 24.6171 49.2447 24.215 49.0297C24.663 49.1061 25.0835 49.1789 25.4701 49.2464L25.4784 49.2478L25.4868 49.2487C25.8115 49.2833 26.3225 49.3649 26.9675 49.4827C26.4734 49.5523 25.9686 49.6253 25.4585 49.7015ZM25.3652 50.2273C24.4405 50.3664 23.5005 50.5158 22.5768 50.6746C23.4196 51.5465 24.2281 52.4031 24.9335 53.1782C25.8229 52.6687 26.8176 52.1409 27.8572 51.615C27.8219 51.595 27.7866 51.575 27.7513 51.555C26.9518 51.1022 26.1446 50.6534 25.3652 50.2273ZM28.4011 51.342C28.268 51.2661 28.1345 51.1903 28.0008 51.1145C27.3988 50.7736 26.7914 50.4343 26.1939 50.1048C26.9923 49.9887 27.7717 49.8808 28.5109 49.7819C29.1766 49.9167 29.9082 50.0711 30.6763 50.2389C29.9598 50.5779 29.2403 50.9253 28.5357 51.2751C28.4908 51.2974 28.4459 51.3197 28.4011 51.342ZM28.3852 51.9159C27.2795 52.4704 26.2213 53.0272 25.2809 53.5628C25.3412 53.63 25.4005 53.6965 25.4589 53.7622C25.8921 54.2497 26.2726 54.6947 26.5789 55.0768C27.3859 55.1517 28.2035 55.19 29.0301 55.19C29.449 55.19 29.8656 55.1801 30.2797 55.1607C30.614 54.7424 31.008 54.293 31.4445 53.8236C31.4649 53.8018 31.4853 53.7798 31.5059 53.7578C30.5675 53.1817 29.4946 52.5505 28.3852 51.9159ZM31.8617 53.3824C30.9784 52.8384 29.9736 52.2447 28.93 51.6447C29.7725 51.2283 30.6344 50.816 31.4854 50.4177C32.3288 50.6062 33.2023 50.8076 34.0699 51.0148C34.1245 51.0278 34.179 51.0409 34.2336 51.0539C33.3807 51.8537 32.5724 52.6421 31.8617 53.3824ZM31.945 54.0296C31.9013 54.0761 31.858 54.1224 31.8152 54.1684C31.5059 54.5009 31.2224 54.819 30.9691 55.1193C31.7307 55.0636 32.4834 54.9753 33.2256 54.8558C32.9238 54.6526 32.5842 54.4321 32.2141 54.1985C32.1261 54.1429 32.0363 54.0866 31.945 54.0296ZM33.9371 54.7312C33.5347 54.447 33.0414 54.1221 32.4844 53.7705C32.4242 53.7324 32.3632 53.6941 32.3015 53.6554C33.0534 52.8761 33.9144 52.0421 34.8227 51.1963C36.0828 51.5033 37.3044 51.817 38.3741 52.114L38.3707 52.1208C38.0815 52.7002 37.8283 53.2478 37.6247 53.7476C36.4323 54.1615 35.2008 54.4917 33.9371 54.7312ZM34.3393 55.6721C33.7131 55.6892 33.0166 55.707 32.3135 55.7217C31.5511 55.8848 30.8352 56.0318 30.1639 56.1636C30.104 56.2518 30.0485 56.3372 29.9976 56.4197C30.5679 56.5528 31.3048 56.7105 32.0436 56.8278C32.7092 56.5835 33.5159 56.2444 34.4797 55.7974C34.4392 55.759 34.3924 55.7172 34.3393 55.6721ZM34.8056 56.204C34.1714 56.5 33.6012 56.7514 33.0909 56.9616C33.4655 56.9955 33.8123 57.0084 34.1086 56.9923C34.4341 56.9746 34.6719 56.9229 34.8178 56.8461C34.8877 56.8093 34.9257 56.7723 34.9461 56.7408C34.9646 56.7122 34.9772 56.6751 34.9741 56.6179C34.9693 56.5272 34.925 56.3921 34.8056 56.204ZM31.0253 57.1596C30.553 57.0663 30.1128 56.9676 29.7513 56.8818C29.6992 57.0094 29.6802 57.104 29.6819 57.1685C29.6829 57.2084 29.6917 57.2289 29.6983 57.2396C29.7046 57.2496 29.7175 57.2649 29.7505 57.2809C29.826 57.3176 29.9802 57.3449 30.2563 57.316C30.4612 57.2946 30.7158 57.2442 31.0253 57.1596ZM29.4823 56.2955C29.4824 56.2953 29.4824 56.2952 29.4825 56.2951C29.4822 56.2952 29.4819 56.2952 29.4816 56.2953C29.4818 56.2953 29.4821 56.2954 29.4823 56.2955ZM28.3168 55.994C28.8029 55.9082 29.3189 55.8123 29.866 55.706L29.8826 55.6829C29.5995 55.6917 29.3153 55.6962 29.0301 55.6962C28.3527 55.6962 27.6812 55.671 27.0164 55.6214L27.0147 55.6487C27.0174 55.6525 27.0201 55.6564 27.0228 55.6602C27.3682 55.7496 27.6887 55.8322 27.9719 55.9051C28.0942 55.9366 28.2095 55.9663 28.3168 55.994ZM24.6753 55.5681C23.9009 55.5087 23.1747 55.4472 22.4949 55.3838C22.4139 55.4502 22.3376 55.5153 22.2664 55.5791C22.7758 55.8658 23.453 56.231 24.1468 56.5582C24.8627 56.5081 25.7416 56.4062 26.8024 56.2444C26.7764 56.201 26.7465 56.1538 26.7127 56.1028C26.0831 55.9396 25.3808 55.7561 24.6753 55.5681ZM23.5201 2.09007C23.5606 2.12848 23.6075 2.17034 23.6606 2.21552C24.2868 2.19842 24.9834 2.18062 25.6865 2.16592C26.4488 2.00284 27.1647 1.8558 27.8359 1.72399C27.8959 1.63583 27.9514 1.55041 28.0022 1.46786C27.4318 1.33469 26.6948 1.177 25.9559 1.05971C25.2904 1.304 24.4837 1.64305 23.5201 2.09007ZM20.3179 4.27876C21.5665 3.83863 22.8583 3.49044 24.1855 3.2423C24.564 3.50538 25.0139 3.80041 25.5155 4.11712C25.5757 4.15511 25.6367 4.19344 25.6984 4.23207C24.9464 5.01143 24.0854 5.84547 23.1771 6.69122C21.9171 6.38423 20.6955 6.07052 19.6258 5.77354L19.6293 5.76653C19.8919 5.24041 20.1249 4.74049 20.3179 4.27876ZM25.7858 3.68906C25.8738 3.74465 25.9636 3.80095 26.0548 3.85791C26.0986 3.81134 26.142 3.765 26.1848 3.71891C26.4567 3.42657 26.7088 3.14536 26.9379 2.87756C26.252 2.93176 25.5737 3.01236 24.9037 3.11836C25.1721 3.29715 25.4677 3.48823 25.7858 3.68906ZM23.7662 6.83359C24.6191 6.03385 25.4274 5.24546 26.1381 4.50514C27.0214 5.04912 28.0264 5.64291 29.07 6.2429C28.2275 6.65926 27.3656 7.07161 26.5147 7.46984C25.6712 7.28139 24.7977 7.07994 23.9301 6.8728L23.8588 6.85577L23.7662 6.83359ZM26.494 4.12967C27.4324 4.70583 28.5053 5.33705 29.6147 5.97174C30.7205 5.41717 31.7788 4.86027 32.7193 4.32471C32.659 4.25741 32.5996 4.19086 32.5411 4.12512C32.1451 3.67948 31.7932 3.26933 31.5017 2.91029C30.6881 2.83416 29.8637 2.79523 29.0301 2.79523C28.5623 2.79523 28.0974 2.80749 27.6356 2.83171C27.3201 3.21991 26.9557 3.63342 26.5555 4.06369C26.5351 4.08563 26.5146 4.10762 26.494 4.12967ZM29.4643 6.6125C29.5092 6.59022 29.5541 6.56792 29.5988 6.54562C29.7319 6.62147 29.8654 6.69731 29.9992 6.77304C30.6011 7.11396 31.2085 7.45323 31.8061 7.78276C31.0077 7.89886 30.2283 8.00674 29.4891 8.10569C28.8234 7.97083 28.0918 7.81647 27.3237 7.64863C28.0402 7.30963 28.7597 6.96227 29.4643 6.6125ZM30.2486 6.33255C31.0482 6.78538 31.8554 7.23413 32.6347 7.66025C33.5595 7.52119 34.4996 7.37174 35.4235 7.21297C34.5806 6.34097 33.7721 5.48437 33.0667 4.70926C32.1772 5.2188 31.1824 5.7466 30.1428 6.27257L30.2486 6.33255ZM31.0325 8.40483C31.5266 8.33525 32.0313 8.26228 32.5414 8.18611C32.9664 8.41793 33.3828 8.64288 33.7849 8.85789C33.337 8.78144 32.9164 8.70862 32.5299 8.64119L32.5216 8.63975L32.5132 8.63885C32.1885 8.60425 31.6775 8.52266 31.0325 8.40483ZM33.3703 8.06016C34.0826 8.44526 34.7605 8.80516 35.3745 9.12447C36.1022 9.24416 36.8722 9.36737 37.6642 9.4887C37.1503 8.97588 36.6278 8.44838 36.1118 7.92081C36.0244 7.83146 35.9372 7.74208 35.8502 7.65274L35.7872 7.66375C34.9891 7.80304 34.1766 7.93541 33.3703 8.06016ZM38.0209 10.4161C38.3746 10.5886 38.7598 10.7758 39.1703 10.9741C38.8786 10.69 38.5781 10.3951 38.2721 10.0926C37.7915 10.0209 37.3167 9.94796 36.8521 9.87497C37.3438 10.1169 37.7391 10.3006 38.0055 10.4093L38.0133 10.4124L38.0209 10.4161ZM42.7949 13.6357C42.5687 13.4572 42.2393 13.1704 41.8332 12.8008C42.2624 13.0011 42.7015 13.2043 43.1467 13.408C43.3576 13.7858 43.5653 14.1548 43.7675 14.5109C43.4243 14.203 43.1027 13.9132 42.8077 13.6466L42.8015 13.641L42.7949 13.6357ZM40.6227 11.6705C41.2918 11.9888 42.0008 12.3222 42.7316 12.6599C42.3823 12.0271 42.0288 11.3779 41.6816 10.7306C41.6491 10.6699 41.6166 10.6092 41.5842 10.5486C40.767 10.447 39.9386 10.3346 39.1198 10.2169C39.6511 10.7379 40.1584 11.2286 40.6227 11.6705ZM44.9663 15.5798C44.6426 15.0248 44.2913 14.4112 43.9254 13.7617C44.7006 14.1114 45.487 14.4584 46.2646 14.7906C46.2838 14.8837 46.3031 14.9769 46.3225 15.0702C46.468 15.7699 46.6187 16.473 46.7701 17.1606C46.1432 16.6178 45.5367 16.0852 44.9663 15.5798ZM43.5081 13.0165C44.3746 13.4118 45.2619 13.8077 46.1412 14.1868C45.9117 13.0521 45.7003 11.9441 45.5266 10.9431C44.4903 10.8725 43.3604 10.7603 42.1985 10.623C42.6342 11.4337 43.0774 12.2431 43.5081 13.0165ZM47.4114 17.7132C47.2165 16.8433 47.0199 15.936 46.8314 15.0308C47.896 15.4781 48.9363 15.8925 49.8994 16.2422C49.7861 17.2536 49.679 18.3801 49.582 19.538C48.8543 18.9398 48.1235 18.3238 47.4114 17.7132ZM46.7071 14.4288C47.837 14.9083 48.9416 15.3527 49.9591 15.7252C49.9775 15.571 49.996 15.4201 50.0146 15.2728C50.0926 14.6563 50.173 14.1012 50.2549 13.6332C49.5896 12.7155 48.8662 11.8425 48.0902 11.0198C47.5765 11.032 47.0077 11.0216 46.4005 10.9935C46.2839 10.9881 46.1658 10.982 46.0461 10.9753C46.2325 12.0401 46.4604 13.2231 46.7071 14.4288ZM50.0579 19.9268C50.1583 18.6958 50.2703 17.4927 50.3893 16.4168C50.4924 16.4528 50.5945 16.4879 50.6954 16.5222C51.2819 16.7212 51.8351 16.8916 52.3395 17.0234C52.9141 18.14 53.4107 19.3032 53.8223 20.5059C53.6033 20.9349 53.3588 21.4517 53.0981 22.0307L53.0881 22.0528L53.0591 22.1174C53.0447 22.1493 53.0304 22.1815 53.0159 22.2138C52.0878 21.5424 51.0815 20.7583 50.0579 19.9268ZM50.8581 16.0428C51.2655 16.1811 51.6517 16.3036 52.0124 16.408C51.6003 15.6569 51.1524 14.9283 50.6711 14.2243C50.6191 14.5623 50.5676 14.9351 50.5168 15.3363C50.4937 15.519 50.4708 15.7075 50.4481 15.9009C50.5867 15.9498 50.7235 15.9971 50.8581 16.0428ZM53.3737 16.7352C53.431 16.7452 53.487 16.7543 53.5416 16.7625C53.4301 16.2068 53.2538 15.3948 53.0284 14.5811C52.4985 14.0511 51.8203 13.4291 50.9748 12.7055C50.966 12.7356 50.957 12.7673 50.9479 12.8008C51.2454 13.3915 51.5753 14.0496 51.9024 14.7106C52.436 15.4312 52.9257 16.1054 53.3737 16.7352ZM54.4688 16.76C54.3962 16.7949 54.2677 16.8196 54.068 16.8144C53.9951 16.4429 53.8867 15.9212 53.7485 15.3471C54.0369 15.6788 54.2389 15.9532 54.3681 16.1755C54.5075 16.4156 54.5457 16.5674 54.5432 16.6514C54.5421 16.688 54.5335 16.706 54.5269 16.7158C54.5199 16.7263 54.5048 16.7427 54.4688 16.76ZM52.7016 13.5214C52.7088 13.5422 52.716 13.563 52.7231 13.584C52.2827 13.173 51.7723 12.7194 51.1866 12.2207C51.3273 11.9789 51.4487 11.86 51.5396 11.8115C51.5901 11.7845 51.6291 11.7801 51.6629 11.7848C51.7 11.7899 51.7496 11.8086 51.8125 11.8564C51.944 11.956 52.0915 12.1496 52.2454 12.4369C52.3963 12.7189 52.5416 13.0683 52.6783 13.455C52.6861 13.477 52.6939 13.4992 52.7016 13.5214ZM49.8627 11.7748C49.5522 11.5201 49.2242 11.2549 48.8783 10.9789C48.8368 10.9825 48.7948 10.9858 48.7522 10.9889C49.3278 11.6191 49.8736 12.277 50.3874 12.9604C50.3951 12.9261 50.4029 12.8925 50.4108 12.8597C50.2399 12.5209 50.0813 12.2072 49.9421 11.9318L49.9418 11.9313L49.8627 11.7748ZM46.9831 8.86106C47.7247 9.42682 48.4072 9.95776 49.0336 10.4555C49.0857 10.4498 49.1366 10.4437 49.1863 10.4372C48.9273 9.93946 48.5271 9.19814 48.0766 8.46658C47.4153 8.10275 46.5855 7.69136 45.5662 7.22875C45.5662 7.25189 45.5663 7.27592 45.5667 7.30084C45.567 7.31455 45.5673 7.32853 45.5676 7.34278C46.0115 7.81596 46.499 8.3377 46.9831 8.86106ZM54.037 19.605C53.7252 18.7748 53.3732 17.9642 52.9834 17.1756C53.0156 17.1823 53.0476 17.1888 53.0793 17.1951C53.342 17.5659 53.5895 17.9205 53.8226 18.2594L53.8595 18.4565L53.8597 18.4578C53.9222 18.7913 53.9942 19.1757 54.0715 19.5918L54.037 19.605ZM28.3181 0.718838C28.3198 0.783398 28.3008 0.878011 28.2486 1.00575C27.887 0.919967 27.4466 0.82119 26.9741 0.727925C27.2839 0.643215 27.5386 0.592744 27.7437 0.571285C28.0198 0.542392 28.174 0.569779 28.2495 0.606462C28.2825 0.622471 28.2954 0.637688 28.3017 0.647695C28.3083 0.658386 28.3171 0.678879 28.3181 0.718838ZM28.5173 1.5925L28.5176 1.59209L28.5184 1.59229L28.5173 1.5925ZM28.1338 2.18163C28.681 2.07525 29.1971 1.97939 29.6831 1.89354L30.0276 1.98234L30.028 1.98243L30.0292 1.98274C30.3123 2.05568 30.6324 2.13817 30.9775 2.22748L30.9854 2.23857L30.9777 2.35894C30.3346 2.31258 29.6851 2.289 29.0301 2.289C28.7154 2.289 28.402 2.29445 28.0899 2.30525L28.0897 2.24299C28.1045 2.22244 28.1193 2.20199 28.1338 2.18163ZM35.5051 2.50382C34.8252 2.44036 34.0991 2.37882 33.3246 2.31943C32.6193 2.13147 31.9171 1.94805 31.2876 1.78485C31.2537 1.7338 31.2238 1.68654 31.1978 1.64316C32.2588 1.48132 33.1377 1.37944 33.8537 1.3293C34.5474 1.65651 35.2245 2.02166 35.7338 2.30834C35.6625 2.37213 35.5862 2.43732 35.5051 2.50382ZM23.1942 1.68337C23.8282 1.38752 24.3984 1.13611 24.9086 0.925907C24.5342 0.892078 24.1875 0.879166 23.8913 0.895276C23.5658 0.912976 23.328 0.964629 23.1821 1.04149C23.1122 1.07831 23.0742 1.11529 23.0539 1.14673C23.0353 1.1754 23.0228 1.2125 23.0258 1.26967C23.0307 1.3603 23.0749 1.49542 23.1942 1.68337ZM8.29272 47.5448C8.09066 47.5959 7.96972 47.6569 7.90814 47.7119C7.87832 47.7385 7.86835 47.7585 7.8645 47.7705C7.8609 47.7817 7.85763 47.8014 7.86674 47.8369C7.88762 47.9183 7.9664 48.0536 8.16695 48.2455C8.35741 48.4278 8.6366 48.6415 9.02006 48.8878C8.71913 48.3602 8.46465 47.8788 8.29272 47.5448ZM10.4932 50.2931C10.525 50.3387 10.5569 50.3838 10.5888 50.4282C10.8281 50.7614 11.0652 51.0564 11.2889 51.2849C11.5169 51.5179 11.7126 51.6625 11.8666 51.7215C11.9404 51.7497 11.9932 51.7539 12.0303 51.7484C12.0641 51.7435 12.1002 51.7284 12.1412 51.6884C12.216 51.6154 12.3007 51.4641 12.3689 51.185C11.6595 50.8653 11.0363 50.5683 10.4932 50.2931ZM15.234 51.8609C14.7271 51.6533 14.25 51.4534 13.8015 51.2612L13.7364 51.1921C13.4998 50.9408 13.2264 50.6505 12.9309 50.3359C12.9302 50.3233 12.9295 50.3105 12.9288 50.2978C13.6681 50.8574 14.4374 51.3794 15.234 51.8609ZM15.2925 52.4317C15.9204 52.6872 16.5914 52.9538 17.3074 53.2321C17.974 53.6338 18.6443 54.0328 19.2426 54.3873C19.257 54.4329 19.2697 54.4756 19.2807 54.5155C18.1979 54.3695 17.3085 54.2176 16.5918 54.0622C15.9911 53.5284 15.424 52.9657 15.0201 52.551C15.106 52.5112 15.1969 52.4714 15.2925 52.4317ZM10.359 47.369C10.9771 47.997 11.6266 48.5939 12.3051 49.1572C12.26 48.8107 12.2041 48.4287 12.139 48.0182C12.1085 47.826 12.0761 47.6278 12.0419 47.4243C11.884 47.415 11.7286 47.4068 11.5761 47.3998C11.1437 47.3798 10.7365 47.3692 10.359 47.369ZM12.5608 47.458C12.5881 47.622 12.6142 47.7824 12.639 47.9389C12.7385 48.5669 12.8176 49.1338 12.8697 49.613C13.8283 50.3654 14.8408 51.0523 15.9003 51.6672C16.4018 51.4995 16.9678 51.3379 17.579 51.1824C17.6531 51.1635 17.7279 51.1447 17.8034 51.126C17.2991 50.1053 16.7094 48.9657 16.0933 47.8094C14.8584 47.6591 13.6569 47.5356 12.5608 47.458ZM16.7072 47.8859C17.2847 48.9755 17.8349 50.0438 18.3079 51.0045C19.3057 50.7708 20.4064 50.5493 21.5476 50.3422L21.5264 50.3205C20.8456 49.6245 20.1553 48.9304 19.4899 48.2714C18.5716 48.1353 17.634 48.0041 16.7072 47.8859ZM31.4272 49.8861C30.9514 49.7803 30.4853 49.6786 30.0356 49.5825C30.5744 49.5137 31.0774 49.4509 31.5337 49.3946L31.542 49.3936L31.5503 49.392C31.8517 49.3343 32.3227 49.2683 32.9189 49.1983C32.4305 49.421 31.9312 49.6509 31.4272 49.8861ZM34.6776 50.6402C34.5146 50.6007 34.3512 50.5615 34.1875 50.5224C33.5367 50.367 32.8815 50.2146 32.2371 50.0682C33.0254 49.7039 33.7962 49.3547 34.5247 49.0288C35.1813 48.9654 35.9048 48.9015 36.6671 48.8396C36.047 49.3896 35.4256 49.9498 34.8206 50.5081C34.7728 50.5521 34.7252 50.5961 34.6776 50.6402ZM38.608 51.6536C37.6001 51.3723 36.4547 51.0759 35.268 50.7841C36.002 50.1088 36.7587 49.4312 37.5067 48.7734C38.4061 48.7047 39.3431 48.6398 40.2758 48.5828L40.3207 48.5801C39.6909 49.649 39.1039 50.6934 38.608 51.6536ZM38.8479 52.2984C38.8398 52.3146 38.8317 52.3307 38.8236 52.3469C38.6181 52.7586 38.4338 53.1487 38.2741 53.5124C38.9475 53.2585 39.6076 52.9775 40.2532 52.671C39.9048 52.5586 39.5145 52.44 39.0907 52.3172C39.0182 52.2961 38.9447 52.275 38.8703 52.2537C38.8628 52.2686 38.8553 52.2835 38.8479 52.2984ZM40.8994 52.3532C40.4329 52.1912 39.8669 52.0151 39.2317 51.831C39.1898 51.8188 39.1477 51.8067 39.1052 51.7944C39.6308 50.7829 40.2577 49.6762 40.9302 48.5441C42.1404 48.4748 43.3234 48.4206 44.3853 48.3901C44.365 48.4927 44.3453 48.5943 44.3263 48.6947C44.2061 49.3289 44.1117 49.923 44.0518 50.4581C43.0502 51.1604 41.9971 51.7943 40.8994 52.3532ZM41.4539 53.1053C40.939 53.2769 40.3881 53.4592 39.8349 53.6399C39.1158 54.0292 38.4402 54.3877 37.8063 54.7167C37.7677 54.8363 37.734 54.9505 37.7053 55.059C38.2895 55.0268 39.0161 54.9725 39.7287 54.8815C40.2886 54.4702 40.9562 53.9294 41.7428 53.242C41.6658 53.2006 41.5693 53.1549 41.4539 53.1053ZM42.141 52.8905C42.1362 52.8873 42.1312 52.884 42.1261 52.8807L42.1677 52.8667L42.141 52.8905ZM42.1617 53.548C41.6546 53.993 41.194 54.3802 40.7772 54.7135C41.1159 54.6456 41.4252 54.5668 41.6856 54.4761C41.9934 54.3689 42.2076 54.2533 42.3265 54.139C42.3834 54.0842 42.4096 54.0382 42.4205 54.0023C42.4303 53.9696 42.4321 53.9305 42.4133 53.8764C42.3851 53.7951 42.3116 53.6851 42.1617 53.548ZM38.8338 55.4861C38.3885 55.5255 37.9663 55.5526 37.6066 55.5713C37.5978 55.688 37.6064 55.7718 37.6243 55.8272C37.6366 55.8653 37.6508 55.8825 37.6602 55.8908C37.669 55.8987 37.6857 55.9096 37.7219 55.9157C37.8047 55.9295 37.9604 55.9123 38.2171 55.8066C38.3895 55.7356 38.5941 55.6304 38.8338 55.4861ZM37.1836 55.0574C37.1855 55.0498 37.1873 55.0422 37.1892 55.0346L37.0845 55.088L37.1528 55.0853L37.1773 55.0843C37.1794 55.0754 37.1815 55.0664 37.1836 55.0574ZM35.8885 55.1217C36.3596 54.8891 36.8603 54.636 37.3918 54.3613L37.3919 54.3609C36.5066 54.6525 35.6007 54.8992 34.6771 55.098L34.6903 55.1559C34.9772 55.1479 35.2449 55.1402 35.4865 55.1332L35.4878 55.1332L35.4881 55.1332L35.4881 55.1332C35.6313 55.129 35.7652 55.1252 35.8885 55.1217ZM20.3757 2.06008C20.3936 2.1156 20.4022 2.19943 20.3934 2.31632C20.0336 2.33495 19.6112 2.36206 19.1657 2.40149C19.4056 2.25707 19.6104 2.15177 19.7829 2.08074C20.0396 1.97506 20.1953 1.9578 20.2781 1.97164C20.3143 1.97769 20.331 1.98864 20.3398 1.99648C20.3492 2.00485 20.3634 2.02204 20.3757 2.06008ZM20.2947 2.82858C19.7104 2.86081 18.9836 2.91506 18.2709 3.00615C17.711 3.41744 17.0436 3.95822 16.257 4.64548C16.3341 4.68691 16.4306 4.73263 16.5462 4.78227C17.0606 4.61084 17.6112 4.42859 18.164 4.24803C18.8835 3.85847 19.5595 3.49983 20.1937 3.17059C20.2322 3.05114 20.266 2.93703 20.2947 2.82858ZM16.3144 3.41146C16.5747 3.32076 16.8838 3.24205 17.2224 3.17415C16.8057 3.50738 16.3452 3.89449 15.8381 4.33945C15.6883 4.20245 15.6149 4.09248 15.5867 4.01115C15.5679 3.95707 15.5697 3.91794 15.5795 3.88526C15.5904 3.8494 15.6166 3.80334 15.6735 3.74859C15.7925 3.63428 16.0066 3.51871 16.3144 3.41146ZM15.8318 5.02099L15.8588 4.99693C15.8637 5.00024 15.8688 5.00357 15.8739 5.0069L15.8318 5.02099ZM13.9303 7.58206C14.9828 6.83847 16.0924 6.17052 17.2515 5.58613C17.6873 5.7336 18.2001 5.89187 18.7683 6.05661C18.8101 6.06874 18.8523 6.0809 18.8947 6.0931C18.3691 7.10469 17.7421 8.21137 17.0697 9.34352C15.8594 9.41277 14.6765 9.46695 13.6146 9.49745C13.635 9.39477 13.6547 9.29316 13.6737 9.19268C13.7826 8.6182 13.8703 8.07664 13.9303 7.58206ZM17.6791 9.30752C18.309 8.23858 18.896 7.19416 19.3919 6.2339C20.3998 6.51523 21.5452 6.81165 22.7318 7.10339C21.9978 7.7788 21.241 8.45636 20.493 9.1142C19.5937 9.18293 18.6568 9.24776 17.7243 9.30477L17.6791 9.30752ZM23.2735 7.29241L23.3222 7.24736C23.4852 7.2868 23.6488 7.32609 23.8125 7.36519C24.4633 7.52055 25.1185 7.67301 25.7629 7.81939C24.9746 8.18366 24.2038 8.53289 23.4753 8.85877C22.8186 8.92214 22.095 8.98611 21.3326 9.04804C21.9528 8.49794 22.5743 7.93759 23.1794 7.37927C23.2108 7.35031 23.2422 7.32136 23.2735 7.29241ZM25.0811 8.68924C25.5695 8.46661 26.0688 8.23665 26.5728 8.00146C27.0486 8.10731 27.5147 8.20895 27.9644 8.30504C27.4256 8.37391 26.9226 8.43668 26.4664 8.49294L26.458 8.49397L26.4497 8.49556C26.1483 8.55328 25.6773 8.61923 25.0811 8.68924ZM38.5105 9.61627C39.4287 9.75237 40.3662 9.88352 41.293 10.0017C40.7155 8.91209 40.1653 7.84378 39.6922 6.88301C38.6945 7.11678 37.5938 7.33825 36.4527 7.54534L36.4737 7.56684C37.1546 8.26298 37.845 8.95709 38.5105 9.61627ZM41.9069 10.0782C43.1417 10.2285 44.3432 10.352 45.4393 10.4295C45.412 10.2655 45.3859 10.105 45.3611 9.9484C45.2654 9.34457 45.1886 8.79715 45.1365 8.32988C44.1548 7.56355 43.1171 6.86566 42.0305 6.24337C41.5463 6.40284 41.0042 6.55681 40.421 6.70522C40.347 6.72406 40.2722 6.74283 40.1968 6.76152C40.7011 7.78224 41.2908 8.92192 41.9069 10.0782ZM46.4239 10.4878C46.8424 10.5071 47.2374 10.5177 47.6046 10.5185C46.9993 9.90999 46.3644 9.33105 45.7021 8.78403C45.7459 9.11612 45.7994 9.47983 45.8611 9.86917C45.8915 10.0614 45.924 10.2597 45.9582 10.4632C46.1161 10.4725 46.2714 10.4807 46.4239 10.4878ZM50.0919 10.1757C50.0303 10.2307 49.9094 10.2916 49.7075 10.3427C49.5356 10.0089 49.2811 9.5275 48.9803 8.99994C49.3636 9.24624 49.6426 9.45979 49.8331 9.64204C50.0336 9.834 50.1124 9.96932 50.1333 10.0507C50.1424 10.0862 50.1391 10.1059 50.1355 10.1171C50.1317 10.1291 50.1217 10.149 50.0919 10.1757ZM47.4112 7.4591C47.4433 7.50372 47.4753 7.54891 47.5072 7.59462C46.964 7.31936 46.3407 7.02238 45.6311 6.70254C45.6993 6.42336 45.7841 6.27199 45.8589 6.1989C45.8998 6.15888 45.936 6.14387 45.9698 6.13889C46.0068 6.13343 46.0597 6.13758 46.1334 6.16583C46.2875 6.22481 46.4832 6.36946 46.7112 6.60241C46.9349 6.83097 47.172 7.12594 47.4112 7.4591ZM44.199 6.62658C43.7327 6.42673 43.2355 6.21863 42.706 6.00207C42.6936 6.00692 42.6811 6.01175 42.6686 6.01659L42.6552 6.02174C43.4923 6.5193 44.2998 7.06131 45.0746 7.64452C45.0735 7.62759 45.0725 7.61082 45.0715 7.5942C45.0707 7.57984 45.0699 7.56559 45.0692 7.55146C44.7742 7.23736 44.5013 6.94754 44.2649 6.69652L44.2636 6.6952L44.2622 6.69368L44.2592 6.69054L44.199 6.62658ZM40.694 4.65604C41.4095 4.93407 42.08 5.20057 42.7075 5.45591C42.8032 5.41618 42.8941 5.37635 42.9801 5.33643C42.5763 4.92186 42.0093 4.35921 41.4087 3.82544C40.6919 3.67006 39.8024 3.51811 38.7194 3.37211C38.7305 3.41189 38.7431 3.45456 38.7575 3.50007C39.3562 3.85479 40.0269 4.25402 40.694 4.65604ZM18.9093 5.5704C18.9818 5.59142 19.0552 5.61257 19.1296 5.63382C19.1453 5.60259 19.1609 5.57147 19.1764 5.54046C19.3548 5.18304 19.5172 4.84192 19.6614 4.52017C19.0655 4.74844 18.4801 4.99784 17.906 5.26746C18.2128 5.36458 18.549 5.46593 18.9093 5.5704ZM20.915 2.7996C20.8851 2.80075 20.8543 2.80196 20.8227 2.80325C20.8189 2.81963 20.8149 2.83612 20.8108 2.85272L20.915 2.7996ZM20.6082 3.52602C21.1395 3.25144 21.6401 2.99841 22.111 2.76592C22.2344 2.76241 22.3686 2.75855 22.5119 2.75442C22.7539 2.74745 23.0222 2.73973 23.3097 2.73167L23.347 2.89502C22.3984 3.10062 21.4686 3.35663 20.5605 3.6601C20.5769 3.61491 20.5928 3.57021 20.6082 3.52602ZM14.555 52.7987C14.4079 52.8933 14.3244 52.9757 14.2856 53.0394C14.2649 53.0735 14.2611 53.0955 14.2609 53.1081C14.2608 53.1199 14.2634 53.1397 14.2824 53.171C14.3261 53.2428 14.4408 53.3493 14.6886 53.4745C14.9008 53.5818 15.1894 53.6924 15.5656 53.8041C15.1716 53.4282 14.82 53.0729 14.555 52.7987ZM17.394 54.7356C17.4063 54.7453 17.4186 54.7549 17.4309 54.7644C17.7547 55.0161 18.0657 55.2318 18.345 55.3876C18.6296 55.5464 18.8583 55.6297 19.0227 55.6426C19.1015 55.6488 19.1533 55.6378 19.1873 55.6221C19.2183 55.6078 19.2487 55.5831 19.2767 55.5331C19.3246 55.4473 19.3614 55.2927 19.3543 55.036C18.6189 54.9387 17.9673 54.8384 17.394 54.7356ZM22.3387 54.8605C21.781 54.8074 21.2561 54.7531 20.7627 54.6976L20.5313 54.561L20.5313 54.561C20.2728 54.4084 19.9795 54.2352 19.6633 54.0481C19.6579 54.0325 19.6524 54.0169 19.6468 54.001C20.5261 54.3311 21.4274 54.6161 22.3479 54.8533L22.3387 54.8605ZM16.5028 52.0063C17.2249 52.4002 17.9676 52.7611 18.7289 53.087C18.5846 52.76 18.4185 52.4001 18.2346 52.0139C18.169 51.8761 18.1012 51.7351 18.0313 51.5913C17.9206 51.6183 17.8114 51.6456 17.7039 51.6729C17.2736 51.7824 16.8716 51.8937 16.5028 52.0063ZM18.5357 51.4713C18.5889 51.5814 18.641 51.6897 18.6917 51.7962C18.9704 52.3815 19.2108 52.912 19.3981 53.3625C20.5216 53.807 21.6832 54.1759 22.8766 54.4632C23.3137 54.1565 23.8162 53.8369 24.3649 53.5101C24.4049 53.4863 24.4452 53.4624 24.4857 53.4385C23.7354 52.6163 22.8711 51.704 21.974 50.7799C20.761 50.9956 19.5906 51.227 18.5357 51.4713ZM37.2995 48.2816C36.8426 48.3169 36.3957 48.3533 35.9643 48.3901C36.42 48.1895 36.847 48.0029 37.2373 47.8329L37.245 47.8296L37.2525 47.8257C37.5165 47.6892 37.9309 47.5001 38.458 47.2735C38.0778 47.6017 37.6901 47.9388 37.2995 48.2816ZM40.6328 48.0543C40.5036 48.0619 40.3743 48.0696 40.2449 48.0775C39.5413 48.1205 38.8338 48.1681 38.1408 48.2185C38.7693 47.6712 39.385 47.1425 39.9687 46.6459C40.5834 46.3972 41.2635 46.1284 41.9823 45.8503C41.5398 46.5577 41.0988 47.2756 40.6731 47.9868L40.6328 48.0543ZM44.4896 47.8808C43.4909 47.908 42.3827 47.9567 41.2439 48.0194C41.7412 47.1933 42.2573 46.3604 42.7706 45.5476C43.5829 45.2378 44.4299 44.9215 45.2767 44.6127C44.9759 45.751 44.7051 46.8603 44.4896 47.8808ZM44.9042 48.3769C44.8761 48.5163 44.8493 48.6537 44.8236 48.7889C44.7385 49.2385 44.6676 49.6618 44.6131 50.0535C45.3252 49.5257 46.0096 48.9627 46.6637 48.367C46.3002 48.3611 45.8955 48.3613 45.4583 48.3671C45.2787 48.3695 45.0938 48.3728 44.9042 48.3769ZM47.1898 47.8746C46.6982 47.8558 46.1087 47.8522 45.4516 47.8609C45.3076 47.8628 45.1602 47.8653 45.0098 47.8684C45.2404 46.7899 45.5325 45.6112 45.8565 44.4024C47.105 43.9522 48.3319 43.5267 49.4231 43.1714C49.429 43.2269 49.435 43.282 49.441 43.3367C49.5117 43.9759 49.5952 44.5696 49.6943 45.0972C48.9259 46.0817 48.0886 47.01 47.1898 47.8746ZM47.9959 48.4386C47.4922 48.7908 46.9404 49.175 46.3856 49.5574C45.7088 50.2305 45.0769 50.8466 44.4879 51.4089C44.4865 51.458 44.4856 51.5062 44.4852 51.5533C45.0221 51.3648 45.797 51.0787 46.5658 50.7448C47.0156 50.1483 47.5358 49.3924 48.1331 48.457C48.0907 48.4506 48.0449 48.4444 47.9959 48.4386ZM48.6418 48.6006C48.2315 49.2467 47.8553 49.8124 47.5111 50.3033C47.5481 50.2846 47.5847 50.2658 47.621 50.247C47.985 50.058 48.311 49.8657 48.5693 49.6771C48.8325 49.4849 49.0037 49.312 49.0842 49.168C49.1227 49.099 49.1344 49.0473 49.1343 49.0099C49.1343 48.9757 49.1246 48.9378 49.0909 48.8915C49.0306 48.8088 48.8974 48.7058 48.6418 48.6006ZM45.9063 51.5648C45.3636 51.7788 44.8667 51.9572 44.5081 52.0814C44.531 52.2762 44.5729 52.398 44.6171 52.4643C44.6393 52.4976 44.6576 52.5102 44.6689 52.5157C44.6795 52.5209 44.6986 52.5269 44.735 52.5229C44.8185 52.5136 44.9636 52.4546 45.1818 52.2831C45.3818 52.1259 45.6222 51.891 45.9063 51.5648ZM43.0989 52.0201C43.3839 51.7564 43.681 51.4777 43.9906 51.1834C43.9918 51.1599 43.9931 51.1363 43.9945 51.1125C43.2832 51.5947 42.5474 52.0435 41.7893 52.4565L41.7907 52.4591C42.1717 52.3316 42.524 52.2133 42.8315 52.1099L43.0989 52.0201ZM35.5721 3.09618C35.6023 3.07305 35.632 3.05001 35.6613 3.02706C36.2192 3.08019 36.7443 3.13455 37.2379 3.19002L37.4598 3.32101L37.4599 3.3211L37.4665 3.32501L37.4675 3.32558L37.4687 3.3263L37.4691 3.32654C37.7275 3.47908 38.0207 3.65217 38.3367 3.83926C38.3519 3.88286 38.3679 3.92759 38.3847 3.9734C37.4699 3.6312 36.5313 3.33774 35.5721 3.09618ZM40.5947 3.14281L40.6065 3.15202C40.0331 3.04928 39.3814 2.94892 38.6458 2.85157C38.6386 2.59475 38.6754 2.44004 38.7234 2.3542C38.7513 2.30422 38.7818 2.27957 38.8128 2.26522C38.8467 2.24949 38.8986 2.2385 38.9774 2.24469C39.1418 2.25761 39.3704 2.34088 39.6551 2.49968C39.9344 2.65549 40.2454 2.87119 40.5692 3.12291L40.5947 3.14281ZM43.4452 5.08879C43.1803 4.81464 42.8288 4.4594 42.4348 4.08358C42.8109 4.19522 43.0993 4.3058 43.3114 4.41303C43.5592 4.53828 43.6739 4.64481 43.7176 4.71658C43.7367 4.74791 43.7392 4.76769 43.7391 4.77948C43.7389 4.79208 43.7351 4.81405 43.7144 4.8482C43.6757 4.91183 43.5922 4.99417 43.4452 5.08879ZM39.3106 4.88936C40.031 5.19701 40.7348 5.536 41.4203 5.90463C41.0727 6.00928 40.6966 6.11272 40.2962 6.21463C40.1886 6.24199 40.0795 6.26921 39.9688 6.29628C39.899 6.15232 39.8311 6.01126 39.7654 5.87343C39.5981 5.522 39.4455 5.19226 39.3106 4.88936ZM39.3084 6.09108C39.3592 6.19765 39.4112 6.3061 39.4645 6.41629C38.4096 6.66056 37.2392 6.89189 36.0262 7.10762C35.1292 6.18348 34.2648 5.27119 33.5145 4.449C33.5549 4.42511 33.5952 4.40126 33.6351 4.37746C34.1468 4.0727 34.6184 3.77414 35.0342 3.48649C36.272 3.77673 37.4759 4.15473 38.6391 4.61357C38.8207 5.04444 39.0478 5.5438 39.3084 6.09108ZM22.0357 9.49751C21.6042 9.53433 21.1572 9.57067 20.7002 9.60601C20.3095 9.94893 19.9217 10.2861 19.5414 10.6143C20.0688 10.3876 20.4834 10.1984 20.7475 10.0619L20.755 10.058L20.7627 10.0546C21.153 9.88472 21.58 9.6981 22.0357 9.49751ZM17.7551 9.81005C17.6257 9.81797 17.4963 9.82573 17.3671 9.83334L17.3269 9.90052C16.9012 10.6118 16.4601 11.3298 16.0175 12.0373C16.7362 11.7593 17.4162 11.4906 18.0307 11.2419C18.6145 10.7452 19.2303 10.2165 19.8589 9.66913C19.166 9.71952 18.4586 9.76705 17.7551 9.81005ZM16.7559 9.86816C15.6172 9.93089 14.509 9.97956 13.5103 10.0068C13.2949 11.0273 13.024 12.1366 12.7232 13.2749C13.57 12.9661 14.417 12.6498 15.2292 12.3401C15.7426 11.5272 16.2586 10.6943 16.7559 9.86816ZM13.1764 9.09845C13.1507 9.23375 13.1238 9.37121 13.0958 9.51065C12.9062 9.51481 12.7213 9.51811 12.5417 9.52048C12.1697 9.52539 11.8214 9.52632 11.5018 9.52281C12.0984 8.9854 12.7198 8.47502 13.364 7.99359C13.3131 8.33986 13.2501 8.70931 13.1764 9.09845ZM12.5484 10.0267C11.9597 10.0344 11.4252 10.0324 10.9668 10.0184C10.018 10.9219 9.13682 11.8959 8.33173 12.932C8.41951 13.4234 8.49456 13.9681 8.55899 14.5506C8.56505 14.6054 8.57102 14.6606 8.5769 14.7161C9.66807 14.3609 10.895 13.9354 12.1434 13.4852C12.4674 12.2764 12.7595 11.0977 12.9901 10.0192C12.8397 10.0223 12.6924 10.0248 12.5484 10.0267ZM11.6136 8.3307C11.059 8.71299 10.5076 9.09694 10.004 9.44899C9.95502 9.44315 9.90924 9.43701 9.86674 9.43059C10.464 8.49528 10.9842 7.73938 11.434 7.14292C12.2028 6.80896 12.9779 6.52284 13.5148 6.33431C13.5144 6.38131 13.5135 6.42937 13.5121 6.47846C12.9228 7.04091 12.2907 7.65728 11.6136 8.3307ZM10.4886 7.58439C10.1445 8.07527 9.76833 8.64088 9.35812 9.28688C9.10258 9.18172 8.96943 9.0788 8.90913 8.99606C8.87541 8.94979 8.86574 8.91184 8.86566 8.87769C8.86557 8.84024 8.87726 8.78854 8.9158 8.71958C8.99628 8.5756 9.16751 8.4027 9.43076 8.21048C9.68905 8.02188 10.015 7.82955 10.379 7.64058C10.4152 7.62179 10.4518 7.60305 10.4886 7.58439ZM13.4919 5.80612C13.1332 5.9304 12.6362 6.10884 12.0933 6.32289C12.3776 5.99652 12.6182 5.76153 12.8182 5.60427C13.0364 5.43269 13.1815 5.37371 13.265 5.36448C13.3014 5.36045 13.3205 5.36645 13.3311 5.37159C13.3424 5.37709 13.3607 5.38977 13.3829 5.42303C13.4271 5.48936 13.4691 5.61126 13.4919 5.80612ZM14.0094 6.70394C14.3189 6.40979 14.6158 6.1312 14.9007 5.86763L15.1685 5.77764L15.1687 5.77761C15.4761 5.67428 15.8284 5.5559 16.2094 5.42844L16.2666 5.53102C15.4852 5.95701 14.7275 6.42091 13.9958 6.92024C14.0012 6.84667 14.0057 6.77455 14.0094 6.70394ZM21.8967 55.9516C21.801 56.0684 21.7519 56.16 21.7345 56.226C21.7243 56.2646 21.7269 56.2867 21.7303 56.2989C21.7335 56.3102 21.7416 56.3285 21.7688 56.3531C21.831 56.4095 21.9713 56.479 22.2445 56.5288C22.4586 56.5678 22.7351 56.5913 23.0815 56.5952C22.6344 56.3639 22.2242 56.1376 21.8967 55.9516ZM25.1118 56.979C25.4788 57.1236 25.8241 57.2387 26.1254 57.3082C26.443 57.3815 26.6858 57.3979 26.8474 57.3645C26.9247 57.3485 26.9715 57.3236 26.9998 57.299C27.0255 57.2766 27.0479 57.2444 27.0608 57.1887C27.0819 57.0976 27.076 56.9495 27.008 56.7249C26.3017 56.8343 25.6712 56.9183 25.1118 56.979ZM23.5512 54.6162C24.3096 54.7775 25.0801 54.9061 25.8612 55.0003C25.6298 54.7241 25.3676 54.4216 25.0805 54.0985C24.9998 54.0077 24.9173 53.9153 24.8329 53.8216C24.7624 53.8629 24.6928 53.904 24.6239 53.945C24.2363 54.1759 23.877 54.4003 23.5512 54.6162ZM42.4327 45.1347C42.0054 45.2981 41.5879 45.4596 41.1856 45.6172C41.55 45.3109 41.8925 45.0245 42.2067 44.7625L42.2131 44.7571L42.2192 44.7513C42.4381 44.5426 42.791 44.2381 43.2445 43.864C42.9772 44.2787 42.7055 44.7036 42.4327 45.1347ZM45.4363 44.016C45.3628 44.0427 45.2893 44.0694 45.2157 44.0961C44.5482 44.339 43.8783 44.5874 43.2234 44.8344C43.6637 44.1447 44.0972 43.4758 44.51 42.8451C45.0019 42.4564 45.5446 42.0343 46.119 41.5938C45.8845 42.3976 45.654 43.2118 45.4363 44.016ZM49.372 42.6558C48.3446 42.9887 47.1945 43.3851 46.0181 43.8064C46.2679 42.8954 46.5325 41.9749 46.7993 41.0748C47.5458 40.5082 48.3304 39.9218 49.1157 39.3451L49.1599 39.3126C49.2078 40.4883 49.2762 41.6244 49.372 42.6558ZM49.9156 43.013C49.9249 43.1033 49.9344 43.1927 49.9442 43.2811C49.9943 43.7338 50.0503 44.1575 50.1126 44.5464C50.5878 43.9033 51.0344 43.2377 51.4503 42.5514C51.1006 42.6488 50.7135 42.7637 50.2967 42.8932C50.1722 42.9319 50.045 42.9718 49.9156 43.013ZM51.8155 41.9296C51.3391 42.0512 50.7735 42.215 50.1466 42.4097C50.0543 42.4384 49.9607 42.4677 49.8658 42.4977C49.7675 41.4082 49.699 40.2012 49.6525 38.9525C50.6707 38.2108 51.6729 37.499 52.5756 36.8821C52.5994 36.9406 52.6233 36.9986 52.6472 37.0561C52.8931 37.6491 53.1387 38.195 53.3807 38.6734C52.9327 39.7993 52.4089 40.8868 51.8155 41.9296ZM52.4967 41.773L52.4808 41.7761C52.9267 40.9599 53.3312 40.1178 53.6915 39.2528L53.7078 39.2812C53.588 39.7809 53.4709 40.2528 53.3567 40.6977L53.176 40.9238L53.1745 40.9257L53.1744 40.9258L53.1699 40.9314C52.9706 41.1808 52.743 41.4656 52.4967 41.773ZM52.7735 42.2371C52.3501 42.765 51.8781 43.3511 51.4041 43.9334C51.0391 44.5834 50.6908 45.193 50.3587 45.7639C50.3886 45.8794 50.4195 45.9887 50.4514 46.0916C50.9221 45.7471 51.5413 45.2769 52.1339 44.7741C52.3854 44.0971 52.6574 43.2499 52.9502 42.2115C52.8969 42.2179 52.838 42.2264 52.7735 42.2371ZM53.4737 42.2197C53.2792 42.9158 53.093 43.531 52.9151 44.071C53.206 43.7901 53.4599 43.5168 53.6516 43.2657C53.8495 43.0067 53.9645 42.7923 54.0008 42.6314C54.0182 42.5543 54.0147 42.5014 54.004 42.4655C53.9942 42.4328 53.9742 42.3992 53.9287 42.3644C53.8533 42.3067 53.7129 42.2502 53.4737 42.2197ZM51.7291 45.7577C51.3249 46.0762 50.9421 46.3612 50.6359 46.5836C50.7044 46.7255 50.7695 46.8113 50.8237 46.8557C50.8546 46.881 50.8759 46.8877 50.8883 46.8896C50.9 46.8915 50.9199 46.8916 50.9536 46.8771C51.0307 46.8438 51.1521 46.7449 51.3105 46.5169C51.438 46.3334 51.5777 46.0835 51.7291 45.7577ZM50.0202 46.4023C50.0159 46.3895 50.0115 46.3767 50.0072 46.3637L49.9585 46.446L49.9777 46.4325L50.0202 46.4023ZM48.9421 47.1569C49.1758 46.7727 49.4193 46.3652 49.6729 45.9337C49.1152 46.6124 48.5247 47.2632 47.9038 47.8836L47.9048 47.8845C48.2475 47.6447 48.564 47.4224 48.839 47.2293L48.841 47.2279L48.8428 47.2266L48.9421 47.1569ZM31.8746 0.579114C32.1761 0.648688 32.5216 0.763844 32.8888 0.908558C32.3292 0.969191 31.6986 1.05319 30.9921 1.16264C30.9241 0.937907 30.9181 0.78979 30.9393 0.698677C30.9522 0.642895 30.9746 0.610745 31.0003 0.588348C31.0286 0.563777 31.0753 0.538784 31.1527 0.522814C31.3142 0.48946 31.557 0.505813 31.8746 0.579114ZM36.1035 1.93576C35.776 1.74986 35.366 1.52361 34.9191 1.29242C35.2652 1.2963 35.5415 1.3198 35.7555 1.35878C36.0287 1.40853 36.169 1.47807 36.2312 1.53449C36.2584 1.55911 36.2665 1.57734 36.2697 1.5887C36.2731 1.60083 36.2757 1.62295 36.2655 1.66159C36.2481 1.72752 36.1991 1.81912 36.1035 1.93576ZM32.2238 2.98794C32.9422 3.07525 33.6516 3.19164 34.3508 3.3359C34.0514 3.53188 33.7253 3.73456 33.3761 3.94253C33.3073 3.98349 33.2377 4.02463 33.1673 4.06591C33.0829 3.97208 33.0003 3.87969 32.9196 3.78886C32.667 3.50466 32.4338 3.2364 32.2238 2.98794ZM16.8139 12.2706C16.4116 12.4281 15.9943 12.5896 15.5671 12.7529C15.2943 13.1839 15.0227 13.6087 14.7555 14.0233C15.209 13.6492 15.5619 13.3447 15.7808 13.136L15.7869 13.1302L15.7933 13.1248C16.1073 12.863 16.4496 12.5768 16.8139 12.2706ZM12.7843 13.7915C12.7107 13.8182 12.6371 13.8449 12.5636 13.8716C12.3459 14.6757 12.1155 15.4898 11.881 16.2935C12.4554 15.853 12.9981 15.4309 13.49 15.0422C13.9027 14.4116 14.3361 13.7429 14.7764 13.0532C14.1215 13.3002 13.4517 13.5486 12.7843 13.7915ZM11.9818 14.0812C10.8054 14.5025 9.65539 14.8989 8.62805 15.2318C8.72383 16.2631 8.7922 17.3991 8.8401 18.5747L8.88432 18.5423C9.66961 17.9656 10.4542 17.3792 11.2007 16.8125C11.4675 15.9125 11.7321 14.9921 11.9818 14.0812ZM8.05583 14.6063C8.06561 14.6947 8.07515 14.7842 8.08447 14.8746C7.95499 14.9157 7.82786 14.9557 7.70329 14.9944C7.34319 15.1062 7.00521 15.2073 6.69438 15.2955C7.07519 14.6758 7.48108 14.0732 7.91061 13.4891C7.96372 13.8367 8.01204 14.2104 8.05583 14.6063ZM7.85345 15.4778C7.28536 15.6543 6.76756 15.8054 6.32091 15.9226C5.69393 17.0097 5.14276 18.1459 4.67462 19.3242C4.89874 19.7756 5.12563 20.2833 5.3529 20.8313C5.37675 20.8887 5.40061 20.9467 5.4245 21.0052C6.32719 20.3883 7.32927 19.6765 8.34753 18.9349C8.30105 17.6862 8.23254 16.4793 8.13418 15.3899C8.03929 15.4198 7.94568 15.4492 7.85345 15.4778ZM5.64772 16.0849C5.59824 16.0955 5.54999 16.1054 5.50305 16.1146C5.255 16.4242 5.02585 16.7109 4.82556 16.9616L4.82554 16.9616L4.82545 16.9617L4.64326 17.1897C4.52906 17.6345 4.41204 18.1063 4.29217 18.6061C4.31696 18.649 4.34179 18.6928 4.36668 18.7374C4.74581 17.8266 5.17392 16.9414 5.64772 16.0849ZM6.5959 13.954C6.1218 14.5363 5.64974 15.1225 5.22629 15.6505C5.16186 15.6612 5.10296 15.6697 5.04969 15.6761C5.34249 14.6378 5.61446 13.7906 5.86598 13.1136C6.45859 12.6107 7.07788 12.1405 7.54869 11.7959C7.58058 11.8988 7.61146 12.008 7.64134 12.1235C7.3092 12.6943 6.96091 13.3039 6.5959 13.954ZM5.08475 13.8167C4.90686 14.3566 4.72074 14.9719 4.52622 15.6679C4.28708 15.6374 4.14671 15.5809 4.07132 15.5232C4.02584 15.4884 4.00579 15.4548 3.99602 15.4221C3.9853 15.3862 3.98182 15.3333 3.9992 15.2562C4.03547 15.0953 4.15054 14.8809 4.34836 14.6218C4.54005 14.3708 4.79396 14.0975 5.08475 13.8167ZM7.36424 11.3039C7.05789 11.5263 6.67501 11.8114 6.27067 12.13C6.42218 11.804 6.562 11.554 6.68951 11.3704C6.84789 11.1424 6.9693 11.0435 7.04643 11.0102C7.0801 10.9957 7.10004 10.9959 7.1117 10.9977C7.12415 10.9996 7.14538 11.0064 7.17632 11.0317C7.23055 11.076 7.29567 11.1619 7.36424 11.3039ZM7.99281 11.5236C7.98851 11.5107 7.98419 11.4979 7.97985 11.4852C8.00111 11.4701 8.02157 11.4556 8.0412 11.4417L7.99281 11.5236ZM8.18195 12.2014C8.48811 11.6773 8.77983 11.1877 9.05761 10.7308L9.15898 10.6597C9.43455 10.4662 9.7518 10.2434 10.0954 10.0029L10.1761 10.0821C9.47814 10.778 8.81848 11.5122 8.20055 12.2815C8.1944 12.2545 8.1882 12.2278 8.18195 12.2014ZM46.3612 40.7719C46.0255 41.0272 45.6977 41.2784 45.3813 41.5227C45.6507 41.1165 45.904 40.7366 46.1362 40.3894L46.1408 40.3824L46.145 40.3751C46.2811 40.139 46.4997 39.7975 46.7826 39.3759C46.643 39.8322 46.5019 40.2989 46.3612 40.7719ZM49.1369 38.702C49.03 38.7801 48.923 38.8585 48.816 38.937C48.2209 39.3741 47.6249 39.8177 47.0446 40.2547C47.282 39.4678 47.5182 38.7042 47.7441 37.9847C48.1444 37.4178 48.5949 36.7915 49.0759 36.1334C49.0876 36.96 49.1063 37.7942 49.134 38.6148L49.1369 38.702ZM52.3826 36.4009C51.5321 36.9804 50.5917 37.6457 49.6316 38.3419C49.6015 37.3843 49.5835 36.4109 49.574 35.4553C50.1082 34.7317 50.6696 33.9824 51.2342 33.2414L51.2408 33.2327C51.6165 34.3539 52.001 35.4317 52.3826 36.4009ZM53.0039 36.5916C53.0409 36.6829 53.0779 36.7731 53.1148 36.8621C53.2887 37.2815 53.4602 37.6715 53.6281 38.0266C53.906 37.2702 54.15 36.4974 54.3583 35.7101C54.0522 35.9005 53.7157 36.1177 53.3553 36.3567C53.2404 36.4329 53.1232 36.5112 53.0039 36.5916ZM54.5328 35.0116C54.1118 35.261 53.6183 35.5749 53.0756 35.9348C52.9891 35.9921 52.9014 36.0507 52.8124 36.1103C52.4119 35.0856 52.0073 33.939 51.6125 32.7468C52.3926 31.7308 53.166 30.748 53.8683 29.8888C53.9045 29.9341 53.9407 29.9789 53.9767 30.0234C54.3749 30.5154 54.7597 30.9636 55.1229 31.3501C55.0116 32.5978 54.8128 33.8204 54.5328 35.0116ZM55.5374 35.0374C55.3019 35.6107 55.042 36.2399 54.7782 36.8701C54.5959 37.7037 54.4191 38.4793 54.2478 39.1998C54.2925 39.2733 54.3368 39.3435 54.3806 39.4101C54.7355 38.9486 55.2028 38.3184 55.6359 37.6626C55.6878 36.9385 55.7118 36.0449 55.7023 34.9616C55.6521 34.9831 55.5971 35.0084 55.5374 35.0374ZM56.2071 34.8202C56.2152 35.5492 56.2087 36.1975 56.1889 36.7703L56.1916 36.7656C56.3952 36.4095 56.565 36.0713 56.68 35.7729C56.7972 35.4687 56.8475 35.2306 56.8371 35.066C56.8322 34.9872 56.814 34.9374 56.7937 34.9059C56.7751 34.8773 56.7464 34.8506 56.693 34.83C56.6034 34.7954 56.4502 34.7806 56.2071 34.8202ZM55.5239 38.7184C55.2193 39.1454 54.9269 39.5321 54.6942 39.8323C54.8028 39.9544 54.8917 40.0209 54.9575 40.0489C54.9943 40.0646 55.0165 40.0651 55.029 40.0635C55.0407 40.062 55.0599 40.0566 55.0882 40.0332C55.153 39.9797 55.2419 39.8509 55.3303 39.5877C55.4031 39.3713 55.4687 39.0847 55.5239 38.7184ZM12.6187 16.3646C12.3023 16.609 11.9745 16.8601 11.6388 17.1154C11.4981 17.5884 11.357 18.0551 11.2174 18.5114C11.5003 18.0898 11.7189 17.7483 11.855 17.5122L11.8592 17.5049L11.8638 17.4979C12.096 17.1508 12.3494 16.7708 12.6187 16.3646ZM9.18397 18.9503C9.07697 19.0289 8.96998 19.1073 8.86307 19.1854L8.86605 19.2725C8.89375 20.0931 8.91236 20.9273 8.92413 21.7539C9.40508 21.0959 9.85557 20.4695 10.2559 19.9026C10.4818 19.1831 10.718 18.4195 10.9554 17.6327C10.3751 18.0697 9.77912 18.5132 9.18397 18.9503ZM8.36844 19.5455C7.40837 20.2416 6.46794 20.9069 5.61745 21.4864C5.99907 22.4556 6.38355 23.5334 6.75923 24.6546L6.76582 24.6459C7.33037 23.9049 7.89183 23.1557 8.42605 22.432C8.41651 21.4764 8.39848 20.503 8.36844 19.5455ZM4.8853 21.0252C4.9222 21.1142 4.95917 21.2044 4.9962 21.2957C4.87682 21.3761 4.75957 21.4544 4.64467 21.5306C4.3246 21.7429 4.02341 21.9379 3.7456 22.1123C3.94246 21.3871 4.16969 20.6744 4.42584 19.9757C4.5765 20.2995 4.72994 20.6506 4.8853 21.0252ZM4.92445 21.9525C4.42301 22.2851 3.96366 22.5783 3.56468 22.8177C3.26731 24.0484 3.05684 25.313 2.94013 26.6046C3.28469 26.9755 3.64809 27.4003 4.02341 27.8639C4.05939 27.9084 4.0955 27.9532 4.13175 27.9985C4.83406 27.1393 5.60749 26.1565 6.38753 25.1405C5.99271 23.9483 5.58813 22.8017 5.18765 21.777C5.09868 21.8366 5.01092 21.8952 4.92445 21.9525ZM3.22183 21.0172C2.95804 21.6474 2.69814 22.2766 2.4626 22.85C2.40289 22.8789 2.34792 22.9042 2.29777 22.9257C2.28829 21.8424 2.31225 20.9487 2.3642 20.2246C2.79722 19.5689 3.26454 18.9387 3.61942 18.4772C3.66325 18.5438 3.70753 18.6139 3.75223 18.6875C3.58087 19.4079 3.4041 20.1836 3.22183 21.0172ZM1.81122 21.1169C1.79139 21.6898 1.78484 22.338 1.79295 23.0671C1.54982 23.1068 1.39663 23.092 1.30701 23.0573C1.2536 23.0367 1.22491 23.0101 1.20635 22.9814C1.18599 22.95 1.16781 22.9002 1.16286 22.8213C1.15253 22.6567 1.20281 22.4186 1.31999 22.1144C1.43496 21.816 1.60478 21.4778 1.80844 21.1218L1.81122 21.1169ZM3.30584 18.0549C3.07315 18.3551 2.78076 18.7418 2.47619 19.1689C2.53136 18.8026 2.59702 18.516 2.66972 18.2996C2.75814 18.0365 2.84709 17.9076 2.91186 17.8541C2.94013 17.8307 2.95933 17.8253 2.97102 17.8238C2.98352 17.8222 3.0058 17.8227 3.04257 17.8384C3.10841 17.8664 3.19725 17.9329 3.30584 18.0549ZM49.0661 35.291C48.7818 35.6769 48.5054 36.0553 48.2406 36.421C48.3694 36.0194 48.4915 35.6415 48.6048 35.2923L48.6074 35.2843L48.6095 35.2762C48.6906 34.9546 48.8468 34.4496 49.059 33.814C49.0595 34.2976 49.0617 34.7915 49.0661 35.291ZM51.048 32.6512C50.9758 32.7455 50.9036 32.84 50.8315 32.9346C50.4058 33.4934 49.981 34.058 49.5676 34.6136C49.5636 33.8295 49.5648 33.0646 49.569 32.3384C49.7909 31.7132 50.0399 31.0288 50.3066 30.3116C50.542 31.0789 50.7856 31.8507 51.0337 32.6077L51.048 32.6512ZM53.5469 29.4823C52.8846 30.2901 52.1581 31.2097 51.4217 32.1647C51.1389 31.294 50.8628 30.4068 50.5984 29.5322C50.907 28.7141 51.2333 27.8669 51.5644 27.0265C51.5849 26.9746 51.6053 26.9228 51.6258 26.871C52.2797 27.8024 52.929 28.6906 53.5469 29.4823ZM54.1971 29.4894C54.2551 29.5622 54.3128 29.6341 54.3701 29.7049C54.6496 30.0502 54.9189 30.3691 55.1755 30.6572C55.21 30.1068 55.2275 29.5517 55.2275 28.9926C55.2275 28.7593 55.2245 28.5267 55.2184 28.2949C54.9836 28.5587 54.7285 28.855 54.4574 29.1775C54.3721 29.279 54.2853 29.383 54.1971 29.4894ZM55.1897 27.5733C54.8603 27.928 54.4817 28.3618 54.0699 28.8518C54.0064 28.9273 53.9421 29.0042 53.8771 29.0824C53.2267 28.2448 52.5405 27.2992 51.8496 26.3077C52.3203 25.1292 52.7921 23.9881 53.2285 22.9865L53.2601 23.0086L53.2904 23.0297C53.8051 23.3881 54.2951 23.7088 54.748 23.9775C54.9753 25.1501 55.1244 26.3505 55.1897 27.5733ZM55.7508 27.0014C55.7236 27.0271 55.6959 27.0536 55.6678 27.0809L55.6664 27.081C55.5998 26.1399 55.4845 25.2122 55.3229 24.3005C55.3378 24.3084 55.3527 24.3162 55.3676 24.3239L55.3888 24.3349C55.5688 24.8528 55.7344 25.3421 55.8861 25.8038C55.8723 25.9262 55.8573 26.0592 55.8413 26.2013C55.8139 26.4438 55.7836 26.713 55.7508 27.0014ZM56.2324 27.247C56.1556 27.9218 56.0669 28.6892 55.9734 29.4627C56.0245 30.2236 56.0668 30.9384 56.1009 31.6091C56.1729 31.675 56.2433 31.7369 56.3119 31.7947C56.522 31.2508 56.79 30.5186 57.018 29.773C56.8637 29.0664 56.6348 28.2053 56.3201 27.172C56.2925 27.1949 56.2632 27.2199 56.2324 27.247ZM56.7649 26.8955C56.9776 27.5881 57.1536 28.2079 57.2958 28.7597C57.3895 28.3641 57.4561 27.9949 57.4819 27.6786C57.5084 27.3537 57.4895 27.1111 57.4331 26.9561C57.406 26.8819 57.3745 26.8392 57.3461 26.8148C57.3202 26.7926 57.2852 26.7751 57.2281 26.7704C57.1332 26.7626 56.9838 26.791 56.7649 26.8955ZM57.2087 30.8187C57.0396 31.3079 56.8705 31.7567 56.7326 32.1097C56.8683 32.1933 56.9703 32.2309 57.0403 32.239C57.08 32.2436 57.1015 32.2378 57.1131 32.2327C57.1238 32.2279 57.1407 32.2173 57.1612 32.1869C57.2082 32.1172 57.257 31.9684 57.2672 31.691C57.2755 31.4663 57.2579 31.1781 57.2087 30.8187ZM55.6686 33.3805C55.653 32.8963 55.632 32.3828 55.6054 31.8387L55.5858 31.8199C55.4865 32.7639 55.338 33.6931 55.1429 34.6051L55.1657 34.6098C55.3144 34.2472 55.4516 33.9114 55.5719 33.6172L55.5732 33.614L55.5736 33.613L55.5741 33.6116L55.5745 33.6108L55.6686 33.3805ZM9.75938 21.4663C9.49461 21.832 9.21819 22.2104 8.93386 22.5964C8.93834 23.0958 8.94055 23.5897 8.941 24.0733C9.15325 23.4377 9.30937 22.9327 9.39052 22.6112L9.39258 22.603L9.39518 22.595C9.50846 22.2458 9.63059 21.8679 9.75938 21.4663ZM7.16849 24.9527C7.09638 25.0473 7.02423 25.1418 6.95209 25.2361L6.96635 25.2796C7.2145 26.0366 7.45802 26.8084 7.69346 27.5757C7.96012 26.8584 8.20908 26.1741 8.43098 25.5489C8.43525 24.8227 8.43639 24.0578 8.43238 23.2737C8.01904 23.8294 7.59422 24.3939 7.16849 24.9527ZM6.57839 25.7226C5.84195 26.6776 5.1154 27.5972 4.45318 28.405C5.07107 29.1967 5.7203 30.0848 6.37423 31.0163C6.39469 30.9645 6.41514 30.9127 6.43557 30.8608C6.76677 30.0204 7.09303 29.1732 7.4016 28.355C7.13727 27.4804 6.86112 26.5933 6.57839 25.7226ZM3.62992 28.1824C3.68724 28.2533 3.74492 28.3251 3.80295 28.3979C3.71474 28.5043 3.6279 28.6083 3.54258 28.7099C3.29312 29.0067 3.05715 29.2812 2.83813 29.5288C2.83455 29.3505 2.83275 29.1717 2.83275 28.9926C2.83275 28.424 2.85087 27.8596 2.88655 27.3C3.12442 27.5695 3.37287 27.8649 3.62992 28.1824ZM3.93011 29.0356C3.54001 29.4997 3.17964 29.9135 2.86275 30.2573C2.92225 31.5091 3.06961 32.7379 3.29879 33.9377C3.73858 34.2005 4.21265 34.5115 4.70968 34.8577C4.73023 34.872 4.75083 34.8864 4.77148 34.9008C5.20789 33.8992 5.67977 32.758 6.15045 31.5796C5.45954 30.5881 4.77328 29.6425 4.12296 28.8049C4.0579 28.8831 3.99359 28.96 3.93011 29.0356ZM2.33223 30.8064C2.30407 30.8338 2.27637 30.8603 2.24916 30.8859C2.21643 31.1742 2.18611 31.4433 2.15878 31.6857L2.15874 31.6861C2.14273 31.8281 2.12775 31.961 2.11391 32.0834C2.26564 32.5451 2.43122 33.0345 2.61129 33.5524C2.64871 33.5718 2.68649 33.5916 2.72461 33.612C2.56395 32.6907 2.4505 31.7532 2.38686 30.802L2.33223 30.8064ZM2.02665 28.4243C1.93314 29.1979 1.84442 29.9655 1.76757 30.6403C1.7368 30.6675 1.70758 30.6924 1.67993 30.7152C1.36528 29.682 1.13629 28.8209 0.982074 28.1142C1.21003 27.3686 1.47805 26.6365 1.68815 26.0926C1.75672 26.1504 1.82711 26.2123 1.89922 26.2782C1.93325 26.9488 1.97556 27.6635 2.02665 28.4243ZM0.704207 29.1275C0.846414 29.6793 1.02246 30.2992 1.23516 30.9918C1.01619 31.0963 0.866812 31.1248 0.771875 31.1169C0.71481 31.1122 0.679761 31.0948 0.653864 31.0725C0.625457 31.0481 0.593958 31.0055 0.566946 30.9312C0.510544 30.7762 0.491553 30.5336 0.518069 30.2087C0.543892 29.8924 0.610481 29.5231 0.704207 29.1275ZM1.26741 25.7776C1.12952 26.1306 0.960431 26.5793 0.791311 27.0685C0.742144 26.7092 0.724573 26.421 0.732862 26.1963C0.743093 25.9189 0.791893 25.7701 0.838843 25.7004C0.859336 25.67 0.876216 25.6594 0.887001 25.6546C0.898524 25.6495 0.920044 25.6438 0.959749 25.6484C1.02977 25.6565 1.13177 25.694 1.26741 25.7776ZM2.39467 26.0486C2.36807 25.5045 2.3471 24.9909 2.33143 24.5067L2.42581 24.2758L2.42587 24.2757C2.54661 23.9802 2.68467 23.6424 2.83433 23.2775L2.935 23.2982C2.73591 24.2148 2.58388 25.149 2.48158 26.0981L2.4401 26.0923L2.43592 26.0883C2.42213 26.075 2.40838 26.0617 2.39467 26.0486ZM3.97173 36.657C3.76746 35.9883 3.58923 35.3083 3.4382 34.6181C3.74833 34.8144 4.07676 35.0338 4.42037 35.2731C4.46786 35.3062 4.5156 35.3396 4.56359 35.3734C4.52211 35.4667 4.48103 35.5585 4.44038 35.6488C4.27605 36.0136 4.11909 36.3517 3.97173 36.657ZM54.0466 21.1924C54.2615 21.8823 54.4487 22.5845 54.6067 23.2975C54.2835 23.0941 53.9399 22.8651 53.5797 22.6142C53.5322 22.5812 53.4844 22.5477 53.4364 22.5139C53.4779 22.4206 53.519 22.3288 53.5596 22.2386C53.7308 21.8586 53.894 21.5075 54.0466 21.1924ZM2.20062 33.9123C2.45193 34.6307 2.72998 35.4014 3.0363 36.227C3.13603 36.786 3.23777 37.3436 3.33433 37.8671C3.27363 37.9673 3.21849 38.0519 3.16924 38.1207C2.59347 37.2318 2.1464 36.483 1.81278 35.8603C1.82529 35.1177 1.87773 34.3705 1.92969 33.7869C2.01668 33.8247 2.10704 33.8666 2.20062 33.9123ZM6.49591 32.0785C6.05024 33.1876 5.60567 34.257 5.19317 35.2001C6.07414 35.834 7.02405 36.569 7.99092 37.3487C8.0631 36.4224 8.12817 35.4914 8.18428 34.597C7.63432 33.7577 7.06566 32.9065 6.49591 32.0785ZM8.64583 35.3051C8.59935 36.0047 8.54794 36.7186 8.4925 37.4281C8.48447 37.5308 8.47635 37.6335 8.46815 37.736C9.11332 38.2628 9.76287 38.8059 10.4017 39.3489C10.2334 38.6145 10.0687 37.9183 9.91395 37.2865C9.51373 36.6537 9.08777 35.9868 8.64583 35.3051ZM9.51462 35.7178C9.24967 35.3054 8.97738 34.8847 8.69999 34.4605C8.72824 34.0033 8.75413 33.556 8.77739 33.124C8.9022 33.5743 9.01826 33.997 9.12426 34.385L9.12648 34.3932L9.12924 34.4011C9.22904 34.6895 9.36093 35.1425 9.51462 35.7178ZM10.7535 38.6232C10.8497 39.0355 10.9475 39.4626 11.0458 39.8994C11.434 40.2329 11.8162 40.5642 12.1888 40.8897C11.8982 40.4157 11.6589 40.0442 11.4899 39.8077L11.485 39.8009L11.4806 39.7937C11.2584 39.4346 11.0148 39.0419 10.7535 38.6232ZM8.23516 33.7536C7.77405 33.0564 7.30274 32.3562 6.83113 31.6728C6.79457 31.6198 6.758 31.567 6.72144 31.5142C6.78325 31.3587 6.84498 31.2027 6.90655 31.0464C7.15536 30.415 7.40187 29.7786 7.64054 29.1526C7.88969 29.9917 8.12619 30.8105 8.34525 31.5826C8.31705 32.2473 8.27991 32.9807 8.23516 33.7536ZM1.43749 33.6091C1.30721 33.5769 1.21305 33.5717 1.15045 33.5822C1.11103 33.5889 1.09197 33.6004 1.08232 33.6085C1.07329 33.6161 1.06004 33.631 1.04882 33.6659C1.02311 33.7459 1.01765 33.9024 1.08503 34.1717C1.13423 34.3684 1.21794 34.6086 1.3418 34.8968C1.36771 34.4222 1.40339 33.9774 1.43749 33.6091ZM1.82731 36.9171C1.84622 37.287 1.88161 37.6271 1.93814 37.9144C2.00107 38.2342 2.08539 38.4625 2.18185 38.5963C2.22805 38.6604 2.26997 38.6928 2.30395 38.7086C2.33492 38.7229 2.37341 38.7302 2.4296 38.7192C2.51785 38.7019 2.64398 38.6403 2.81115 38.4987C2.43191 37.9161 2.10521 37.39 1.82731 36.9171ZM3.46193 38.5678L3.46512 38.5726L3.46381 38.5656L3.46193 38.5678ZM7.93579 28.373C8.10227 27.9303 8.26347 27.4964 8.41732 27.077C8.41078 27.6321 8.40308 28.1498 8.39542 28.6184L8.39528 28.6268L8.39571 28.6352C8.41042 28.9282 8.4111 29.3758 8.39951 29.939C8.2502 29.4267 8.09524 28.9025 7.93579 28.373ZM48.8708 23.4862C48.771 23.1978 48.6391 22.7448 48.4854 22.1695C48.7504 22.5819 49.0227 23.0025 49.3 23.4267C49.2718 23.8839 49.2459 24.3312 49.2226 24.7631C49.0978 24.3129 48.9818 23.8903 48.8758 23.5023L48.8736 23.4942L48.8708 23.4862ZM48.0861 20.6008C48.4863 21.2336 48.9123 21.9005 49.3542 22.5821C49.4007 21.8826 49.4521 21.1687 49.5075 20.4593C49.5155 20.3565 49.5237 20.2538 49.5319 20.1513C48.8867 19.6245 48.2372 19.0814 47.5984 18.5385C47.7667 19.2728 47.9314 19.969 48.0861 20.6008ZM49.6548 26.3045C49.683 25.6399 49.7201 24.9065 49.7648 24.1337C50.226 24.8309 50.6973 25.5311 51.1689 26.2145C51.2055 26.2675 51.242 26.3203 51.2786 26.3731C51.2168 26.5286 51.155 26.6846 51.0935 26.8409C50.8447 27.4723 50.5982 28.1086 50.3595 28.7346C50.1103 27.8955 49.8738 27.0767 49.6548 26.3045ZM49.8157 23.2903C50.3657 24.1296 50.9344 24.9807 51.5041 25.8088C51.9498 24.6997 52.3944 23.6303 52.8068 22.6872C51.9259 22.0532 50.976 21.3183 50.0091 20.5386C49.9369 21.4649 49.8718 22.3959 49.8157 23.2903ZM54.9636 21.66C55.27 22.4857 55.5481 23.2566 55.7994 23.975C55.893 24.0208 55.9834 24.0626 56.0703 24.1004C56.1223 23.5168 56.1747 22.7695 56.1872 22.0269C55.8536 21.4043 55.4066 20.6554 54.8308 19.7666C54.7815 19.8354 54.7264 19.92 54.6657 20.0203C54.7622 20.5436 54.8639 21.1011 54.9636 21.66ZM46.5195 18.0936C46.7416 18.4528 46.9853 18.8455 47.2465 19.2641C47.1504 18.8518 47.0525 18.4247 46.9543 17.988C46.5661 17.6545 46.1839 17.3231 45.8113 16.9977C46.1019 17.4716 46.3412 17.8431 46.5102 18.0796L46.5151 18.0865L46.5195 18.0936ZM56.8496 24.3051C56.787 24.3156 56.6928 24.3105 56.5625 24.2782C56.5966 23.9099 56.6323 23.465 56.6582 22.9904C56.7821 23.2786 56.8658 23.5189 56.915 23.7156C56.9824 23.9849 56.977 24.1414 56.9513 24.2214C56.94 24.2563 56.9268 24.2712 56.9177 24.2788C56.9081 24.2869 56.889 24.2984 56.8496 24.3051ZM56.0619 19.9729C56.1184 20.2602 56.1538 20.6002 56.1727 20.9701C55.8948 20.4972 55.5681 19.9712 55.1889 19.3886C55.356 19.247 55.4822 19.1854 55.5704 19.1681C55.6266 19.1571 55.6651 19.1644 55.6961 19.1788C55.73 19.1945 55.772 19.227 55.8182 19.291C55.9146 19.4248 55.9989 19.6531 56.0619 19.9729ZM54.5349 19.3146L54.5381 19.3195L54.5362 19.3217L54.5349 19.3146ZM49.5827 30.8104C49.7365 30.3909 49.8978 29.957 50.0643 29.5143C49.9048 28.9847 49.7498 28.4605 49.6005 27.9481C49.5889 28.5114 49.5896 28.9591 49.6043 29.2521L49.6047 29.2605L49.6046 29.269C49.5969 29.7375 49.5892 30.2552 49.5827 30.8104Z" fill="url(#paint0_linear_185_565)"/>
<path d="M83.3504 40.8278V40.0803H86.4345V29.111L78.6729 17.1992H76V16.4517H85.9376V17.1992H82.4423L89.2445 27.7297L96.0466 17.1992H92.5342V16.4517H99.4734V17.1992H96.9718L89.6899 28.3797V40.0803H93.1338V40.8278H83.3504Z" fill="#90AB9A"/>
<path d="M200.64 33.2608V32.5138H212.591V33.2608H200.64ZM207.626 16L217.077 40.0806H220V40.8276H209.336V40.0806H213.05L205.861 20.4329L198.121 40.0806H201.908V40.8276H193.818V40.0806H197.146L206.744 16H207.626Z" fill="#90AB9A"/>
<path d="M168.337 33.775L181.641 17.1992H177.933V16.4517H186.368V17.1992H182.801L169.497 33.775H168.337ZM164.928 40.8278V40.0803H168.091V28.6397V17.1992H164.928V16.4517H174.945V17.1992H171.448V40.0803H174.945V40.8278H164.928ZM177.054 40.8278V40.0803H180.533L173.223 28.071L175.419 25.5846L184.734 40.0803H187.95V40.8278H177.054Z" fill="#90AB9A"/>
<path d="M139.446 33.775L152.75 17.1992H149.042V16.4517H157.477V17.1992H153.91L140.606 33.775H139.446ZM136.037 40.8278V40.0803H139.2V28.6397V17.1992H136.037V16.4517H146.054V17.1992H142.557V40.0803H146.054V40.8278H136.037ZM148.163 40.8278V40.0803H151.643L144.332 28.071L146.529 25.5846L155.843 40.0803H159.059V40.8278H148.163Z" fill="#90AB9A"/>
<path d="M130.169 16.4517V17.1986H126.676V33.339C126.676 36.0128 125.972 38.0046 124.565 39.3145C123.158 40.6243 120.978 41.2792 118.026 41.2792C114.801 41.2792 112.435 40.6568 110.928 39.4119C109.433 38.167 108.686 36.1427 108.686 33.339V17.1986H105.342V16.4517H115.99V17.1986H112.254V33.0142C112.254 34.0859 112.341 35.0764 112.515 35.9857C112.702 36.8842 113.026 37.6636 113.487 38.324C113.96 38.9843 114.62 39.4985 115.467 39.8666C116.326 40.2346 117.429 40.4186 118.774 40.4186C120.293 40.4186 121.576 40.1805 122.622 39.7042C123.668 39.2279 124.465 38.4701 125.013 37.4309C125.561 36.3917 125.835 35.0277 125.835 33.339V17.1986H122.417V16.4517H130.169Z" fill="#90AB9A"/>
<defs>
<linearGradient id="paint0_linear_185_565" x1="9.80127" y1="9.56201" x2="47.0088" y2="51.3262" gradientUnits="userSpaceOnUse">
<stop stop-color="#EAA8C4"/>
<stop offset="1" stop-color="#F9C7D0"/>
</linearGradient>
</defs>
</svg>
