<svg width="136" height="135" viewBox="0 0 136 135" fill="none" xmlns="http://www.w3.org/2000/svg">
<path fill-rule="evenodd" clip-rule="evenodd" d="M49.091 4.99809C49.1788 5.27008 49.2073 5.57606 49.1941 5.90118C49.8038 5.87798 50.2481 5.86768 50.4547 5.86323C50.7562 5.85672 51.1841 5.84526 51.7125 5.83039C52.3109 5.53605 52.8891 5.25581 53.4476 4.98934C53.1492 4.49171 52.976 4.02427 52.9526 3.58647C52.9333 3.22675 53.016 2.89132 53.2044 2.5999C53.3887 2.31495 53.6516 2.10641 53.9415 1.95373C54.507 1.65589 55.2636 1.52447 56.0724 1.48047C56.8955 1.43571 57.8381 1.47885 58.8183 1.57479C59.4671 1.6383 60.1394 1.7257 60.8131 1.82831C61.3223 1.6455 61.7964 1.48649 62.237 1.35026C63.3256 1.01358 64.2297 0.80916 64.9598 0.732763C65.6735 0.65808 66.2976 0.696691 66.7702 0.92605C67.0176 1.04613 67.2281 1.22115 67.3754 1.4574C67.5217 1.69206 67.5845 1.95308 67.5913 2.21408C67.5994 2.52536 67.5285 2.85545 67.406 3.19238C67.8361 3.30076 68.1506 3.38371 68.3129 3.42679C68.6236 3.50924 69.074 3.62613 69.6331 3.77051C70.2617 3.66041 70.8692 3.55748 71.4558 3.46153C71.2974 2.8826 71.2561 2.37059 71.3577 1.93233C71.439 1.58141 71.6115 1.28207 71.8734 1.05439C72.1295 0.831752 72.4399 0.70435 72.7608 0.638098C73.3867 0.508857 74.15 0.592509 74.9393 0.774675C75.7425 0.960042 76.6361 1.26303 77.5512 1.62717C78.1887 1.88083 78.8437 2.16712 79.4946 2.46922C80.0791 2.43231 80.6173 2.41042 81.1111 2.40276C82.2505 2.38508 83.1756 2.44258 83.8978 2.57412C84.6037 2.70269 85.192 2.91489 85.5812 3.26763C85.785 3.45232 85.938 3.67939 86.013 3.94747C86.0876 4.21376 86.0746 4.48191 86.0079 4.73432C85.9244 5.05019 85.7517 5.36156 85.5238 5.66398C85.8195 5.83741 86.0375 5.96787 86.1592 6.04087C86.4671 6.22571 86.9307 6.50023 87.5111 6.84316C88.1 6.91014 88.6698 6.97785 89.2211 7.04625C89.2216 6.41001 89.3236 5.87887 89.553 5.46853C89.7288 5.1541 89.9777 4.91461 90.2927 4.7688C90.6006 4.62622 90.9342 4.59026 91.2609 4.61593C91.8981 4.666 92.6079 4.95878 93.3153 5.3534C94.0352 5.75498 94.8092 6.2947 95.5868 6.89913C96.1772 7.35805 96.7768 7.85998 97.3648 8.37623C98.0169 8.5221 98.6079 8.66957 99.1404 8.81834C100.238 9.12499 101.109 9.44285 101.764 9.77408C102.404 10.0978 102.908 10.4683 103.181 10.9171C103.324 11.1521 103.406 11.4132 103.402 11.6916C103.398 11.9681 103.309 12.2215 103.173 12.4446C102.989 12.7475 102.706 13.0155 102.366 13.2556C102.48 13.3762 102.567 13.4705 102.626 13.5341C102.918 13.8488 103.388 14.3483 103.983 14.9796C104.516 15.209 105.032 15.4339 105.532 15.6544C105.715 14.9939 105.972 14.4767 106.327 14.1294C106.585 13.8777 106.892 13.7185 107.235 13.6679C107.571 13.6185 107.901 13.6785 108.207 13.7957C108.804 14.0242 109.402 14.5061 109.968 15.085C110.545 15.6741 111.134 16.411 111.709 17.211C112.194 17.8872 112.676 18.6179 113.137 19.3567C113.82 19.7384 114.426 20.0988 114.959 20.4386C115.92 21.0515 116.66 21.6091 117.191 22.1167C117.709 22.6128 118.083 23.1139 118.214 23.6227C118.282 23.8891 118.284 24.1629 118.199 24.428C118.115 24.6913 117.956 24.908 117.762 25.0819C117.469 25.3431 117.073 25.5281 116.627 25.663C116.804 26.0183 117.063 26.533 117.384 27.1672C117.807 27.5149 118.216 27.8544 118.611 28.1858C118.967 27.6146 119.354 27.1979 119.787 26.9668C120.104 26.7971 120.443 26.7299 120.787 26.7772C121.123 26.8234 121.424 26.9733 121.685 27.1712C122.194 27.5574 122.633 28.187 123.016 28.9011C123.405 29.6278 123.765 30.5 124.093 31.4285C124.364 32.1935 124.616 33.007 124.847 33.8237C125.377 34.36 125.842 34.857 126.247 35.3163C127 36.1715 127.557 36.9125 127.925 37.5473C128.286 38.1677 128.506 38.7529 128.491 39.2779C128.482 39.5528 128.409 39.8166 128.254 40.0478C128.1 40.2774 127.887 40.4415 127.652 40.5546C127.307 40.7204 126.887 40.7891 126.434 40.7976L126.437 40.814C126.505 41.1949 126.614 41.7803 126.752 42.5164C127.251 43.2448 127.722 43.9427 128.165 44.6109C128.613 44.2509 129.048 44.0172 129.475 43.9336C129.829 43.8644 130.172 43.8994 130.487 44.0454C130.795 44.1881 131.038 44.4194 131.23 44.6851C131.604 45.2036 131.839 45.9344 131.996 46.7292C132.155 47.538 132.243 48.4774 132.285 49.4614C132.312 50.1027 132.32 50.7697 132.313 51.4405C132.559 51.9075 132.777 52.3446 132.97 52.7528C133.456 53.7834 133.786 54.6499 133.964 55.362C134.138 56.0581 134.187 56.6815 134.027 57.1815C133.942 57.4434 133.799 57.6764 133.586 57.8554C133.374 58.0332 133.124 58.132 132.867 58.1754C132.564 58.2263 132.233 58.204 131.887 58.1325C131.837 58.6034 131.796 58.9475 131.776 59.1215C131.74 59.4214 131.691 59.8476 131.631 60.3739C131.802 60.8974 131.966 61.406 132.122 61.8998C132.682 61.6513 133.192 61.5319 133.647 61.5695C134.006 61.5991 134.327 61.7264 134.591 61.9526C134.848 62.1737 135.019 62.4624 135.131 62.7703C135.35 63.371 135.377 64.1383 135.311 64.9457C135.244 65.7672 135.074 66.6953 134.846 67.6535C134.683 68.3421 134.487 69.0541 134.275 69.7634C134.402 70.3653 134.506 70.9196 134.588 71.4283C134.768 72.5535 134.843 73.4774 134.816 74.211C134.789 74.928 134.663 75.5405 134.37 75.9761C134.216 76.2042 134.013 76.388 133.759 76.5006C133.506 76.6125 133.239 76.6379 132.979 76.6079C132.645 76.5692 132.301 76.436 131.959 76.2445C131.854 76.5028 131.774 76.6959 131.726 76.8101C131.585 77.1486 131.375 77.6612 131.112 78.3039C131.133 78.9759 131.149 79.6238 131.161 80.2483C131.775 80.1659 132.302 80.1944 132.731 80.3603C133.067 80.4901 133.34 80.7029 133.528 80.9942C133.713 81.279 133.795 81.6043 133.816 81.9313C133.856 82.5692 133.666 83.3132 133.375 84.0691C133.078 84.8383 132.653 85.6805 132.164 86.5354C131.807 87.1587 131.412 87.7961 131.002 88.4256C130.953 89.0527 130.895 89.6255 130.827 90.1463C130.681 91.2764 130.492 92.1838 130.258 92.8796C130.029 93.5598 129.735 94.1115 129.33 94.4461C129.118 94.6212 128.871 94.74 128.595 94.7759C128.321 94.8115 128.057 94.7602 127.817 94.6579C127.503 94.5241 127.208 94.2947 126.931 94.0087C126.775 94.2031 126.657 94.3492 126.585 94.4382C126.365 94.7093 126.041 95.1141 125.636 95.62C125.47 96.2617 125.307 96.8796 125.146 97.4743C125.749 97.568 126.241 97.7426 126.603 98.0195C126.889 98.2384 127.09 98.519 127.19 98.8515C127.287 99.1767 127.275 99.512 127.203 99.8316C127.062 100.455 126.671 101.116 126.179 101.76C125.679 102.415 125.035 103.104 124.325 103.787C123.818 104.275 123.273 104.766 122.715 105.246C122.499 105.815 122.288 106.333 122.084 106.801C121.628 107.846 121.193 108.664 120.774 109.267C120.365 109.856 119.928 110.304 119.446 110.512C119.193 110.621 118.923 110.666 118.648 110.623C118.375 110.581 118.136 110.458 117.934 110.293C117.675 110.081 117.459 109.786 117.275 109.443C117.037 109.61 116.858 109.735 116.753 109.807C116.409 110.045 115.868 110.424 115.185 110.903C114.864 111.43 114.551 111.938 114.245 112.428C114.855 112.7 115.317 113.024 115.604 113.418C115.816 113.709 115.93 114.035 115.931 114.382C115.932 114.722 115.825 115.04 115.665 115.326C115.353 115.884 114.79 116.406 114.136 116.884C113.47 117.37 112.657 117.848 111.782 118.301C111.071 118.671 110.31 119.029 109.542 119.368C109.092 119.957 108.671 120.479 108.278 120.937C107.536 121.802 106.88 122.457 106.303 122.91C105.739 123.354 105.19 123.654 104.668 123.711C104.395 123.742 104.124 123.706 103.873 123.584C103.624 123.464 103.432 123.276 103.287 123.059C103.077 122.744 102.951 122.343 102.879 121.901L102.812 121.923C102.477 122.033 101.977 122.2 101.353 122.41C100.69 123.021 100.056 123.597 99.4475 124.141C99.8433 124.52 100.12 124.904 100.258 125.3C100.376 125.641 100.39 125.986 100.29 126.318C100.192 126.643 99.9969 126.916 99.7608 127.143C99.3 127.586 98.6096 127.922 97.8446 128.189C97.0662 128.46 96.1486 128.68 95.1803 128.86C94.5932 128.969 93.9817 129.064 93.3638 129.147C92.9849 129.421 92.6266 129.67 92.2885 129.894C91.3392 130.525 90.5296 130.976 89.8508 131.255C89.1873 131.529 88.5776 131.668 88.0595 131.581C87.7883 131.536 87.5369 131.427 87.3289 131.242C87.1222 131.059 86.9883 130.826 86.9081 130.578C86.8204 130.306 86.7919 130 86.805 129.675C86.1953 129.698 85.751 129.708 85.5444 129.713C85.2427 129.719 84.8143 129.731 84.2854 129.746C83.6873 130.04 83.1094 130.32 82.5512 130.586C82.8497 131.084 83.023 131.552 83.0464 131.99C83.0656 132.349 82.983 132.685 82.7945 132.976C82.6103 133.261 82.3474 133.47 82.0575 133.622C81.492 133.92 80.7354 134.052 79.9266 134.096C79.1035 134.14 78.1609 134.097 77.1807 134.001C76.5315 133.938 75.8589 133.85 75.1848 133.748C74.6761 133.93 74.2023 134.089 73.7621 134.225C72.6735 134.562 71.7694 134.766 71.0393 134.843C70.3257 134.918 69.7015 134.879 69.229 134.65C68.9815 134.529 68.771 134.354 68.6237 134.118C68.4774 133.884 68.4146 133.623 68.4078 133.362C68.3998 133.05 68.4705 132.72 68.5929 132.384C68.1628 132.275 67.8484 132.192 67.6861 132.149C67.3754 132.067 66.9251 131.95 66.3659 131.806C65.7374 131.916 65.1301 132.019 64.5436 132.115C64.7019 132.693 64.7432 133.205 64.6416 133.643C64.5603 133.994 64.3878 134.294 64.1259 134.521C63.8698 134.744 63.5593 134.871 63.2385 134.937C62.6125 135.067 61.8492 134.983 61.0599 134.801C60.2567 134.616 59.3631 134.313 58.448 133.948C57.8109 133.695 57.1563 133.409 56.5057 133.107C55.9208 133.144 55.3822 133.166 54.888 133.173C53.7486 133.191 52.8235 133.134 52.1013 133.002C51.3954 132.873 50.8071 132.661 50.4179 132.309C50.2141 132.124 50.0612 131.897 49.9861 131.629C49.9115 131.362 49.9245 131.094 49.9912 130.842C50.0748 130.526 50.2476 130.214 50.4756 129.912C50.1798 129.738 49.9618 129.608 49.8401 129.535C49.5323 129.35 49.0692 129.076 48.4894 128.733C47.9001 128.666 47.3298 128.598 46.7782 128.53C46.7775 129.166 46.6756 129.697 46.4463 130.107C46.2705 130.421 46.0215 130.661 45.7066 130.807C45.3987 130.949 45.065 130.985 44.7384 130.96C44.1012 130.91 43.3913 130.617 42.6839 130.222C41.9641 129.821 41.1901 129.281 40.4125 128.676C39.8224 128.218 39.2231 127.716 38.6354 127.2C37.9828 127.054 37.3915 126.907 36.8588 126.758C35.7613 126.451 34.8905 126.133 34.2354 125.802C33.5951 125.478 33.0913 125.108 32.8183 124.659C32.6754 124.424 32.5932 124.163 32.5973 123.885C32.6014 123.608 32.69 123.355 32.8257 123.132C33.01 122.829 33.2937 122.56 33.6332 122.32C33.5199 122.2 33.4321 122.105 33.373 122.041C33.081 121.727 32.6115 121.228 32.0175 120.597C31.4837 120.367 30.9671 120.142 30.4674 119.922C30.2843 120.582 30.0272 121.099 29.6718 121.446C29.4141 121.698 29.1075 121.857 28.7642 121.908C28.4285 121.957 28.0983 121.897 27.7923 121.78C27.1954 121.551 26.5976 121.069 26.031 120.491C25.4544 119.901 24.8651 119.165 24.2906 118.365C23.8053 117.689 23.324 116.958 22.8633 116.22C22.1792 115.838 21.5728 115.477 21.04 115.138C20.0793 114.525 19.3388 113.967 18.8085 113.46C18.2902 112.963 17.9161 112.462 17.7856 111.953C17.7172 111.687 17.7146 111.413 17.7996 111.148C17.8841 110.885 18.0426 110.668 18.2374 110.494C18.5299 110.233 18.9263 110.048 19.3729 109.913C19.1959 109.558 18.9363 109.044 18.616 108.41C18.1929 108.062 17.7835 107.722 17.3876 107.39C17.0314 107.961 16.6448 108.378 16.2124 108.609C15.8947 108.779 15.5558 108.846 15.212 108.798C14.8758 108.752 14.5756 108.602 14.3145 108.404C13.8051 108.018 13.3657 107.389 12.9833 106.674C12.5941 105.948 12.234 105.076 11.9058 104.147C11.6355 103.382 11.3834 102.569 11.1522 101.753C10.6224 101.216 10.1569 100.719 9.7523 100.26C8.99922 99.4047 8.44239 98.6636 8.07362 98.0289C7.71317 97.4085 7.49272 96.8233 7.50837 96.2982C7.51657 96.0233 7.58998 95.7596 7.74515 95.5284C7.89929 95.2988 8.1117 95.1346 8.34702 95.0215C8.69205 94.8557 9.11186 94.7871 9.56544 94.7785C9.5644 94.7727 9.56339 94.7671 9.5624 94.7616C9.49389 94.3806 9.38487 93.7951 9.24713 93.0589C8.74778 92.3306 8.27696 91.6327 7.83377 90.9646C7.38628 91.3247 6.95103 91.5584 6.52408 91.642C6.17057 91.7112 5.82688 91.6762 5.51204 91.5302C5.20416 91.3875 4.961 91.1562 4.76937 90.8905C4.39556 90.372 4.15991 89.6412 4.00353 88.8464C3.8444 88.0376 3.75565 87.0982 3.71393 86.1142C3.68674 85.4728 3.67933 84.8058 3.6864 84.1348C3.44047 83.6679 3.22178 83.2309 3.02922 82.8228C2.543 81.7922 2.21365 80.9257 2.03547 80.2136C1.86132 79.5175 1.8119 78.8941 1.97262 78.3941C2.05677 78.1322 2.20048 77.8992 2.4137 77.7202C2.62549 77.5423 2.87511 77.4436 3.13257 77.4002C3.43511 77.3492 3.76648 77.3716 4.1117 77.443C4.16188 76.9721 4.20265 76.6281 4.22354 76.4541C4.25954 76.1541 4.30846 75.7278 4.36815 75.2013C4.19701 74.6779 4.03346 74.1695 3.87733 73.6757C3.31702 73.9243 2.80751 74.0437 2.35196 74.0061C1.99296 73.9765 1.6718 73.8492 1.40857 73.623C1.15118 73.4019 0.98015 73.1132 0.86811 72.8053C0.649552 72.2046 0.621746 71.4373 0.687641 70.6299C0.754695 69.8084 0.92503 68.8803 1.15276 67.9221C1.31643 67.2334 1.51173 66.5213 1.72389 65.8119C1.59681 65.2101 1.49313 64.6559 1.41168 64.1473C1.23148 63.0221 1.15627 62.0982 1.18333 61.3646C1.20978 60.6476 1.3358 60.0351 1.62934 59.5995C1.78304 59.3714 1.98593 59.1876 2.24055 59.075C2.49346 58.9631 2.76071 58.9377 3.02007 58.9677C3.35458 59.0064 3.6979 59.1396 4.03986 59.331C4.14502 59.0727 4.22525 58.8797 4.27288 58.7655C4.41412 58.4269 4.62441 57.9142 4.88731 57.2714C4.8665 56.5995 4.8501 55.9517 4.838 55.3273C4.22446 55.4097 3.69733 55.3812 3.26774 55.2153C2.93172 55.0855 2.65958 54.8726 2.47093 54.5814C2.28646 54.2965 2.20392 53.9713 2.18338 53.6443C2.14333 53.0064 2.33334 52.2624 2.62454 51.5065C2.92086 50.7373 3.34634 49.8951 3.83538 49.0402C4.19202 48.4168 4.58674 47.7793 4.99699 47.1498C5.04621 46.5227 5.10476 45.95 5.17203 45.4293C5.31804 44.2991 5.50769 43.3918 5.74149 42.696C5.97002 42.0158 6.26443 41.4641 6.66937 41.1295C6.88139 40.9544 7.12806 40.8355 7.40415 40.7997C7.67837 40.7641 7.94188 40.8154 8.18211 40.9177C8.49627 41.0514 8.7916 41.2809 9.06862 41.5668C9.22381 41.3724 9.34197 41.2264 9.41417 41.1374C9.63408 40.8663 9.95849 40.4615 10.3631 39.9556C10.5287 39.3141 10.6919 38.6964 10.8528 38.1018C10.2495 38.0081 9.75821 37.8336 9.3963 37.5567C9.1102 37.3378 8.90871 37.0572 8.80937 36.7247C8.71223 36.3995 8.72428 36.0642 8.79633 35.7445C8.93688 35.121 9.32802 34.4602 9.81962 33.8164C10.3199 33.1613 10.9646 32.4723 11.6739 31.789C12.1805 31.3009 12.726 30.8101 13.2842 30.3305C13.5003 29.7607 13.7106 29.2427 13.915 28.7744C14.3708 27.7299 14.8062 26.9117 15.2251 26.3088C15.6344 25.7195 16.0712 25.272 16.5534 25.0638C16.806 24.9548 17.076 24.9096 17.3511 24.9523C17.6244 24.9946 17.8631 25.1175 18.0652 25.2828C18.3244 25.4948 18.5405 25.7901 18.7243 26.1333C18.9624 25.9656 19.1413 25.8415 19.2461 25.7691C19.5897 25.5315 20.1306 25.1524 20.8132 24.6732C21.1344 24.1465 21.4479 23.6383 21.7536 23.1483C21.1442 22.8757 20.6819 22.552 20.3948 22.1582C20.1827 21.867 20.0692 21.5407 20.0684 21.1937C20.0676 20.8544 20.1744 20.5362 20.3342 20.2502C20.6461 19.6923 21.2088 19.1698 21.863 18.6921C22.5287 18.2061 23.3425 17.7285 24.2166 17.2748C24.9282 16.9054 25.6892 16.547 26.4566 16.2083C26.9068 15.619 27.3279 15.097 27.7209 14.6387C28.4627 13.7737 29.1188 13.119 29.6959 12.6653C30.26 12.2218 30.8087 11.9219 31.3308 11.8642C31.6042 11.8339 31.8756 11.8698 32.1261 11.9913C32.375 12.1119 32.5672 12.2993 32.712 12.5165C32.9221 12.8317 33.0482 13.2327 33.1203 13.675L33.1867 13.6532C33.5222 13.5432 34.0216 13.3762 34.6455 13.1667C35.3081 12.5554 35.9431 11.9786 36.5513 11.4352C36.1556 11.0563 35.8786 10.672 35.7409 10.2757C35.6227 9.93544 35.6091 9.59023 35.7094 9.258C35.8074 8.93312 36.0022 8.65987 36.2384 8.43279C36.6991 7.98982 37.3895 7.65378 38.1545 7.38724C38.9329 7.11601 39.8505 6.8961 40.8188 6.71648C41.4056 6.60764 42.0168 6.51261 42.6344 6.42963C43.0136 6.15526 43.3722 5.90615 43.7107 5.68138C44.6599 5.05099 45.4695 4.59959 46.1483 4.32013C46.8118 4.04697 47.4215 3.90776 47.9396 3.99435C48.2108 4.03967 48.4622 4.14812 48.6703 4.33315C48.8769 4.51694 49.0108 4.74962 49.091 4.99809ZM12.3374 95.1226C12.252 95.1047 12.1674 95.0874 12.0837 95.0708C11.4735 94.2095 10.8983 93.3857 10.357 92.5983L10.2713 92.1409C10.1261 91.3656 9.95871 90.4719 9.779 89.5047L9.9073 89.4553C10.6252 91.3918 11.4371 93.2828 12.3374 95.1226ZM11.0096 96.0752C11.1367 96.0943 11.2668 96.1155 11.4 96.1387C12.4403 97.6012 13.5773 99.1665 14.8163 100.84C15.5757 102.374 16.3417 103.903 17.0325 105.274C17.0114 105.352 16.9905 105.426 16.9698 105.496C15.0068 103.816 13.432 102.372 12.2015 101.141C11.6781 99.2518 11.2686 97.3659 11.0096 96.0752ZM9.78714 95.9548C9.32328 95.9427 9.02488 96 8.85623 96.0811C8.77257 96.1213 8.73749 96.1593 8.72118 96.1836C8.70592 96.2064 8.68595 96.2482 8.68341 96.3333C8.67759 96.5283 8.76623 96.8809 9.09008 97.4383C9.39013 97.9548 9.8594 98.5921 10.5292 99.3626C10.2084 98.0293 9.95653 96.8177 9.78714 95.9548ZM12.9105 103.457C12.9447 103.557 12.9793 103.657 13.0142 103.755C13.3316 104.653 13.669 105.465 14.0196 106.119C14.3769 106.787 14.7195 107.236 15.0247 107.468C15.1709 107.578 15.286 107.622 15.3722 107.634C15.4507 107.645 15.5411 107.635 15.6584 107.572C15.8694 107.459 16.1513 107.183 16.4781 106.622C15.1181 105.464 13.933 104.411 12.9105 103.457ZM21.8384 109.506C21.0354 108.865 20.2743 108.25 19.5535 107.658C19.4936 107.54 19.4319 107.418 19.3684 107.292L19.3675 107.291C19.0443 106.651 18.6763 105.924 18.2799 105.137C18.2957 105.071 18.3114 105.004 18.3271 104.935C19.503 106.512 20.7521 108.031 22.0694 109.487C21.9916 109.493 21.9146 109.499 21.8384 109.506ZM21.4778 110.721C22.9332 111.878 24.5189 113.111 26.2422 114.426C27.3654 115.64 28.4966 116.851 29.5267 117.949C29.529 118.042 29.5301 118.131 29.53 118.214C27.1634 117.14 25.2364 116.185 23.701 115.34C22.6547 113.641 21.7252 111.92 21.1237 110.764C21.2388 110.749 21.3569 110.735 21.4778 110.721ZM14.5796 96.9041C15.4118 97.1454 16.3021 97.4279 17.2409 97.7465C17.5536 97.8526 17.8712 97.9625 18.1931 98.076C18.1404 98.5251 18.0872 98.9624 18.0335 99.3865C17.9148 100.325 17.7942 101.197 17.6725 101.987C16.562 100.348 15.5292 98.6518 14.5796 96.9041ZM18.3296 96.8781C18.0901 96.7945 17.8531 96.7128 17.6187 96.6333C16.2676 96.1748 14.9925 95.7817 13.8285 95.4767C12.4943 92.8576 11.3442 90.1289 10.3953 87.3078C10.8942 86.3265 11.4488 85.1523 12.0395 83.8411C12.1026 83.7009 12.1662 83.5591 12.2302 83.4157C14.3855 84.9748 16.7223 86.7957 19.0994 88.7265C18.8662 91.5855 18.606 94.3795 18.3296 96.8781ZM19.3286 98.4842C19.286 98.842 19.243 99.1923 19.1998 99.5341C19.0172 100.977 18.8288 102.276 18.6371 103.368C20.1615 105.489 21.819 107.508 23.5975 109.413C24.8089 109.382 26.1542 109.405 27.5924 109.472C27.8632 109.485 28.1377 109.499 28.4156 109.514C27.9829 107.042 27.4536 104.295 26.8808 101.495C24.2567 100.381 21.6916 99.3492 19.3286 98.4842ZM26.5922 100.097C24.1197 99.058 21.704 98.0956 19.4673 97.2835C19.7305 94.9346 19.9792 92.3185 20.2043 89.6294C21.8942 91.0184 23.5913 92.4491 25.245 93.8669C25.6977 95.8873 26.1542 97.9945 26.5922 100.097ZM28.1948 102.057C28.7279 104.692 29.2186 107.265 29.6219 109.589C32.0285 109.753 34.6524 110.014 37.3508 110.332C36.3391 108.45 35.3099 106.57 34.3098 104.775C32.2976 103.856 30.2369 102.937 28.1948 102.057ZM33.3407 103.044C31.5403 102.232 29.7141 101.426 27.9083 100.654C27.8637 100.438 27.8188 100.221 27.7737 100.005C27.4358 98.3796 27.0859 96.747 26.7343 95.1502C28.19 96.4106 29.5985 97.6474 30.9231 98.8212C31.6748 100.11 32.4909 101.535 33.3407 103.044ZM36.113 105.603C36.924 107.072 37.7445 108.579 38.5507 110.082C38.6263 110.223 38.7019 110.364 38.7773 110.505C40.6751 110.741 42.5988 111.002 44.5004 111.276C43.267 110.066 42.0892 108.927 41.0111 107.901C39.4572 107.161 37.8104 106.387 36.113 105.603ZM38.2003 105.276C37.2033 104.811 36.1832 104.339 35.149 103.865C34.6592 102.988 34.1766 102.131 33.7068 101.303C34.504 102.018 35.2507 102.691 35.9357 103.31L35.9502 103.323L35.9655 103.336C36.491 103.75 37.2565 104.417 38.2003 105.276ZM44.3839 109.518C45.0611 110.177 45.7587 110.862 46.4688 111.564C47.5846 111.731 48.6868 111.9 49.7653 112.069C48.6235 111.508 47.7056 111.081 47.087 110.829L47.0689 110.821L47.0513 110.813C46.2303 110.412 45.3366 109.978 44.3839 109.518ZM53.5722 112.683C50.8836 111.287 48.7223 110.228 47.5491 109.748C45.8625 108.925 43.8683 107.959 41.6853 106.92C39.4878 104.831 37.7039 103.212 36.7095 102.425C35.3129 101.163 33.6592 99.676 31.8435 98.0661C30.3099 95.4412 29.0434 93.3837 28.3058 92.3487C27.2975 90.7187 26.0982 88.7902 24.7742 86.6951C24.0354 83.6891 23.3927 81.3122 22.9734 80.0952C22.4756 78.2733 21.8821 76.1207 21.2179 73.7767C21.3448 70.7289 21.3899 68.3047 21.3277 67.0323C21.36 65.0499 21.3928 62.6884 21.4089 60.1102C22.4775 57.0917 23.2734 54.6675 23.5977 53.3894C24.1657 51.6386 24.8298 49.5755 25.5388 47.3203C27.2522 44.8898 28.5679 42.9293 29.1942 41.8461C30.256 40.2582 31.509 38.3748 32.8616 36.3096C35.2804 34.3952 37.1685 32.8288 38.099 31.9439C39.5565 30.7284 41.2775 29.2863 43.1441 27.6994C45.9849 26.5474 48.2218 25.5797 49.3582 24.9941C51.1198 24.227 53.2057 23.3128 55.4749 22.2985C58.5625 21.9981 61.0125 21.7026 62.2791 21.4618C64.2339 21.2207 66.5596 20.9281 69.0958 20.5895C72.2141 21.2186 74.7087 21.6623 76.0136 21.8031C77.8608 22.1253 80.043 22.5007 82.4267 22.8935C85.1153 24.289 87.2767 25.3484 88.4499 25.8286C90.1369 26.6511 92.1317 27.6179 94.3155 28.6575C96.5122 30.7451 98.2956 32.3633 99.2898 33.1504C100.686 34.4123 102.34 35.8995 104.156 37.5095C105.689 40.1344 106.956 42.1919 107.693 43.2269C108.702 44.8569 109.901 46.7854 111.225 48.8805C111.964 51.8865 112.607 54.2633 113.026 55.4804C113.524 57.3022 114.117 59.4546 114.781 61.7985C114.654 64.8464 114.609 67.2708 114.671 68.5433C114.639 70.5257 114.606 72.8872 114.59 75.4654C113.522 78.4839 112.726 80.9081 112.401 82.1862C111.833 83.9369 111.169 86.0001 110.46 88.2552C108.747 90.6858 107.431 92.6463 106.805 93.7295C105.743 95.3174 104.49 97.2008 103.138 99.266C100.719 101.18 98.8306 102.747 97.9001 103.632C96.4423 104.847 94.7209 106.29 92.8537 107.877C90.0135 109.029 87.7771 109.997 86.6409 110.582C84.8793 111.349 82.7934 112.263 80.5242 113.278C77.4366 113.578 74.9866 113.874 73.7201 114.114C71.7652 114.355 69.4396 114.648 66.9033 114.987C63.7851 114.358 61.2904 113.914 59.9855 113.773C58.1383 113.451 55.956 113.075 53.5722 112.683ZM53.1966 113.812C51.5071 113.534 49.7194 113.248 47.8806 112.966C49.0736 114.157 50.2868 115.382 51.4848 116.607C51.6879 116.814 51.8907 117.022 52.0928 117.23L52.2384 117.204C54.0918 116.881 55.9784 116.573 57.8509 116.284C56.1966 115.389 54.6224 114.554 53.1966 113.812ZM59.7756 115.991C58.7888 115.453 57.8218 114.93 56.888 114.431C57.9282 114.609 58.9048 114.778 59.8026 114.934L59.8218 114.938L59.8413 114.94C60.5953 115.02 61.782 115.21 63.2796 115.483C62.1323 115.645 60.9602 115.814 59.7756 115.991ZM59.5589 117.212C57.4117 117.535 55.2288 117.882 53.0837 118.251C55.0409 120.276 56.9184 122.265 58.5563 124.065C60.6218 122.882 62.9317 121.656 65.3457 120.435C65.2638 120.388 65.1818 120.342 65.0999 120.296C63.2432 119.244 61.3688 118.202 59.5589 117.212ZM66.6089 119.801C66.2998 119.625 65.9897 119.448 65.6792 119.273C64.2814 118.481 62.8708 117.693 61.4832 116.928C63.3373 116.658 65.1472 116.408 66.8638 116.178C68.4097 116.491 70.1086 116.85 71.8923 117.239C70.2284 118.027 68.5576 118.833 66.9213 119.645C66.817 119.697 66.7129 119.749 66.6089 119.801ZM66.572 121.133C64.0043 122.421 61.5469 123.714 59.3631 124.958C59.5031 125.114 59.641 125.268 59.7765 125.421C60.7825 126.553 61.666 127.586 62.3772 128.474C64.2513 128.648 66.15 128.737 68.0695 128.737C69.0423 128.737 70.0097 128.714 70.9713 128.669C71.7476 127.697 72.6624 126.654 73.6761 125.564C73.7234 125.513 73.7709 125.462 73.8186 125.411C71.6395 124.073 69.1481 122.607 66.572 121.133ZM74.6449 124.539C72.5939 123.276 70.2603 121.897 67.837 120.504C69.7935 119.537 71.795 118.579 73.771 117.655C75.7297 118.092 77.758 118.56 79.7728 119.041C79.8996 119.071 80.0262 119.102 80.1528 119.132C78.1723 120.989 76.2953 122.82 74.6449 124.539ZM74.8384 126.042C74.7368 126.15 74.6363 126.257 74.5369 126.364C73.8188 127.136 73.1604 127.875 72.5721 128.572C74.3408 128.443 76.0886 128.238 77.8121 127.961C77.1114 127.489 76.3227 126.977 75.4634 126.434C75.2589 126.305 75.0504 126.174 74.8384 126.042ZM79.4645 127.671C78.5299 127.011 77.3843 126.257 76.091 125.44C75.9511 125.352 75.8095 125.263 75.6662 125.173C77.4123 123.363 79.4116 121.426 81.5209 119.463C84.447 120.175 87.2839 120.904 89.7679 121.594L89.76 121.609C89.0885 122.955 88.5004 124.226 88.0276 125.387C85.2587 126.348 82.3989 127.115 79.4645 127.671ZM80.3984 129.856C78.9443 129.896 77.3268 129.937 75.6941 129.971C73.9236 130.35 72.2612 130.691 70.7023 130.998C70.5632 131.202 70.4343 131.401 70.3162 131.592C71.6406 131.901 73.3517 132.267 75.0673 132.54C76.613 131.973 78.4864 131.185 80.7245 130.147C80.6304 130.058 80.5217 129.961 80.3984 129.856ZM81.4813 131.091C80.0086 131.779 78.6844 132.362 77.4995 132.851C78.3693 132.929 79.1747 132.959 79.8627 132.922C80.6186 132.881 81.1708 132.761 81.5096 132.582C81.672 132.497 81.7602 132.411 81.8074 132.338C81.8504 132.271 81.8796 132.185 81.8725 132.052C81.8613 131.842 81.7586 131.528 81.4813 131.091ZM72.7027 133.31C71.6059 133.094 70.5836 132.864 69.7442 132.665C69.6232 132.962 69.5791 133.181 69.583 133.331C69.5854 133.424 69.6057 133.471 69.6212 133.496C69.6357 133.519 69.6656 133.555 69.7423 133.592C69.9178 133.677 70.2758 133.741 70.9169 133.674C71.3928 133.624 71.984 133.507 72.7027 133.31ZM69.1195 131.304C69.1197 131.303 69.1199 131.303 69.12 131.303C69.1193 131.303 69.1186 131.303 69.1178 131.303C69.1184 131.303 69.119 131.304 69.1195 131.304ZM66.4131 130.604C67.5418 130.404 68.74 130.182 70.0106 129.935L70.049 129.881C69.3917 129.902 68.7318 129.912 68.0695 129.912C66.4964 129.912 64.937 129.854 63.3933 129.738L63.3893 129.802C63.3956 129.811 63.4019 129.82 63.4082 129.828C64.2103 130.036 64.9545 130.228 65.6122 130.397C65.896 130.47 66.1638 130.539 66.4131 130.604ZM57.9569 129.615C56.1584 129.477 54.4722 129.334 52.8936 129.187C52.7054 129.341 52.5283 129.492 52.3629 129.64C53.5459 130.306 55.1184 131.154 56.7296 131.914C58.3921 131.797 60.4329 131.561 62.8963 131.185C62.836 131.084 62.7666 130.975 62.688 130.856C61.226 130.477 59.5951 130.051 57.9569 129.615ZM55.2741 5.42882C55.3683 5.51804 55.4771 5.61523 55.6006 5.72016C57.0547 5.68043 58.6723 5.63911 60.305 5.60498C62.0753 5.22626 63.7376 4.88481 65.2963 4.57872C65.4356 4.374 65.5644 4.17563 65.6826 3.98395C64.3579 3.6747 62.6465 3.30851 60.9307 3.03616C59.3851 3.60342 57.5119 4.39077 55.2741 5.42882ZM47.8382 10.5114C50.7375 9.48931 53.7375 8.68074 56.8193 8.10452C57.6982 8.71545 58.7432 9.40056 59.908 10.136C60.0477 10.2242 60.1893 10.3132 60.3325 10.403C58.5864 12.2128 56.587 14.1496 54.4778 16.1135C51.5517 15.4006 48.7149 14.6722 46.231 13.9825L46.2391 13.9663C46.8489 12.7445 47.3899 11.5836 47.8382 10.5114ZM60.5356 9.14198C60.74 9.27106 60.9484 9.40181 61.1603 9.53409C61.262 9.42594 61.3627 9.31834 61.4622 9.21129C62.0937 8.53243 62.6789 7.8794 63.2109 7.25753C61.6183 7.38338 60.0429 7.57056 58.4872 7.81671C59.1105 8.2319 59.7969 8.67562 60.5356 9.14198ZM55.8458 16.4442C57.8263 14.587 59.7034 12.7562 61.3538 11.0371C63.4049 12.3003 65.7386 13.6792 68.1621 15.0725C66.2056 16.0393 64.2041 16.9969 62.2281 17.9216C60.2694 17.484 58.2411 17.0162 56.2263 16.5352L56.0608 16.4957L55.8458 16.4442ZM62.1801 10.1652C64.3593 11.5031 66.8508 12.9689 69.4271 14.4428C71.9949 13.155 74.4525 11.8617 76.6364 10.6181C76.4963 10.4618 76.3584 10.3073 76.2227 10.1546C75.3032 9.11973 74.4858 8.16729 73.809 7.33354C71.9196 7.15674 70.0051 7.06634 68.0695 7.06634C66.9832 7.06634 65.9035 7.09482 64.8311 7.15106C64.0986 8.05253 63.2523 9.01277 62.323 10.0119C62.2756 10.0629 62.228 10.114 62.1801 10.1652ZM69.0778 15.9307C69.1821 15.879 69.2862 15.8272 69.3902 15.7754C69.6993 15.9516 70.0093 16.1277 70.3198 16.3036C71.7176 17.0952 73.1282 17.8831 74.5158 18.6483C72.6618 18.9179 70.8519 19.1684 69.1354 19.3982C67.5894 19.085 65.8905 18.7266 64.1069 18.3368C65.7707 17.5496 67.4415 16.743 69.0778 15.9307ZM70.8991 15.2807C72.7558 16.3322 74.6302 17.3743 76.4401 18.3638C78.5876 18.0409 80.7707 17.6938 82.9161 17.3252C80.9588 15.3002 79.0812 13.311 77.4432 11.5111C75.3776 12.6943 73.0675 13.92 70.6533 15.1414L70.8991 15.2807ZM72.7195 20.0929C73.8668 19.9313 75.0389 19.7618 76.2234 19.585C77.2102 20.1233 78.1772 20.6457 79.1109 21.145C78.0708 20.9674 77.0942 20.7983 76.1966 20.6417L76.1773 20.6384L76.1578 20.6363C75.4038 20.5559 74.2171 20.3665 72.7195 20.0929ZM78.1481 19.2925C79.8023 20.1868 81.3765 21.0225 82.8023 21.764C84.4922 22.0419 86.2802 22.3281 88.1194 22.6098C86.9261 21.4189 85.7127 20.194 84.5144 18.9689C84.3115 18.7614 84.1089 18.5538 83.9069 18.3464L83.7607 18.3719C81.9073 18.6954 80.0206 19.0028 78.1481 19.2925ZM88.9477 24.7635C89.7692 25.164 90.6635 25.5987 91.6168 26.0592C90.9394 25.3994 90.2416 24.7146 89.5312 24.0122C88.415 23.8457 87.3124 23.6763 86.2336 23.5068C87.3754 24.0685 88.2933 24.4953 88.912 24.7475L88.9301 24.7549L88.9477 24.7635ZM100.034 32.24C99.5086 31.8254 98.7436 31.1594 97.8006 30.301C98.7972 30.7663 99.817 31.2382 100.851 31.711C101.34 32.5884 101.823 33.4453 102.292 34.2722C101.495 33.5572 100.749 32.8842 100.064 32.2652L100.049 32.2521L100.034 32.24ZM94.9897 27.6764C96.5433 28.4154 98.1898 29.1897 99.8867 29.9739C99.0757 28.5043 98.2549 26.997 97.4486 25.4936C97.373 25.3527 97.2976 25.2118 97.2223 25.071C95.3247 24.8353 93.4011 24.5742 91.4996 24.3007C92.7333 25.5107 93.9114 26.6501 94.9897 27.6764ZM105.076 36.7544C104.325 35.4658 103.509 34.0408 102.659 32.5325C104.459 33.3446 106.285 34.1503 108.091 34.9219C108.136 35.1381 108.18 35.3545 108.226 35.571C108.563 37.196 108.913 38.8286 109.265 40.4254C107.809 39.165 106.401 37.9282 105.076 36.7544ZM101.69 30.802C103.702 31.72 105.763 32.6393 107.805 33.5196C107.272 30.8848 106.781 28.3117 106.377 25.9871C103.971 25.8231 101.347 25.5626 98.6488 25.2439C99.6606 27.1264 100.69 29.006 101.69 30.802ZM110.754 41.7086C110.302 39.6885 109.845 37.5816 109.407 35.4796C111.88 36.5183 114.295 37.4806 116.532 38.2927C116.269 40.6414 116.02 43.2572 115.795 45.946C114.105 44.5571 112.408 43.1265 110.754 41.7086ZM109.119 34.0817C111.743 35.195 114.308 36.2271 116.67 37.092C116.713 36.734 116.756 36.3835 116.799 36.0415C116.98 34.61 117.167 33.321 117.357 32.2342C115.812 30.1029 114.133 28.0758 112.33 26.1654C111.138 26.1936 109.817 26.1694 108.407 26.1042C108.136 26.0916 107.862 26.0776 107.584 26.0621C108.016 28.5346 108.546 31.2817 109.119 34.0817ZM116.9 46.849C117.133 43.9903 117.393 41.1966 117.669 38.6981C117.909 38.7817 118.146 38.8633 118.38 38.9429C119.742 39.405 121.027 39.8007 122.198 40.1067C123.532 42.6996 124.686 45.4009 125.641 48.1938C125.133 49.1899 124.565 50.3902 123.96 51.7345L123.936 51.786L123.869 51.9359C123.836 52.0101 123.802 52.0847 123.769 52.1598C121.614 50.6007 119.277 48.7798 116.9 46.849ZM118.758 37.8297C119.704 38.1507 120.601 38.4352 121.439 38.6776C120.482 36.9336 119.442 35.2415 118.324 33.6068C118.203 34.3915 118.083 35.2574 117.966 36.189C117.912 36.6134 117.859 37.0509 117.806 37.5001C118.128 37.6136 118.445 37.7236 118.758 37.8297ZM124.6 39.4376C124.733 39.4608 124.863 39.4819 124.99 39.501C124.731 38.2105 124.321 36.3248 123.798 34.4352C122.567 33.2046 120.992 31.76 119.029 30.0799C119.009 30.1496 118.988 30.2234 118.967 30.3011C119.658 31.6728 120.423 33.2011 121.183 34.736C122.422 36.4094 123.559 37.9749 124.6 39.4376ZM127.143 39.4951C126.974 39.5761 126.676 39.6334 126.212 39.6213C126.043 38.7587 125.791 37.5472 125.47 36.214C126.14 36.9843 126.609 37.6215 126.909 38.1378C127.233 38.6952 127.321 39.0479 127.316 39.2429C127.313 39.328 127.293 39.3698 127.278 39.3925C127.261 39.4168 127.226 39.4549 127.143 39.4951ZM123.039 31.9744C123.056 32.0227 123.072 32.0712 123.089 32.1198C122.066 31.1653 120.881 30.1122 119.521 28.954C119.848 28.3925 120.13 28.1165 120.341 28.0037C120.458 27.941 120.548 27.931 120.627 27.9418C120.713 27.9536 120.828 27.9971 120.974 28.108C121.28 28.3394 121.622 28.7888 121.98 29.4561C122.33 30.1108 122.668 30.9223 122.985 31.8203C123.003 31.8715 123.021 31.9228 123.039 31.9744ZM116.446 27.9185C115.725 27.327 114.964 26.7112 114.161 26.0704C114.064 26.0787 113.967 26.0864 113.868 26.0936C115.204 27.5571 116.472 29.0848 117.665 30.6716C117.683 30.5921 117.701 30.5141 117.719 30.4379C117.323 29.6511 116.954 28.9227 116.631 28.2831L116.63 28.282L116.446 27.9185ZM109.76 21.1523C111.482 22.4661 113.067 23.6991 114.521 24.8548C114.642 24.8416 114.761 24.8275 114.876 24.8125C114.274 23.6565 113.345 21.9351 112.299 20.2363C110.763 19.3914 108.836 18.4361 106.469 17.3618C106.469 17.4155 106.47 17.4713 106.471 17.5292C106.471 17.561 106.472 17.5935 106.473 17.6266C107.503 18.7254 108.635 19.937 109.76 21.1523ZM126.14 46.1018C125.416 44.1738 124.599 42.2915 123.693 40.4602C123.768 40.4758 123.843 40.4909 123.916 40.5055C124.526 41.3665 125.101 42.1899 125.642 42.9769L125.728 43.4347L125.728 43.4376C125.873 44.2122 126.041 45.1049 126.22 46.0709L126.14 46.1018ZM66.4161 2.24458C66.42 2.3945 66.3759 2.61421 66.2546 2.91085C65.415 2.71164 64.3924 2.48226 63.2951 2.26568C64.0144 2.06897 64.606 1.95177 65.0822 1.90194C65.7233 1.83484 66.0813 1.89844 66.2569 1.98362C66.3335 2.0208 66.3634 2.05614 66.3779 2.07937C66.3934 2.1042 66.4137 2.15179 66.4161 2.24458ZM66.8787 4.27337L66.8793 4.27242L66.8812 4.27291L66.8787 4.27337ZM65.9881 5.64145C67.2588 5.39442 68.4571 5.17182 69.5859 4.97245L70.3859 5.17866L70.3868 5.17887L70.3896 5.1796C71.0469 5.34896 71.7904 5.54054 72.5916 5.74792L72.6099 5.77367L72.5922 6.05319C71.0987 5.94554 69.5905 5.89079 68.0695 5.89079C67.3387 5.89079 66.6108 5.90343 65.8861 5.92851L65.8856 5.78393C65.9201 5.73621 65.9543 5.68872 65.9881 5.64145ZM83.1055 6.38964C81.5268 6.24227 79.8406 6.09937 78.042 5.96144C76.4042 5.52497 74.7735 5.09903 73.3117 4.72006C73.2331 4.6015 73.1636 4.49176 73.1033 4.39103C75.567 4.01521 77.6081 3.77863 79.2707 3.66218C80.8817 4.42202 82.4539 5.26997 83.6367 5.93569C83.4711 6.08383 83.2939 6.23522 83.1055 6.38964ZM54.5174 4.48441C55.9898 3.79737 57.3137 3.21357 58.4985 2.72543C57.6291 2.64687 56.824 2.61689 56.1362 2.6543C55.3804 2.6954 54.8282 2.81535 54.4893 2.99384C54.327 3.07933 54.2388 3.16521 54.1916 3.23823C54.1485 3.30481 54.1193 3.39094 54.1264 3.52372C54.1377 3.73417 54.2403 4.04795 54.5174 4.48441ZM19.9135 110.983C19.4442 111.102 19.1634 111.243 19.0204 111.371C18.9512 111.433 18.928 111.479 18.9191 111.507C18.9107 111.533 18.9031 111.579 18.9243 111.661C18.9727 111.85 19.1557 112.165 19.6214 112.61C20.0637 113.034 20.712 113.53 21.6025 114.102C20.9037 112.877 20.3127 111.759 19.9135 110.983ZM25.0233 117.365C25.0972 117.471 25.1713 117.576 25.2455 117.679C25.8011 118.453 26.3517 119.138 26.8711 119.668C27.4006 120.209 27.855 120.545 28.2127 120.682C28.384 120.748 28.5067 120.757 28.5928 120.745C28.6712 120.733 28.7552 120.698 28.8503 120.605C29.024 120.436 29.2208 120.084 29.379 119.436C27.7317 118.694 26.2845 118.004 25.0233 117.365ZM36.0323 121.006C34.8552 120.524 33.7473 120.06 32.7058 119.613L32.5548 119.453C32.0051 118.869 31.3703 118.195 30.6841 117.464C30.6826 117.435 30.681 117.406 30.6793 117.376C32.3961 118.675 34.1826 119.888 36.0323 121.006ZM36.1682 122.331C37.6262 122.925 39.1844 123.544 40.8472 124.19C42.3951 125.123 43.9517 126.049 45.3411 126.872C45.3744 126.978 45.4039 127.078 45.4297 127.17C42.9151 126.831 40.8498 126.478 39.1854 126.118C37.7905 124.878 36.4736 123.571 35.5357 122.608C35.7352 122.516 35.9463 122.423 36.1682 122.331ZM24.7118 110.575C26.1471 112.033 27.6554 113.419 29.2308 114.727C29.1261 113.923 28.9963 113.036 28.8452 112.082C28.7745 111.636 28.6992 111.176 28.6198 110.703C28.253 110.682 27.8922 110.663 27.5381 110.646C26.5341 110.6 25.5883 110.575 24.7118 110.575ZM29.8247 110.782C29.8881 111.162 29.9487 111.535 30.0063 111.898C30.2374 113.356 30.421 114.673 30.542 115.786C32.7682 117.533 35.1193 119.128 37.5796 120.556C38.7442 120.167 40.0587 119.791 41.4779 119.43C41.6499 119.386 41.8236 119.343 41.999 119.299C40.8278 116.929 39.4585 114.283 38.0278 111.597C35.1602 111.248 32.3701 110.962 29.8247 110.782ZM39.4535 111.775C40.7946 114.305 42.0722 116.786 43.1706 119.017C45.4876 118.474 48.0437 117.96 50.6937 117.479L50.6444 117.429C49.0635 115.812 47.4605 114.201 45.9153 112.67C43.7829 112.354 41.6057 112.05 39.4535 111.775ZM73.6361 116.42C72.531 116.174 71.4487 115.938 70.4045 115.715C71.6556 115.555 72.8237 115.409 73.8832 115.279L73.9026 115.276L73.9218 115.273C74.6217 115.139 75.7154 114.985 77.0999 114.823C75.9657 115.34 74.8062 115.874 73.6361 116.42ZM81.184 118.171C80.8055 118.079 80.4259 117.988 80.0458 117.898C78.5346 117.537 77.0131 117.183 75.5167 116.843C77.3473 115.997 79.1373 115.186 80.8288 114.429C82.3537 114.282 84.0337 114.134 85.8039 113.99C84.364 115.267 82.921 116.568 81.5159 117.864C81.4051 117.967 81.2944 118.069 81.184 118.171ZM90.3111 120.525C87.9705 119.871 85.3106 119.183 82.555 118.505C84.2595 116.937 86.0167 115.364 87.7537 113.836C89.8423 113.676 92.0181 113.526 94.1839 113.393L94.2883 113.387C92.8257 115.869 91.4627 118.295 90.3111 120.525ZM90.8682 122.022C90.8493 122.059 90.8305 122.097 90.8118 122.134C90.3346 123.09 89.9066 123.996 89.5358 124.841C91.0994 124.251 92.6323 123.599 94.1315 122.887C93.3225 122.626 92.4161 122.351 91.4321 122.065C91.2636 122.017 91.093 121.967 90.9202 121.918C90.9028 121.953 90.8855 121.987 90.8682 122.022ZM95.6322 122.149C94.5488 121.773 93.2344 121.364 91.7595 120.936C91.6622 120.908 91.5643 120.88 91.4657 120.851C92.6862 118.502 94.1421 115.933 95.7036 113.304C98.514 113.143 101.261 113.017 103.727 112.946C103.68 113.184 103.634 113.42 103.59 113.653C103.311 115.126 103.092 116.506 102.953 117.748C100.627 119.379 98.1813 120.851 95.6322 122.149ZM96.9197 123.896C95.7241 124.294 94.4447 124.717 93.1601 125.137C91.4902 126.041 89.9214 126.873 88.4495 127.638C88.3599 127.915 88.2814 128.18 88.2148 128.432C89.5714 128.358 91.2587 128.232 92.9136 128.02C94.2138 127.065 95.7639 125.809 97.5907 124.213C97.4118 124.117 97.1878 124.011 96.9197 123.896ZM98.5155 123.397C98.5041 123.389 98.4925 123.382 98.4808 123.374L98.5775 123.342L98.5155 123.397ZM98.5635 124.924C97.3858 125.957 96.3162 126.856 95.3483 127.63C96.135 127.472 96.8532 127.29 97.4578 127.079C98.1726 126.83 98.6699 126.561 98.946 126.296C99.0783 126.169 99.1392 126.062 99.1643 125.979C99.1872 125.903 99.1914 125.812 99.1478 125.686C99.0821 125.497 98.9116 125.242 98.5635 124.924ZM90.8354 129.424C89.8013 129.516 88.821 129.579 87.9856 129.622C87.9652 129.893 87.9853 130.088 88.0268 130.216C88.0554 130.305 88.0883 130.345 88.1102 130.364C88.1306 130.382 88.1693 130.408 88.2533 130.422C88.4457 130.454 88.8071 130.414 89.4033 130.168C89.8036 130.004 90.2789 129.759 90.8354 129.424ZM87.0035 128.429C87.0077 128.411 87.0119 128.393 87.0163 128.376L86.7732 128.5L86.9319 128.493L86.9886 128.491C86.9935 128.47 86.9984 128.45 87.0035 128.429ZM83.9958 128.578C85.0898 128.038 86.2525 127.45 87.4868 126.812L87.4872 126.811C85.4311 127.489 83.3276 128.061 81.1827 128.523L81.2134 128.657C81.8796 128.639 82.5014 128.621 83.0624 128.605L83.0654 128.605L83.0661 128.605L83.0662 128.605C83.3986 128.595 83.7096 128.586 83.9958 128.578ZM47.9723 5.35919C48.0139 5.48812 48.034 5.68277 48.0135 5.95422C47.1778 5.99749 46.1971 6.06045 45.1626 6.15199C45.7196 5.81663 46.1952 5.5721 46.5959 5.40717C47.192 5.16176 47.5534 5.12167 47.7458 5.15382C47.8298 5.16786 47.8685 5.1933 47.889 5.2115C47.9108 5.23094 47.9438 5.27086 47.9723 5.35919ZM47.7842 7.14378C46.4274 7.21863 44.7397 7.3446 43.0845 7.55613C41.7845 8.51123 40.2345 9.76701 38.4081 11.363C38.587 11.4592 38.8111 11.5654 39.0795 11.6806C40.2742 11.2825 41.5526 10.8593 42.8363 10.44C44.5072 9.53539 46.0769 8.70255 47.5496 7.93799C47.6392 7.66061 47.7176 7.39563 47.7842 7.14378ZM38.5413 8.49733C39.1457 8.28673 39.8636 8.10394 40.6499 7.94626C39.6821 8.72009 38.6127 9.61903 37.4353 10.6523C37.0874 10.3342 36.917 10.0788 36.8514 9.88994C36.8077 9.76434 36.8119 9.67348 36.8348 9.59758C36.8599 9.51432 36.9209 9.40736 37.0531 9.28022C37.3292 9.01476 37.8265 8.74641 38.5413 8.49733ZM37.4206 12.235L37.4833 12.1791C37.4948 12.1868 37.5064 12.1945 37.5183 12.2022L37.4206 12.235ZM33.005 18.1822C35.449 16.4555 38.0259 14.9044 40.7173 13.5473C41.7293 13.8898 42.9203 14.2573 44.2397 14.6399C44.3368 14.668 44.4346 14.6963 44.5332 14.7246C43.3126 17.0737 41.8567 19.6436 40.2951 22.2727C37.4848 22.4335 34.7378 22.5593 32.2719 22.6301C32.3192 22.3917 32.365 22.1557 32.4092 21.9224C32.6619 20.5883 32.8656 19.3307 33.005 18.1822ZM41.7105 22.1891C43.1731 19.7068 44.5361 17.2815 45.6878 15.0516C48.0283 15.7049 50.6881 16.3932 53.4436 17.0707C51.7391 18.6391 49.9818 20.2125 48.2447 21.7402C46.1563 21.8997 43.9808 22.0503 41.8152 22.1827L41.7105 22.1891ZM54.7015 17.5096L54.8146 17.405C55.1933 17.4966 55.573 17.5878 55.9533 17.6786C57.4645 18.0394 58.9861 18.3934 60.4824 18.7334C58.6518 19.5793 56.8618 20.3902 55.1703 21.147C53.6452 21.2941 51.965 21.4427 50.1945 21.5865C51.6347 20.3091 53.0779 19.0078 54.4832 17.7113C54.5561 17.6441 54.6288 17.5768 54.7015 17.5096ZM58.8992 20.7533C60.0334 20.2363 61.1929 19.7023 62.3631 19.1562C63.4682 19.402 64.5504 19.638 65.5946 19.8611C64.3435 20.0211 63.1754 20.1668 62.116 20.2975L62.0965 20.2999L62.0773 20.3035C61.3774 20.4376 60.2837 20.5907 58.8992 20.7533ZM90.0847 22.9061C92.2169 23.2221 94.3941 23.5266 96.5461 23.8011C95.205 21.2708 93.9273 18.79 92.8289 16.5589C90.512 17.1018 87.9559 17.6161 85.306 18.097L85.3548 18.1469C86.936 19.7635 88.5392 21.3753 90.0847 22.9061ZM97.9718 23.9788C100.839 24.3277 103.629 24.6145 106.175 24.7946C106.111 24.4137 106.051 24.0409 105.993 23.6773C105.771 22.2751 105.592 21.0039 105.471 19.9188C103.192 18.1393 100.782 16.5186 98.2587 15.0736C97.1344 15.4439 95.8755 15.8014 94.5212 16.1461C94.3493 16.1898 94.1757 16.2334 94.0005 16.2768C95.1717 18.6471 96.5411 21.2936 97.9718 23.9788ZM108.461 24.9299C109.433 24.9748 110.35 24.9993 111.203 25.0012C109.797 23.5881 108.323 22.2437 106.785 20.9734C106.887 21.7446 107.011 22.5892 107.154 23.4933C107.225 23.9397 107.3 24.4001 107.38 24.8729C107.746 24.8944 108.107 24.9135 108.461 24.9299ZM116.979 24.2051C116.836 24.3328 116.555 24.4743 116.086 24.5931C115.687 23.8177 115.096 22.6999 114.397 21.4748C115.287 22.0468 115.936 22.5427 116.378 22.9659C116.843 23.4116 117.026 23.7259 117.075 23.9149C117.096 23.9973 117.088 24.043 117.08 24.0691C117.071 24.097 117.048 24.1432 116.979 24.2051ZM110.754 17.8967C110.828 18.0003 110.902 18.1053 110.977 18.2114C109.715 17.5722 108.268 16.8826 106.62 16.1398C106.778 15.4915 106.975 15.14 107.149 14.9703C107.244 14.8774 107.328 14.8425 107.406 14.8309C107.493 14.8183 107.615 14.8279 107.787 14.8935C108.144 15.0305 108.599 15.3664 109.128 15.9073C109.648 16.4381 110.198 17.1231 110.754 17.8967ZM103.294 15.9634C102.212 15.4993 101.057 15.0161 99.8274 14.5132C99.7986 14.5245 99.7696 14.5357 99.7405 14.5469L99.7095 14.5589C101.653 15.7143 103.528 16.973 105.328 18.3273C105.325 18.288 105.323 18.249 105.321 18.2104C105.319 18.1771 105.317 18.144 105.315 18.1112C104.63 17.3818 103.996 16.7088 103.447 16.1259L103.444 16.1228L103.441 16.1193L103.434 16.112L103.294 15.9634ZM95.1551 11.3875C96.8166 12.0331 98.3738 12.652 99.8309 13.2449C100.053 13.1527 100.264 13.0602 100.464 12.9675C99.5262 12.0048 98.2095 10.6982 96.8147 9.45867C95.1503 9.09785 93.0847 8.74501 90.5698 8.40596C90.5955 8.49835 90.6249 8.59743 90.6582 8.7031C92.0485 9.52684 93.6061 10.4539 95.1551 11.3875ZM44.567 13.5108C44.7354 13.5596 44.906 13.6087 45.0787 13.6581C45.1151 13.5855 45.1513 13.5133 45.1873 13.4413C45.6015 12.6113 45.9788 11.8191 46.3136 11.072C44.9299 11.602 43.5704 12.1812 42.2374 12.8073C42.9497 13.0329 43.7303 13.2682 44.567 13.5108ZM49.2247 7.0765C49.1553 7.07915 49.0838 7.08198 49.0103 7.08497C49.0014 7.123 48.9923 7.16129 48.9828 7.19984L49.2247 7.0765ZM48.5123 8.76337C49.7461 8.12575 50.9085 7.53817 52.0021 6.99827C52.2886 6.99013 52.6001 6.98116 52.9331 6.97157C53.495 6.95539 54.118 6.93745 54.7857 6.91875L54.8723 7.29808C52.6695 7.77553 50.5103 8.37002 48.4016 9.07474C48.4397 8.96978 48.4766 8.86598 48.5123 8.76337ZM34.4555 123.183C34.114 123.403 33.92 123.595 33.8301 123.742C33.7819 123.822 33.7732 123.873 33.7727 123.902C33.7723 123.929 33.7784 123.975 33.8226 124.048C33.924 124.215 34.1905 124.462 34.7658 124.753C35.2585 125.002 35.9287 125.259 36.8025 125.518C35.8874 124.645 35.071 123.82 34.4555 123.183ZM41.0483 127.682C41.0769 127.704 41.1054 127.726 41.1339 127.748C41.8859 128.333 42.608 128.834 43.2566 129.196C43.9177 129.564 44.4486 129.758 44.8305 129.788C45.0133 129.802 45.1338 129.777 45.2127 129.74C45.2846 129.707 45.3553 129.649 45.4202 129.533C45.5316 129.334 45.6171 128.975 45.6004 128.379C43.8926 128.153 42.3796 127.92 41.0483 127.682ZM52.5307 127.971C51.2357 127.848 50.0168 127.722 48.871 127.593L48.3338 127.276L48.3336 127.276C47.7335 126.922 47.0524 126.519 46.3181 126.085C46.3055 126.049 46.2927 126.012 46.2797 125.976C48.3215 126.742 50.4145 127.404 52.5522 127.955L52.5307 127.971ZM38.9788 121.343C40.6557 122.258 42.3804 123.096 44.1482 123.853C43.813 123.094 43.4274 122.258 43.0004 121.361C42.848 121.041 42.6905 120.714 42.5283 120.38C42.2712 120.443 42.0177 120.506 41.7678 120.569C40.7688 120.824 39.8351 121.082 38.9788 121.343ZM43.6995 120.101C43.8231 120.357 43.9439 120.608 44.0617 120.856C44.709 122.215 45.2672 123.447 45.7023 124.493C48.3112 125.525 51.0086 126.382 53.7798 127.049C54.7949 126.337 55.9619 125.594 57.236 124.836C57.3289 124.78 57.4224 124.725 57.5166 124.669C55.7743 122.76 53.7671 120.642 51.684 118.496C48.8671 118.997 46.1491 119.534 43.6995 120.101ZM87.2725 112.694C86.2116 112.776 85.1738 112.86 84.172 112.946C85.2301 112.48 86.2218 112.047 87.128 111.652L87.1459 111.644L87.1633 111.635C87.7764 111.318 88.7386 110.879 89.9628 110.353C89.0798 111.115 88.1796 111.898 87.2725 112.694ZM95.0129 112.166C94.7131 112.184 94.4127 112.202 94.1122 112.22C92.4783 112.32 90.8355 112.43 89.2262 112.547C90.6856 111.276 92.1154 110.049 93.4709 108.896C94.8982 108.318 96.4776 107.694 98.1469 107.048C97.1192 108.691 96.0951 110.358 95.1066 112.009L95.0129 112.166ZM103.969 111.763C101.65 111.827 99.0766 111.94 96.4322 112.085C97.5869 110.167 98.7853 108.233 99.9773 106.345C101.864 105.626 103.831 104.891 105.797 104.174C105.099 106.818 104.47 109.394 103.969 111.763ZM104.932 112.915C104.867 113.239 104.804 113.558 104.745 113.872C104.547 114.916 104.383 115.899 104.256 116.809C105.91 115.583 107.499 114.276 109.018 112.892C108.174 112.879 107.234 112.879 106.219 112.893C105.802 112.898 105.372 112.906 104.932 112.915ZM110.24 111.749C109.098 111.705 107.729 111.697 106.203 111.717C105.869 111.722 105.527 111.727 105.177 111.734C105.713 109.23 106.391 106.493 107.143 103.686C110.043 102.64 112.892 101.652 115.426 100.827C115.439 100.956 115.453 101.084 115.467 101.211C115.632 102.695 115.825 104.074 116.055 105.299C114.271 107.586 112.327 109.741 110.24 111.749ZM112.112 113.059C110.942 113.876 109.661 114.769 108.372 115.657C106.8 117.22 105.333 118.651 103.965 119.956C103.962 120.07 103.96 120.182 103.959 120.291C105.206 119.854 107.005 119.189 108.79 118.414C109.835 117.029 111.043 115.273 112.43 113.101C112.332 113.086 112.225 113.072 112.112 113.059ZM113.611 113.435C112.659 114.935 111.785 116.249 110.986 117.389C111.072 117.345 111.157 117.302 111.241 117.258C112.086 116.819 112.843 116.373 113.443 115.935C114.054 115.488 114.452 115.087 114.639 114.752C114.728 114.592 114.755 114.472 114.755 114.385C114.755 114.306 114.733 114.218 114.654 114.11C114.514 113.918 114.205 113.679 113.611 113.435ZM107.259 120.318C105.999 120.815 104.845 121.229 104.012 121.518C104.065 121.97 104.163 122.253 104.265 122.407C104.317 122.484 104.359 122.514 104.386 122.526C104.41 122.538 104.454 122.552 104.539 122.543C104.733 122.522 105.07 122.385 105.577 121.986C106.041 121.621 106.599 121.076 107.259 120.318ZM100.74 121.375C101.402 120.763 102.092 120.116 102.81 119.433C102.813 119.378 102.816 119.323 102.82 119.268C101.168 120.388 99.459 121.43 97.6987 122.389L97.702 122.395C98.5867 122.099 99.4047 121.824 100.119 121.584L100.74 121.375ZM83.2611 7.7652C83.3312 7.71149 83.4003 7.65799 83.4684 7.60471C84.7639 7.72806 85.9833 7.85432 87.1295 7.98311L87.6447 8.2873L87.645 8.28752L87.6604 8.29659L87.6627 8.29791L87.6655 8.29958L87.6664 8.30015C88.2664 8.65436 88.9472 9.0563 89.6812 9.49078C89.7164 9.59202 89.7536 9.6959 89.7926 9.80227C87.6682 9.00762 85.4886 8.32616 83.2611 7.7652ZM94.9246 7.87349L94.952 7.89486C93.6204 7.6563 92.107 7.42325 90.3988 7.19716C90.3821 6.60079 90.4676 6.24153 90.5791 6.04218C90.644 5.92612 90.7146 5.86888 90.7866 5.83557C90.8655 5.79903 90.9859 5.7735 91.1688 5.78788C91.5506 5.81788 92.0816 6.01127 92.7426 6.38003C93.3912 6.74185 94.1133 7.24273 94.8653 7.82728L94.9246 7.87349ZM101.544 12.3924C100.929 11.7558 100.113 10.9308 99.1977 10.0581C100.071 10.3174 100.741 10.5742 101.233 10.8232C101.809 11.114 102.075 11.3614 102.176 11.5281C102.221 11.6008 102.227 11.6468 102.226 11.6741C102.226 11.7034 102.217 11.7544 102.169 11.8337C102.079 11.9815 101.885 12.1727 101.544 12.3924ZM91.9427 11.9293C93.6156 12.6437 95.2499 13.4309 96.8417 14.2869C96.0346 14.5299 95.1613 14.7702 94.2313 15.0068C93.9816 15.0704 93.7282 15.1336 93.4712 15.1964C93.3089 14.8621 93.1513 14.5346 92.9989 14.2145C92.6103 13.3984 92.2559 12.6327 91.9427 11.9293ZM91.9375 14.7199C92.0554 14.9674 92.1763 15.2192 92.3 15.4751C89.8505 16.0424 87.1326 16.5795 84.3157 17.0805C82.2326 14.9345 80.2253 12.816 78.483 10.9067C78.577 10.8512 78.6704 10.7958 78.7631 10.7406C79.9515 10.0329 81.0466 9.33955 82.0122 8.67158C84.8864 9.34556 87.6821 10.2234 90.3833 11.2889C90.8049 12.2894 91.3323 13.449 91.9375 14.7199ZM51.8271 22.6303C50.8251 22.7158 49.7871 22.8001 48.7259 22.8822C47.8186 23.6785 46.9182 24.4614 46.035 25.2237C47.2598 24.6972 48.2225 24.2579 48.8358 23.9408L48.8532 23.9318L48.8711 23.924C49.7773 23.5294 50.769 23.0961 51.8271 22.6303ZM41.8869 23.356C41.5863 23.3744 41.2858 23.3925 40.9858 23.4101L40.8925 23.5661C39.9038 25.2179 38.8796 26.8852 37.8517 28.5282C39.5207 27.8825 41.0998 27.2585 42.5269 26.6811C43.8826 25.5277 45.3126 24.2999 46.7722 23.0288C45.1631 23.1458 43.5206 23.2562 41.8869 23.356ZM39.5666 23.491C36.9223 23.6366 34.3488 23.7497 32.0297 23.8129C31.5294 26.1826 30.9004 28.7586 30.2019 31.4021C32.1683 30.685 34.1351 29.9505 36.0213 29.2312C37.2133 27.3437 38.4118 25.4095 39.5666 23.491ZM31.2542 21.7036C31.1946 22.0178 31.1322 22.337 31.067 22.6608C30.6267 22.6704 30.1974 22.6781 29.7805 22.6836C28.9166 22.695 28.1077 22.6972 27.3656 22.689C28.7509 21.4411 30.1938 20.2559 31.69 19.1379C31.5716 19.942 31.4254 20.7999 31.2542 21.7036ZM29.796 23.8591C28.4288 23.8771 27.1878 23.8723 26.1232 23.8398C23.9198 25.938 21.8736 28.1999 20.0041 30.6058C20.2079 31.7469 20.3822 33.0118 20.5318 34.3645C20.5459 34.4918 20.5597 34.6199 20.5734 34.7489C23.1073 33.9239 25.9563 32.9358 28.8555 31.8904C29.6078 29.0832 30.2862 26.3462 30.8217 23.8418C30.4725 23.8489 30.1303 23.8546 29.796 23.8591ZM27.6251 19.9207C26.3373 20.8085 25.0568 21.7001 23.8875 22.5176C23.7736 22.504 23.6673 22.4898 23.5686 22.4749C24.9555 20.3029 26.1636 18.5476 27.208 17.1625C28.9933 16.387 30.7932 15.7225 32.0401 15.2847C32.0392 15.3939 32.0372 15.5055 32.0339 15.6195C30.6654 16.9256 29.1975 18.3569 27.6251 19.9207ZM25.0127 18.1876C24.2137 19.3276 23.3401 20.641 22.3875 22.1411C21.7941 21.8969 21.4849 21.6579 21.3449 21.4658C21.2666 21.3583 21.2441 21.2702 21.2439 21.1909C21.2437 21.104 21.2709 20.9839 21.3604 20.8238C21.5473 20.4894 21.9449 20.0879 22.5562 19.6415C23.156 19.2036 23.9129 18.7569 24.7582 18.3181C24.8423 18.2745 24.9272 18.231 25.0127 18.1876ZM31.987 14.0582C31.154 14.3468 29.9999 14.7612 28.7392 15.2582C29.3994 14.5003 29.9579 13.9546 30.4224 13.5894C30.9292 13.191 31.2661 13.054 31.46 13.0326C31.5446 13.0232 31.5888 13.0372 31.6134 13.0491C31.6398 13.0619 31.6823 13.0913 31.7338 13.1686C31.8365 13.3226 31.9339 13.6057 31.987 14.0582ZM33.1887 16.1431C33.9073 15.46 34.5969 14.8131 35.2584 14.201L35.8804 13.9921L35.8807 13.992C36.5947 13.752 37.4127 13.4771 38.2974 13.1811L38.4303 13.4193C36.6158 14.4086 34.8561 15.4858 33.1571 16.6454C33.1696 16.4745 33.1802 16.3071 33.1887 16.1431ZM51.5044 130.505C51.282 130.776 51.1682 130.989 51.1277 131.142C51.104 131.232 51.1102 131.283 51.1181 131.312C51.1254 131.338 51.1443 131.38 51.2074 131.437C51.3519 131.568 51.6777 131.73 52.3119 131.846C52.8093 131.936 53.4512 131.991 54.2557 132C53.2175 131.463 52.265 130.937 51.5044 130.505ZM58.9703 132.891C59.8226 133.227 60.6246 133.494 61.3243 133.655C62.0618 133.826 62.6256 133.864 63.0008 133.786C63.1804 133.749 63.289 133.691 63.3546 133.634C63.4144 133.582 63.4664 133.507 63.4964 133.378C63.5454 133.166 63.5317 132.823 63.3738 132.301C61.7336 132.555 60.2696 132.75 58.9703 132.891ZM55.3465 127.404C57.1076 127.779 58.8968 128.077 60.7106 128.296C60.1733 127.655 59.5645 126.952 58.8978 126.202C58.7105 125.991 58.5187 125.777 58.3228 125.559C58.1592 125.655 57.9974 125.75 57.8375 125.846C56.9373 126.382 56.103 126.903 55.3465 127.404ZM99.1927 105.386C98.2004 105.766 97.231 106.141 96.2966 106.507C97.143 105.795 97.9383 105.13 98.6679 104.522L98.6829 104.51L98.697 104.496C99.2052 104.011 100.025 103.304 101.078 102.436C100.457 103.399 99.8263 104.385 99.1927 105.386ZM106.168 102.789C105.997 102.85 105.826 102.912 105.655 102.975C104.105 103.539 102.55 104.116 101.029 104.689C102.051 103.087 103.058 101.534 104.017 100.07C105.159 99.1669 106.419 98.1867 107.753 97.1638C107.208 99.0303 106.673 100.921 106.168 102.789ZM115.307 99.6298C112.921 100.403 110.251 101.323 107.519 102.302C108.099 100.186 108.713 98.0488 109.333 95.9585C111.066 94.6427 112.888 93.281 114.712 91.9417L114.815 91.8664C114.926 94.5965 115.085 97.2347 115.307 99.6298ZM116.569 100.459C116.591 100.669 116.613 100.877 116.636 101.082C116.752 102.133 116.882 103.117 117.027 104.02C118.13 102.527 119.167 100.981 120.133 99.3874C119.321 99.6136 118.422 99.8806 117.454 100.181C117.165 100.271 116.87 100.364 116.569 100.459ZM120.981 97.9436C119.875 98.2259 118.562 98.6063 117.106 99.0585C116.892 99.125 116.674 99.1931 116.454 99.2627C116.225 96.7328 116.066 93.9298 115.958 91.03C118.323 89.3078 120.65 87.6548 122.746 86.2223C122.802 86.3581 122.857 86.4928 122.913 86.6263C123.484 88.0034 124.054 89.271 124.616 90.382C123.576 92.9966 122.359 95.522 120.981 97.9436ZM122.563 97.5798L122.526 97.5872C123.562 95.6917 124.501 93.7363 125.338 91.7274L125.376 91.7934C125.097 92.9539 124.826 94.0496 124.56 95.0828L124.141 95.608L124.137 95.6124L124.137 95.6124L124.127 95.6256C123.664 96.2046 123.135 96.8661 122.563 97.5798ZM123.206 98.6576C122.223 99.8836 121.127 101.245 120.026 102.597C119.178 104.106 118.37 105.522 117.598 106.847C117.668 107.116 117.739 107.37 117.814 107.608C118.907 106.808 120.345 105.717 121.721 104.549C122.305 102.977 122.936 101.009 123.616 98.5982C123.493 98.6129 123.356 98.6327 123.206 98.6576ZM124.832 98.6172C124.38 100.234 123.948 101.662 123.535 102.916C124.21 102.264 124.8 101.629 125.245 101.046C125.705 100.445 125.972 99.9468 126.056 99.5731C126.096 99.3942 126.088 99.2713 126.063 99.188C126.041 99.1121 125.994 99.0339 125.889 98.9531C125.713 98.8192 125.387 98.6879 124.832 98.6172ZM120.781 106.833C119.842 107.573 118.953 108.235 118.242 108.751C118.401 109.081 118.552 109.28 118.678 109.383C118.75 109.441 118.799 109.457 118.828 109.462C118.855 109.466 118.902 109.466 118.98 109.432C119.159 109.355 119.441 109.126 119.809 108.596C120.105 108.17 120.429 107.59 120.781 106.833ZM116.812 108.33C116.802 108.3 116.792 108.27 116.782 108.24L116.669 108.431L116.714 108.4L116.812 108.33ZM114.309 110.082C114.851 109.19 115.417 108.244 116.006 107.242C114.711 108.818 113.339 110.329 111.898 111.77L111.9 111.772C112.696 111.215 113.431 110.699 114.069 110.25L114.074 110.247L114.078 110.244L114.309 110.082ZM74.675 1.92011C75.375 2.08168 76.1773 2.34909 77.03 2.68514C75.7306 2.82594 74.2662 3.02102 72.6256 3.27516C72.4676 2.7533 72.4538 2.40934 72.5028 2.19776C72.5329 2.06823 72.5848 1.99357 72.6447 1.94156C72.7103 1.8845 72.8189 1.82646 72.9985 1.78938C73.3736 1.71192 73.9374 1.7499 74.675 1.92011ZM84.4951 5.07049C83.7347 4.6388 82.7825 4.1134 81.7447 3.57653C82.5486 3.58555 83.1901 3.64011 83.6872 3.73065C84.3214 3.84616 84.6472 4.00766 84.7917 4.13867C84.8548 4.19586 84.8737 4.23818 84.8811 4.26455C84.8889 4.29273 84.8951 4.3441 84.8714 4.43383C84.8309 4.58691 84.7172 4.79964 84.4951 5.07049ZM75.4858 7.51385C77.154 7.71661 78.8014 7.98688 80.4252 8.32188C79.7299 8.77697 78.9725 9.24764 78.1616 9.73058C78.0019 9.82571 77.8402 9.92123 77.6768 10.0171C77.4808 9.7992 77.2889 9.58465 77.1015 9.37374C76.515 8.71376 75.9734 8.09081 75.4858 7.51385ZM39.7012 29.0699C38.7671 29.4356 37.7979 29.8106 36.8059 30.19C36.1725 31.1908 35.5417 32.1773 34.9213 33.1401C35.9744 32.2713 36.7939 31.5641 37.3021 31.0795L37.3162 31.066L37.3313 31.0535C38.0604 30.4454 38.8553 29.7808 39.7012 29.0699ZM30.3437 32.6016C30.1728 32.6638 30.002 32.7258 29.8313 32.7877C29.3258 34.6549 28.7907 36.5455 28.2462 38.4118C29.58 37.3889 30.8403 36.4087 31.9826 35.5061C32.9409 34.0418 33.9474 32.4888 34.9697 30.8873C33.4491 31.4608 31.8935 32.0376 30.3437 32.6016ZM28.4802 33.2744C25.7484 34.2528 23.0778 35.1733 20.6922 35.9463C20.9146 38.3413 21.0733 40.9793 21.1846 43.7092L21.2873 43.6338C23.1109 42.2946 24.9329 40.9329 26.6663 39.6171C27.2859 37.527 27.9003 35.3898 28.4802 33.2744ZM19.3634 34.4937C19.3861 34.6991 19.4082 34.9069 19.4299 35.1168C19.1292 35.2124 18.834 35.3052 18.5447 35.395C17.7085 35.6547 16.9236 35.8894 16.2018 36.0943C17.0861 34.6553 18.0287 33.2559 19.0261 31.8994C19.1495 32.7067 19.2617 33.5744 19.3634 34.4937ZM18.8934 36.5177C17.5742 36.9274 16.3718 37.2783 15.3346 37.5506C13.8786 40.0749 12.5987 42.7135 11.5116 45.4497C12.032 46.4979 12.5589 47.6769 13.0867 48.9493C13.142 49.0828 13.1975 49.2174 13.2529 49.3532C15.3491 47.9207 17.6762 46.2677 20.0407 44.5455C19.9328 41.646 19.7737 38.8432 19.5453 36.3134C19.325 36.383 19.1076 36.4511 18.8934 36.5177ZM13.7713 37.9274C13.6564 37.952 13.5444 37.975 13.4353 37.9964C12.8593 38.7153 12.3272 39.3812 11.8621 39.9632L11.862 39.9632L11.8618 39.9635L11.4387 40.4928C11.1735 41.5259 10.9018 42.6216 10.6235 43.782C10.681 43.8818 10.7387 43.9835 10.7965 44.087C11.6769 41.972 12.671 39.9163 13.7713 37.9274ZM15.9731 32.979C14.8722 34.3312 13.776 35.6925 12.7927 36.9186C12.643 36.9435 12.5063 36.9633 12.3826 36.978C13.0625 34.567 13.694 32.5996 14.2781 31.0275C15.6543 29.8597 17.0924 28.7677 18.1857 27.9676C18.2598 28.2064 18.3315 28.4602 18.4008 28.7282C17.6296 30.0537 16.8208 31.4694 15.9731 32.979ZM12.464 32.6602C12.0509 33.914 11.6187 35.3427 11.167 36.9589C10.6116 36.8882 10.2857 36.757 10.1106 36.623C10.005 36.5422 9.95843 36.4641 9.93573 36.3881C9.91084 36.3048 9.90277 36.182 9.94311 36.003C10.0273 35.6294 10.2946 35.1315 10.7539 34.5299C11.1991 33.9469 11.7887 33.3124 12.464 32.6602ZM17.7574 26.825C17.046 27.3415 16.1568 28.0035 15.2179 28.7435C15.5697 27.9864 15.8944 27.4057 16.1905 26.9795C16.5583 26.4501 16.8402 26.2204 17.0193 26.1431C17.0975 26.1093 17.1438 26.1097 17.1709 26.1139C17.1998 26.1184 17.2491 26.1341 17.321 26.1928C17.4469 26.2958 17.5981 26.4952 17.7574 26.825ZM19.217 27.3353C19.207 27.3053 19.197 27.2756 19.1869 27.246C19.2363 27.211 19.2838 27.1773 19.3294 27.1451L19.217 27.3353ZM19.6562 28.9091C20.3672 27.6922 21.0446 26.5551 21.6897 25.4943L21.9251 25.329C22.565 24.8797 23.3017 24.3624 24.0995 23.8039L24.287 23.9877C22.6662 25.6037 21.1344 27.3088 19.6994 29.0951C19.6852 29.0326 19.6708 28.9706 19.6562 28.9091ZM108.315 95.2551C107.536 95.848 106.775 96.4312 106.04 96.9986C106.665 96.0553 107.254 95.1731 107.793 94.3669L107.804 94.3506L107.813 94.3337C108.13 93.7854 108.637 92.9924 109.294 92.0134C108.97 93.0729 108.642 94.1568 108.315 95.2551ZM114.761 90.4483C114.513 90.6297 114.264 90.8118 114.016 90.9942C112.634 92.0092 111.25 93.0392 109.902 94.054C110.454 92.2268 111.002 90.4536 111.527 88.7827C112.456 87.4663 113.503 86.0118 114.619 84.4837C114.647 86.4032 114.69 88.3404 114.754 90.2459L114.761 90.4483ZM122.298 85.1049C120.323 86.4505 118.139 87.9956 115.91 89.6122C115.84 87.3885 115.798 85.1281 115.776 82.9091C117.017 81.2286 118.32 79.4886 119.631 77.768L119.647 77.7478C120.519 80.3514 121.412 82.8543 122.298 85.1049ZM123.741 85.5476C123.827 85.7598 123.913 85.9693 123.998 86.1759C124.402 87.1497 124.801 88.0553 125.191 88.88C125.836 87.1235 126.403 85.329 126.886 83.5008C126.175 83.9429 125.394 84.4472 124.557 85.0022C124.29 85.1791 124.018 85.3611 123.741 85.5476ZM127.291 81.8786C126.314 82.4577 125.168 83.1866 123.907 84.0225C123.707 84.1556 123.503 84.2916 123.296 84.4301C122.366 82.0504 121.427 79.3879 120.51 76.6193C122.321 74.26 124.117 71.9779 125.748 69.9826C125.832 70.0877 125.916 70.1918 126 70.2951C126.925 71.4376 127.818 72.4784 128.662 73.3759C128.403 76.2734 127.942 79.1124 127.291 81.8786ZM129.624 81.9385C129.077 83.2699 128.474 84.731 127.861 86.1945C127.438 88.1302 127.027 89.9314 126.63 91.6044C126.733 91.7752 126.836 91.9381 126.938 92.0927C127.762 91.0211 128.847 89.5575 129.853 88.0347C129.974 86.3534 130.029 84.2781 130.007 81.7624C129.891 81.8125 129.763 81.8712 129.624 81.9385ZM131.179 81.4342C131.198 83.1271 131.183 84.6325 131.137 85.9627L131.143 85.9517C131.616 85.1249 132.011 84.3395 132.278 83.6465C132.55 82.9401 132.666 82.3873 132.642 82.005C132.631 81.8219 132.589 81.7063 132.542 81.6333C132.498 81.5667 132.432 81.5048 132.308 81.4569C132.1 81.3765 131.744 81.3421 131.179 81.4342ZM129.593 90.4864C128.886 91.4781 128.207 92.3761 127.666 93.0733C127.918 93.3568 128.125 93.5112 128.278 93.5763C128.363 93.6126 128.415 93.6139 128.444 93.6101C128.471 93.6066 128.515 93.594 128.581 93.5398C128.732 93.4155 128.938 93.1163 129.143 92.5052C129.312 92.0027 129.465 91.3371 129.593 90.4864ZM29.9592 38.577C29.2244 39.1444 28.4632 39.7276 27.6837 40.3205C27.357 41.4187 27.0294 42.5027 26.7051 43.5622C27.3621 42.5832 27.8696 41.7902 28.1856 41.2419L28.1954 41.225L28.2063 41.2087C28.7454 40.4025 29.3337 39.5203 29.9592 38.577ZM21.9831 44.5813C21.7346 44.7638 21.4862 44.9458 21.2379 45.1273L21.2448 45.3297C21.3092 47.2352 21.3524 49.1724 21.3797 51.0919C22.4966 49.5637 23.5427 48.1093 24.4723 46.7929C24.997 45.122 25.5453 43.3487 26.0966 41.5216C24.7492 42.5364 23.3652 43.5664 21.9831 44.5813ZM20.0893 45.9634C17.8598 47.58 15.676 49.125 13.701 50.4706C14.5872 52.7212 15.48 55.2241 16.3524 57.8277L16.3677 57.8076C17.6787 56.087 18.9825 54.347 20.2231 52.6665C20.2009 50.4475 20.1591 48.1871 20.0893 45.9634ZM12.0008 49.3997C12.0865 49.6063 12.1724 49.8157 12.2583 50.0279C11.9811 50.2145 11.7088 50.3964 11.442 50.5734C10.6988 51.0663 9.99934 51.5192 9.35422 51.9241C9.81137 50.2401 10.339 48.5851 10.9339 46.9625C11.2837 47.7145 11.64 48.5299 12.0008 49.3997ZM12.0917 51.5531C10.9273 52.3253 9.86059 53.0062 8.93408 53.5621C8.24355 56.42 7.7548 59.3567 7.48377 62.3561C8.28391 63.2174 9.12779 64.2037 9.99933 65.2805C10.0829 65.3837 10.1668 65.4879 10.2509 65.5929C11.8818 63.5976 13.6779 61.3155 15.4893 58.9562C14.5724 56.1875 13.6329 53.5251 12.7029 51.1454C12.4963 51.284 12.2925 51.4199 12.0917 51.5531ZM8.13793 49.3811C7.52535 50.8446 6.92182 52.3057 6.37485 53.6371C6.2362 53.7044 6.10855 53.763 5.9921 53.8131C5.97008 51.2973 6.02571 49.222 6.14636 47.5406C7.15191 46.0178 8.23712 44.5544 9.06121 43.4827C9.16299 43.6374 9.26582 43.8003 9.36961 43.971C8.97169 45.6441 8.56119 47.4453 8.13793 49.3811ZM4.86223 49.6127C4.81619 50.9429 4.80097 52.4483 4.8198 54.1414C4.25521 54.2335 3.89948 54.1991 3.69136 54.1187C3.56733 54.0708 3.50071 54.0089 3.45761 53.9423C3.41034 53.8693 3.36813 53.7537 3.35663 53.5706C3.33263 53.1883 3.4494 52.6354 3.72151 51.9291C3.98849 51.2361 4.38283 50.4507 4.85578 49.6239L4.86223 49.6127ZM8.33302 42.5022C7.79266 43.1993 7.11368 44.0973 6.40642 45.0889C6.53453 44.2383 6.687 43.5729 6.85583 43.0704C7.06115 42.4593 7.26772 42.16 7.41812 42.0358C7.48377 41.9815 7.52836 41.969 7.55551 41.9655C7.58453 41.9617 7.63626 41.963 7.72166 41.9993C7.87454 42.0644 8.08085 42.2187 8.33302 42.5022ZM114.597 82.5274C113.937 83.4236 113.295 84.3023 112.68 85.1515C112.979 84.219 113.262 83.3414 113.526 82.5306L113.532 82.512L113.536 82.493C113.725 81.7463 114.087 80.5737 114.58 79.0976C114.581 80.2206 114.586 81.3676 114.597 82.5274ZM119.199 76.3973C119.031 76.6162 118.864 76.8357 118.696 77.0555C117.708 78.3531 116.721 79.6642 115.761 80.9545C115.752 79.1336 115.755 77.3574 115.765 75.671C116.28 74.2191 116.858 72.63 117.477 70.9643C118.024 72.7462 118.59 74.5384 119.166 76.2964L119.199 76.3973ZM125.002 69.0386C123.464 70.9145 121.777 73.0499 120.067 75.2676C119.41 73.2456 118.769 71.1855 118.155 69.1546C118.872 67.2547 119.629 65.2874 120.398 63.3358C120.446 63.2153 120.493 63.095 120.541 62.9747C122.059 65.1377 123.567 67.2002 125.002 69.0386ZM126.512 69.055C126.647 69.2242 126.781 69.391 126.914 69.5555C127.563 70.3573 128.188 71.098 128.784 71.7669C128.864 70.4887 128.905 69.1998 128.905 67.9014C128.905 67.3597 128.898 66.8196 128.883 66.2812C128.338 66.8939 127.746 67.5818 127.116 68.3307C126.918 68.5664 126.717 68.808 126.512 69.055ZM128.817 64.6055C128.052 65.4293 127.173 66.4366 126.216 67.5744C126.069 67.7497 125.92 67.9283 125.769 68.1099C124.258 66.1648 122.665 63.9691 121.06 61.6666C122.153 58.93 123.249 56.2801 124.263 53.9541L124.336 54.0054L124.406 54.0544C125.601 54.8867 126.739 55.6315 127.791 56.2554C128.319 58.9783 128.665 61.7661 128.817 64.6055ZM130.12 63.2775C130.057 63.3371 129.992 63.3986 129.927 63.4621L129.924 63.4624C129.769 61.2769 129.501 59.1226 129.126 57.0055C129.161 57.0238 129.195 57.0419 129.23 57.0599L129.279 57.0854C129.697 58.2881 130.082 59.4243 130.434 60.4965C130.402 60.7807 130.367 61.0895 130.33 61.4195C130.266 61.9827 130.196 62.6077 130.12 63.2775ZM131.238 63.8479C131.06 65.4148 130.854 67.1969 130.637 68.9932C130.755 70.7601 130.854 72.42 130.933 73.9774C131.1 74.1304 131.264 74.2742 131.423 74.4083C131.911 73.1453 132.533 71.4451 133.062 69.7136C132.704 68.0727 132.173 66.0731 131.442 63.6738C131.378 63.7268 131.31 63.7848 131.238 63.8479ZM132.475 63.0316C132.969 64.6399 133.377 66.0793 133.708 67.3607C133.925 66.442 134.08 65.5847 134.14 64.85C134.201 64.0956 134.157 63.5322 134.026 63.1723C133.964 62.9999 133.89 62.9009 133.824 62.8442C133.764 62.7926 133.683 62.752 133.55 62.7411C133.33 62.7229 132.983 62.789 132.475 63.0316ZM133.505 72.1421C133.113 73.2781 132.72 74.3201 132.4 75.1399C132.715 75.3341 132.952 75.4213 133.114 75.4401C133.206 75.4508 133.256 75.4374 133.283 75.4255C133.308 75.4144 133.347 75.3898 133.395 75.3192C133.504 75.1574 133.617 74.8119 133.641 74.1676C133.66 73.6457 133.62 72.9766 133.505 72.1421ZM129.929 78.0908C129.893 76.9666 129.844 75.7741 129.782 74.5106L129.737 74.467C129.506 76.659 129.161 78.8169 128.708 80.9348L128.761 80.9456C129.106 80.1037 129.425 79.3237 129.704 78.6407L129.707 78.6331L129.708 78.6309L129.71 78.6277L129.71 78.6257L129.929 78.0908ZM23.3193 50.4241C22.7045 51.2733 22.0626 52.152 21.4023 53.0482C21.4127 54.208 21.4178 55.3549 21.4189 56.4779C21.9118 55.0019 22.2743 53.8292 22.4628 53.0826L22.4675 53.0636L22.4736 53.045C22.7366 52.2342 23.0202 51.3566 23.3193 50.4241ZM17.3028 58.5201C17.1353 58.7398 16.9678 58.9593 16.8003 59.1782L16.8334 59.2791C17.4096 61.0371 17.9751 62.8293 18.5219 64.611C19.1411 62.9455 19.7192 61.3564 20.2345 59.9046C20.2444 58.2181 20.2471 56.442 20.2378 54.6211C19.2779 55.9114 18.2914 57.2225 17.3028 58.5201ZM15.9325 60.3079C14.2223 62.5255 12.5351 64.661 10.9973 66.5369C12.4322 68.3753 13.9398 70.4378 15.4584 72.6008C15.5059 72.4805 15.5534 72.3602 15.6008 72.2398C16.3699 70.2881 17.1276 68.3207 17.8441 66.4208C17.2303 64.3899 16.589 62.3298 15.9325 60.3079ZM9.08558 66.0201C9.21869 66.1845 9.35265 66.3514 9.48739 66.5205C9.28254 66.7675 9.08089 67.0091 8.88277 67.2448C8.30347 67.9341 7.75552 68.5717 7.24691 69.1465C7.2386 68.7325 7.23442 68.3174 7.23442 67.9014C7.23442 66.581 7.27649 65.2705 7.35935 63.971C7.91172 64.5968 8.48866 65.2826 9.08558 66.0201ZM9.78268 68.0012C8.87681 69.079 8.03996 70.0398 7.30407 70.8384C7.44224 73.7453 7.78444 76.5987 8.31665 79.3848C9.33793 79.9952 10.4388 80.7174 11.593 81.5212C11.6407 81.5544 11.6886 81.5878 11.7365 81.6214C12.7499 79.2954 13.8457 76.6455 14.9387 73.9088C13.3343 71.6064 11.7407 69.4107 10.2305 67.4656C10.0794 67.6472 9.93011 67.8258 9.78268 68.0012ZM6.07211 72.1135C6.00672 72.1769 5.9424 72.2385 5.8792 72.2981C5.80321 72.9676 5.73279 73.5923 5.66933 74.1553L5.66924 74.1561C5.63206 74.486 5.59727 74.7947 5.56514 75.0788C5.91748 76.1511 6.30198 77.2874 6.72014 78.4901C6.80704 78.5351 6.89476 78.5812 6.98329 78.6284C6.6102 76.489 6.34676 74.312 6.19897 72.1032L6.07211 72.1135ZM5.36251 66.5816C5.14537 68.3782 4.93932 70.1606 4.76088 71.7278C4.68942 71.7907 4.62156 71.8487 4.55735 71.9017C3.82668 69.5023 3.29493 67.5027 2.93681 65.8617C3.46615 64.1302 4.08856 62.4302 4.57645 61.1672C4.73568 61.3013 4.89912 61.4451 5.06658 61.5982C5.14561 63.1553 5.24387 64.815 5.36251 66.5816ZM2.29155 68.2146C2.62178 69.4961 3.03058 70.9355 3.52451 72.544C3.01604 72.7866 2.66915 72.8527 2.44868 72.8345C2.31617 72.8236 2.23478 72.783 2.17464 72.7314C2.10868 72.6747 2.03553 72.5757 1.9728 72.4033C1.84183 72.0433 1.79773 71.48 1.8593 70.7255C1.91927 69.9908 2.0739 69.1334 2.29155 68.2146ZM3.59941 60.4356C3.2792 61.2553 2.88655 62.2973 2.49382 63.4332C2.37964 62.5988 2.33884 61.9298 2.35809 61.408C2.38185 60.7637 2.49517 60.4182 2.6042 60.2564C2.65178 60.1858 2.69098 60.1611 2.71603 60.1501C2.74279 60.1382 2.79276 60.1248 2.88496 60.1355C3.04756 60.1543 3.28442 60.2415 3.59941 60.4356ZM6.21712 61.065C6.15535 59.8014 6.10664 58.6088 6.07026 57.4844L6.28944 56.9482L6.28956 56.9479C6.56995 56.2618 6.89055 55.4773 7.23808 54.63L7.47186 54.6779C7.00953 56.8065 6.6565 58.9759 6.41894 61.1798L6.32262 61.1665L6.31291 61.1571C6.28089 61.1261 6.24896 61.0955 6.21712 61.065ZM9.87932 85.6996C9.40499 84.1468 8.99109 82.5677 8.64039 80.9649C9.36056 81.4208 10.1232 81.9302 10.9212 82.4859C11.0314 82.5627 11.1423 82.6403 11.2537 82.7187C11.1574 82.9354 11.062 83.1487 10.9676 83.3582C10.586 84.2054 10.2215 84.9906 9.87932 85.6996ZM126.162 49.7879C126.661 51.39 127.096 53.0205 127.463 54.6765C126.712 54.204 125.915 53.6723 125.078 53.0897C124.968 53.0129 124.857 52.9352 124.745 52.8568C124.842 52.6401 124.937 52.4269 125.031 52.2174C125.429 51.3349 125.808 50.5198 126.162 49.7879ZM5.7665 79.3258C6.35008 80.9941 6.99576 82.7839 7.70711 84.7011C7.93869 85.9992 8.17493 87.2941 8.39918 88.5096C8.25822 88.7423 8.13017 88.9388 8.01581 89.0985C6.67875 87.0344 5.64057 85.2954 4.86585 83.8495C4.8949 82.1251 5.01669 80.3898 5.13734 79.0347C5.33934 79.1225 5.54919 79.2197 5.7665 79.3258ZM15.7409 75.0675C14.706 77.6429 13.6736 80.1262 12.7158 82.3165C14.7615 83.7885 16.9674 85.4952 19.2126 87.3058C19.3802 85.1548 19.5314 82.9928 19.6616 80.9158C18.3845 78.9668 17.064 76.9903 15.7409 75.0675ZM20.7334 82.5603C20.6255 84.1848 20.5061 85.8427 20.3774 87.4901C20.3587 87.7287 20.3399 87.9671 20.3208 88.2052C21.819 89.4286 23.3274 90.6897 24.8108 91.9506C24.4201 90.2453 24.0376 88.6286 23.6782 87.1614C22.7489 85.6919 21.7597 84.1432 20.7334 82.5603ZM22.7509 83.5187C22.1357 82.5608 21.5034 81.5841 20.8592 80.5989C20.9248 79.5373 20.9849 78.4984 21.0389 77.4954C21.3288 78.5409 21.5983 79.5226 21.8445 80.4237L21.8496 80.4425L21.856 80.461C22.0878 81.1306 22.394 82.1827 22.7509 83.5187ZM25.6279 90.2655C25.8512 91.2229 26.0784 92.2147 26.3066 93.2289C27.2081 94.0034 28.0956 94.7729 28.9608 95.5286C28.286 94.428 27.7304 93.5652 27.3379 93.0161L27.3265 93.0002L27.3163 92.9835C26.8004 92.1496 26.2347 91.2376 25.6279 90.2655ZM19.7798 78.9573C18.709 77.3383 17.6146 75.7124 16.5194 74.1254C16.4345 74.0024 16.3496 73.8795 16.2647 73.757C16.4082 73.3959 16.5515 73.0336 16.6945 72.6708C17.2723 71.2046 17.8448 69.7267 18.399 68.2731C18.9775 70.2215 19.5267 72.123 20.0355 73.916C19.97 75.4594 19.8837 77.1624 19.7798 78.9573ZM3.99438 78.6218C3.69184 78.547 3.47317 78.5349 3.3278 78.5594C3.23627 78.5748 3.19201 78.6016 3.1696 78.6205C3.14863 78.6381 3.11785 78.6727 3.09179 78.7538C3.0321 78.9395 3.01941 79.3029 3.17588 79.9283C3.29013 80.3849 3.48453 80.9429 3.77215 81.6121C3.83233 80.51 3.91518 79.477 3.99438 78.6218ZM4.8996 86.3036C4.94351 87.1626 5.02569 87.9522 5.15697 88.6195C5.3031 89.3622 5.4989 89.8922 5.72291 90.2029C5.8302 90.3517 5.92753 90.4271 6.00644 90.4637C6.07837 90.497 6.16773 90.5139 6.29822 90.4884C6.50316 90.4482 6.79605 90.3051 7.18426 89.9763C6.30358 88.6234 5.54492 87.4018 4.8996 86.3036ZM8.69547 90.1367L8.70289 90.148L8.69986 90.1317L8.69547 90.1367ZM19.0846 66.4625C19.4712 65.4346 19.8455 64.4269 20.2028 63.453C20.1876 64.7422 20.1697 65.9443 20.152 67.0324L20.1516 67.052L20.1526 67.0715C20.1868 67.752 20.1884 68.7912 20.1614 70.0992C19.8147 68.9094 19.4549 67.6922 19.0846 66.4625ZM114.143 55.1146C113.911 54.4449 113.605 53.3928 113.248 52.0569C113.864 53.0147 114.496 53.9914 115.14 54.9765C115.074 56.038 115.014 57.0768 114.96 58.0798C114.67 57.0344 114.401 56.0529 114.155 55.1519L114.15 55.1331L114.143 55.1146ZM112.321 48.4142C113.25 49.8836 114.239 51.4323 115.266 53.0151C115.374 51.3906 115.493 49.7328 115.622 48.0855C115.64 47.8469 115.659 47.6084 115.678 47.3703C114.18 46.1469 112.672 44.8859 111.188 43.625C111.579 45.3303 111.962 46.947 112.321 48.4142ZM115.964 61.6592C116.029 60.1158 116.115 58.4128 116.219 56.6181C117.29 58.2371 118.385 59.8631 119.48 61.4502C119.565 61.5732 119.65 61.696 119.735 61.8185C119.591 62.1796 119.448 62.5419 119.305 62.9048C118.727 64.371 118.154 65.8487 117.6 67.3023C117.022 65.3538 116.472 63.4522 115.964 61.6592ZM116.337 54.6596C117.615 56.6086 118.935 58.5851 120.258 60.508C121.293 57.9326 122.326 55.4493 123.283 53.259C121.238 51.787 119.032 50.0803 116.786 48.2697C116.619 50.4207 116.468 52.5826 116.337 54.6596ZM128.292 50.8738C129.003 52.7913 129.649 54.5813 130.233 56.2497C130.45 56.3559 130.66 56.4531 130.862 56.5409C130.982 55.1857 131.104 53.4503 131.133 51.7258C130.359 50.2799 129.32 48.541 127.983 46.477C127.869 46.6367 127.741 46.8333 127.6 47.066C127.824 48.2813 128.06 49.5759 128.292 50.8738ZM108.683 42.5921C109.199 43.426 109.765 44.3379 110.371 45.3101C110.148 44.3527 109.921 43.3609 109.693 42.3467C108.791 41.5722 107.904 40.8027 107.038 40.047C107.713 41.1475 108.269 42.0104 108.661 42.5595L108.673 42.5754L108.683 42.5921ZM132.671 57.0162C132.526 57.0406 132.307 57.0286 132.005 56.9538C132.084 56.0985 132.167 55.0654 132.227 53.9632C132.515 54.6326 132.709 55.1906 132.823 55.6473C132.98 56.2727 132.967 56.6361 132.907 56.8218C132.881 56.9029 132.851 56.9375 132.83 56.9551C132.807 56.9739 132.763 57.0007 132.671 57.0162ZM130.842 46.9561C130.973 47.6233 131.056 48.4128 131.099 49.2717C130.454 48.1736 129.696 46.9521 128.815 45.5992C129.203 45.2705 129.496 45.1274 129.701 45.0872C129.831 45.0617 129.921 45.0786 129.993 45.1119C130.072 45.1485 130.169 45.2239 130.276 45.3727C130.5 45.6833 130.696 46.2134 130.842 46.9561ZM127.296 45.4273L127.304 45.4387L127.299 45.4439L127.296 45.4273ZM115.796 72.1226C116.154 71.1486 116.528 70.1409 116.915 69.1128C116.544 67.8831 116.184 66.6658 115.838 65.4759C115.811 66.7841 115.812 67.8235 115.847 68.5041L115.847 68.5236L115.847 68.5432C115.829 69.6313 115.811 70.8334 115.796 72.1226Z" fill="url(#paint0_linear_245_15)"/>
<defs>
<linearGradient id="paint0_linear_245_15" x1="23.4166" y1="22.78" x2="109.819" y2="119.764" gradientUnits="userSpaceOnUse">
<stop stop-color="#EAA8C4"/>
<stop offset="1" stop-color="#F9C7D0"/>
</linearGradient>
</defs>
</svg>
