<svg width="44" height="75" viewBox="0 0 44 75" fill="none" xmlns="http://www.w3.org/2000/svg">
<path d="M21.599 21.6028C23.2918 23.6663 30.6839 13.7959 30.4554 3.23359C23.3131 7.53887 19.5992 18.4457 21.599 21.6028Z" fill="#90AB9A"/>
<path d="M24.7416 6.10375C23.6575 7.1929 22.2656 9.26098 21.8847 10.122C19.3135 7.53905 22.7712 -0.151752 23.3131 0.937444C23.5989 1.51161 25.313 5.52972 24.7416 6.10375Z" fill="#90AB9A"/>
<path d="M20.742 12.1311C20.5134 11.2127 16.6471 5.62539 14.7425 2.94655C14.7425 11.2701 17.3137 18.4455 17.8851 20.1677C18.4564 21.8898 19.8849 22.1768 19.5992 21.3157C18.4564 15.8624 20.8848 12.7053 20.742 12.1311Z" fill="#90AB9A"/>
<path d="M13.314 10.122C12.1713 9.66282 7.88593 7.82588 5.88611 6.96481C8.45731 11.5571 10.1714 14.1405 14.1711 14.7143C13.8854 13.2792 13.5997 11.5571 13.314 10.122Z" fill="#90AB9A"/>
<path d="M14.7425 17.2975C13.5997 15.9198 4.74335 13.8533 0.458008 12.9922C1.31508 14.7143 10.1714 21.3157 10.4571 21.6028C10.7428 21.8898 15.8261 21.7616 16.1709 21.0287C16.576 20.1677 16.1709 19.0196 14.7425 17.2975Z" fill="#90AB9A"/>
<path d="M27.0314 19.8807C30.4597 18.7327 33.6022 14.5995 35.8877 6.10378C33.0309 7.82589 31.9222 8.58611 31.3508 9.16015C30.7795 9.73419 30.7453 14.7143 27.0314 19.8807Z" fill="#90AB9A"/>
<path d="M21.9512 26.2028C22.2198 27.9649 35.1728 27.3116 40.4869 20.4431C33.2908 19.2984 21.9512 21.3376 21.9512 26.2028Z" fill="#90AB9A"/>
<path d="M20.2983 23.1623C19.7213 26.4206 20.5868 27.2352 20.8757 28.0497C13.9513 29.1359 5.58345 25.0629 5.29492 24.5199C5.87198 24.2484 14.5275 22.0762 20.2983 23.1623Z" fill="#90AB9A"/>
<path d="M31.0811 19.1L34.9974 18.4914C37.7087 16.6655 43.6456 8.05585 43.4326 7.84068C43.1313 7.5364 38.3112 10.2751 35.5999 12.4053C35.1179 14.3528 32.8886 17.5785 31.0811 19.1Z" fill="#90AB9A"/>
<path d="M20.3369 44.6203V40.5908H25.4409V44.6203H20.3369Z" fill="#90AB9A"/>
<path d="M20.3369 39.2482V35.2188H25.4409V39.2482H20.3369Z" fill="#90AB9A"/>
<path d="M20.3369 33.8752V29.8457C22.6433 29.6078 23.739 29.2276 25.4409 28.2339V33.8752H20.3369Z" fill="#90AB9A"/>
<path d="M36.9927 56.9766H8.51758V69.0651C8.51758 70.5873 8.51758 74.1691 13.0843 74.1691H32.4259C36.9927 74.1691 36.9927 70.5873 36.9927 69.0651V56.9766Z" fill="#90AB9A"/>
<path d="M37.2176 55.6351C41.816 55.6351 41.816 52.2418 41.816 50.7997V50.7997C41.816 49.3575 41.816 45.9644 37.2177 45.9644H8.81621C4.21787 45.9644 4.21779 49.3576 4.21779 50.7997C4.21779 52.2418 4.21779 55.6351 8.81613 55.6351H37.2176Z" fill="#90AB9A"/>
</svg>
