<svg width="117" height="22" viewBox="0 0 117 22" fill="none" xmlns="http://www.w3.org/2000/svg">
<path d="M8.31913 17.06C12.3322 17.06 15.5854 13.6654 15.5854 9.47781C15.5854 7.32996 14.7296 5.3907 13.3543 4.01111C15.9086 5.18646 17.6916 7.85202 17.6916 10.9521C17.6916 15.1397 14.4384 18.5344 10.4253 18.5344C8.47059 18.5344 6.69616 17.729 5.39014 16.4188C6.28612 16.8311 7.277 17.06 8.31913 17.06Z" fill="white" fill-opacity="0.25"/>
<path fill-rule="evenodd" clip-rule="evenodd" d="M10.4255 17.6918C13.9398 17.6918 16.8493 14.7085 16.8493 10.9521C16.8493 7.19568 13.9398 4.21234 10.4255 4.21234C6.91113 4.21234 4.00165 7.19568 4.00165 10.9521C4.00165 14.7085 6.91113 17.6918 10.4255 17.6918ZM10.4255 18.5343C14.4385 18.5343 17.6918 15.1396 17.6918 10.9521C17.6918 6.76455 14.4385 3.36987 10.4255 3.36987C6.41241 3.36987 3.15918 6.76455 3.15918 10.9521C3.15918 15.1396 6.41241 18.5343 10.4255 18.5343Z" fill="white"/>
<path d="M17.7714 17.6919C17.6427 17.6919 17.521 17.7487 17.4358 17.8451C15.6802 19.8286 13.18 21.0617 10.4256 21.0617C5.1716 21.0617 0.842469 16.5751 0.842469 10.9521C0.842469 5.32911 5.1716 0.842469 10.4256 0.842469C13.0853 0.842469 15.508 1.99227 17.2521 3.85723C17.3373 3.94835 17.4558 4.00173 17.5806 4.00173C17.9471 4.00173 18.1471 3.58371 17.898 3.3148C16.004 1.27007 13.356 0 10.4256 0C4.66768 0 0 4.90342 0 10.9521C0 17.0008 4.66768 21.9042 10.4256 21.9042C13.4593 21.9042 16.1903 20.543 18.0955 18.3703C18.3331 18.0993 18.1318 17.6919 17.7714 17.6919Z" fill="white" fill-opacity="0.69"/>
<path d="M23.4417 15.3689V15.1439C23.4417 14.6077 23.5189 14.1124 23.6734 13.6579C23.8279 13.2035 24.0483 12.8104 24.3346 12.4786C24.6255 12.1469 24.9731 11.8901 25.3776 11.7084C25.782 11.522 26.2319 11.4289 26.7273 11.4289C27.2272 11.4289 27.6793 11.522 28.0838 11.7084C28.4882 11.8901 28.8359 12.1469 29.1267 12.4786C29.4176 12.8104 29.6402 13.2035 29.7948 13.6579C29.9493 14.1124 30.0265 14.6077 30.0265 15.1439V15.3689C30.0265 15.9051 29.9493 16.4005 29.7948 16.8549C29.6402 17.3048 29.4176 17.6956 29.1267 18.0274C28.8404 18.3591 28.4951 18.6182 28.0906 18.8045C27.6861 18.9863 27.2362 19.0772 26.7409 19.0772C26.241 19.0772 25.7888 18.9863 25.3844 18.8045C24.9799 18.6182 24.6323 18.3591 24.3414 18.0274C24.0506 17.6956 23.8279 17.3048 23.6734 16.8549C23.5189 16.4005 23.4417 15.9051 23.4417 15.3689ZM24.2528 15.1439V15.3689C24.2528 15.7734 24.3074 16.1574 24.4164 16.5209C24.5255 16.8799 24.6846 17.2003 24.8936 17.4821C25.1026 17.7593 25.3617 17.9774 25.6707 18.1365C25.9797 18.2955 26.3365 18.375 26.7409 18.375C27.1408 18.375 27.493 18.2955 27.7975 18.1365C28.1065 17.9774 28.3655 17.7593 28.5746 17.4821C28.7836 17.2003 28.9404 16.8799 29.0449 16.5209C29.154 16.1574 29.2085 15.7734 29.2085 15.3689V15.1439C29.2085 14.744 29.154 14.3646 29.0449 14.0056C28.9404 13.6466 28.7814 13.3262 28.5678 13.0444C28.3587 12.7627 28.0997 12.54 27.7907 12.3764C27.4816 12.2128 27.1272 12.131 26.7273 12.131C26.3274 12.131 25.9729 12.2128 25.6639 12.3764C25.3594 12.54 25.1004 12.7627 24.8868 13.0444C24.6777 13.3262 24.5187 13.6466 24.4096 14.0056C24.3051 14.3646 24.2528 14.744 24.2528 15.1439Z" fill="white"/>
<path d="M32.6237 8.47046V18.9408H31.8125V8.47046H32.6237Z" fill="white"/>
<path d="M37.7021 19.0772C37.2204 19.0772 36.7773 18.9885 36.3728 18.8113C35.9729 18.6341 35.623 18.3841 35.3231 18.0615C35.0277 17.7388 34.7982 17.3571 34.6346 16.9163C34.4755 16.4709 34.396 15.9847 34.396 15.4575V15.1644C34.396 14.5963 34.4801 14.0828 34.6482 13.6238C34.8164 13.1649 35.0481 12.7718 35.3435 12.4446C35.6389 12.1174 35.9752 11.8674 36.3524 11.6947C36.7341 11.5175 37.134 11.4289 37.5521 11.4289C38.0202 11.4289 38.436 11.513 38.7995 11.6811C39.1631 11.8447 39.4676 12.0787 39.713 12.3832C39.9629 12.6831 40.1515 13.0399 40.2788 13.4534C40.406 13.8624 40.4696 14.3146 40.4696 14.8099V15.3075H34.8868V14.6123H39.6584V14.5168C39.6493 14.1033 39.5653 13.717 39.4062 13.358C39.2517 12.9944 39.0199 12.699 38.7109 12.4718C38.4019 12.2446 38.0156 12.131 37.5521 12.131C37.2067 12.131 36.8886 12.2037 36.5978 12.3491C36.3115 12.4945 36.0638 12.7036 35.8548 12.9763C35.6503 13.2444 35.4912 13.5648 35.3776 13.9374C35.2685 14.3055 35.214 14.7145 35.214 15.1644V15.4575C35.214 15.8665 35.2731 16.2482 35.3912 16.6027C35.5139 16.9526 35.6866 17.2617 35.9093 17.5298C36.1365 17.7979 36.4046 18.0069 36.7136 18.1569C37.0227 18.3069 37.3635 18.3819 37.7361 18.3819C38.1724 18.3819 38.5587 18.3023 38.895 18.1433C39.2313 17.9797 39.5335 17.7229 39.8016 17.373L40.3128 17.7684C40.1538 18.0047 39.9538 18.2228 39.713 18.4228C39.4767 18.6227 39.1926 18.7818 38.8609 18.8999C38.5291 19.0181 38.1429 19.0772 37.7021 19.0772Z" fill="white"/>
<path d="M46.9318 11.5652H47.6884V18.8113C47.6884 19.4521 47.5657 20.0019 47.3203 20.4609C47.0795 20.9199 46.7364 21.2721 46.291 21.5175C45.8502 21.7629 45.3299 21.8856 44.73 21.8856C44.4255 21.8856 44.112 21.8379 43.7893 21.7425C43.4712 21.6516 43.169 21.5107 42.8827 21.3198C42.601 21.1335 42.3601 20.9017 42.1601 20.6245L42.6169 20.1269C42.9168 20.4905 43.2372 20.7563 43.578 20.9245C43.9188 21.0971 44.2869 21.1835 44.6823 21.1835C45.1504 21.1835 45.5457 21.0903 45.8684 20.904C46.1956 20.7177 46.4433 20.4496 46.6114 20.0996C46.7841 19.7497 46.8704 19.3294 46.8704 18.8386V13.1876L46.9318 11.5652ZM41.7511 15.328V15.1848C41.7511 14.6123 41.8148 14.0965 41.942 13.6375C42.0738 13.1739 42.2624 12.7786 42.5078 12.4514C42.7532 12.1196 43.0509 11.8674 43.4008 11.6947C43.7552 11.5175 44.1551 11.4289 44.6005 11.4289C45.0277 11.4289 45.4071 11.4993 45.7389 11.6402C46.0706 11.7811 46.3569 11.9833 46.5978 12.2469C46.8386 12.5105 47.0318 12.824 47.1772 13.1876C47.3272 13.5511 47.4362 13.9556 47.5044 14.4009V16.221C47.4499 16.6391 47.3499 17.0231 47.2045 17.373C47.059 17.7184 46.8659 18.0206 46.625 18.2796C46.3842 18.5341 46.0933 18.7318 45.7525 18.8727C45.4162 19.009 45.0277 19.0772 44.5869 19.0772C44.1461 19.0772 43.7507 18.9863 43.4008 18.8045C43.0509 18.6227 42.7532 18.3659 42.5078 18.0342C42.2624 17.6979 42.0738 17.3003 41.942 16.8413C41.8148 16.3823 41.7511 15.8779 41.7511 15.328ZM42.5691 15.1848V15.328C42.5691 15.7597 42.6123 16.1596 42.6987 16.5277C42.785 16.8958 42.9168 17.2162 43.094 17.4889C43.2713 17.7615 43.4962 17.9751 43.7689 18.1296C44.0415 18.2841 44.3619 18.3614 44.73 18.3614C45.1981 18.3614 45.5912 18.2728 45.9093 18.0956C46.2274 17.9138 46.4796 17.6752 46.6659 17.3798C46.8523 17.0799 46.9886 16.7527 47.0749 16.3982V14.2782C47.025 14.0374 46.9477 13.792 46.8432 13.542C46.7432 13.2921 46.6023 13.0626 46.4205 12.8536C46.2433 12.64 46.0161 12.4696 45.7389 12.3423C45.4662 12.2105 45.1345 12.1446 44.7437 12.1446C44.371 12.1446 44.0461 12.2219 43.7689 12.3764C43.4962 12.5309 43.2713 12.7468 43.094 13.024C42.9168 13.2966 42.785 13.617 42.6987 13.9851C42.6123 14.3532 42.5691 14.7531 42.5691 15.1848Z" fill="white"/>
<path d="M52.6714 19.0772C52.1897 19.0772 51.7466 18.9885 51.3422 18.8113C50.9422 18.6341 50.5923 18.3841 50.2924 18.0615C49.997 17.7388 49.7675 17.3571 49.6039 16.9163C49.4449 16.4709 49.3653 15.9847 49.3653 15.4575V15.1644C49.3653 14.5963 49.4494 14.0828 49.6175 13.6238C49.7857 13.1649 50.0175 12.7718 50.3128 12.4446C50.6082 12.1174 50.9445 11.8674 51.3217 11.6947C51.7034 11.5175 52.1034 11.4289 52.5214 11.4289C52.9895 11.4289 53.4053 11.513 53.7689 11.6811C54.1324 11.8447 54.4369 12.0787 54.6823 12.3832C54.9323 12.6831 55.1209 13.0399 55.2481 13.4534C55.3753 13.8624 55.439 14.3146 55.439 14.8099V15.3075H49.8561V14.6123H54.6278V14.5168C54.6187 14.1033 54.5346 13.717 54.3756 13.358C54.2211 12.9944 53.9893 12.699 53.6803 12.4718C53.3712 12.2446 52.985 12.131 52.5214 12.131C52.1761 12.131 51.858 12.2037 51.5671 12.3491C51.2808 12.4945 51.0331 12.7036 50.8241 12.9763C50.6196 13.2444 50.4605 13.5648 50.3469 13.9374C50.2379 14.3055 50.1833 14.7145 50.1833 15.1644V15.4575C50.1833 15.8665 50.2424 16.2482 50.3606 16.6027C50.4833 16.9526 50.656 17.2617 50.8786 17.5298C51.1058 17.7979 51.374 18.0069 51.683 18.1569C51.992 18.3069 52.3328 18.3819 52.7055 18.3819C53.1418 18.3819 53.528 18.3023 53.8643 18.1433C54.2006 17.9797 54.5028 17.7229 54.7709 17.373L55.2822 17.7684C55.1231 18.0047 54.9232 18.2228 54.6823 18.4228C54.446 18.6227 54.162 18.7818 53.8302 18.8999C53.4985 19.0181 53.1122 19.0772 52.6714 19.0772Z" fill="white"/>
<path d="M57.8589 13.1399V18.9408H57.0477V11.5652H57.8248L57.8589 13.1399ZM57.6748 14.7963L57.3135 14.5918C57.3408 14.1555 57.4294 13.7465 57.5794 13.3648C57.7293 12.9831 57.9316 12.6468 58.1861 12.3559C58.4451 12.0651 58.7473 11.8379 59.0927 11.6743C59.4426 11.5107 59.8289 11.4289 60.2515 11.4289C60.6196 11.4289 60.9491 11.4789 61.2399 11.5788C61.5308 11.6788 61.7784 11.8379 61.9829 12.056C62.1874 12.2741 62.3419 12.5536 62.4465 12.8945C62.5555 13.2353 62.6101 13.6511 62.6101 14.1419V18.9408H61.7921V14.1351C61.7921 13.6261 61.7216 13.2285 61.5808 12.9422C61.4399 12.6513 61.2399 12.4446 60.9809 12.3219C60.7219 12.1992 60.4151 12.1378 60.0606 12.1378C59.6698 12.1378 59.3267 12.2242 59.0313 12.3968C58.7405 12.565 58.4951 12.7854 58.2951 13.0581C58.0997 13.3262 57.9498 13.6148 57.8452 13.9238C57.7407 14.2282 57.6839 14.5191 57.6748 14.7963Z" fill="white"/>
<path d="M64.2733 15.3689V15.1439C64.2733 14.6077 64.3506 14.1124 64.5051 13.6579C64.6596 13.2035 64.88 12.8104 65.1663 12.4786C65.4571 12.1469 65.8048 11.8901 66.2093 11.7084C66.6137 11.522 67.0636 11.4289 67.5589 11.4289C68.0588 11.4289 68.511 11.522 68.9155 11.7084C69.3199 11.8901 69.6676 12.1469 69.9584 12.4786C70.2492 12.8104 70.4719 13.2035 70.6264 13.6579C70.7809 14.1124 70.8582 14.6077 70.8582 15.1439V15.3689C70.8582 15.9051 70.7809 16.4005 70.6264 16.8549C70.4719 17.3048 70.2492 17.6956 69.9584 18.0274C69.6721 18.3591 69.3267 18.6182 68.9223 18.8045C68.5178 18.9863 68.0679 19.0772 67.5726 19.0772C67.0727 19.0772 66.6205 18.9863 66.2161 18.8045C65.8116 18.6182 65.464 18.3591 65.1731 18.0274C64.8823 17.6956 64.6596 17.3048 64.5051 16.8549C64.3506 16.4005 64.2733 15.9051 64.2733 15.3689ZM65.0845 15.1439V15.3689C65.0845 15.7734 65.139 16.1574 65.2481 16.5209C65.3572 16.8799 65.5162 17.2003 65.7253 17.4821C65.9343 17.7593 66.1933 17.9774 66.5024 18.1365C66.8114 18.2955 67.1681 18.375 67.5726 18.375C67.9725 18.375 68.3247 18.2955 68.6292 18.1365C68.9382 17.9774 69.1972 17.7593 69.4063 17.4821C69.6153 17.2003 69.7721 16.8799 69.8766 16.5209C69.9857 16.1574 70.0402 15.7734 70.0402 15.3689V15.1439C70.0402 14.744 69.9857 14.3646 69.8766 14.0056C69.7721 13.6466 69.613 13.3262 69.3994 13.0444C69.1904 12.7627 68.9314 12.54 68.6223 12.3764C68.3133 12.2128 67.9589 12.131 67.5589 12.131C67.159 12.131 66.8046 12.2128 66.4956 12.3764C66.1911 12.54 65.932 12.7627 65.7185 13.0444C65.5094 13.3262 65.3504 13.6466 65.2413 14.0056C65.1368 14.3646 65.0845 14.744 65.0845 15.1439Z" fill="white"/>
<path d="M74.6142 18.1569L76.9795 11.5652H77.818L75.0573 18.9408H74.4642L74.6142 18.1569ZM72.4737 11.5652L74.8664 18.1774L74.9959 18.9408H74.396L71.6285 11.5652H72.4737Z" fill="white"/>
<path d="M78.3497 18.4432C78.3497 18.2841 78.3997 18.1501 78.4997 18.041C78.6042 17.9274 78.7451 17.8706 78.9223 17.8706C79.1041 17.8706 79.2472 17.9251 79.3517 18.0342C79.4563 18.1433 79.5085 18.2796 79.5085 18.4432C79.5085 18.5977 79.4563 18.7295 79.3517 18.8386C79.2472 18.9476 79.1041 19.0022 78.9223 19.0022C78.7451 19.0022 78.6042 18.9476 78.4997 18.8386C78.3997 18.7295 78.3497 18.5977 78.3497 18.4432Z" fill="white"/>
<path d="M25.2821 5.67106H24.179L24.1854 5.44602H25.2821C25.6168 5.44602 25.9109 5.37202 26.1646 5.22402C26.4203 5.07603 26.6207 4.87126 26.7657 4.60973C26.9106 4.34617 26.9831 4.04308 26.9831 3.70046V3.20476C26.9831 2.94932 26.9415 2.71515 26.8584 2.50228C26.7752 2.28941 26.658 2.10593 26.5067 1.95185C26.3575 1.79777 26.1795 1.67917 25.9727 1.59605C25.766 1.5109 25.54 1.46832 25.2949 1.46832H24.1599V1.24328H25.2949C25.5741 1.24328 25.832 1.29093 26.0686 1.38621C26.3074 1.47947 26.5141 1.61328 26.6889 1.78763C26.8637 1.95996 26.9991 2.16776 27.095 2.41105C27.193 2.65231 27.2421 2.91992 27.2421 3.21389V3.70046C27.2421 3.99442 27.193 4.26305 27.095 4.50634C26.9991 4.74759 26.8626 4.9554 26.6857 5.12975C26.5109 5.30208 26.3042 5.43588 26.0655 5.53117C25.8289 5.62443 25.5677 5.67106 25.2821 5.67106ZM24.259 1.24328V5.67106H24V1.24328H24.259Z" fill="white"/>
<path d="M29.4834 5.73188C29.2659 5.73188 29.0645 5.69235 28.8791 5.61328C28.6936 5.53218 28.5316 5.41967 28.3931 5.27572C28.2545 5.12975 28.1458 4.95743 28.067 4.75874C27.9902 4.56006 27.9519 4.34212 27.9519 4.10492V3.97111C27.9519 3.7258 27.9902 3.50279 28.067 3.30208C28.1458 3.09934 28.2524 2.92499 28.3867 2.77902C28.521 2.63102 28.6755 2.51749 28.8503 2.43842C29.0272 2.35935 29.2158 2.31982 29.4162 2.31982C29.6187 2.31982 29.802 2.3553 29.9661 2.42625C30.1303 2.49721 30.271 2.59655 30.3882 2.72428C30.5054 2.852 30.5949 3.00405 30.6568 3.18044C30.7186 3.35682 30.7495 3.55144 30.7495 3.76432V3.96807H28.1117V3.74607H30.4969V3.70654C30.4948 3.49975 30.45 3.30816 30.3626 3.13178C30.2773 2.9554 30.1548 2.81348 29.9949 2.70603C29.8351 2.59655 29.6422 2.54181 29.4162 2.54181C29.235 2.54181 29.0698 2.57831 28.9206 2.65129C28.7736 2.72428 28.6467 2.82565 28.5402 2.9554C28.4336 3.08312 28.3515 3.23416 28.294 3.40852C28.2364 3.58084 28.2076 3.76837 28.2076 3.97111V4.10492C28.2076 4.29954 28.2396 4.48201 28.3036 4.65231C28.3675 4.82261 28.457 4.97263 28.5721 5.10238C28.6872 5.23011 28.8226 5.33046 28.9782 5.40345C29.1338 5.47643 29.3043 5.51292 29.4897 5.51292C29.6901 5.51292 29.8734 5.47947 30.0397 5.41257C30.2059 5.34567 30.3573 5.22808 30.4937 5.05981L30.66 5.17841C30.5832 5.28383 30.4905 5.3781 30.3818 5.46123C30.2731 5.54435 30.1441 5.61024 29.9949 5.6589C29.8478 5.70755 29.6773 5.73188 29.4834 5.73188Z" fill="white"/>
<path d="M33.6494 4.85302C33.6494 4.7557 33.6217 4.6594 33.5663 4.56412C33.513 4.46883 33.4139 4.37963 33.2689 4.2965C33.1261 4.21338 32.9183 4.14344 32.6455 4.08667C32.4515 4.04612 32.2799 4.00152 32.1307 3.95286C31.9836 3.90421 31.86 3.84541 31.7598 3.77648C31.6596 3.70552 31.584 3.62139 31.5328 3.52408C31.4838 3.42676 31.4593 3.31019 31.4593 3.17435C31.4593 3.05677 31.4859 2.94627 31.5392 2.84288C31.5925 2.73948 31.6703 2.64927 31.7726 2.57223C31.8771 2.49316 32.0018 2.43132 32.1467 2.38672C32.2916 2.34212 32.4558 2.31982 32.6391 2.31982C32.9013 2.31982 33.1251 2.36138 33.3105 2.4445C33.4981 2.5256 33.642 2.63811 33.7421 2.78206C33.8423 2.92397 33.8924 3.0892 33.8924 3.27775H33.6366C33.6366 3.15003 33.5983 3.03041 33.5215 2.91891C33.4448 2.8074 33.3318 2.71718 33.1826 2.64825C33.0355 2.57729 32.8544 2.54181 32.6391 2.54181C32.4217 2.54181 32.2447 2.57324 32.1083 2.63609C31.9719 2.69894 31.8717 2.77902 31.8078 2.87633C31.746 2.97162 31.7151 3.06893 31.7151 3.16827C31.7151 3.24734 31.7268 3.32134 31.7502 3.39027C31.7758 3.45717 31.8238 3.51901 31.8941 3.57577C31.9645 3.63254 32.0657 3.68728 32.1979 3.73999C32.33 3.79067 32.5016 3.83832 32.7126 3.88292C32.9897 3.94171 33.2157 4.01368 33.3904 4.09883C33.5652 4.18196 33.6942 4.28434 33.7773 4.40598C33.8604 4.5256 33.902 4.67258 33.902 4.84693C33.902 4.97669 33.8732 5.0963 33.8157 5.20578C33.7581 5.31323 33.675 5.40649 33.5663 5.48556C33.4597 5.56462 33.3297 5.62544 33.1762 5.66802C33.0228 5.71059 32.8522 5.73188 32.6647 5.73188C32.3812 5.73188 32.1403 5.68931 31.9421 5.60416C31.746 5.51698 31.5968 5.40243 31.4945 5.26052C31.3943 5.1186 31.3442 4.96553 31.3442 4.80132H31.6C31.6149 4.98175 31.6767 5.12367 31.7854 5.22707C31.8962 5.33046 32.0305 5.40345 32.1883 5.44602C32.3481 5.4886 32.5069 5.50988 32.6647 5.50988C32.8799 5.50988 33.0601 5.47846 33.205 5.41561C33.3521 5.35074 33.4629 5.26863 33.5375 5.16929C33.6121 5.06792 33.6494 4.96249 33.6494 4.85302Z" fill="white"/>
<path d="M35.117 2.38064V5.67106H34.8612V2.38064H35.117ZM34.7813 1.38317C34.7813 1.32843 34.8005 1.2818 34.8388 1.24328C34.8793 1.20274 34.9305 1.18246 34.9923 1.18246C35.052 1.18246 35.1021 1.20274 35.1426 1.24328C35.1831 1.2818 35.2033 1.32843 35.2033 1.38317C35.2033 1.43791 35.1831 1.48454 35.1426 1.52306C35.1021 1.55955 35.052 1.5778 34.9923 1.5778C34.9305 1.5778 34.8793 1.55955 34.8388 1.52306C34.8005 1.48454 34.7813 1.43791 34.7813 1.38317Z" fill="white"/>
<path d="M38.5189 2.38064H38.7651V5.61936C38.7651 5.90117 38.7107 6.14445 38.602 6.34921C38.4933 6.55601 38.3388 6.71414 38.1384 6.82362C37.9402 6.93512 37.7025 6.99088 37.4254 6.99088C37.2677 6.99088 37.1164 6.96858 36.9714 6.92397C36.8286 6.87937 36.6964 6.8145 36.5749 6.72935C36.4556 6.64622 36.3522 6.5479 36.2648 6.43436L36.4215 6.28231C36.5579 6.44247 36.706 6.56412 36.8659 6.64724C37.0279 6.73036 37.2101 6.77192 37.4126 6.77192C37.6514 6.77192 37.8517 6.72529 38.0137 6.63203C38.1757 6.53877 38.2983 6.40598 38.3814 6.23365C38.4645 6.06336 38.5061 5.86062 38.5061 5.62544V3.10441L38.5189 2.38064ZM36.0602 4.05626V3.9924C36.0602 3.73492 36.09 3.5038 36.1497 3.29904C36.2094 3.09225 36.2957 2.91688 36.4087 2.77293C36.5217 2.62696 36.6591 2.51546 36.8211 2.43842C36.9853 2.35935 37.1707 2.31982 37.3775 2.31982C37.5714 2.31982 37.743 2.34921 37.8922 2.40801C38.0436 2.46477 38.1747 2.54688 38.2855 2.65433C38.3985 2.75976 38.4901 2.88444 38.5605 3.02838C38.6329 3.1703 38.6873 3.32742 38.7235 3.49975V4.63406C38.6958 4.78611 38.6479 4.92904 38.5796 5.06285C38.5114 5.19463 38.4209 5.3112 38.3079 5.41257C38.1949 5.51191 38.0606 5.58996 37.905 5.64673C37.7494 5.7035 37.5714 5.73188 37.3711 5.73188C37.1664 5.73188 36.9831 5.69133 36.8211 5.61024C36.6591 5.52914 36.5217 5.4146 36.4087 5.2666C36.2957 5.1186 36.2094 4.94222 36.1497 4.73746C36.09 4.53269 36.0602 4.30563 36.0602 4.05626ZM36.3192 3.9924V4.05626C36.3192 4.26508 36.3405 4.45768 36.3831 4.63406C36.4279 4.81044 36.4939 4.96351 36.5813 5.09326C36.6709 5.22301 36.7838 5.32438 36.9203 5.39736C37.0567 5.47035 37.2155 5.50684 37.3967 5.50684C37.6311 5.50684 37.8283 5.4663 37.9882 5.3852C38.148 5.30411 38.2759 5.19666 38.3718 5.06285C38.4677 4.92904 38.5349 4.78104 38.5733 4.61885V3.54536C38.5498 3.44197 38.5136 3.33249 38.4645 3.21693C38.4155 3.09934 38.3462 2.98986 38.2567 2.88849C38.1693 2.78713 38.0564 2.70502 37.9178 2.64217C37.7793 2.57729 37.6077 2.54486 37.403 2.54486C37.2197 2.54486 37.0588 2.58135 36.9203 2.65433C36.7838 2.72732 36.6709 2.82869 36.5813 2.95844C36.4939 3.08819 36.4279 3.24126 36.3831 3.41764C36.3405 3.59402 36.3192 3.78561 36.3192 3.9924Z" fill="white"/>
<path d="M40.0792 3.08312V5.67106H39.8266V2.38064H40.076L40.0792 3.08312ZM40.0312 3.77344L39.9065 3.63355C39.9257 3.4592 39.9705 3.29295 40.0408 3.13482C40.1133 2.97669 40.2081 2.8368 40.3254 2.71515C40.4447 2.59351 40.5833 2.49721 40.741 2.42625C40.9009 2.3553 41.0767 2.31982 41.2686 2.31982C41.4412 2.31982 41.5958 2.34313 41.7322 2.38976C41.8686 2.43436 41.9837 2.50532 42.0775 2.60264C42.1734 2.69995 42.2459 2.82565 42.2949 2.97973C42.3439 3.13178 42.3684 3.31728 42.3684 3.53624V5.67106H42.1159V3.53624C42.1159 3.27674 42.0786 3.07603 42.0039 2.93411C41.9293 2.79017 41.8249 2.6888 41.6906 2.63001C41.5585 2.57121 41.4039 2.54181 41.227 2.54181C41.0224 2.54181 40.8455 2.5854 40.6963 2.67258C40.5492 2.75773 40.4277 2.86619 40.3318 2.99797C40.2358 3.12772 40.1623 3.26254 40.1112 3.40243C40.0621 3.54232 40.0355 3.66599 40.0312 3.77344Z" fill="white"/>
<path d="M44.7025 5.73188C44.485 5.73188 44.2836 5.69235 44.0982 5.61328C43.9127 5.53218 43.7507 5.41967 43.6122 5.27572C43.4736 5.12975 43.3649 4.95743 43.2861 4.75874C43.2093 4.56006 43.171 4.34212 43.171 4.10492V3.97111C43.171 3.7258 43.2093 3.50279 43.2861 3.30208C43.3649 3.09934 43.4715 2.92499 43.6058 2.77902C43.7401 2.63102 43.8946 2.51749 44.0694 2.43842C44.2463 2.35935 44.435 2.31982 44.6353 2.31982C44.8378 2.31982 45.0211 2.3553 45.1853 2.42625C45.3494 2.49721 45.4901 2.59655 45.6073 2.72428C45.7245 2.852 45.8141 3.00405 45.8759 3.18044C45.9377 3.35682 45.9686 3.55144 45.9686 3.76432V3.96807H43.3308V3.74607H45.716V3.70654C45.7139 3.49975 45.6691 3.30816 45.5817 3.13178C45.4965 2.9554 45.3739 2.81348 45.214 2.70603C45.0542 2.59655 44.8613 2.54181 44.6353 2.54181C44.4541 2.54181 44.2889 2.57831 44.1397 2.65129C43.9927 2.72428 43.8658 2.82565 43.7593 2.9554C43.6527 3.08312 43.5706 3.23416 43.5131 3.40852C43.4555 3.58084 43.4267 3.76837 43.4267 3.97111V4.10492C43.4267 4.29954 43.4587 4.48201 43.5227 4.65231C43.5866 4.82261 43.6761 4.97263 43.7912 5.10238C43.9063 5.23011 44.0417 5.33046 44.1973 5.40345C44.3529 5.47643 44.5234 5.51292 44.7089 5.51292C44.9092 5.51292 45.0925 5.47947 45.2588 5.41257C45.4251 5.34567 45.5764 5.22808 45.7128 5.05981L45.8791 5.17841C45.8023 5.28383 45.7096 5.3781 45.6009 5.46123C45.4922 5.54435 45.3632 5.61024 45.214 5.6589C45.067 5.70755 44.8964 5.73188 44.7025 5.73188Z" fill="white"/>
<path d="M49.0508 5.03244V1H49.3034V5.67106H49.0604L49.0508 5.03244ZM46.6017 4.05626V3.9924C46.6017 3.73492 46.6315 3.5038 46.6912 3.29904C46.7509 3.09225 46.8372 2.91688 46.9502 2.77293C47.0631 2.62696 47.2006 2.51546 47.3626 2.43842C47.5267 2.35935 47.7122 2.31982 47.9189 2.31982C48.1129 2.31982 48.2856 2.34921 48.4369 2.40801C48.5882 2.46477 48.7193 2.54688 48.8302 2.65433C48.941 2.75976 49.0316 2.88444 49.1019 3.02838C49.1744 3.1703 49.2277 3.32742 49.2618 3.49975V4.63406C49.2362 4.78611 49.1883 4.92904 49.1179 5.06285C49.0497 5.19463 48.9591 5.3112 48.8462 5.41257C48.7353 5.51191 48.6021 5.58996 48.4465 5.64673C48.2909 5.7035 48.1129 5.73188 47.9125 5.73188C47.7079 5.73188 47.5246 5.69133 47.3626 5.61024C47.2006 5.52914 47.0631 5.4146 46.9502 5.2666C46.8372 5.1186 46.7509 4.94222 46.6912 4.73746C46.6315 4.53269 46.6017 4.30563 46.6017 4.05626ZM46.8606 3.9924V4.05626C46.8606 4.26508 46.882 4.45768 46.9246 4.63406C46.9693 4.81044 47.0354 4.96351 47.1228 5.09326C47.2123 5.22301 47.3242 5.32438 47.4585 5.39736C47.5949 5.47035 47.7548 5.50684 47.9381 5.50684C48.1726 5.50684 48.3708 5.4663 48.5328 5.3852C48.6948 5.30411 48.8238 5.19666 48.9197 5.06285C49.0177 4.92904 49.086 4.78104 49.1243 4.61885V3.54536C49.1009 3.44197 49.0636 3.33249 49.0124 3.21693C48.9634 3.09934 48.8941 2.98986 48.8046 2.88849C48.7172 2.78713 48.6032 2.70502 48.4625 2.64217C48.3218 2.57729 48.1491 2.54486 47.9445 2.54486C47.7591 2.54486 47.5981 2.58135 47.4617 2.65433C47.3274 2.72732 47.2155 2.82869 47.126 2.95844C47.0365 3.08819 46.9693 3.24126 46.9246 3.41764C46.882 3.59402 46.8606 3.78561 46.8606 3.9924Z" fill="white"/>
<path d="M51.9379 1H52.1937V5.03244L52.1841 5.67106H51.9379V1ZM54.6428 3.9924V4.05626C54.6428 4.30563 54.613 4.53269 54.5533 4.73746C54.4958 4.94222 54.4105 5.1186 54.2975 5.2666C54.1867 5.4146 54.0503 5.52914 53.8883 5.61024C53.7263 5.69133 53.5419 5.73188 53.3352 5.73188C53.1369 5.73188 52.9589 5.7035 52.8012 5.64673C52.6456 5.58996 52.5113 5.51191 52.3983 5.41257C52.2854 5.3112 52.1937 5.19463 52.1234 5.06285C52.0552 4.92904 52.0072 4.78611 51.9795 4.63406V3.49975C52.0157 3.32742 52.0701 3.1703 52.1426 3.02838C52.215 2.88444 52.3067 2.75976 52.4175 2.65433C52.5284 2.54688 52.6595 2.46477 52.8108 2.40801C52.9643 2.34921 53.1369 2.31982 53.3288 2.31982C53.5376 2.31982 53.7231 2.35935 53.8851 2.43842C54.0492 2.51546 54.1867 2.62696 54.2975 2.77293C54.4105 2.91688 54.4958 3.09225 54.5533 3.29904C54.613 3.5038 54.6428 3.73492 54.6428 3.9924ZM54.3839 4.05626V3.9924C54.3839 3.78561 54.3625 3.59402 54.3199 3.41764C54.2773 3.24126 54.2112 3.08819 54.1217 2.95844C54.0343 2.82869 53.9224 2.72732 53.786 2.65433C53.6496 2.58135 53.4886 2.54486 53.3032 2.54486C53.0986 2.54486 52.9259 2.57729 52.7852 2.64217C52.6467 2.70502 52.5326 2.78713 52.4431 2.88849C52.3557 2.98986 52.2864 3.09934 52.2353 3.21693C52.1863 3.33249 52.15 3.44197 52.1266 3.54536V4.61885C52.1649 4.77902 52.2321 4.92701 52.328 5.06285C52.4261 5.19666 52.5561 5.30411 52.7181 5.3852C52.8822 5.4663 53.0794 5.50684 53.3096 5.50684C53.4929 5.50684 53.6517 5.47035 53.786 5.39736C53.9224 5.32438 54.0343 5.22301 54.1217 5.09326C54.2091 4.96351 54.2741 4.81044 54.3167 4.63406C54.3615 4.45768 54.3839 4.26508 54.3839 4.05626Z" fill="white"/>
<path d="M56.5708 5.34871L57.7218 2.38064H58L56.4909 6.20933C56.4632 6.28231 56.428 6.36341 56.3854 6.45261C56.3427 6.54384 56.2873 6.63102 56.2191 6.71414C56.1509 6.79726 56.0624 6.86518 55.9537 6.91789C55.8472 6.97263 55.715 7 55.5573 7C55.521 7 55.4731 6.99595 55.4134 6.98784C55.3558 6.98175 55.3132 6.97364 55.2855 6.96351L55.2823 6.75063C55.3121 6.75672 55.3516 6.76178 55.4006 6.76584C55.4496 6.77192 55.4837 6.77496 55.5029 6.77496C55.6436 6.77496 55.7608 6.74861 55.8546 6.69589C55.9505 6.64521 56.0305 6.57223 56.0944 6.47694C56.1584 6.38368 56.2148 6.27319 56.2639 6.14546L56.5708 5.34871ZM55.3846 2.38064L56.6124 5.37L56.6859 5.61936L56.4909 5.73492L55.1065 2.38064H55.3846Z" fill="white"/>
<path d="M84.4848 18.375C84.8301 18.375 85.1528 18.3114 85.4527 18.1842C85.7572 18.0524 86.0071 17.8592 86.2025 17.6048C86.4025 17.3457 86.5161 17.0299 86.5434 16.6572H87.3205C87.2978 17.1253 87.1546 17.5434 86.891 17.9115C86.632 18.2751 86.2912 18.5614 85.8685 18.7704C85.4504 18.9749 84.9892 19.0772 84.4848 19.0772C83.9712 19.0772 83.5168 18.984 83.1214 18.7977C82.7306 18.6113 82.4034 18.3523 82.1398 18.0206C81.8763 17.6843 81.6763 17.2935 81.54 16.8481C81.4082 16.3982 81.3423 15.9142 81.3423 15.3962V15.1099C81.3423 14.5918 81.4082 14.1101 81.54 13.6647C81.6763 13.2148 81.8763 12.824 82.1398 12.4923C82.4034 12.156 82.7306 11.8947 83.1214 11.7084C83.5123 11.522 83.9644 11.4289 84.4779 11.4289C85.0051 11.4289 85.4777 11.5357 85.8958 11.7493C86.3184 11.9629 86.6547 12.2651 86.9047 12.6559C87.1592 13.0467 87.2978 13.5102 87.3205 14.0465H86.5434C86.5207 13.6511 86.4161 13.3103 86.2298 13.024C86.0435 12.7377 85.7981 12.5173 85.4936 12.3628C85.1891 12.2083 84.8506 12.131 84.4779 12.131C84.0599 12.131 83.7031 12.2128 83.4077 12.3764C83.1123 12.5354 82.8715 12.7559 82.6852 13.0376C82.5034 13.3148 82.3693 13.6329 82.283 13.9919C82.1966 14.3464 82.1535 14.719 82.1535 15.1099V15.3962C82.1535 15.7915 82.1944 16.1687 82.2762 16.5277C82.3625 16.8822 82.4966 17.198 82.6783 17.4752C82.8647 17.7525 83.1055 17.9729 83.4009 18.1365C83.7008 18.2955 84.0621 18.375 84.4848 18.375Z" fill="white" fill-opacity="0.69"/>
<path d="M88.5134 15.3689V15.1439C88.5134 14.6077 88.5906 14.1124 88.7452 13.6579C88.8997 13.2035 89.1201 12.8104 89.4064 12.4786C89.6972 12.1469 90.0449 11.8901 90.4493 11.7084C90.8538 11.522 91.3037 11.4289 91.799 11.4289C92.2989 11.4289 92.7511 11.522 93.1555 11.7084C93.56 11.8901 93.9076 12.1469 94.1985 12.4786C94.4893 12.8104 94.712 13.2035 94.8665 13.6579C95.021 14.1124 95.0983 14.6077 95.0983 15.1439V15.3689C95.0983 15.9051 95.021 16.4005 94.8665 16.8549C94.712 17.3048 94.4893 17.6956 94.1985 18.0274C93.9122 18.3591 93.5668 18.6182 93.1623 18.8045C92.7579 18.9863 92.308 19.0772 91.8126 19.0772C91.3128 19.0772 90.8606 18.9863 90.4561 18.8045C90.0517 18.6182 89.704 18.3591 89.4132 18.0274C89.1223 17.6956 88.8997 17.3048 88.7452 16.8549C88.5906 16.4005 88.5134 15.9051 88.5134 15.3689ZM89.3246 15.1439V15.3689C89.3246 15.7734 89.3791 16.1574 89.4882 16.5209C89.5972 16.8799 89.7563 17.2003 89.9653 17.4821C90.1744 17.7593 90.4334 17.9774 90.7424 18.1365C91.0515 18.2955 91.4082 18.375 91.8126 18.375C92.2126 18.375 92.5647 18.2955 92.8692 18.1365C93.1782 17.9774 93.4373 17.7593 93.6463 17.4821C93.8554 17.2003 94.0121 16.8799 94.1167 16.5209C94.2257 16.1574 94.2803 15.7734 94.2803 15.3689V15.1439C94.2803 14.744 94.2257 14.3646 94.1167 14.0056C94.0121 13.6466 93.8531 13.3262 93.6395 13.0444C93.4305 12.7627 93.1714 12.54 92.8624 12.3764C92.5534 12.2128 92.1989 12.131 91.799 12.131C91.3991 12.131 91.0446 12.2128 90.7356 12.3764C90.4311 12.54 90.1721 12.7627 89.9585 13.0444C89.7495 13.3262 89.5904 13.6466 89.4814 14.0056C89.3768 14.3646 89.3246 14.744 89.3246 15.1439Z" fill="white" fill-opacity="0.69"/>
<path d="M101.581 17.5093V8.47046H102.399V18.9408H101.635L101.581 17.5093ZM96.4616 15.328V15.1848C96.4616 14.6123 96.5275 14.0965 96.6593 13.6375C96.7911 13.1739 96.9797 12.7786 97.2251 12.4514C97.475 12.1196 97.7749 11.8674 98.1249 11.6947C98.4748 11.5175 98.8701 11.4289 99.311 11.4289C99.7427 11.4289 100.124 11.4993 100.456 11.6402C100.788 11.7811 101.072 11.9833 101.308 12.2469C101.549 12.5105 101.742 12.824 101.888 13.1876C102.038 13.5511 102.147 13.9556 102.215 14.4009V16.221C102.16 16.6391 102.06 17.0231 101.915 17.373C101.769 17.7184 101.576 18.0206 101.335 18.2796C101.095 18.5341 100.804 18.7318 100.463 18.8727C100.127 19.009 99.7381 19.0772 99.2973 19.0772C98.8611 19.0772 98.468 18.9863 98.118 18.8045C97.7681 18.6227 97.4705 18.3659 97.2251 18.0342C96.9797 17.6979 96.7911 17.3003 96.6593 16.8413C96.5275 16.3823 96.4616 15.8779 96.4616 15.328ZM97.2796 15.1848V15.328C97.2796 15.7597 97.3228 16.1596 97.4091 16.5277C97.4954 16.8958 97.6272 17.2162 97.8045 17.4889C97.9817 17.7615 98.2067 17.9751 98.4793 18.1296C98.752 18.2841 99.0746 18.3614 99.4473 18.3614C99.9154 18.3614 100.308 18.2728 100.627 18.0956C100.945 17.9138 101.199 17.6752 101.39 17.3798C101.581 17.0799 101.719 16.7527 101.806 16.3982V14.2782C101.751 14.0374 101.672 13.792 101.567 13.542C101.463 13.2921 101.32 13.0626 101.138 12.8536C100.961 12.64 100.733 12.4696 100.456 12.3423C100.183 12.2105 99.8517 12.1446 99.4609 12.1446C99.0837 12.1446 98.7588 12.2219 98.4861 12.3764C98.2135 12.5309 97.9863 12.7468 97.8045 13.024C97.6272 13.2966 97.4954 13.617 97.4091 13.9851C97.3228 14.3532 97.2796 14.7531 97.2796 15.1848Z" fill="white" fill-opacity="0.69"/>
<path d="M107.395 19.0772C106.914 19.0772 106.471 18.9885 106.066 18.8113C105.666 18.6341 105.316 18.3841 105.016 18.0615C104.721 17.7388 104.492 17.3571 104.328 16.9163C104.169 16.4709 104.089 15.9847 104.089 15.4575V15.1644C104.089 14.5963 104.173 14.0828 104.342 13.6238C104.51 13.1649 104.742 12.7718 105.037 12.4446C105.332 12.1174 105.669 11.8674 106.046 11.6947C106.428 11.5175 106.827 11.4289 107.246 11.4289C107.714 11.4289 108.129 11.513 108.493 11.6811C108.857 11.8447 109.161 12.0787 109.406 12.3832C109.656 12.6831 109.845 13.0399 109.972 13.4534C110.099 13.8624 110.163 14.3146 110.163 14.8099V15.3075H104.58V14.6123H109.352V14.5168C109.343 14.1033 109.259 13.717 109.1 13.358C108.945 12.9944 108.713 12.699 108.404 12.4718C108.095 12.2446 107.709 12.131 107.246 12.131C106.9 12.131 106.582 12.2037 106.291 12.3491C106.005 12.4945 105.757 12.7036 105.548 12.9763C105.344 13.2444 105.185 13.5648 105.071 13.9374C104.962 14.3055 104.907 14.7145 104.907 15.1644V15.4575C104.907 15.8665 104.966 16.2482 105.085 16.6027C105.207 16.9526 105.38 17.2617 105.603 17.5298C105.83 17.7979 106.098 18.0069 106.407 18.1569C106.716 18.3069 107.057 18.3819 107.43 18.3819C107.866 18.3819 108.252 18.3023 108.588 18.1433C108.925 17.9797 109.227 17.7229 109.495 17.373L110.006 17.7684C109.847 18.0047 109.647 18.2228 109.406 18.4228C109.17 18.6227 108.886 18.7818 108.554 18.8999C108.223 19.0181 107.836 19.0772 107.395 19.0772Z" fill="white" fill-opacity="0.69"/>
<path d="M116.189 17.0594C116.189 16.8595 116.139 16.6618 116.039 16.4664C115.939 16.271 115.746 16.0915 115.46 15.9279C115.178 15.7643 114.762 15.6257 114.212 15.512C113.803 15.4212 113.437 15.3189 113.115 15.2053C112.797 15.0917 112.528 14.9554 112.31 14.7963C112.092 14.6372 111.926 14.4464 111.813 14.2237C111.699 14.001 111.642 13.7374 111.642 13.433C111.642 13.1603 111.701 12.9035 111.819 12.6627C111.942 12.4173 112.115 12.2037 112.338 12.0219C112.565 11.8356 112.837 11.6902 113.156 11.5857C113.478 11.4811 113.839 11.4289 114.239 11.4289C114.807 11.4289 115.294 11.5266 115.698 11.722C116.107 11.9129 116.418 12.1742 116.632 12.5059C116.85 12.8377 116.959 13.2126 116.959 13.6307H116.148C116.148 13.3762 116.073 13.1353 115.923 12.9081C115.778 12.6809 115.562 12.4945 115.276 12.3491C114.994 12.2037 114.648 12.131 114.239 12.131C113.817 12.131 113.474 12.1946 113.21 12.3219C112.946 12.4491 112.753 12.6104 112.631 12.8058C112.513 13.0013 112.453 13.2035 112.453 13.4125C112.453 13.5761 112.478 13.7261 112.528 13.8624C112.583 13.9942 112.678 14.1169 112.815 14.2305C112.956 14.3441 113.156 14.4509 113.415 14.5509C113.674 14.6509 114.01 14.7486 114.423 14.844C115.019 14.9758 115.505 15.1371 115.882 15.328C116.264 15.5143 116.546 15.7461 116.727 16.0233C116.909 16.296 117 16.6277 117 17.0185C117 17.323 116.937 17.6025 116.809 17.857C116.682 18.1069 116.498 18.3228 116.257 18.5046C116.021 18.6863 115.735 18.8272 115.398 18.9272C115.066 19.0272 114.694 19.0772 114.28 19.0772C113.658 19.0772 113.131 18.9749 112.699 18.7704C112.272 18.5614 111.947 18.2887 111.724 17.9524C111.506 17.6116 111.397 17.2503 111.397 16.8686H112.208C112.235 17.2503 112.356 17.5525 112.569 17.7752C112.783 17.9933 113.044 18.1478 113.353 18.2387C113.667 18.3296 113.976 18.375 114.28 18.375C114.698 18.375 115.048 18.3137 115.33 18.191C115.612 18.0683 115.825 17.907 115.971 17.707C116.116 17.5071 116.189 17.2912 116.189 17.0594Z" fill="white" fill-opacity="0.69"/>
</svg>
