<svg width="14" height="13" viewBox="0 0 14 13" fill="none" xmlns="http://www.w3.org/2000/svg">
<path fill-rule="evenodd" clip-rule="evenodd" d="M7.8273 1.8291C7.8273 1.27682 7.37958 0.829102 6.8273 0.829102C6.27501 0.829102 5.8273 1.27682 5.8273 1.8291V5.80322H1C0.447715 5.80322 0 6.25094 0 6.80322C0 7.35551 0.447715 7.80322 1 7.80322H5.8273V11.7783C5.8273 12.3306 6.27501 12.7783 6.8273 12.7783C7.37958 12.7783 7.8273 12.3306 7.8273 11.7783V7.80322H12.6513C13.2036 7.80322 13.6513 7.35551 13.6513 6.80322C13.6513 6.25094 13.2036 5.80322 12.6513 5.80322H7.8273V1.8291Z" fill="white"/>
</svg>
