<svg width="17" height="17" viewBox="0 0 17 17" fill="none" xmlns="http://www.w3.org/2000/svg">
<path fill-rule="evenodd" clip-rule="evenodd" d="M9.29502 1C9.29502 0.447715 8.84731 0 8.29502 0C7.74274 0 7.29502 0.447715 7.29502 1V7.29502H1C0.447715 7.29502 0 7.74274 0 8.29502C0 8.84731 0.447715 9.29502 1 9.29502H7.29502V15.5899C7.29502 16.1422 7.74274 16.5899 8.29502 16.5899C8.84731 16.5899 9.29502 16.1422 9.29502 15.5899V9.29502H15.5899C16.1422 9.29502 16.5899 8.84731 16.5899 8.29502C16.5899 7.74274 16.1422 7.29502 15.5899 7.29502H9.29502V1Z" fill="#DB8394"/>
</svg>
