<svg width="25" height="26" viewBox="0 0 25 26" fill="none" xmlns="http://www.w3.org/2000/svg">
<path d="M15.4345 15.2744L15.5908 14.2867L15.5908 14.2867L15.4345 15.2744ZM9.56552 15.2745L9.40924 14.2867L9.40923 14.2867L9.56552 15.2745ZM12.4206 15.1176L12.4204 14.1176L12.4206 15.1176ZM12.4207 15.1175V14.1175V15.1175ZM17.3724 7.11763C17.3724 9.93353 15.061 12.2353 12.1862 12.2353V14.2353C16.1445 14.2353 19.3724 11.0591 19.3724 7.11763H17.3724ZM12.1862 2C15.061 2 17.3724 4.30172 17.3724 7.11763H19.3724C19.3724 3.17619 16.1445 0 12.1862 0V2ZM7 7.11763C7 4.30172 9.31141 2 12.1862 2V0C8.22791 0 5 3.17619 5 7.11763H7ZM12.1862 12.2353C9.31141 12.2353 7 9.93353 7 7.11763H5C5 11.0591 8.22791 14.2353 12.1862 14.2353V12.2353ZM15.2782 16.2621C17.0822 16.5475 19.0457 17.4175 20.5421 18.74C22.0299 20.0549 23 21.7606 23 23.745H25C25 21.0512 23.6701 18.8353 21.8665 17.2414C20.0715 15.6549 17.7523 14.6287 15.5908 14.2867L15.2782 16.2621ZM12.4207 16.1175C13.6097 16.1175 14.3765 16.1194 15.2782 16.2621L15.5908 14.2867C14.5098 14.1156 13.5889 14.1175 12.4207 14.1175V16.1175ZM9.72179 16.2622C10.5813 16.1262 11.3209 16.1179 12.4209 16.1176L12.4204 14.1176C11.3265 14.1179 10.4423 14.1233 9.40924 14.2867L9.72179 16.2622ZM2 23.745C2 21.7606 2.97011 20.0549 4.45792 18.74C5.95429 17.4176 7.91779 16.5476 9.7218 16.2622L9.40923 14.2867C7.24773 14.6288 4.92847 15.655 3.13346 17.2414C1.32989 18.8354 0 21.0513 0 23.745H2ZM12.5793 23.9999H2.2549V25.9999H12.5793V23.9999ZM22.7451 23.9998H12.5793V25.9998H22.7451V23.9998ZM22.7451 25.9998C23.9904 25.9998 25 24.9903 25 23.745H23C23 23.8857 22.8859 23.9998 22.7451 23.9998V25.9998ZM0 23.745C0 24.9904 1.00955 25.9999 2.2549 25.9999V23.9999C2.11412 23.9999 2 23.8858 2 23.745H0ZM13.5793 24.9999C13.5793 25.5563 13.1275 25.9998 12.5793 25.9998V23.9998C12.0312 23.9998 11.5793 24.4435 11.5793 24.9999H13.5793ZM11.4207 15.1176C11.4207 14.5554 11.8782 14.1178 12.4204 14.1176L12.4209 16.1176C12.9631 16.1175 13.4207 15.6798 13.4207 15.1176H11.4207ZM12.5793 25.9999C13.1316 25.9999 13.5793 25.5522 13.5793 24.9999H11.5793C11.5793 24.4476 12.027 23.9999 12.5793 23.9999V25.9999ZM12.4207 14.1175C11.8799 14.1175 11.4207 14.5539 11.4207 15.1176H13.4207C13.4207 15.6812 12.9615 16.1175 12.4207 16.1175V14.1175Z" fill="#8C8C8C"/>
</svg>
