<svg width="145" height="101" viewBox="0 0 145 101" fill="none" xmlns="http://www.w3.org/2000/svg">
<path d="M69.8056 27.4028C72.4641 27.4028 64.3589 57.6141 57.6203 82.1128C55.9587 91.341 107.857 102.217 109.406 94.3072C117.991 50.4732 123.64 42.2471 126.576 47.8366C130.73 55.7465 133.223 61.3493 142.638 50.8027C151.758 40.5879 126.106 10.7457 116.884 20.1524C103.314 33.9943 95.2855 25.9261 93.3451 20.1524C90.5758 11.9124 89.1911 3.28188 79.4986 4.0027C66.206 4.99124 60.224 6.046 52.913 16.8562C45.602 27.6663 59.7483 37.9492 61.4974 33.0056C64.2666 29.0506 67.1471 27.4028 69.8056 27.4028Z" fill="#90AB9A"/>
<path d="M3.63138 31.4902C13.3878 53.0276 7.69655 81.6127 3.63138 93.2131C2.1289 97.9187 1.08575 106.806 19.5381 95.5123C26.4312 89.931 34.3847 84.3759 47.3756 85.6629C54.0036 86.3195 65.1386 73.187 67.5247 70.2322C69.9107 67.2774 74.6794 65.6358 78.3928 65.3075C82.1062 64.9792 80.2469 63.1331 78.3928 61.9181C69.2559 56.2713 50.054 38.9119 46.3421 14.6487C41.7023 -15.6803 33.8541 9.49405 24.5754 15.732C12.9097 22.9549 -8.56411 4.56849 3.63138 31.4902Z" fill="#EAA8C4"/>
</svg>
