<svg width="169" height="118" viewBox="0 0 169 118" fill="none" xmlns="http://www.w3.org/2000/svg">
<path d="M81.1703 31.8644C84.2617 31.8644 74.8369 66.9944 67.0012 95.4817C65.069 106.212 125.417 118.859 127.218 109.661C137.201 58.6909 143.77 49.1255 147.183 55.625C152.013 64.8227 154.913 71.3378 165.861 59.074C176.465 47.1962 146.637 12.4955 135.914 23.4336C120.134 39.5291 110.799 30.1474 108.542 23.4336C105.322 13.852 103.712 3.81643 92.4415 4.65459C76.9847 5.80408 70.0287 7.03057 61.5275 19.6007C53.0262 32.1709 69.4756 44.1279 71.5095 38.3794C74.7295 33.7805 78.079 31.8644 81.1703 31.8644Z" fill="#90AB9A"/>
<path d="M4.2226 36.6171C15.5674 61.6609 8.94961 94.9 4.2226 108.389C2.47551 113.861 1.26252 124.194 22.719 111.063C30.7344 104.573 39.9829 98.113 55.0887 99.6096C62.7958 100.373 75.7437 85.1025 78.5182 81.6666C81.2928 78.2307 86.8378 76.3218 91.1558 75.9401C95.4738 75.5583 93.3118 73.4117 91.1558 71.9989C80.5313 65.4328 58.2032 45.247 53.887 17.0336C48.4917 -18.2332 39.3658 11.0398 28.5765 18.2934C15.0115 26.6921 -9.95842 5.31228 4.2226 36.6171Z" fill="#EAA8C4"/>
</svg>
